<svg id="Layer_1" data-name="Layer 1" xmlns="http://www.w3.org/2000/svg" viewBox="0 0 3300 2200"><defs><style>.cls-1{fill:#fff;}.cls-11,.cls-12,.cls-13,.cls-14,.cls-15,.cls-16,.cls-17,.cls-18,.cls-19,.cls-2,.cls-20,.cls-21,.cls-22,.cls-23,.cls-24,.cls-25,.cls-26,.cls-27,.cls-28,.cls-29,.cls-30,.cls-31,.cls-32,.cls-33,.cls-34,.cls-35,.cls-36,.cls-37,.cls-38,.cls-39,.cls-40,.cls-41,.cls-42,.cls-43,.cls-44,.cls-45,.cls-46,.cls-47,.cls-48,.cls-49,.cls-50,.cls-51,.cls-52,.cls-53,.cls-54,.cls-55,.cls-56,.cls-57,.cls-58,.cls-59,.cls-60,.cls-61,.cls-62,.cls-63,.cls-64,.cls-65{fill:none;}.cls-12,.cls-13,.cls-14,.cls-15,.cls-16,.cls-17,.cls-18,.cls-19,.cls-2,.cls-20,.cls-21,.cls-22,.cls-23,.cls-24,.cls-25,.cls-26,.cls-27,.cls-28,.cls-29,.cls-30,.cls-31,.cls-32,.cls-33,.cls-34,.cls-35,.cls-36,.cls-37,.cls-38,.cls-39,.cls-40,.cls-41,.cls-42,.cls-43,.cls-44,.cls-45,.cls-46,.cls-47,.cls-48,.cls-49,.cls-50,.cls-51,.cls-52,.cls-53,.cls-54,.cls-55,.cls-56,.cls-57,.cls-58,.cls-59,.cls-60,.cls-61,.cls-62,.cls-63,.cls-64,.cls-65{stroke:#000;}.cls-2{stroke-width:0.5px;}.cls-3,.cls-6,.cls-7{isolation:isolate;}.cls-3,.cls-6{font-size:12px;}.cls-3{font-family:Arial-BoldMT, Arial;font-weight:700;}.cls-4{letter-spacing:-0.02em;}.cls-5{letter-spacing:-0.06em;}.cls-6{font-family:ArialMT, Arial;}.cls-7{fill:#00aeef;opacity:0.4;}.cls-8{letter-spacing:-0.11em;}.cls-9{letter-spacing:-0.07em;}.cls-10{fill:#27aae1;}.cls-11{stroke:#27aae1;stroke-width:0.58px;}.cls-12,.cls-13,.cls-14,.cls-15,.cls-16,.cls-17,.cls-18,.cls-19,.cls-20,.cls-21,.cls-22,.cls-23,.cls-24,.cls-25,.cls-26,.cls-27,.cls-28,.cls-29,.cls-30,.cls-31,.cls-32,.cls-33,.cls-34,.cls-35,.cls-36,.cls-37,.cls-38,.cls-39,.cls-40,.cls-41,.cls-42,.cls-43,.cls-44,.cls-45,.cls-46,.cls-47,.cls-48,.cls-49,.cls-50,.cls-51,.cls-52,.cls-53,.cls-54,.cls-55,.cls-56,.cls-57,.cls-58,.cls-59,.cls-60,.cls-61,.cls-62,.cls-63,.cls-64,.cls-65{stroke-linejoin:round;}.cls-12,.cls-13{stroke-width:6px;}.cls-13,.cls-15,.cls-17,.cls-19,.cls-21,.cls-23,.cls-25,.cls-27,.cls-29,.cls-31,.cls-33,.cls-35,.cls-37,.cls-39,.cls-41,.cls-43,.cls-45,.cls-47,.cls-49,.cls-51,.cls-53,.cls-55,.cls-57,.cls-59,.cls-61,.cls-63,.cls-65{stroke-linecap:round;}.cls-14,.cls-15{stroke-width:8.09px;}.cls-16,.cls-17{stroke-width:7.54px;}.cls-18,.cls-19{stroke-width:7px;}.cls-20,.cls-21{stroke-width:5.01px;}.cls-22,.cls-23{stroke-width:4px;}.cls-24,.cls-25{stroke-width:3px;}.cls-26,.cls-27{stroke-width:6.5px;}.cls-28,.cls-29{stroke-width:8.62px;}.cls-30,.cls-31{stroke-width:2.34px;}.cls-32,.cls-33{stroke-width:3.11px;}.cls-34,.cls-35{stroke-width:3.87px;}.cls-36,.cls-37{stroke-width:4.66px;}.cls-38,.cls-39{stroke-width:6.17px;}.cls-40,.cls-41{stroke-width:5.79px;}.cls-42,.cls-43{stroke-width:5.44px;}.cls-44,.cls-45{stroke-width:5.06px;}.cls-46,.cls-47{stroke-width:6.54px;}.cls-48,.cls-49{stroke-width:7.89px;}.cls-50,.cls-51{stroke-width:10.58px;}.cls-52,.cls-53{stroke-width:9.27px;}.cls-54,.cls-55{stroke-width:6.54px;}.cls-56,.cls-57{stroke-width:5.22px;}.cls-58,.cls-59{stroke-width:3.92px;}.cls-60,.cls-61{stroke-width:8.58px;}.cls-62,.cls-63{stroke-width:11.27px;}.cls-64,.cls-65{stroke-width:10.06px;}</style></defs><title>food10</title><g id="Notes"><rect id="artboard" class="cls-1" width="3300" height="2200"/><line class="cls-2" x1="263" y1="292" x2="3036" y2="292"/><text class="cls-3" transform="translate(263 322)"><tspan class="cls-4">W</tspan><tspan x="11.11" y="0">eight/Scale </tspan><tspan class="cls-5" x="77.8" y="0">V</tspan><tspan x="85.14" y="0">ariations</tspan></text><text class="cls-6" transform="translate(536.04 322)">Ultralight</text><text class="cls-6" transform="translate(844.75 322)">Thin</text><text class="cls-6" transform="translate(1140.12 322)">Light</text><text class="cls-6" transform="translate(1428.83 322)">Regular</text><text class="cls-6" transform="translate(1725.22 322)">Medium</text><text class="cls-6" transform="translate(2018.26 322)">Semibold</text><text class="cls-6" transform="translate(2327.97 322)">Bold</text><text class="cls-6" transform="translate(2619.68 322)">Heavy</text><text class="cls-6" transform="translate(2918.73 322)">Black</text><line class="cls-2" x1="263" y1="1903" x2="3036" y2="1903"/><path d="M146.25,1950.7a7.9,7.9,0,1,0-7.9-7.9A8,8,0,0,0,146.25,1950.7Zm0-1.5a6.4,6.4,0,1,1,6.4-6.4A6.26,6.26,0,0,1,146.25,1949.2Zm0-2.7c.5,0,.7-.3.7-.8v-2.1h2.2c.6,0,.9-.3.9-.7s-.3-.7-.8-.7h-2.2v-2.3a.71.71,0,0,0-.7-.8.79.79,0,0,0-.8.8v2.2h-2.2a.82.82,0,0,0-.9.8.71.71,0,0,0,.8.7h2.2v2.1C145.55,1946.1,145.85,1946.5,146.25,1946.5Z" transform="translate(125.95 -16.9)"/><path d="M167.26,1952.8a10,10,0,1,0-10-10A10.09,10.09,0,0,0,167.26,1952.8Zm0-1.7a8.3,8.3,0,1,1,8.3-8.3A8.28,8.28,0,0,1,167.26,1951.1Zm0-3.6a.82.82,0,0,0,.8-.9v-2.9h3.1a.81.81,0,1,0,0-1.6h-3.1V1939c0-.6-.3-.9-.8-.9a.82.82,0,0,0-.8.9v3.1h-3a.77.77,0,0,0-1,.8.82.82,0,0,0,.9.8h3v2.9C166.46,1947.1,166.76,1947.5,167.26,1947.5Z" transform="translate(125.95 -16.9)"/><path d="M194,1955.6a12.7,12.7,0,1,0,0-25.4,12.65,12.65,0,0,0-12.7,12.7A12.78,12.78,0,0,0,194,1955.6Zm0-1.8a10.9,10.9,0,1,1,10.9-10.9A10.86,10.86,0,0,1,194,1953.8Zm0-5c.6,0,.9-.4.9-1v-4.1h4.2c.6,0,1-.3,1-.9s-.4-.9-1-.9h-4.2v-4.2a.92.92,0,0,0-.9-1c-.6,0-.9.4-.9,1v4.2h-4.3c-.6,0-1,.3-1,.9s.4.9,1,.9H193v4.1C193.07,1948.4,193.37,1948.8,194,1948.8Z" transform="translate(125.95 -16.9)"/><text class="cls-3" transform="translate(263 1953)">Design <tspan class="cls-5" x="43.34" y="0">V</tspan><tspan x="50.68" y="0">ariations</tspan></text><text class="cls-6" transform="translate(263 1971)">Symbols are supported in up to nine weights and three scales.</text><text class="cls-6" transform="translate(263 1989)">For optimal layout with text and other symbols, vertically align</text><text class="cls-6" transform="translate(263 2007)">symbols with the adjacent text.</text><rect class="cls-7" x="776" y="1919" width="3" height="14"/><path d="M663.55,1949.9h1.8l-5.1-14.1h-1.8l-5.2,14.1h1.8l1.4-4h5.6Zm-4.2-12h0l2.3,6.4h-4.6Z" transform="translate(125.95 -16.9)"/><rect class="cls-7" x="791.6" y="1919" width="3" height="14"/><text class="cls-3" transform="translate(776 1953)">Margins</text><text class="cls-6" transform="translate(776 1971)">Leading and trailing margins on the left and right side of each symbol</text><text class="cls-6" transform="translate(776 1989)">can be adjusted by modifying the width of the blue rectangles.</text><text class="cls-6" transform="translate(776 2007)">Modifications are automatically applied proportionally to all</text><text class="cls-6" transform="translate(776 2025)">scales and weights.</text><path d="M1165.85,1953l1.5,1.5a1.7,1.7,0,0,0,2.7-.2l10.3-11.1a1.48,1.48,0,0,0,1.3.2l1-.2.7.7v.5a1.84,1.84,0,0,0,.5,1.5l.8.8a1.12,1.12,0,0,0,1.6.1l3.3-3.3a1,1,0,0,0,0-1.6l-.8-.8a1.49,1.49,0,0,0-1.4-.6l-.5.1-.7-.7.3-1.1a1.59,1.59,0,0,0-.6-1.6l-2.4-2.4c-3.5-3.5-8.1-3.4-11.2-.3a1.09,1.09,0,0,0-.2,1.4c.2.4.7.6,1.4.4a5.25,5.25,0,0,1,4.5.7l-.6,1.6a1.93,1.93,0,0,0,0,1.5l-11.3,10.2A1.76,1.76,0,0,0,1165.85,1953Zm7.9-18.2a6.2,6.2,0,0,1,8.4.7l2.6,2.6a.62.62,0,0,1,.2.7l-.4,1.6,1.6,1.5h.9c.3,0,.4,0,.6.2l.6.6-2.8,2.7-.6-.6c-.2-.2-.2-.3-.2-.6l.1-1-1.6-1.6-1.6.3c-.3.1-.4.1-.7-.2l-2.2-2.2a.48.48,0,0,1-.1-.7l.9-2.3c-1.6-1.5-3.7-2.4-5.8-1.7h-.2C1173.65,1934.9,1173.65,1934.8,1173.75,1934.8Zm-6.6,17.5c-.5-.5-.3-.8,0-1.1l11-10.1,1.2,1.2-10.1,10.9a.71.71,0,0,1-1.1,0Z" transform="translate(125.95 -16.9)"/><text class="cls-3" transform="translate(1289 1953)">Exporting</text><text class="cls-6" transform="translate(1289 1971)">Symbols should be outlined when exporting to ensure the</text><text class="cls-6" transform="translate(1289 1989)">design is preserved when submitting to Xcode.</text><text id="template-version" class="cls-6" transform="translate(2958.85 1933)"><tspan class="cls-8">T</tspan><tspan x="6" y="0">emplate </tspan><tspan class="cls-9" x="52.03" y="0">v</tspan><tspan x="57.13" y="0">.1.0</tspan></text><text class="cls-6" transform="translate(2901.93 1951)">Generated from person.2</text><text class="cls-6" transform="translate(2921.92 1969)"><tspan class="cls-5">T</tspan><tspan x="6.67" y="0">ypeset at 100 points</tspan></text><text class="cls-6" transform="translate(263 726)">Small</text><text class="cls-6" transform="translate(263 1156)">Medium</text><text class="cls-6" transform="translate(263 1586)">Large</text></g><g id="Guides"><g id="H-reference"><path class="cls-10" d="M393.9,696h2.7l-27-70.5h-2.5L340,696h2.7l9.3-24.5h32.8Zm-25.7-67.1h.2l15.4,40.4h-31Z" transform="translate(125.95 -16.9)"/></g><line id="Baseline-S" class="cls-11" x1="388.95" y1="679.1" x2="3161.95" y2="679.1"/><line id="Capline-S" class="cls-11" x1="388.95" y1="608.6" x2="3161.95" y2="608.6"/><g id="H-reference-2" data-name="H-reference"><path class="cls-10" d="M393.9,1126h2.7l-27-70.5h-2.5L340,1126h2.7l9.3-24.5h32.8Zm-25.7-67.1h.2l15.4,40.4h-31Z" transform="translate(125.95 -16.9)"/></g><line id="Baseline-M" class="cls-11" x1="388.95" y1="1109.1" x2="3161.95" y2="1109.1"/><line id="Capline-M" class="cls-11" x1="388.95" y1="1038.6" x2="3161.95" y2="1038.6"/><g id="H-reference-3" data-name="H-reference"><path class="cls-10" d="M393.9,1556h2.7l-27-70.5h-2.5L340,1556h2.7l9.3-24.5h32.8Zm-25.7-67.1h.2l15.4,40.4h-31Z" transform="translate(125.95 -16.9)"/></g><line id="Baseline-L" class="cls-11" x1="388.95" y1="1539.1" x2="3161.95" y2="1539.1"/><line id="Capline-L" class="cls-11" x1="388.95" y1="1468.6" x2="3161.95" y2="1468.6"/><rect id="left-margin" class="cls-7" x="1495.35" y="1013.9" width="12.5" height="119.3"/><rect id="right-margin" class="cls-7" x="1643.75" y="1013.9" width="12.5" height="119.3"/></g><g id="Symbols"><g id="Regular-M"><path class="cls-12" d="M1514.35,1122.7v6.8c0,5.3-28.92,14.1-64.51,14.1s-64.52-8.8-64.52-13.9v-6.8c0-15.2,10.88-29.2,27.94-37.1a142.31,142.31,0,0,1,2.16,23.2,4.51,4.51,0,0,0,4.31,4.6,4.45,4.45,0,0,0,4.32-4.6,147.62,147.62,0,0,0-2.16-25.5,87.13,87.13,0,0,1,21.47-3.7,125.66,125.66,0,0,1,4.32,33.7,4.51,4.51,0,0,0,4.31,4.6,4.45,4.45,0,0,0,4.32-4.6,130.24,130.24,0,0,0-4.32-33.7c8.14.2,16.18.3,23.24,2.4a134.7,134.7,0,0,1,2.55,26.6,4.51,4.51,0,0,0,4.31,4.6,4.45,4.45,0,0,0,4.32-4.6,141.28,141.28,0,0,0-2.16-23.2C1502.1,1093.4,1514.35,1107.1,1514.35,1122.7Z" transform="translate(125.95 -16.9)"/><path class="cls-13" d="M1452.09,1034.5c0,9.3-8.63,9.3-8.63,18.6s8.63,9.3,8.63,18.6" transform="translate(125.95 -16.9)"/><path class="cls-13" d="M1408.85,1048.4c0,.9-8.63,7.9-8.63,14.9,0,7.5,8.63,7.5,8.63,14.9" transform="translate(125.95 -16.9)"/><path class="cls-13" d="M1492.78,1052.6c0,.9-8.63,7.9-8.63,14.9,0,7.5,8.63,7.5,8.63,14.9" transform="translate(125.95 -16.9)"/><path class="cls-13" d="M1471.31,1043.2c0,.9-8.63,7.9-8.63,14.9,0,7.5,8.63,7.5,8.63,14.9" transform="translate(125.95 -16.9)"/><line class="cls-13" x1="1547.74" y1="1045.3" x2="1549.9" y2="1047.1"/><line class="cls-13" x1="1556.37" y1="1047.1" x2="1558.53" y2="1045.3"/><line class="cls-13" x1="1549.9" y1="1052.7" x2="1547.74" y2="1054.6"/><line class="cls-13" x1="1556.37" y1="1052.7" x2="1558.53" y2="1054.6"/><line class="cls-13" x1="1605.3" y1="1019.3" x2="1607.46" y2="1021.2"/><line class="cls-13" x1="1613.93" y1="1021.2" x2="1615.99" y2="1019.3"/><line class="cls-13" x1="1607.46" y1="1026.8" x2="1605.3" y2="1028.6"/><line class="cls-13" x1="1613.93" y1="1026.8" x2="1615.99" y2="1028.6"/><line class="cls-13" x1="1627.56" y1="1054.6" x2="1629.71" y2="1056.4"/><line class="cls-13" x1="1636.19" y1="1056.4" x2="1638.34" y2="1054.6"/><line class="cls-13" x1="1629.71" y1="1062" x2="1627.56" y2="1063.9"/><line class="cls-13" x1="1636.19" y1="1062" x2="1638.34" y2="1063.9"/></g><g id="Heavy-M"><path class="cls-14" d="M2702.69,1122.7v6.8c0,5.3-29.59,14.1-66,14.1s-66-8.8-66-13.9v-6.8c0-15.2,11.13-29.2,28.59-37.1a139.11,139.11,0,0,1,2.2,23.2,4.56,4.56,0,0,0,4.42,4.6,4.49,4.49,0,0,0,4.41-4.6,143.8,143.8,0,0,0-2.21-25.5,91,91,0,0,1,22-3.7,123.39,123.39,0,0,1,4.41,33.7,4.56,4.56,0,0,0,4.42,4.6,4.49,4.49,0,0,0,4.41-4.6,127.38,127.38,0,0,0-4.41-33.7c8.32.2,16.55.3,23.77,2.4a132.54,132.54,0,0,1,2.61,26.6,4.55,4.55,0,0,0,4.41,4.6,4.49,4.49,0,0,0,4.41-4.6,138.11,138.11,0,0,0-2.2-23.2C2690.15,1093.4,2702.69,1107.1,2702.69,1122.7Z" transform="translate(125.95 -16.9)"/><path class="cls-15" d="M2639,1034.5c0,9.3-8.83,9.3-8.83,18.6s8.83,9.3,8.83,18.6" transform="translate(125.95 -16.9)"/><path class="cls-15" d="M2594.76,1048.4c0,.9-8.82,7.9-8.82,14.9,0,7.5,8.82,7.5,8.82,14.9" transform="translate(125.95 -16.9)"/><path class="cls-15" d="M2680.62,1052.6c0,.9-8.82,7.9-8.82,14.9,0,7.5,8.82,7.5,8.82,14.9" transform="translate(125.95 -16.9)"/><path class="cls-15" d="M2658.66,1043.2c0,.9-8.83,7.9-8.83,14.9,0,7.5,8.83,7.5,8.83,14.9" transform="translate(125.95 -16.9)"/><line class="cls-15" x1="2733.95" y1="1045.3" x2="2736.16" y2="1047.1"/><line class="cls-15" x1="2742.78" y1="1047.1" x2="2744.99" y2="1045.3"/><line class="cls-15" x1="2736.16" y1="1052.7" x2="2733.95" y2="1054.6"/><line class="cls-15" x1="2742.78" y1="1052.7" x2="2744.99" y2="1054.6"/><line class="cls-15" x1="2792.83" y1="1019.3" x2="2795.04" y2="1021.2"/><line class="cls-15" x1="2801.66" y1="1021.2" x2="2803.76" y2="1019.3"/><line class="cls-15" x1="2795.04" y1="1026.8" x2="2792.83" y2="1028.6"/><line class="cls-15" x1="2801.66" y1="1026.8" x2="2803.76" y2="1028.6"/><line class="cls-15" x1="2815.6" y1="1054.6" x2="2817.81" y2="1056.4"/><line class="cls-15" x1="2824.43" y1="1056.4" x2="2826.63" y2="1054.6"/><line class="cls-15" x1="2817.81" y1="1062" x2="2815.6" y2="1063.9"/><line class="cls-15" x1="2824.43" y1="1062" x2="2826.63" y2="1063.9"/></g><g id="Bold-M"><path class="cls-16" d="M2405.19,1122.7v6.8c0,5.3-29.25,14.1-65.25,14.1s-65.25-8.8-65.25-13.9v-6.8c0-15.2,11-29.2,28.26-37.1a140.15,140.15,0,0,1,2.18,23.2,4.54,4.54,0,0,0,4.37,4.6,4.47,4.47,0,0,0,4.36-4.6,145.68,145.68,0,0,0-2.18-25.5,89,89,0,0,1,21.72-3.7,124.9,124.9,0,0,1,4.36,33.7,4.53,4.53,0,0,0,4.36,4.6,4.47,4.47,0,0,0,4.36-4.6,128.58,128.58,0,0,0-4.36-33.7c8.23.2,16.36.3,23.5,2.4a133.24,133.24,0,0,1,2.58,26.6,4.54,4.54,0,0,0,4.36,4.6,4.47,4.47,0,0,0,4.37-4.6,140.21,140.21,0,0,0-2.18-23.2C2392.79,1093.4,2405.19,1107.1,2405.19,1122.7Z" transform="translate(125.95 -16.9)"/><path class="cls-17" d="M2342.22,1034.5c0,9.3-8.73,9.3-8.73,18.6s8.73,9.3,8.73,18.6" transform="translate(125.95 -16.9)"/><path class="cls-17" d="M2298.49,1048.4c0,.9-8.73,7.9-8.73,14.9,0,7.5,8.73,7.5,8.73,14.9" transform="translate(125.95 -16.9)"/><path class="cls-17" d="M2383.37,1052.6c0,.9-8.72,7.9-8.72,14.9,0,7.5,8.72,7.5,8.72,14.9" transform="translate(125.95 -16.9)"/><path class="cls-17" d="M2361.66,1043.2c0,.9-8.73,7.9-8.73,14.9,0,7.5,8.73,7.5,8.73,14.9" transform="translate(125.95 -16.9)"/><line class="cls-17" x1="2437.53" y1="1045.3" x2="2439.71" y2="1047.1"/><line class="cls-17" x1="2446.26" y1="1047.1" x2="2448.44" y2="1045.3"/><line class="cls-17" x1="2439.71" y1="1052.7" x2="2437.53" y2="1054.6"/><line class="cls-17" x1="2446.26" y1="1052.7" x2="2448.44" y2="1054.6"/><line class="cls-17" x1="2495.74" y1="1019.3" x2="2497.92" y2="1021.2"/><line class="cls-17" x1="2504.46" y1="1021.2" x2="2506.55" y2="1019.3"/><line class="cls-17" x1="2497.92" y1="1026.8" x2="2495.74" y2="1028.6"/><line class="cls-17" x1="2504.46" y1="1026.8" x2="2506.55" y2="1028.6"/><line class="cls-17" x1="2518.25" y1="1054.6" x2="2520.43" y2="1056.4"/><line class="cls-17" x1="2526.98" y1="1056.4" x2="2529.16" y2="1054.6"/><line class="cls-17" x1="2520.43" y1="1062" x2="2518.25" y2="1063.9"/><line class="cls-17" x1="2526.98" y1="1062" x2="2529.16" y2="1063.9"/></g><g id="Semibold-M"><path class="cls-18" d="M2107.79,1122.7v6.8c0,5.3-28.93,14.1-64.52,14.1s-64.52-8.8-64.52-13.9v-6.8c0-15.2,10.88-29.2,28-37.1a141.2,141.2,0,0,1,2.15,23.2,4.51,4.51,0,0,0,4.32,4.6,4.44,4.44,0,0,0,4.31-4.6,146.64,146.64,0,0,0-2.16-25.5,87.2,87.2,0,0,1,21.48-3.7,126.06,126.06,0,0,1,4.31,33.7,4.51,4.51,0,0,0,4.32,4.6,4.44,4.44,0,0,0,4.31-4.6,130.23,130.23,0,0,0-4.31-33.7c8.14.2,16.18.3,23.24,2.4a135.45,135.45,0,0,1,2.55,26.6,4.51,4.51,0,0,0,4.31,4.6,4.44,4.44,0,0,0,4.31-4.6,140.19,140.19,0,0,0-2.15-23.2C2095.53,1093.4,2107.79,1107.1,2107.79,1122.7Z" transform="translate(125.95 -16.9)"/><path class="cls-19" d="M2045.53,1034.5c0,9.3-8.63,9.3-8.63,18.6s8.63,9.3,8.63,18.6" transform="translate(125.95 -16.9)"/><path class="cls-19" d="M2002.28,1048.4c0,.9-8.62,7.9-8.62,14.9,0,7.5,8.62,7.5,8.62,14.9" transform="translate(125.95 -16.9)"/><path class="cls-19" d="M2086.22,1052.6c0,.9-8.63,7.9-8.63,14.9,0,7.5,8.63,7.5,8.63,14.9" transform="translate(125.95 -16.9)"/><path class="cls-19" d="M2064.74,1043.2c0,.9-8.63,7.9-8.63,14.9,0,7.5,8.63,7.5,8.63,14.9" transform="translate(125.95 -16.9)"/><line class="cls-19" x1="2141.18" y1="1045.3" x2="2143.33" y2="1047.1"/><line class="cls-19" x1="2149.81" y1="1047.1" x2="2151.96" y2="1045.3"/><line class="cls-19" x1="2143.33" y1="1052.7" x2="2141.18" y2="1054.6"/><line class="cls-19" x1="2149.81" y1="1052.7" x2="2151.96" y2="1054.6"/><line class="cls-19" x1="2198.73" y1="1019.3" x2="2200.89" y2="1021.2"/><line class="cls-19" x1="2207.36" y1="1021.2" x2="2209.42" y2="1019.3"/><line class="cls-19" x1="2200.89" y1="1026.8" x2="2198.73" y2="1028.6"/><line class="cls-19" x1="2207.36" y1="1026.8" x2="2209.42" y2="1028.6"/><line class="cls-19" x1="2220.99" y1="1054.6" x2="2223.15" y2="1056.4"/><line class="cls-19" x1="2229.62" y1="1056.4" x2="2231.78" y2="1054.6"/><line class="cls-19" x1="2223.15" y1="1062" x2="2220.99" y2="1063.9"/><line class="cls-19" x1="2229.62" y1="1062" x2="2231.78" y2="1063.9"/></g><g id="Light-M"><path class="cls-20" d="M1218,1122.66v6.79c0,5.3-29.1,14.09-64.9,14.09s-64.9-8.79-64.9-13.89v-6.79c0-15.18,11-29.17,28.11-37.06a141,141,0,0,1,2.17,23.18,4.52,4.52,0,0,0,4.34,4.59,4.45,4.45,0,0,0,4.34-4.59,146.3,146.3,0,0,0-2.17-25.47,88.07,88.07,0,0,1,21.6-3.7,125,125,0,0,1,4.34,33.66,4.52,4.52,0,0,0,4.34,4.6,4.46,4.46,0,0,0,4.34-4.6,129.1,129.1,0,0,0-4.34-33.66c8.19.2,16.27.3,23.38,2.4a134.41,134.41,0,0,1,2.56,26.57,4.52,4.52,0,0,0,4.34,4.59,4.45,4.45,0,0,0,4.34-4.59,140.07,140.07,0,0,0-2.17-23.18C1205.7,1093.39,1218,1107.08,1218,1122.66Z" transform="translate(125.95 -16.9)"/><path class="cls-21" d="M1155.4,1034.56c0,9.29-8.68,9.29-8.68,18.58s8.68,9.29,8.68,18.58" transform="translate(125.95 -16.9)"/><path class="cls-21" d="M1111.9,1048.45c0,.9-8.68,7.89-8.68,14.88,0,7.49,8.68,7.49,8.68,14.88" transform="translate(125.95 -16.9)"/><path class="cls-21" d="M1196.33,1052.64c0,.9-8.68,7.89-8.68,14.89,0,7.49,8.68,7.49,8.68,14.88" transform="translate(125.95 -16.9)"/><path class="cls-21" d="M1174.73,1043.25c0,.9-8.68,7.89-8.68,14.89,0,7.49,8.68,7.49,8.68,14.88" transform="translate(125.95 -16.9)"/><line class="cls-21" x1="1250.87" y1="1045.33" x2="1253.04" y2="1047.13"/><line class="cls-21" x1="1259.55" y1="1047.13" x2="1261.72" y2="1045.33"/><line class="cls-21" x1="1253.04" y1="1052.72" x2="1250.87" y2="1054.62"/><line class="cls-21" x1="1259.55" y1="1052.72" x2="1261.72" y2="1054.62"/><line class="cls-21" x1="1308.77" y1="1019.36" x2="1310.94" y2="1021.26"/><line class="cls-21" x1="1317.45" y1="1021.26" x2="1319.52" y2="1019.36"/><line class="cls-21" x1="1310.94" y1="1026.85" x2="1308.77" y2="1028.65"/><line class="cls-21" x1="1317.45" y1="1026.85" x2="1319.52" y2="1028.65"/><line class="cls-21" x1="1331.16" y1="1054.62" x2="1333.33" y2="1056.42"/><line class="cls-21" x1="1339.84" y1="1056.42" x2="1342.01" y2="1054.62"/><line class="cls-21" x1="1333.33" y1="1062.01" x2="1331.16" y2="1063.91"/><line class="cls-21" x1="1339.84" y1="1062.01" x2="1342.01" y2="1063.91"/></g><g id="Thin-M"><path class="cls-22" d="M921,1122.7v6.8c0,5.3-28.92,14.1-64.52,14.1S792,1134.8,792,1129.7v-6.8c0-15.2,10.89-29.2,27.95-37.1a142.31,142.31,0,0,1,2.16,23.2,4.51,4.51,0,0,0,4.31,4.6,4.45,4.45,0,0,0,4.32-4.6,147.62,147.62,0,0,0-2.16-25.5,87.13,87.13,0,0,1,21.47-3.7,126.47,126.47,0,0,1,4.32,33.7,4.51,4.51,0,0,0,4.31,4.6,4.44,4.44,0,0,0,4.31-4.6,130.23,130.23,0,0,0-4.31-33.7c8.14.2,16.18.3,23.24,2.4a135.45,135.45,0,0,1,2.55,26.6,4.51,4.51,0,0,0,4.31,4.6,4.45,4.45,0,0,0,4.32-4.6,141.28,141.28,0,0,0-2.16-23.2C908.74,1093.4,921,1107.1,921,1122.7Z" transform="translate(125.95 -16.9)"/><path class="cls-23" d="M858.73,1034.5c0,9.3-8.63,9.3-8.63,18.6s8.63,9.3,8.63,18.6" transform="translate(125.95 -16.9)"/><path class="cls-23" d="M815.49,1048.4c0,.9-8.63,7.9-8.63,14.9,0,7.5,8.63,7.5,8.63,14.9" transform="translate(125.95 -16.9)"/><path class="cls-23" d="M899.42,1052.6c0,.9-8.63,7.9-8.63,14.9,0,7.5,8.63,7.5,8.63,14.9" transform="translate(125.95 -16.9)"/><path class="cls-23" d="M878,1043.2c0,.9-8.63,7.9-8.63,14.9,0,7.5,8.63,7.5,8.63,14.9" transform="translate(125.95 -16.9)"/><line class="cls-23" x1="954.38" y1="1045.3" x2="956.54" y2="1047.1"/><line class="cls-23" x1="963.01" y1="1047.1" x2="965.17" y2="1045.3"/><line class="cls-23" x1="956.54" y1="1052.7" x2="954.38" y2="1054.6"/><line class="cls-23" x1="963.01" y1="1052.7" x2="965.17" y2="1054.6"/><line class="cls-23" x1="1011.94" y1="1019.3" x2="1014.09" y2="1021.2"/><line class="cls-23" x1="1020.57" y1="1021.2" x2="1022.62" y2="1019.3"/><line class="cls-23" x1="1014.09" y1="1026.8" x2="1011.94" y2="1028.6"/><line class="cls-23" x1="1020.57" y1="1026.8" x2="1022.62" y2="1028.6"/><line class="cls-23" x1="1034.19" y1="1054.6" x2="1036.35" y2="1056.4"/><line class="cls-23" x1="1042.82" y1="1056.4" x2="1044.98" y2="1054.6"/><line class="cls-23" x1="1036.35" y1="1062" x2="1034.19" y2="1063.9"/><line class="cls-23" x1="1042.82" y1="1062" x2="1044.98" y2="1063.9"/></g><g id="Ultralight-M"><path class="cls-24" d="M624.25,1122.7v6.8c0,5.3-28.93,14.1-64.52,14.1s-64.52-8.8-64.52-13.9v-6.8c0-15.2,10.88-29.2,27.94-37.1a141.21,141.21,0,0,1,2.16,23.2,4.51,4.51,0,0,0,4.32,4.6,4.44,4.44,0,0,0,4.31-4.6,147.62,147.62,0,0,0-2.16-25.5,87.12,87.12,0,0,1,21.48-3.7,126.06,126.06,0,0,1,4.31,33.7,4.51,4.51,0,0,0,4.32,4.6,4.44,4.44,0,0,0,4.31-4.6,130.23,130.23,0,0,0-4.31-33.7c8.13.2,16.17.3,23.23,2.4a134.7,134.7,0,0,1,2.55,26.6,4.51,4.51,0,0,0,4.32,4.6,4.44,4.44,0,0,0,4.31-4.6,140.2,140.2,0,0,0-2.16-23.2C612,1093.4,624.25,1107.1,624.25,1122.7Z" transform="translate(125.95 -16.9)"/><path class="cls-25" d="M562,1034.5c0,9.3-8.63,9.3-8.63,18.6s8.63,9.3,8.63,18.6" transform="translate(125.95 -16.9)"/><path class="cls-25" d="M518.74,1048.4c0,.9-8.63,7.9-8.63,14.9,0,7.5,8.63,7.5,8.63,14.9" transform="translate(125.95 -16.9)"/><path class="cls-25" d="M602.68,1052.6c0,.9-8.63,7.9-8.63,14.9,0,7.5,8.63,7.5,8.63,14.9" transform="translate(125.95 -16.9)"/><path class="cls-25" d="M581.2,1043.2c0,.9-8.63,7.9-8.63,14.9,0,7.5,8.63,7.5,8.63,14.9" transform="translate(125.95 -16.9)"/><line class="cls-25" x1="657.63" y1="1045.3" x2="659.79" y2="1047.1"/><line class="cls-25" x1="666.26" y1="1047.1" x2="668.42" y2="1045.3"/><line class="cls-25" x1="659.79" y1="1052.7" x2="657.63" y2="1054.6"/><line class="cls-25" x1="666.26" y1="1052.7" x2="668.42" y2="1054.6"/><line class="cls-25" x1="715.19" y1="1019.3" x2="717.35" y2="1021.2"/><line class="cls-25" x1="723.82" y1="1021.2" x2="725.88" y2="1019.3"/><line class="cls-25" x1="717.35" y1="1026.8" x2="715.19" y2="1028.6"/><line class="cls-25" x1="723.82" y1="1026.8" x2="725.88" y2="1028.6"/><line class="cls-25" x1="737.45" y1="1054.6" x2="739.61" y2="1056.4"/><line class="cls-25" x1="746.08" y1="1056.4" x2="748.24" y2="1054.6"/><line class="cls-25" x1="739.61" y1="1062" x2="737.45" y2="1063.9"/><line class="cls-25" x1="746.08" y1="1062" x2="748.24" y2="1063.9"/></g><g id="Medium-M"><path class="cls-26" d="M1811,1122.7v6.8c0,5.3-28.93,14.1-64.52,14.1s-64.52-8.8-64.52-13.9v-6.8c0-15.2,10.88-29.2,28-37.1a141.2,141.2,0,0,1,2.15,23.2,4.51,4.51,0,0,0,4.32,4.6,4.44,4.44,0,0,0,4.31-4.6,146.64,146.64,0,0,0-2.16-25.5,87.2,87.2,0,0,1,21.48-3.7,126.06,126.06,0,0,1,4.31,33.7,4.51,4.51,0,0,0,4.32,4.6,4.44,4.44,0,0,0,4.31-4.6,130.23,130.23,0,0,0-4.31-33.7c8.14.2,16.18.3,23.24,2.4a135.45,135.45,0,0,1,2.55,26.6,4.51,4.51,0,0,0,4.31,4.6,4.44,4.44,0,0,0,4.31-4.6,140.19,140.19,0,0,0-2.15-23.2C1798.78,1093.4,1811,1107.1,1811,1122.7Z" transform="translate(125.95 -16.9)"/><path class="cls-27" d="M1748.78,1034.5c0,9.3-8.63,9.3-8.63,18.6s8.63,9.3,8.63,18.6" transform="translate(125.95 -16.9)"/><path class="cls-27" d="M1705.53,1048.4c0,.9-8.62,7.9-8.62,14.9,0,7.5,8.62,7.5,8.62,14.9" transform="translate(125.95 -16.9)"/><path class="cls-27" d="M1789.47,1052.6c0,.9-8.63,7.9-8.63,14.9,0,7.5,8.63,7.5,8.63,14.9" transform="translate(125.95 -16.9)"/><path class="cls-27" d="M1768,1043.2c0,.9-8.63,7.9-8.63,14.9,0,7.5,8.63,7.5,8.63,14.9" transform="translate(125.95 -16.9)"/><line class="cls-27" x1="1844.43" y1="1045.3" x2="1846.58" y2="1047.1"/><line class="cls-27" x1="1853.06" y1="1047.1" x2="1855.21" y2="1045.3"/><line class="cls-27" x1="1846.58" y1="1052.7" x2="1844.43" y2="1054.6"/><line class="cls-27" x1="1853.06" y1="1052.7" x2="1855.21" y2="1054.6"/><line class="cls-27" x1="1901.98" y1="1019.3" x2="1904.14" y2="1021.2"/><line class="cls-27" x1="1910.61" y1="1021.2" x2="1912.67" y2="1019.3"/><line class="cls-27" x1="1904.14" y1="1026.8" x2="1901.98" y2="1028.6"/><line class="cls-27" x1="1910.61" y1="1026.8" x2="1912.67" y2="1028.6"/><line class="cls-27" x1="1924.24" y1="1054.6" x2="1926.4" y2="1056.4"/><line class="cls-27" x1="1932.87" y1="1056.4" x2="1935.03" y2="1054.6"/><line class="cls-27" x1="1926.4" y1="1062" x2="1924.24" y2="1063.9"/><line class="cls-27" x1="1932.87" y1="1062" x2="1935.03" y2="1063.9"/></g><g id="Black-M"><path class="cls-28" d="M2999.82,1122.7v6.8c0,5.3-29.77,14.1-66.4,14.1s-66.4-8.8-66.4-13.9v-6.8c0-15.2,11.2-29.2,28.76-37.1A138.08,138.08,0,0,1,2898,1109a4.57,4.57,0,0,0,4.44,4.6,4.5,4.5,0,0,0,4.44-4.6,143.81,143.81,0,0,0-2.22-25.5,92,92,0,0,1,22.1-3.7,122.65,122.65,0,0,1,4.44,33.7,4.57,4.57,0,0,0,4.44,4.6,4.5,4.5,0,0,0,4.44-4.6,126.59,126.59,0,0,0-4.44-33.7c8.38.2,16.65.3,23.92,2.4a131.83,131.83,0,0,1,2.62,26.6,4.57,4.57,0,0,0,4.44,4.6,4.5,4.5,0,0,0,4.44-4.6,137.09,137.09,0,0,0-2.22-23.2C2987.21,1093.4,2999.82,1107.1,2999.82,1122.7Z" transform="translate(125.95 -16.9)"/><path class="cls-29" d="M2935.74,1034.5c0,9.3-8.88,9.3-8.88,18.6s8.88,9.3,8.88,18.6" transform="translate(125.95 -16.9)"/><path class="cls-29" d="M2891.24,1048.4c0,.9-8.88,7.9-8.88,14.9,0,7.5,8.88,7.5,8.88,14.9" transform="translate(125.95 -16.9)"/><path class="cls-29" d="M2977.62,1052.6c0,.9-8.88,7.9-8.88,14.9,0,7.5,8.88,7.5,8.88,14.9" transform="translate(125.95 -16.9)"/><path class="cls-29" d="M2955.52,1043.2c0,.9-8.88,7.9-8.88,14.9,0,7.5,8.88,7.5,8.88,14.9" transform="translate(125.95 -16.9)"/><line class="cls-29" x1="3030.51" y1="1045.3" x2="3032.73" y2="1047.1"/><line class="cls-29" x1="3039.39" y1="1047.1" x2="3041.61" y2="1045.3"/><line class="cls-29" x1="3032.73" y1="1052.7" x2="3030.51" y2="1054.6"/><line class="cls-29" x1="3039.39" y1="1052.7" x2="3041.61" y2="1054.6"/><line class="cls-29" x1="3089.74" y1="1019.3" x2="3091.96" y2="1021.2"/><line class="cls-29" x1="3098.62" y1="1021.2" x2="3100.74" y2="1019.3"/><line class="cls-29" x1="3091.96" y1="1026.8" x2="3089.74" y2="1028.6"/><line class="cls-29" x1="3098.62" y1="1026.8" x2="3100.74" y2="1028.6"/><line class="cls-29" x1="3112.65" y1="1054.6" x2="3114.87" y2="1056.4"/><line class="cls-29" x1="3121.53" y1="1056.4" x2="3123.75" y2="1054.6"/><line class="cls-29" x1="3114.87" y1="1062" x2="3112.65" y2="1063.9"/><line class="cls-29" x1="3121.53" y1="1062" x2="3123.75" y2="1063.9"/></g><g id="Ultralight-S"><path class="cls-30" d="M610.25,686.59v5.28c0,4.12-22.64,11-50.5,11s-50.5-6.83-50.5-10.8v-5.28c0-11.8,8.51-22.68,21.87-28.81a110.13,110.13,0,0,1,1.69,18,3.51,3.51,0,0,0,3.37,3.57,3.46,3.46,0,0,0,3.38-3.57,113.86,113.86,0,0,0-1.69-19.81,68.59,68.59,0,0,1,16.81-2.87,97.55,97.55,0,0,1,3.38,26.17,3.51,3.51,0,0,0,3.37,3.57,3.46,3.46,0,0,0,3.38-3.57,100,100,0,0,0-3.38-26.17c6.37.15,12.67.23,18.19,1.86a103.49,103.49,0,0,1,2,20.66,3.51,3.51,0,0,0,3.38,3.57,3.46,3.46,0,0,0,3.37-3.57,107.19,107.19,0,0,0-1.69-18C600.65,663.83,610.25,674.47,610.25,686.59Z" transform="translate(125.95 -16.9)"/><path class="cls-31" d="M561.51,618.08c0,7.22-6.75,7.22-6.75,14.45s6.75,7.22,6.75,14.44" transform="translate(125.95 -16.9)"/><path class="cls-31" d="M527.67,628.88c0,.69-6.76,6.13-6.76,11.57,0,5.82,6.76,5.82,6.76,11.57" transform="translate(125.95 -16.9)"/><path class="cls-31" d="M593.36,632.14c0,.7-6.75,6.13-6.75,11.57,0,5.83,6.75,5.83,6.75,11.57" transform="translate(125.95 -16.9)"/><path class="cls-31" d="M576.55,624.84c0,.7-6.75,6.13-6.75,11.57,0,5.83,6.75,5.83,6.75,11.57" transform="translate(125.95 -16.9)"/><line class="cls-31" x1="663.75" y1="622.69" x2="665.43" y2="624.09"/><line class="cls-31" x1="670.5" y1="624.09" x2="672.19" y2="622.69"/><line class="cls-31" x1="665.43" y1="628.44" x2="663.75" y2="629.92"/><line class="cls-31" x1="670.5" y1="628.44" x2="672.19" y2="629.92"/><line class="cls-31" x1="708.8" y1="602.5" x2="710.49" y2="603.98"/><line class="cls-31" x1="715.55" y1="603.98" x2="717.16" y2="602.5"/><line class="cls-31" x1="710.49" y1="608.32" x2="708.8" y2="609.72"/><line class="cls-31" x1="715.55" y1="608.32" x2="717.16" y2="609.72"/><line class="cls-31" x1="726.22" y1="629.92" x2="727.91" y2="631.32"/><line class="cls-31" x1="732.97" y1="631.32" x2="734.66" y2="629.92"/><line class="cls-31" x1="727.91" y1="635.67" x2="726.22" y2="637.14"/><line class="cls-31" x1="732.97" y1="635.67" x2="734.66" y2="637.14"/></g><g id="Thin-S"><path class="cls-32" d="M906.82,687.44v5.25c0,4.09-22.57,10.89-50.35,10.89s-50.35-6.8-50.35-10.73v-5.26c0-11.74,8.5-22.55,21.81-28.65a107.84,107.84,0,0,1,1.68,17.92,3.5,3.5,0,0,0,3.37,3.55,3.45,3.45,0,0,0,3.37-3.55,112.69,112.69,0,0,0-1.69-19.7,68.73,68.73,0,0,1,16.76-2.85,96.06,96.06,0,0,1,3.37,26,3.51,3.51,0,0,0,3.37,3.56,3.45,3.45,0,0,0,3.36-3.56,99.72,99.72,0,0,0-3.36-26c6.35.15,12.62.23,18.13,1.85a103.1,103.1,0,0,1,2,20.54,3.51,3.51,0,0,0,3.37,3.56A3.45,3.45,0,0,0,885,676.7a107,107,0,0,0-1.68-17.91C897.26,664.81,906.82,675.39,906.82,687.44Z" transform="translate(125.95 -16.9)"/><path class="cls-33" d="M858.23,619.32c0,7.18-6.73,7.18-6.73,14.36s6.73,7.19,6.73,14.37" transform="translate(125.95 -16.9)"/><path class="cls-33" d="M824.49,630.05c0,.7-6.74,6.11-6.74,11.51,0,5.79,6.74,5.79,6.74,11.51" transform="translate(125.95 -16.9)"/><path class="cls-33" d="M890,633.3c0,.69-6.74,6.1-6.74,11.51,0,5.79,6.74,5.79,6.74,11.5" transform="translate(125.95 -16.9)"/><path class="cls-33" d="M873.23,626c0,.69-6.73,6.1-6.73,11.51,0,5.79,6.73,5.79,6.73,11.5" transform="translate(125.95 -16.9)"/><line class="cls-33" x1="960.54" y1="623.81" x2="962.22" y2="625.2"/><line class="cls-33" x1="967.27" y1="625.2" x2="968.96" y2="623.81"/><line class="cls-33" x1="962.22" y1="629.53" x2="960.54" y2="631"/><line class="cls-33" x1="967.27" y1="629.53" x2="968.96" y2="631"/><line class="cls-33" x1="1005.46" y1="603.73" x2="1007.14" y2="605.2"/><line class="cls-33" x1="1012.19" y1="605.2" x2="1013.8" y2="603.73"/><line class="cls-33" x1="1007.14" y1="609.52" x2="1005.46" y2="610.91"/><line class="cls-33" x1="1012.19" y1="609.52" x2="1013.8" y2="610.91"/><line class="cls-33" x1="1022.83" y1="631" x2="1024.51" y2="632.39"/><line class="cls-33" x1="1029.56" y1="632.39" x2="1031.24" y2="631"/><line class="cls-33" x1="1024.51" y1="636.71" x2="1022.83" y2="638.18"/><line class="cls-33" x1="1029.56" y1="636.71" x2="1031.24" y2="638.18"/></g><g id="Light-S"><path class="cls-34" d="M1203.61,687v5.21c0,4.07-22.63,10.82-50.49,10.82s-50.49-6.75-50.49-10.66v-5.22c0-11.66,8.51-22.39,21.87-28.45a106.3,106.3,0,0,1,1.68,17.79,3.49,3.49,0,0,0,3.38,3.53,3.45,3.45,0,0,0,3.38-3.53,111.11,111.11,0,0,0-1.69-19.56,69.5,69.5,0,0,1,16.81-2.83,94.76,94.76,0,0,1,3.37,25.84,3.49,3.49,0,0,0,3.38,3.53,3.43,3.43,0,0,0,3.37-3.53,98,98,0,0,0-3.37-25.84c6.37.15,12.66.23,18.19,1.84a101.65,101.65,0,0,1,2,20.4,3.49,3.49,0,0,0,3.38,3.52,3.43,3.43,0,0,0,3.37-3.52,105.62,105.62,0,0,0-1.68-17.8C1194,664.54,1203.61,675,1203.61,687Z" transform="translate(125.95 -16.9)"/><path class="cls-35" d="M1154.89,619.36c0,7.14-6.76,7.14-6.76,14.27s6.76,7.13,6.76,14.26" transform="translate(125.95 -16.9)"/><path class="cls-35" d="M1121,630c0,.7-6.75,6.06-6.75,11.43,0,5.75,6.75,5.75,6.75,11.43" transform="translate(125.95 -16.9)"/><path class="cls-35" d="M1186.73,633.25c0,.69-6.75,6-6.75,11.42,0,5.75,6.75,5.75,6.75,11.43" transform="translate(125.95 -16.9)"/><path class="cls-35" d="M1169.93,626c0,.69-6.76,6.06-6.76,11.42,0,5.76,6.76,5.76,6.76,11.43" transform="translate(125.95 -16.9)"/><line class="cls-35" x1="1257.12" y1="623.71" x2="1258.81" y2="625.09"/><line class="cls-35" x1="1263.88" y1="625.09" x2="1265.56" y2="623.71"/><line class="cls-35" x1="1258.81" y1="629.38" x2="1257.12" y2="630.84"/><line class="cls-35" x1="1263.88" y1="629.38" x2="1265.56" y2="630.84"/><line class="cls-35" x1="1302.17" y1="603.77" x2="1303.86" y2="605.23"/><line class="cls-35" x1="1308.92" y1="605.23" x2="1310.53" y2="603.77"/><line class="cls-35" x1="1303.86" y1="609.52" x2="1302.17" y2="610.9"/><line class="cls-35" x1="1308.92" y1="609.52" x2="1310.53" y2="610.9"/><line class="cls-35" x1="1319.59" y1="630.84" x2="1321.28" y2="632.22"/><line class="cls-35" x1="1326.34" y1="632.22" x2="1328.03" y2="630.84"/><line class="cls-35" x1="1321.28" y1="636.52" x2="1319.59" y2="637.97"/><line class="cls-35" x1="1326.34" y1="636.52" x2="1328.03" y2="637.97"/></g><g id="Regular-S"><path class="cls-36" d="M1500.34,687v5.24c0,4.08-22.65,10.87-50.5,10.87s-50.5-6.79-50.5-10.72v-5.24c0-11.72,8.51-22.51,21.87-28.6a108.57,108.57,0,0,1,1.69,17.89,3.49,3.49,0,0,0,3.37,3.54,3.45,3.45,0,0,0,3.38-3.54,112.24,112.24,0,0,0-1.69-19.66,69,69,0,0,1,16.81-2.85,96.17,96.17,0,0,1,3.38,26,3.49,3.49,0,0,0,3.37,3.54,3.45,3.45,0,0,0,3.38-3.54,98.6,98.6,0,0,0-3.38-26c6.37.15,12.67.23,18.19,1.85a102.64,102.64,0,0,1,2,20.5,3.5,3.5,0,0,0,3.38,3.55,3.45,3.45,0,0,0,3.37-3.55,105.64,105.64,0,0,0-1.69-17.88C1490.74,664.4,1500.34,675,1500.34,687Z" transform="translate(125.95 -16.9)"/><path class="cls-37" d="M1451.6,619c0,7.17-6.75,7.17-6.75,14.34s6.75,7.17,6.75,14.34" transform="translate(125.95 -16.9)"/><path class="cls-37" d="M1417.76,629.72c0,.69-6.76,6.09-6.76,11.48,0,5.78,6.76,5.78,6.76,11.49" transform="translate(125.95 -16.9)"/><path class="cls-37" d="M1483.45,633c0,.69-6.75,6.08-6.75,11.48,0,5.78,6.75,5.78,6.75,11.48" transform="translate(125.95 -16.9)"/><path class="cls-37" d="M1466.64,625.71c0,.69-6.75,6.09-6.75,11.48,0,5.79,6.75,5.79,6.75,11.49" transform="translate(125.95 -16.9)"/><line class="cls-37" x1="1553.84" y1="623.45" x2="1555.52" y2="624.84"/><line class="cls-37" x1="1560.59" y1="624.84" x2="1562.28" y2="623.45"/><line class="cls-37" x1="1555.52" y1="629.16" x2="1553.84" y2="630.62"/><line class="cls-37" x1="1560.59" y1="629.16" x2="1562.28" y2="630.62"/><line class="cls-37" x1="1598.89" y1="603.41" x2="1600.57" y2="604.88"/><line class="cls-37" x1="1605.64" y1="604.88" x2="1607.25" y2="603.41"/><line class="cls-37" x1="1600.57" y1="609.2" x2="1598.89" y2="610.58"/><line class="cls-37" x1="1605.64" y1="609.2" x2="1607.25" y2="610.58"/><line class="cls-37" x1="1616.31" y1="630.62" x2="1618" y2="632.01"/><line class="cls-37" x1="1623.06" y1="632.01" x2="1624.75" y2="630.62"/><line class="cls-37" x1="1618" y1="636.33" x2="1616.31" y2="637.79"/><line class="cls-37" x1="1623.06" y1="636.33" x2="1624.75" y2="637.79"/></g><g id="Heavy-S"><path class="cls-38" d="M2688.57,686.71v5.12c0,4-22.8,10.62-50.85,10.62s-50.85-6.63-50.85-10.47v-5.12c0-11.46,8.57-22,22-28a102.79,102.79,0,0,1,1.7,17.48,3.47,3.47,0,0,0,3.4,3.47,3.42,3.42,0,0,0,3.4-3.47,106.29,106.29,0,0,0-1.7-19.21,71.92,71.92,0,0,1,16.93-2.79,90.89,90.89,0,0,1,3.4,25.39,3.46,3.46,0,0,0,3.4,3.47,3.43,3.43,0,0,0,3.4-3.47,93.94,93.94,0,0,0-3.4-25.39c6.41.15,12.75.23,18.32,1.81a97.53,97.53,0,0,1,2,20,3.46,3.46,0,0,0,3.4,3.47,3.43,3.43,0,0,0,3.4-3.47,102,102,0,0,0-1.7-17.48C2678.91,664.63,2688.57,675,2688.57,686.71Z" transform="translate(125.95 -16.9)"/><path class="cls-39" d="M2639.5,620.25c0,7-6.8,7-6.8,14s6.8,7,6.8,14" transform="translate(125.95 -16.9)"/><path class="cls-39" d="M2605.41,630.72c0,.68-6.8,5.95-6.8,11.23,0,5.65,6.8,5.65,6.8,11.22" transform="translate(125.95 -16.9)"/><path class="cls-39" d="M2671.57,633.88c0,.68-6.8,6-6.8,11.23,0,5.65,6.8,5.65,6.8,11.23" transform="translate(125.95 -16.9)"/><path class="cls-39" d="M2654.65,626.8c0,.68-6.81,6-6.81,11.23,0,5.65,6.81,5.65,6.81,11.23" transform="translate(125.95 -16.9)"/><line class="cls-39" x1="2741.57" y1="624.22" x2="2743.27" y2="625.57"/><line class="cls-39" x1="2748.37" y1="625.57" x2="2750.07" y2="624.22"/><line class="cls-39" x1="2743.27" y1="629.79" x2="2741.57" y2="631.23"/><line class="cls-39" x1="2748.37" y1="629.79" x2="2750.07" y2="631.23"/><line class="cls-39" x1="2786.93" y1="604.63" x2="2788.63" y2="606.06"/><line class="cls-39" x1="2793.73" y1="606.06" x2="2795.36" y2="604.63"/><line class="cls-39" x1="2788.63" y1="610.28" x2="2786.93" y2="611.64"/><line class="cls-39" x1="2793.73" y1="610.28" x2="2795.36" y2="611.64"/><line class="cls-39" x1="2804.48" y1="631.23" x2="2806.18" y2="632.58"/><line class="cls-39" x1="2811.28" y1="632.58" x2="2812.98" y2="631.23"/><line class="cls-39" x1="2806.18" y1="636.8" x2="2804.48" y2="638.23"/><line class="cls-39" x1="2811.28" y1="636.8" x2="2812.98" y2="638.23"/></g><g id="Bold-S"><path class="cls-40" d="M2391.55,686.81V692c0,4-22.68,10.71-50.58,10.71s-50.58-6.69-50.58-10.56V687c0-11.54,8.53-22.18,21.91-28.18A105.45,105.45,0,0,1,2314,676.4a3.48,3.48,0,0,0,3.38,3.5,3.42,3.42,0,0,0,3.38-3.5,108.05,108.05,0,0,0-1.69-19.37,70.7,70.7,0,0,1,16.84-2.81,93.11,93.11,0,0,1,3.38,25.6,3.48,3.48,0,0,0,3.38,3.5,3.42,3.42,0,0,0,3.38-3.5,95.85,95.85,0,0,0-3.38-25.6c6.38.16,12.68.23,18.22,1.83a99.7,99.7,0,0,1,2,20.2,3.47,3.47,0,0,0,3.38,3.5,3.43,3.43,0,0,0,3.38-3.5,103.62,103.62,0,0,0-1.69-17.62C2381.94,664.55,2391.55,675,2391.55,686.81Z" transform="translate(125.95 -16.9)"/><path class="cls-41" d="M2342.74,619.81c0,7.07-6.77,7.07-6.77,14.13s6.77,7.07,6.77,14.13" transform="translate(125.95 -16.9)"/><path class="cls-41" d="M2308.84,630.37c0,.69-6.77,6-6.77,11.32,0,5.7,6.77,5.7,6.77,11.32" transform="translate(125.95 -16.9)"/><path class="cls-41" d="M2374.64,633.56c0,.69-6.77,6-6.77,11.32,0,5.7,6.77,5.7,6.77,11.32" transform="translate(125.95 -16.9)"/><path class="cls-41" d="M2357.8,626.42c0,.69-6.76,6-6.76,11.32,0,5.7,6.76,5.7,6.76,11.32" transform="translate(125.95 -16.9)"/><line class="cls-41" x1="2444.94" y1="623.95" x2="2446.63" y2="625.32"/><line class="cls-41" x1="2451.7" y1="625.32" x2="2453.39" y2="623.95"/><line class="cls-41" x1="2446.63" y1="629.58" x2="2444.94" y2="631.02"/><line class="cls-41" x1="2451.7" y1="629.58" x2="2453.39" y2="631.02"/><line class="cls-41" x1="2490.06" y1="604.2" x2="2491.75" y2="605.65"/><line class="cls-41" x1="2496.82" y1="605.65" x2="2498.44" y2="604.2"/><line class="cls-41" x1="2491.75" y1="609.9" x2="2490.06" y2="611.27"/><line class="cls-41" x1="2496.82" y1="609.9" x2="2498.44" y2="611.27"/><line class="cls-41" x1="2507.51" y1="631.02" x2="2509.2" y2="632.39"/><line class="cls-41" x1="2514.27" y1="632.39" x2="2515.96" y2="631.02"/><line class="cls-41" x1="2509.2" y1="636.64" x2="2507.51" y2="638.08"/><line class="cls-41" x1="2514.27" y1="636.64" x2="2515.96" y2="638.08"/></g><g id="Semibold-S"><path class="cls-42" d="M2094.85,687.6v5.23c0,4.08-22.66,10.85-50.55,10.85s-50.55-6.77-50.55-10.7v-5.23c0-11.7,8.53-22.47,21.89-28.55a106,106,0,0,1,1.69,17.85,3.5,3.5,0,0,0,3.38,3.54,3.45,3.45,0,0,0,3.38-3.54,110.75,110.75,0,0,0-1.69-19.62,69.2,69.2,0,0,1,16.83-2.85,95.49,95.49,0,0,1,3.38,25.94,3.5,3.5,0,0,0,3.38,3.54,3.45,3.45,0,0,0,3.38-3.54,98.72,98.72,0,0,0-3.38-25.94c6.38.16,12.68.23,18.21,1.85a102.33,102.33,0,0,1,2,20.47,3.5,3.5,0,0,0,3.38,3.54,3.45,3.45,0,0,0,3.38-3.54,105.4,105.4,0,0,0-1.69-17.86C2085.25,665.05,2094.85,675.59,2094.85,687.6Z" transform="translate(125.95 -16.9)"/><path class="cls-43" d="M2046.07,619.72c0,7.16-6.76,7.16-6.76,14.31s6.76,7.16,6.76,14.32" transform="translate(125.95 -16.9)"/><path class="cls-43" d="M2012.19,630.42c0,.69-6.76,6.08-6.76,11.46,0,5.77,6.76,5.77,6.76,11.47" transform="translate(125.95 -16.9)"/><path class="cls-43" d="M2078,633.65c0,.69-6.76,6.08-6.76,11.47,0,5.77,6.76,5.77,6.76,11.46" transform="translate(125.95 -16.9)"/><path class="cls-43" d="M2061.12,626.41c0,.7-6.76,6.08-6.76,11.47,0,5.77,6.76,5.77,6.76,11.47" transform="translate(125.95 -16.9)"/><line class="cls-43" x1="2148.28" y1="624.14" x2="2149.97" y2="625.52"/><line class="cls-43" x1="2155.04" y1="625.52" x2="2156.73" y2="624.14"/><line class="cls-43" x1="2149.97" y1="629.83" x2="2148.28" y2="631.29"/><line class="cls-43" x1="2155.04" y1="629.83" x2="2156.73" y2="631.29"/><line class="cls-43" x1="2193.37" y1="604.13" x2="2195.06" y2="605.59"/><line class="cls-43" x1="2200.13" y1="605.59" x2="2201.75" y2="604.13"/><line class="cls-43" x1="2195.06" y1="609.9" x2="2193.37" y2="611.28"/><line class="cls-43" x1="2200.13" y1="609.9" x2="2201.75" y2="611.28"/><line class="cls-43" x1="2210.81" y1="631.29" x2="2212.5" y2="632.68"/><line class="cls-43" x1="2217.57" y1="632.68" x2="2219.26" y2="631.29"/><line class="cls-43" x1="2212.5" y1="636.99" x2="2210.81" y2="638.45"/><line class="cls-43" x1="2217.57" y1="636.99" x2="2219.26" y2="638.45"/></g><g id="Medium-S"><path class="cls-44" d="M1798.2,687.69v5.25c0,4.09-22.71,10.89-50.65,10.89s-50.65-6.8-50.65-10.74v-5.25c0-11.74,8.54-22.55,21.94-28.65a107.85,107.85,0,0,1,1.69,17.92,3.51,3.51,0,0,0,3.39,3.55,3.45,3.45,0,0,0,3.38-3.55,111.65,111.65,0,0,0-1.69-19.7,69.44,69.44,0,0,1,16.86-2.85,96.08,96.08,0,0,1,3.39,26,3.51,3.51,0,0,0,3.38,3.55,3.46,3.46,0,0,0,3.39-3.55,98.91,98.91,0,0,0-3.39-26c6.39.15,12.7.23,18.25,1.85a103.11,103.11,0,0,1,2,20.54,3.51,3.51,0,0,0,3.38,3.55,3.46,3.46,0,0,0,3.39-3.55,106.93,106.93,0,0,0-1.69-17.91C1788.58,665.06,1798.2,675.64,1798.2,687.69Z" transform="translate(125.95 -16.9)"/><path class="cls-45" d="M1749.32,619.57c0,7.19-6.77,7.19-6.77,14.37s6.77,7.18,6.77,14.36" transform="translate(125.95 -16.9)"/><path class="cls-45" d="M1715.37,630.31c0,.69-6.77,6.1-6.77,11.51,0,5.79,6.77,5.79,6.77,11.5" transform="translate(125.95 -16.9)"/><path class="cls-45" d="M1781.26,633.55c0,.7-6.77,6.1-6.77,11.51,0,5.79,6.77,5.79,6.77,11.5" transform="translate(125.95 -16.9)"/><path class="cls-45" d="M1764.41,626.29c0,.7-6.78,6.1-6.78,11.51,0,5.79,6.78,5.79,6.78,11.51" transform="translate(125.95 -16.9)"/><line class="cls-45" x1="1851.48" y1="624.07" x2="1853.18" y2="625.46"/><line class="cls-45" x1="1858.26" y1="625.46" x2="1859.95" y2="624.07"/><line class="cls-45" x1="1853.18" y1="629.78" x2="1851.48" y2="631.25"/><line class="cls-45" x1="1858.26" y1="629.78" x2="1859.95" y2="631.25"/><line class="cls-45" x1="1896.67" y1="603.99" x2="1898.36" y2="605.45"/><line class="cls-45" x1="1903.44" y1="605.45" x2="1905.06" y2="603.99"/><line class="cls-45" x1="1898.36" y1="609.78" x2="1896.67" y2="611.17"/><line class="cls-45" x1="1903.44" y1="609.78" x2="1905.06" y2="611.17"/><line class="cls-45" x1="1914.14" y1="631.25" x2="1915.84" y2="632.64"/><line class="cls-45" x1="1920.92" y1="632.64" x2="1922.61" y2="631.25"/><line class="cls-45" x1="1915.84" y1="636.96" x2="1914.14" y2="638.43"/><line class="cls-45" x1="1920.92" y1="636.96" x2="1922.61" y2="638.43"/></g><g id="Black-S"><path class="cls-46" d="M2985.44,686.72v5.1c0,4-22.86,10.57-51,10.57s-51-6.6-51-10.42v-5.1c0-11.39,8.6-21.88,22.09-27.81a101.84,101.84,0,0,1,1.7,17.39,3.46,3.46,0,0,0,3.41,3.45,3.42,3.42,0,0,0,3.41-3.45,104.4,104.4,0,0,0-1.71-19.11,72.31,72.31,0,0,1,17-2.77,89.94,89.94,0,0,1,3.4,25.26,3.46,3.46,0,0,0,3.41,3.44,3.41,3.41,0,0,0,3.41-3.44,92.58,92.58,0,0,0-3.41-25.26c6.44.15,12.79.22,18.37,1.8a96.41,96.41,0,0,1,2,19.93,3.46,3.46,0,0,0,3.41,3.45,3.42,3.42,0,0,0,3.41-3.45,100.08,100.08,0,0,0-1.7-17.39C2975.75,664.76,2985.44,675,2985.44,686.72Z" transform="translate(125.95 -16.9)"/><path class="cls-47" d="M2936.23,620.61c0,7-6.82,7-6.82,13.94s6.82,7,6.82,14" transform="translate(125.95 -16.9)"/><path class="cls-47" d="M2902.06,631c0,.68-6.82,5.92-6.82,11.17,0,5.62,6.82,5.62,6.82,11.17" transform="translate(125.95 -16.9)"/><path class="cls-47" d="M2968.39,634.18c0,.67-6.82,5.92-6.82,11.17,0,5.62,6.82,5.62,6.82,11.17" transform="translate(125.95 -16.9)"/><path class="cls-47" d="M2951.42,627.13c0,.68-6.82,5.92-6.82,11.17,0,5.62,6.82,5.62,6.82,11.17" transform="translate(125.95 -16.9)"/><line class="cls-47" x1="3038.24" y1="624.47" x2="3039.94" y2="625.82"/><line class="cls-47" x1="3045.06" y1="625.82" x2="3046.76" y2="624.47"/><line class="cls-47" x1="3039.94" y1="630.02" x2="3038.24" y2="631.45"/><line class="cls-47" x1="3045.06" y1="630.02" x2="3046.76" y2="631.45"/><line class="cls-47" x1="3083.72" y1="604.99" x2="3085.43" y2="606.41"/><line class="cls-47" x1="3090.54" y1="606.41" x2="3092.17" y2="604.99"/><line class="cls-47" x1="3085.43" y1="610.61" x2="3083.72" y2="611.96"/><line class="cls-47" x1="3090.54" y1="610.61" x2="3092.17" y2="611.96"/><line class="cls-47" x1="3101.31" y1="631.45" x2="3103.02" y2="632.79"/><line class="cls-47" x1="3108.13" y1="632.79" x2="3109.84" y2="631.45"/><line class="cls-47" x1="3103.02" y1="636.99" x2="3101.31" y2="638.42"/><line class="cls-47" x1="3108.13" y1="636.99" x2="3109.84" y2="638.42"/></g><g id="Regular-L"><path class="cls-48" d="M1534.18,1558.23v9c0,7-37.79,18.66-84.3,18.66s-84.3-11.64-84.3-18.39v-9c0-20.12,14.22-38.65,36.51-49.1a189.47,189.47,0,0,1,2.82,30.7,5.94,5.94,0,0,0,5.64,6.09,5.86,5.86,0,0,0,5.64-6.09,198,198,0,0,0-2.82-33.75,112.51,112.51,0,0,1,28.05-4.89,168.54,168.54,0,0,1,5.64,44.6,5.94,5.94,0,0,0,5.64,6.09,5.86,5.86,0,0,0,5.64-6.09,174.52,174.52,0,0,0-5.64-44.6c10.63.26,21.14.4,30.36,3.17a180.77,180.77,0,0,1,3.33,35.21,5.94,5.94,0,0,0,5.64,6.09,5.86,5.86,0,0,0,5.64-6.09,189.37,189.37,0,0,0-2.82-30.71C1518.17,1519.46,1534.18,1537.59,1534.18,1558.23Z" transform="translate(125.95 -16.9)"/><path class="cls-49" d="M1452.83,1441.51c0,12.3-11.28,12.3-11.28,24.61s11.28,12.31,11.28,24.62" transform="translate(125.95 -16.9)"/><path class="cls-49" d="M1396.33,1459.9c0,1.19-11.28,10.46-11.28,19.72,0,9.93,11.28,9.93,11.28,19.72" transform="translate(125.95 -16.9)"/><path class="cls-49" d="M1506,1465.46c0,1.19-11.27,10.46-11.27,19.72,0,9.93,11.27,9.93,11.27,19.72" transform="translate(125.95 -16.9)"/><path class="cls-49" d="M1477.94,1453c0,1.19-11.28,10.45-11.28,19.72,0,9.92,11.28,9.92,11.28,19.72" transform="translate(125.95 -16.9)"/><line class="cls-49" x1="1539.19" y1="1461.27" x2="1542.01" y2="1463.65"/><line class="cls-49" x1="1550.46" y1="1463.65" x2="1553.28" y2="1461.27"/><line class="cls-49" x1="1542.01" y1="1471.06" x2="1539.19" y2="1473.57"/><line class="cls-49" x1="1550.46" y1="1471.06" x2="1553.28" y2="1473.57"/><line class="cls-49" x1="1614.39" y1="1426.86" x2="1617.21" y2="1429.37"/><line class="cls-49" x1="1625.67" y1="1429.37" x2="1628.36" y2="1426.86"/><line class="cls-49" x1="1617.21" y1="1436.78" x2="1614.39" y2="1439.16"/><line class="cls-49" x1="1625.67" y1="1436.78" x2="1628.36" y2="1439.16"/><line class="cls-49" x1="1643.47" y1="1473.57" x2="1646.29" y2="1475.96"/><line class="cls-49" x1="1654.75" y1="1475.96" x2="1657.57" y2="1473.57"/><line class="cls-49" x1="1646.29" y1="1483.37" x2="1643.47" y2="1485.88"/><line class="cls-49" x1="1654.75" y1="1483.37" x2="1657.57" y2="1485.88"/></g><g id="Heavy-L"><path class="cls-50" d="M2722.25,1558.06v9c0,7-38.35,18.59-85.55,18.59s-85.55-11.6-85.55-18.32v-9c0-20,14.43-38.49,37-48.9a185.85,185.85,0,0,1,2.86,30.58,6,6,0,0,0,5.72,6.06,5.87,5.87,0,0,0,5.72-6.06,193.49,193.49,0,0,0-2.86-33.62,116.39,116.39,0,0,1,28.48-4.87,165.26,165.26,0,0,1,5.72,44.42,6,6,0,0,0,5.72,6.07,5.88,5.88,0,0,0,5.72-6.07,170.62,170.62,0,0,0-5.72-44.42c10.79.26,21.45.39,30.82,3.16a177.07,177.07,0,0,1,3.38,35.07,6,6,0,0,0,5.72,6.06,5.88,5.88,0,0,0,5.72-6.06,184.56,184.56,0,0,0-2.86-30.59C2706,1519.43,2722.25,1537.49,2722.25,1558.06Z" transform="translate(125.95 -16.9)"/><path class="cls-51" d="M2639.69,1441.79c0,12.26-11.44,12.26-11.44,24.52s11.44,12.26,11.44,24.52" transform="translate(125.95 -16.9)"/><path class="cls-51" d="M2582.35,1460.11c0,1.19-11.44,10.42-11.44,19.65,0,9.88,11.44,9.88,11.44,19.64" transform="translate(125.95 -16.9)"/><path class="cls-51" d="M2693.65,1465.65c0,1.19-11.44,10.41-11.44,19.64,0,9.89,11.44,9.89,11.44,19.64" transform="translate(125.95 -16.9)"/><path class="cls-51" d="M2665.17,1453.26c0,1.18-11.44,10.41-11.44,19.64,0,9.89,11.44,9.89,11.44,19.64" transform="translate(125.95 -16.9)"/><line class="cls-51" x1="2725.46" y1="1461.4" x2="2728.32" y2="1463.78"/><line class="cls-51" x1="2736.91" y1="1463.78" x2="2739.77" y2="1461.4"/><line class="cls-51" x1="2728.32" y1="1471.16" x2="2725.46" y2="1473.66"/><line class="cls-51" x1="2736.91" y1="1471.16" x2="2739.77" y2="1473.66"/><line class="cls-51" x1="2801.79" y1="1427.13" x2="2804.65" y2="1429.64"/><line class="cls-51" x1="2813.23" y1="1429.64" x2="2815.96" y2="1427.13"/><line class="cls-51" x1="2804.65" y1="1437.02" x2="2801.79" y2="1439.39"/><line class="cls-51" x1="2813.23" y1="1437.02" x2="2815.96" y2="1439.39"/><line class="cls-51" x1="2831.3" y1="1473.66" x2="2834.16" y2="1476.04"/><line class="cls-51" x1="2842.74" y1="1476.04" x2="2845.6" y2="1473.66"/><line class="cls-51" x1="2834.16" y1="1483.42" x2="2831.3" y2="1485.92"/><line class="cls-51" x1="2842.74" y1="1483.42" x2="2845.6" y2="1485.92"/></g><g id="Semibold-L"><path class="cls-52" d="M2128.15,1558.61v9.07c0,7.07-38,18.82-84.8,18.82s-84.8-11.75-84.8-18.55v-9.08c0-20.28,14.31-39,36.73-49.51a191.53,191.53,0,0,1,2.83,31,6,6,0,0,0,5.68,6.14,5.9,5.9,0,0,0,5.67-6.14,200.22,200.22,0,0,0-2.84-34,113,113,0,0,1,28.22-4.93,170.48,170.48,0,0,1,5.67,45,6,6,0,0,0,5.68,6.14,5.9,5.9,0,0,0,5.67-6.14,176.51,176.51,0,0,0-5.67-45c10.69.26,21.26.4,30.54,3.2a182.89,182.89,0,0,1,3.35,35.5,6,6,0,0,0,5.67,6.14,5.9,5.9,0,0,0,5.67-6.14,191.22,191.22,0,0,0-2.83-31C2112,1519.51,2128.15,1537.79,2128.15,1558.61Z" transform="translate(125.95 -16.9)"/><path class="cls-53" d="M2046.31,1440.9c0,12.41-11.34,12.41-11.34,24.82s11.34,12.42,11.34,24.83" transform="translate(125.95 -16.9)"/><path class="cls-53" d="M1989.48,1459.45c0,1.2-11.34,10.54-11.34,19.89,0,10,11.34,10,11.34,19.88" transform="translate(125.95 -16.9)"/><path class="cls-53" d="M2099.8,1465.06c0,1.2-11.34,10.54-11.34,19.88,0,10,11.34,10,11.34,19.89" transform="translate(125.95 -16.9)"/><path class="cls-53" d="M2071.57,1452.51c0,1.2-11.34,10.55-11.34,19.89,0,10,11.34,10,11.34,19.88" transform="translate(125.95 -16.9)"/><line class="cls-53" x1="2132.44" y1="1460.97" x2="2135.28" y2="1463.37"/><line class="cls-53" x1="2143.78" y1="1463.37" x2="2146.62" y2="1460.97"/><line class="cls-53" x1="2135.28" y1="1470.84" x2="2132.44" y2="1473.38"/><line class="cls-53" x1="2143.78" y1="1470.84" x2="2146.62" y2="1473.38"/><line class="cls-53" x1="2208.09" y1="1426.27" x2="2210.93" y2="1428.81"/><line class="cls-53" x1="2219.43" y1="1428.81" x2="2222.14" y2="1426.27"/><line class="cls-53" x1="2210.93" y1="1436.28" x2="2208.09" y2="1438.68"/><line class="cls-53" x1="2219.43" y1="1436.28" x2="2222.14" y2="1438.68"/><line class="cls-53" x1="2237.35" y1="1473.38" x2="2240.18" y2="1475.78"/><line class="cls-53" x1="2248.69" y1="1475.78" x2="2251.52" y2="1473.38"/><line class="cls-53" x1="2240.18" y1="1483.25" x2="2237.35" y2="1485.79"/><line class="cls-53" x1="2248.69" y1="1483.25" x2="2251.52" y2="1485.79"/></g><g id="Light-L"><path class="cls-54" d="M1237.26,1557.76v8.91c0,6.94-37.74,18.46-84.19,18.46s-84.19-11.52-84.19-18.2V1558c0-19.9,14.2-38.23,36.46-48.58a186.79,186.79,0,0,1,2.82,30.38,5.9,5.9,0,0,0,5.63,6,5.82,5.82,0,0,0,5.63-6,193.78,193.78,0,0,0-2.82-33.39,113.28,113.28,0,0,1,28-4.84,166.28,166.28,0,0,1,5.63,44.13,5.89,5.89,0,0,0,5.63,6,5.81,5.81,0,0,0,5.63-6,171.36,171.36,0,0,0-5.63-44.13c10.62.26,21.11.39,30.32,3.14a177.7,177.7,0,0,1,3.33,34.83,5.9,5.9,0,0,0,5.63,6,5.81,5.81,0,0,0,5.63-6,185.35,185.35,0,0,0-2.82-30.38C1221.27,1519.4,1237.26,1537.34,1237.26,1557.76Z" transform="translate(125.95 -16.9)"/><path class="cls-55" d="M1156,1442.27c0,12.18-11.26,12.18-11.26,24.36S1156,1478.8,1156,1491" transform="translate(125.95 -16.9)"/><path class="cls-55" d="M1099.59,1460.47c0,1.18-11.26,10.35-11.26,19.51,0,9.82,11.26,9.82,11.26,19.51" transform="translate(125.95 -16.9)"/><path class="cls-55" d="M1209.11,1466c0,1.18-11.26,10.35-11.26,19.51,0,9.82,11.26,9.82,11.26,19.51" transform="translate(125.95 -16.9)"/><path class="cls-55" d="M1181.09,1453.66c0,1.18-11.26,10.35-11.26,19.51,0,9.82,11.26,9.82,11.26,19.51" transform="translate(125.95 -16.9)"/><line class="cls-55" x1="1242.43" y1="1461.64" x2="1245.24" y2="1464"/><line class="cls-55" x1="1253.69" y1="1464" x2="1256.5" y2="1461.64"/><line class="cls-55" x1="1245.24" y1="1471.33" x2="1242.43" y2="1473.82"/><line class="cls-55" x1="1253.69" y1="1471.33" x2="1256.5" y2="1473.82"/><line class="cls-55" x1="1317.53" y1="1427.6" x2="1320.35" y2="1430.08"/><line class="cls-55" x1="1328.79" y1="1430.08" x2="1331.48" y2="1427.6"/><line class="cls-55" x1="1320.35" y1="1437.42" x2="1317.53" y2="1439.77"/><line class="cls-55" x1="1328.79" y1="1437.42" x2="1331.48" y2="1439.77"/><line class="cls-55" x1="1346.58" y1="1473.82" x2="1349.39" y2="1476.18"/><line class="cls-55" x1="1357.84" y1="1476.18" x2="1360.65" y2="1473.82"/><line class="cls-55" x1="1349.39" y1="1483.51" x2="1346.58" y2="1486"/><line class="cls-55" x1="1357.84" y1="1483.51" x2="1360.65" y2="1486"/></g><g id="Thin-L"><path class="cls-56" d="M940.27,1557.8v8.91c0,7-37.59,18.48-83.85,18.48s-83.85-11.53-83.85-18.21v-8.92c0-19.92,14.14-38.27,36.32-48.62a188,188,0,0,1,2.8,30.41,5.9,5.9,0,0,0,5.61,6,5.8,5.8,0,0,0,5.6-6,195.12,195.12,0,0,0-2.8-33.42,111.9,111.9,0,0,1,27.91-4.85,166.9,166.9,0,0,1,5.61,44.16,5.88,5.88,0,0,0,5.6,6,5.81,5.81,0,0,0,5.61-6,171.57,171.57,0,0,0-5.61-44.16c10.58.26,21,.39,30.2,3.14a178.07,178.07,0,0,1,3.32,34.86,5.89,5.89,0,0,0,5.6,6,5.81,5.81,0,0,0,5.61-6,186.69,186.69,0,0,0-2.8-30.4C924.34,1519.4,940.27,1537.36,940.27,1557.8Z" transform="translate(125.95 -16.9)"/><path class="cls-57" d="M859.35,1442.21c0,12.19-11.21,12.19-11.21,24.37s11.21,12.19,11.21,24.38" transform="translate(125.95 -16.9)"/><path class="cls-57" d="M803.15,1460.42c0,1.18-11.21,10.36-11.21,19.53,0,9.83,11.21,9.83,11.21,19.53" transform="translate(125.95 -16.9)"/><path class="cls-57" d="M912.23,1465.93c0,1.18-11.21,10.35-11.21,19.53,0,9.83,11.21,9.83,11.21,19.52" transform="translate(125.95 -16.9)"/><path class="cls-57" d="M884.33,1453.61c0,1.18-11.22,10.35-11.22,19.53,0,9.83,11.22,9.83,11.22,19.52" transform="translate(125.95 -16.9)"/><line class="cls-57" x1="945.92" y1="1461.61" x2="948.73" y2="1463.97"/><line class="cls-57" x1="957.14" y1="1463.97" x2="959.94" y2="1461.61"/><line class="cls-57" x1="948.73" y1="1471.31" x2="945.92" y2="1473.8"/><line class="cls-57" x1="957.14" y1="1471.31" x2="959.94" y2="1473.8"/><line class="cls-57" x1="1020.73" y1="1427.53" x2="1023.53" y2="1430.02"/><line class="cls-57" x1="1031.94" y1="1430.02" x2="1034.62" y2="1427.53"/><line class="cls-57" x1="1023.53" y1="1437.36" x2="1020.73" y2="1439.72"/><line class="cls-57" x1="1031.94" y1="1437.36" x2="1034.62" y2="1439.72"/><line class="cls-57" x1="1049.65" y1="1473.8" x2="1052.46" y2="1476.16"/><line class="cls-57" x1="1060.87" y1="1476.16" x2="1063.67" y2="1473.8"/><line class="cls-57" x1="1052.46" y1="1483.5" x2="1049.65" y2="1485.99"/><line class="cls-57" x1="1060.87" y1="1483.5" x2="1063.67" y2="1485.99"/></g><g id="Ultralight-L"><path class="cls-58" d="M643.75,1557.76v8.91c0,6.94-37.64,18.46-84,18.46s-83.95-11.52-83.95-18.2V1558c0-19.91,14.16-38.24,36.36-48.59a187.9,187.9,0,0,1,2.81,30.38,5.89,5.89,0,0,0,5.61,6,5.81,5.81,0,0,0,5.61-6,194.77,194.77,0,0,0-2.8-33.39,112.5,112.5,0,0,1,27.94-4.84,166.27,166.27,0,0,1,5.61,44.13,5.89,5.89,0,0,0,5.61,6,5.8,5.8,0,0,0,5.62-6,171.35,171.35,0,0,0-5.62-44.13c10.59.26,21.06.39,30.24,3.14a177.69,177.69,0,0,1,3.32,34.83,5.89,5.89,0,0,0,5.61,6,5.81,5.81,0,0,0,5.62-6,185.35,185.35,0,0,0-2.81-30.38C627.8,1519.4,643.75,1537.34,643.75,1557.76Z" transform="translate(125.95 -16.9)"/><path class="cls-59" d="M562.73,1442.27c0,12.18-11.23,12.18-11.23,24.35s11.23,12.18,11.23,24.36" transform="translate(125.95 -16.9)"/><path class="cls-59" d="M506.47,1460.47c0,1.18-11.23,10.34-11.23,19.51,0,9.82,11.23,9.82,11.23,19.51" transform="translate(125.95 -16.9)"/><path class="cls-59" d="M615.68,1466c0,1.18-11.23,10.34-11.23,19.51,0,9.82,11.23,9.82,11.23,19.51" transform="translate(125.95 -16.9)"/><path class="cls-59" d="M587.74,1453.66c0,1.18-11.23,10.35-11.23,19.51,0,9.82,11.23,9.82,11.23,19.51" transform="translate(125.95 -16.9)"/><line class="cls-59" x1="649.26" y1="1461.64" x2="652.07" y2="1464"/><line class="cls-59" x1="660.49" y1="1464" x2="663.29" y2="1461.64"/><line class="cls-59" x1="652.07" y1="1471.33" x2="649.26" y2="1473.82"/><line class="cls-59" x1="660.49" y1="1471.33" x2="663.29" y2="1473.82"/><line class="cls-59" x1="724.15" y1="1427.59" x2="726.96" y2="1430.08"/><line class="cls-59" x1="735.38" y1="1430.08" x2="738.06" y2="1427.59"/><line class="cls-59" x1="726.96" y1="1437.42" x2="724.15" y2="1439.77"/><line class="cls-59" x1="735.38" y1="1437.42" x2="738.06" y2="1439.77"/><line class="cls-59" x1="753.11" y1="1473.82" x2="755.92" y2="1476.18"/><line class="cls-59" x1="764.34" y1="1476.18" x2="767.15" y2="1473.82"/><line class="cls-59" x1="755.92" y1="1483.51" x2="753.11" y2="1486"/><line class="cls-59" x1="764.34" y1="1483.51" x2="767.15" y2="1486"/></g><g id="Medium-L"><path class="cls-60" d="M1831.1,1558.42v9c0,7-37.91,18.74-84.55,18.74s-84.55-11.7-84.55-18.48v-9c0-20.2,14.26-38.81,36.62-49.31a191.07,191.07,0,0,1,2.83,30.83,6,6,0,0,0,5.65,6.12,5.88,5.88,0,0,0,5.66-6.12,198.58,198.58,0,0,0-2.83-33.89,112.78,112.78,0,0,1,28.14-4.91,169.88,169.88,0,0,1,5.65,44.78,6,6,0,0,0,5.66,6.12,5.87,5.87,0,0,0,5.65-6.12,175.47,175.47,0,0,0-5.65-44.78c10.66.26,21.2.4,30.45,3.19a182.13,182.13,0,0,1,3.34,35.35,6,6,0,0,0,5.66,6.11,5.87,5.87,0,0,0,5.65-6.11,189.63,189.63,0,0,0-2.83-30.83C1815,1519.48,1831.1,1537.69,1831.1,1558.42Z" transform="translate(125.95 -16.9)"/><path class="cls-61" d="M1749.51,1441.2c0,12.36-11.31,12.36-11.31,24.72s11.31,12.36,11.31,24.72" transform="translate(125.95 -16.9)"/><path class="cls-61" d="M1692.84,1459.68c0,1.19-11.31,10.5-11.31,19.8,0,10,11.31,10,11.31,19.8" transform="translate(125.95 -16.9)"/><path class="cls-61" d="M1802.83,1465.26c0,1.2-11.31,10.5-11.31,19.8,0,10,11.31,10,11.31,19.8" transform="translate(125.95 -16.9)"/><path class="cls-61" d="M1774.69,1452.77c0,1.19-11.31,10.5-11.31,19.8,0,10,11.31,10,11.31,19.8" transform="translate(125.95 -16.9)"/><line class="cls-61" x1="1835.75" y1="1461.12" x2="1838.58" y2="1463.51"/><line class="cls-61" x1="1847.06" y1="1463.51" x2="1849.88" y2="1461.12"/><line class="cls-61" x1="1838.58" y1="1470.95" x2="1835.75" y2="1473.48"/><line class="cls-61" x1="1847.06" y1="1470.95" x2="1849.88" y2="1473.48"/><line class="cls-61" x1="1911.18" y1="1426.56" x2="1914" y2="1429.09"/><line class="cls-61" x1="1922.48" y1="1429.09" x2="1925.18" y2="1426.56"/><line class="cls-61" x1="1914" y1="1436.53" x2="1911.18" y2="1438.92"/><line class="cls-61" x1="1922.48" y1="1436.53" x2="1925.18" y2="1438.92"/><line class="cls-61" x1="1940.35" y1="1473.48" x2="1943.17" y2="1475.87"/><line class="cls-61" x1="1951.65" y1="1475.87" x2="1954.48" y2="1473.48"/><line class="cls-61" x1="1943.17" y1="1483.31" x2="1940.35" y2="1485.84"/><line class="cls-61" x1="1951.65" y1="1483.31" x2="1954.48" y2="1485.84"/></g><g id="Black-L"><path class="cls-62" d="M3019.47,1558.09v9c0,7-38.57,18.6-86,18.6s-86-11.61-86-18.34v-9c0-20,14.52-38.52,37.27-48.94a185.14,185.14,0,0,1,2.87,30.61,6,6,0,0,0,5.76,6.06A5.88,5.88,0,0,0,2899,1540a191.72,191.72,0,0,0-2.88-33.64,117.11,117.11,0,0,1,28.64-4.88,164.71,164.71,0,0,1,5.75,44.45,6,6,0,0,0,5.76,6.07,5.9,5.9,0,0,0,5.75-6.07,170,170,0,0,0-5.75-44.45c10.85.26,21.57.39,31,3.16a176.61,176.61,0,0,1,3.4,35.09,6,6,0,0,0,5.75,6.07,5.89,5.89,0,0,0,5.75-6.07,183.62,183.62,0,0,0-2.87-30.6C3003.12,1519.44,3019.47,1537.51,3019.47,1558.09Z" transform="translate(125.95 -16.9)"/><path class="cls-63" d="M2936.44,1441.74c0,12.27-11.51,12.27-11.51,24.54s11.51,12.27,11.51,24.53" transform="translate(125.95 -16.9)"/><path class="cls-63" d="M2878.77,1460.08c0,1.18-11.5,10.42-11.5,19.65,0,9.9,11.5,9.9,11.5,19.66" transform="translate(125.95 -16.9)"/><path class="cls-63" d="M2990.7,1465.62c0,1.18-11.5,10.42-11.5,19.65,0,9.9,11.5,9.9,11.5,19.66" transform="translate(125.95 -16.9)"/><path class="cls-63" d="M2962.07,1453.22c0,1.18-11.51,10.42-11.51,19.65,0,9.9,11.51,9.9,11.51,19.66" transform="translate(125.95 -16.9)"/><line class="cls-63" x1="3021.98" y1="1461.38" x2="3024.86" y2="1463.76"/><line class="cls-63" x1="3033.49" y1="1463.76" x2="3036.37" y2="1461.38"/><line class="cls-63" x1="3024.86" y1="1471.14" x2="3021.98" y2="1473.65"/><line class="cls-63" x1="3033.49" y1="1471.14" x2="3036.37" y2="1473.65"/><line class="cls-63" x1="3098.74" y1="1427.08" x2="3101.61" y2="1429.59"/><line class="cls-63" x1="3110.24" y1="1429.59" x2="3112.99" y2="1427.08"/><line class="cls-63" x1="3101.61" y1="1436.98" x2="3098.74" y2="1439.35"/><line class="cls-63" x1="3110.24" y1="1436.98" x2="3112.99" y2="1439.35"/><line class="cls-63" x1="3128.42" y1="1473.65" x2="3131.3" y2="1476.02"/><line class="cls-63" x1="3139.93" y1="1476.02" x2="3142.8" y2="1473.65"/><line class="cls-63" x1="3131.3" y1="1483.41" x2="3128.42" y2="1485.92"/><line class="cls-63" x1="3139.93" y1="1483.41" x2="3142.8" y2="1485.92"/></g><g id="Bold-L"><path class="cls-64" d="M2426.33,1565v9.14c0,7.13-38.68,19-86.29,19s-86.29-11.83-86.29-18.69v-9.14c0-20.44,14.55-39.27,37.37-49.89a191.08,191.08,0,0,1,2.89,31.2,6,6,0,0,0,5.77,6.18,6,6,0,0,0,5.77-6.18,199.27,199.27,0,0,0-2.89-34.3,116.07,116.07,0,0,1,28.72-5,169.82,169.82,0,0,1,5.77,45.32,6.05,6.05,0,0,0,5.78,6.18,6,6,0,0,0,5.77-6.18,176.14,176.14,0,0,0-5.77-45.32c10.88.27,21.63.4,31.08,3.23a182.6,182.6,0,0,1,3.41,35.77,6,6,0,0,0,5.77,6.18,6,6,0,0,0,5.77-6.18,189.75,189.75,0,0,0-2.89-31.2C2409.94,1525.58,2426.33,1544,2426.33,1565Z" transform="translate(125.95 -16.9)"/><path class="cls-65" d="M2343.06,1446.37c0,12.51-11.54,12.51-11.54,25s11.54,12.51,11.54,25" transform="translate(125.95 -16.9)"/><path class="cls-65" d="M2285.22,1465.06c0,1.21-11.54,10.63-11.54,20,0,10.08,11.54,10.08,11.54,20" transform="translate(125.95 -16.9)"/><path class="cls-65" d="M2397.48,1470.71c0,1.21-11.54,10.62-11.54,20,0,10.08,11.54,10.08,11.54,20" transform="translate(125.95 -16.9)"/><path class="cls-65" d="M2368.76,1458.07c0,1.21-11.54,10.62-11.54,20,0,10.08,11.54,10.08,11.54,20" transform="translate(125.95 -16.9)"/><line class="cls-65" x1="2428.48" y1="1466.72" x2="2431.37" y2="1469.14"/><line class="cls-65" x1="2440.02" y1="1469.14" x2="2442.91" y2="1466.72"/><line class="cls-65" x1="2431.37" y1="1476.67" x2="2428.48" y2="1479.23"/><line class="cls-65" x1="2440.02" y1="1476.67" x2="2442.91" y2="1479.23"/><line class="cls-65" x1="2505.46" y1="1431.76" x2="2508.35" y2="1434.31"/><line class="cls-65" x1="2517" y1="1434.31" x2="2519.76" y2="1431.76"/><line class="cls-65" x1="2508.35" y1="1441.84" x2="2505.46" y2="1444.26"/><line class="cls-65" x1="2517" y1="1441.84" x2="2519.76" y2="1444.26"/><line class="cls-65" x1="2535.23" y1="1479.23" x2="2538.12" y2="1481.65"/><line class="cls-65" x1="2546.77" y1="1481.65" x2="2549.66" y2="1479.23"/><line class="cls-65" x1="2538.12" y1="1489.18" x2="2535.23" y2="1491.73"/><line class="cls-65" x1="2546.77" y1="1489.18" x2="2549.66" y2="1491.73"/></g></g></svg>