<?xml version="1.0" encoding="UTF-8"?>
<!--Generator: Apple Native CoreSVG 123-->
<!DOCTYPE svg
PUBLIC "-//W3C//DTD SVG 1.1//EN"
       "http://www.w3.org/Graphics/SVG/1.1/DTD/svg11.dtd">
<svg version="1.1" xmlns="http://www.w3.org/2000/svg" xmlns:xlink="http://www.w3.org/1999/xlink" width="3300" height="2200">
 <!--glyph: "uni1004A0.medium", point size: 100.000000, font version: "Version 15.0d7e11", template writer version: "5"-->
 <g id="Notes">
  <rect height="2200" id="artboard" style="fill:white;opacity:1" width="3300" x="0" y="0"/>
  <line id="" style="fill:none;stroke:black;opacity:1;stroke-width:0.5;" x1="263" x2="3036" y1="292" y2="292"/>
  <text style="stroke:none;fill:black;font-family:-apple-system,&quot;SF Pro Display&quot;,&quot;SF Pro Text&quot;,Helvetica,sans-serif;font-weight:bold;" transform="matrix(1 0 0 1 263 322)">Weight/Scale Variations</text>
  <text style="stroke:none;fill:black;font-family:-apple-system,&quot;SF Pro Display&quot;,&quot;SF Pro Text&quot;,Helvetica,sans-serif;text-anchor:middle;" transform="matrix(1 0 0 1 559.711 322)">Ultralight</text>
  <text style="stroke:none;fill:black;font-family:-apple-system,&quot;SF Pro Display&quot;,&quot;SF Pro Text&quot;,Helvetica,sans-serif;text-anchor:middle;" transform="matrix(1 0 0 1 856.422 322)">Thin</text>
  <text style="stroke:none;fill:black;font-family:-apple-system,&quot;SF Pro Display&quot;,&quot;SF Pro Text&quot;,Helvetica,sans-serif;text-anchor:middle;" transform="matrix(1 0 0 1 1153.13 322)">Light</text>
  <text style="stroke:none;fill:black;font-family:-apple-system,&quot;SF Pro Display&quot;,&quot;SF Pro Text&quot;,Helvetica,sans-serif;text-anchor:middle;" transform="matrix(1 0 0 1 1449.84 322)">Regular</text>
  <text style="stroke:none;fill:black;font-family:-apple-system,&quot;SF Pro Display&quot;,&quot;SF Pro Text&quot;,Helvetica,sans-serif;text-anchor:middle;" transform="matrix(1 0 0 1 1746.56 322)">Medium</text>
  <text style="stroke:none;fill:black;font-family:-apple-system,&quot;SF Pro Display&quot;,&quot;SF Pro Text&quot;,Helvetica,sans-serif;text-anchor:middle;" transform="matrix(1 0 0 1 2043.27 322)">Semibold</text>
  <text style="stroke:none;fill:black;font-family:-apple-system,&quot;SF Pro Display&quot;,&quot;SF Pro Text&quot;,Helvetica,sans-serif;text-anchor:middle;" transform="matrix(1 0 0 1 2339.98 322)">Bold</text>
  <text style="stroke:none;fill:black;font-family:-apple-system,&quot;SF Pro Display&quot;,&quot;SF Pro Text&quot;,Helvetica,sans-serif;text-anchor:middle;" transform="matrix(1 0 0 1 2636.69 322)">Heavy</text>
  <text style="stroke:none;fill:black;font-family:-apple-system,&quot;SF Pro Display&quot;,&quot;SF Pro Text&quot;,Helvetica,sans-serif;text-anchor:middle;" transform="matrix(1 0 0 1 2933.4 322)">Black</text>
  <line id="" style="fill:none;stroke:black;opacity:1;stroke-width:0.5;" x1="263" x2="3036" y1="1903" y2="1903"/>
  <g id="" transform="matrix(1 0 0 1 263 1933)">
   <path d="M 9.24805 0.830078 C 13.5547 0.830078 17.1387 -2.74414 17.1387 -7.05078 C 17.1387 -11.3574 13.5449 -14.9316 9.23828 -14.9316 C 4.94141 -14.9316 1.36719 -11.3574 1.36719 -7.05078 C 1.36719 -2.74414 4.95117 0.830078 9.24805 0.830078 Z M 9.24805 -0.654297 C 5.70312 -0.654297 2.87109 -3.49609 2.87109 -7.05078 C 2.87109 -10.6055 5.69336 -13.4473 9.23828 -13.4473 C 12.793 -13.4473 15.6348 -10.6055 15.6445 -7.05078 C 15.6543 -3.49609 12.8027 -0.654297 9.24805 -0.654297 Z M 9.22852 -3.42773 C 9.69727 -3.42773 9.9707 -3.74023 9.9707 -4.25781 L 9.9707 -6.31836 L 12.1973 -6.31836 C 12.6953 -6.31836 13.0371 -6.57227 13.0371 -7.04102 C 13.0371 -7.51953 12.7148 -7.7832 12.1973 -7.7832 L 9.9707 -7.7832 L 9.9707 -10.0098 C 9.9707 -10.5273 9.69727 -10.8496 9.22852 -10.8496 C 8.75977 -10.8496 8.50586 -10.5078 8.50586 -10.0098 L 8.50586 -7.7832 L 6.29883 -7.7832 C 5.78125 -7.7832 5.44922 -7.51953 5.44922 -7.04102 C 5.44922 -6.57227 5.80078 -6.31836 6.29883 -6.31836 L 8.50586 -6.31836 L 8.50586 -4.25781 C 8.50586 -3.75977 8.75977 -3.42773 9.22852 -3.42773 Z"/>
  </g>
  <g id="" transform="matrix(1 0 0 1 281.506 1933)">
   <path d="M 11.709 2.91016 C 17.1582 2.91016 21.6699 -1.60156 21.6699 -7.05078 C 21.6699 -12.4902 17.1484 -17.0117 11.6992 -17.0117 C 6.25977 -17.0117 1.74805 -12.4902 1.74805 -7.05078 C 1.74805 -1.60156 6.26953 2.91016 11.709 2.91016 Z M 11.709 1.25 C 7.09961 1.25 3.41797 -2.44141 3.41797 -7.05078 C 3.41797 -11.6504 7.08984 -15.3516 11.6992 -15.3516 C 16.3086 -15.3516 20 -11.6504 20.0098 -7.05078 C 20.0195 -2.44141 16.3184 1.25 11.709 1.25 Z M 11.6895 -2.41211 C 12.207 -2.41211 12.5195 -2.77344 12.5195 -3.33984 L 12.5195 -6.23047 L 15.5762 -6.23047 C 16.123 -6.23047 16.5039 -6.51367 16.5039 -7.03125 C 16.5039 -7.55859 16.1426 -7.86133 15.5762 -7.86133 L 12.5195 -7.86133 L 12.5195 -10.9277 C 12.5195 -11.5039 12.207 -11.8555 11.6895 -11.8555 C 11.1719 -11.8555 10.8789 -11.4844 10.8789 -10.9277 L 10.8789 -7.86133 L 7.83203 -7.86133 C 7.26562 -7.86133 6.89453 -7.55859 6.89453 -7.03125 C 6.89453 -6.51367 7.28516 -6.23047 7.83203 -6.23047 L 10.8789 -6.23047 L 10.8789 -3.33984 C 10.8789 -2.79297 11.1719 -2.41211 11.6895 -2.41211 Z"/>
  </g>
  <g id="" transform="matrix(1 0 0 1 304.924 1933)">
   <path d="M 14.9707 5.67383 C 21.9336 5.67383 27.6953 -0.078125 27.6953 -7.04102 C 27.6953 -14.0039 21.9238 -19.7559 14.9609 -19.7559 C 8.00781 -19.7559 2.25586 -14.0039 2.25586 -7.04102 C 2.25586 -0.078125 8.01758 5.67383 14.9707 5.67383 Z M 14.9707 3.85742 C 8.93555 3.85742 4.08203 -1.00586 4.08203 -7.04102 C 4.08203 -13.0762 8.92578 -17.9395 14.9609 -17.9395 C 21.0059 -17.9395 25.8594 -13.0762 25.8691 -7.04102 C 25.8789 -1.00586 21.0156 3.85742 14.9707 3.85742 Z M 14.9512 -1.06445 C 15.5176 -1.06445 15.8691 -1.45508 15.8691 -2.06055 L 15.8691 -6.13281 L 20.1074 -6.13281 C 20.6934 -6.13281 21.1133 -6.46484 21.1133 -7.02148 C 21.1133 -7.59766 20.7227 -7.93945 20.1074 -7.93945 L 15.8691 -7.93945 L 15.8691 -12.1875 C 15.8691 -12.8027 15.5176 -13.1934 14.9512 -13.1934 C 14.3848 -13.1934 14.0625 -12.7832 14.0625 -12.1875 L 14.0625 -7.93945 L 9.83398 -7.93945 C 9.21875 -7.93945 8.80859 -7.59766 8.80859 -7.02148 C 8.80859 -6.46484 9.23828 -6.13281 9.83398 -6.13281 L 14.0625 -6.13281 L 14.0625 -2.06055 C 14.0625 -1.47461 14.3848 -1.06445 14.9512 -1.06445 Z"/>
  </g>
  <text style="stroke:none;fill:black;font-family:-apple-system,&quot;SF Pro Display&quot;,&quot;SF Pro Text&quot;,Helvetica,sans-serif;font-weight:bold;" transform="matrix(1 0 0 1 263 1953)">Design Variations</text>
  <text style="stroke:none;fill:black;font-family:-apple-system,&quot;SF Pro Display&quot;,&quot;SF Pro Text&quot;,Helvetica,sans-serif;" transform="matrix(1 0 0 1 263 1971)">Symbols are supported in up to nine weights and three scales.</text>
  <text style="stroke:none;fill:black;font-family:-apple-system,&quot;SF Pro Display&quot;,&quot;SF Pro Text&quot;,Helvetica,sans-serif;" transform="matrix(1 0 0 1 263 1989)">For optimal layout with text and other symbols, vertically align</text>
  <text style="stroke:none;fill:black;font-family:-apple-system,&quot;SF Pro Display&quot;,&quot;SF Pro Text&quot;,Helvetica,sans-serif;" transform="matrix(1 0 0 1 263 2007)">symbols with the adjacent text.</text>
  <rect height="14" id="" style="fill:#00AEEF;stroke:none;opacity:0.4;" width="3" x="776" y="1919"/>
  <g id="" transform="matrix(1 0 0 1 779 1933)">
   <path d="M 10.5273 0 L 12.373 0 L 7.17773 -14.0918 L 5.43945 -14.0918 L 0.244141 0 L 2.08984 0 L 3.50586 -4.0332 L 9.11133 -4.0332 Z M 6.2793 -11.9531 L 6.33789 -11.9531 L 8.59375 -5.52734 L 4.02344 -5.52734 Z"/>
  </g>
  <rect height="14" id="" style="fill:#00AEEF;stroke:none;opacity:0.4;" width="3" x="791.617" y="1919"/>
  <text style="stroke:none;fill:black;font-family:-apple-system,&quot;SF Pro Display&quot;,&quot;SF Pro Text&quot;,Helvetica,sans-serif;font-weight:bold;" transform="matrix(1 0 0 1 776 1953)">Margins</text>
  <text style="stroke:none;fill:black;font-family:-apple-system,&quot;SF Pro Display&quot;,&quot;SF Pro Text&quot;,Helvetica,sans-serif;" transform="matrix(1 0 0 1 776 1971)">Leading and trailing margins on the left and right side of each symbol</text>
  <text style="stroke:none;fill:black;font-family:-apple-system,&quot;SF Pro Display&quot;,&quot;SF Pro Text&quot;,Helvetica,sans-serif;" transform="matrix(1 0 0 1 776 1989)">can be adjusted by modifying the width of the blue rectangles.</text>
  <text style="stroke:none;fill:black;font-family:-apple-system,&quot;SF Pro Display&quot;,&quot;SF Pro Text&quot;,Helvetica,sans-serif;" transform="matrix(1 0 0 1 776 2007)">Modifications are automatically applied proportionally to all</text>
  <text style="stroke:none;fill:black;font-family:-apple-system,&quot;SF Pro Display&quot;,&quot;SF Pro Text&quot;,Helvetica,sans-serif;" transform="matrix(1 0 0 1 776 2025)">scales and weights.</text>
  <g id="" transform="matrix(1 0 0 1 1289 1933)">
   <path d="M 2.83203 3.11523 L 4.375 4.6582 C 5.22461 5.48828 6.19141 5.41992 7.06055 4.46289 L 17.2754 -6.66016 C 17.7051 -6.36719 18.0957 -6.37695 18.5645 -6.47461 L 19.6094 -6.68945 L 20.3027 -5.99609 L 20.2539 -5.47852 C 20.1855 -4.95117 20.3516 -4.53125 20.8496 -4.0332 L 21.6602 -3.22266 C 22.168 -2.71484 22.8223 -2.68555 23.3008 -3.16406 L 26.5527 -6.41602 C 27.0312 -6.89453 27.0117 -7.54883 26.5039 -8.05664 L 25.6836 -8.87695 C 25.1855 -9.375 24.7754 -9.55078 24.2383 -9.47266 L 23.7109 -9.41406 L 23.0566 -10.0781 L 23.3398 -11.2207 C 23.4863 -11.7871 23.3398 -12.2559 22.7148 -12.8613 L 20.3027 -15.2539 C 16.7578 -18.7793 12.2266 -18.6719 9.11133 -15.5371 C 8.69141 -15.1074 8.64258 -14.5215 8.91602 -14.0918 C 9.15039 -13.7207 9.62891 -13.4961 10.2734 -13.6621 C 11.7871 -14.043 13.3008 -13.9258 14.7852 -12.9199 L 14.1602 -11.3379 C 13.9258 -10.752 13.9453 -10.2734 14.1797 -9.83398 L 3.01758 0.439453 C 2.08008 1.30859 1.97266 2.25586 2.83203 3.11523 Z M 10.6738 -15.1465 C 13.3398 -17.1387 16.6504 -16.8262 19.0527 -14.4141 L 21.6797 -11.8066 C 21.9141 -11.5723 21.9434 -11.3867 21.8848 -11.0938 L 21.5039 -9.53125 L 23.0762 -7.95898 L 24.043 -8.04688 C 24.3262 -8.07617 24.4141 -8.05664 24.6387 -7.83203 L 25.2637 -7.20703 L 22.5098 -4.46289 L 21.8848 -5.07812 C 21.6602 -5.30273 21.6406 -5.40039 21.6699 -5.68359 L 21.7578 -6.64062 L 20.1953 -8.20312 L 18.5742 -7.89062 C 18.291 -7.83203 18.1445 -7.83203 17.9102 -8.07617 L 15.7324 -10.2539 C 15.5078 -10.4883 15.4785 -10.625 15.6055 -10.9473 L 16.5527 -13.2227 C 14.9512 -14.7559 12.8418 -15.6055 10.8008 -14.9512 C 10.7129 -14.9219 10.6445 -14.9414 10.6152 -14.9805 C 10.5859 -15.0293 10.5859 -15.0781 10.6738 -15.1465 Z M 4.10156 2.41211 C 3.61328 1.91406 3.78906 1.61133 4.12109 1.30859 L 15.0781 -8.80859 L 16.3086 -7.57812 L 6.15234 3.34961 C 5.84961 3.68164 5.46875 3.7793 5.06836 3.37891 Z"/>
  </g>
  <text style="stroke:none;fill:black;font-family:-apple-system,&quot;SF Pro Display&quot;,&quot;SF Pro Text&quot;,Helvetica,sans-serif;font-weight:bold;" transform="matrix(1 0 0 1 1289 1953)">Exporting</text>
  <text style="stroke:none;fill:black;font-family:-apple-system,&quot;SF Pro Display&quot;,&quot;SF Pro Text&quot;,Helvetica,sans-serif;" transform="matrix(1 0 0 1 1289 1971)">Symbols should be outlined when exporting to ensure the</text>
  <text style="stroke:none;fill:black;font-family:-apple-system,&quot;SF Pro Display&quot;,&quot;SF Pro Text&quot;,Helvetica,sans-serif;" transform="matrix(1 0 0 1 1289 1989)">design is preserved when submitting to Xcode.</text>
  <text id="template-version" style="stroke:none;fill:black;font-family:-apple-system,&quot;SF Pro Display&quot;,&quot;SF Pro Text&quot;,Helvetica,sans-serif;text-anchor:end;" transform="matrix(1 0 0 1 3036 1933)">Template v.1.0</text>
  <text style="stroke:none;fill:black;font-family:-apple-system,&quot;SF Pro Display&quot;,&quot;SF Pro Text&quot;,Helvetica,sans-serif;text-anchor:end;" transform="matrix(1 0 0 1 3036 1951)">Generated from link.circle</text>
  <text style="stroke:none;fill:black;font-family:-apple-system,&quot;SF Pro Display&quot;,&quot;SF Pro Text&quot;,Helvetica,sans-serif;text-anchor:end;" transform="matrix(1 0 0 1 3036 1969)">Typeset at 100 points</text>
  <text style="stroke:none;fill:black;font-family:-apple-system,&quot;SF Pro Display&quot;,&quot;SF Pro Text&quot;,Helvetica,sans-serif;" transform="matrix(1 0 0 1 263 726)">Small</text>
  <text style="stroke:none;fill:black;font-family:-apple-system,&quot;SF Pro Display&quot;,&quot;SF Pro Text&quot;,Helvetica,sans-serif;" transform="matrix(1 0 0 1 263 1156)">Medium</text>
  <text style="stroke:none;fill:black;font-family:-apple-system,&quot;SF Pro Display&quot;,&quot;SF Pro Text&quot;,Helvetica,sans-serif;" transform="matrix(1 0 0 1 263 1586)">Large</text>
 </g>
 <g id="Guides">
  <g id="H-reference" style="fill:#27AAE1;stroke:none;" transform="matrix(1 0 0 1 339 696)">
   <path d="M 54.9316 0 L 57.666 0 L 30.5664 -70.459 L 28.0762 -70.459 L 0.976562 0 L 3.66211 0 L 12.9395 -24.4629 L 45.7031 -24.4629 Z M 29.1992 -67.0898 L 29.4434 -67.0898 L 44.8242 -26.709 L 13.8184 -26.709 Z"/>
  </g>
  <line id="Baseline-S" style="fill:none;stroke:#27AAE1;opacity:1;stroke-width:0.577;" x1="263" x2="3036" y1="696" y2="696"/>
  <line id="Capline-S" style="fill:none;stroke:#27AAE1;opacity:1;stroke-width:0.577;" x1="263" x2="3036" y1="625.541" y2="625.541"/>
  <g id="H-reference" style="fill:#27AAE1;stroke:none;" transform="matrix(1 0 0 1 339 1126)">
   <path d="M 54.9316 0 L 57.666 0 L 30.5664 -70.459 L 28.0762 -70.459 L 0.976562 0 L 3.66211 0 L 12.9395 -24.4629 L 45.7031 -24.4629 Z M 29.1992 -67.0898 L 29.4434 -67.0898 L 44.8242 -26.709 L 13.8184 -26.709 Z"/>
  </g>
  <line id="Baseline-M" style="fill:none;stroke:#27AAE1;opacity:1;stroke-width:0.577;" x1="263" x2="3036" y1="1126" y2="1126"/>
  <line id="Capline-M" style="fill:none;stroke:#27AAE1;opacity:1;stroke-width:0.577;" x1="263" x2="3036" y1="1055.54" y2="1055.54"/>
  <g id="H-reference" style="fill:#27AAE1;stroke:none;" transform="matrix(1 0 0 1 339 1556)">
   <path d="M 54.9316 0 L 57.666 0 L 30.5664 -70.459 L 28.0762 -70.459 L 0.976562 0 L 3.66211 0 L 12.9395 -24.4629 L 45.7031 -24.4629 Z M 29.1992 -67.0898 L 29.4434 -67.0898 L 44.8242 -26.709 L 13.8184 -26.709 Z"/>
  </g>
  <line id="Baseline-L" style="fill:none;stroke:#27AAE1;opacity:1;stroke-width:0.577;" x1="263" x2="3036" y1="1556" y2="1556"/>
  <line id="Capline-L" style="fill:none;stroke:#27AAE1;opacity:1;stroke-width:0.577;" x1="263" x2="3036" y1="1485.54" y2="1485.54"/>
  <rect height="119.336" id="left-margin" style="fill:#00AEEF;stroke:none;opacity:0.4;" width="8.74023" x="1391.3" y="1030.79"/>
  <rect height="119.336" id="right-margin" style="fill:#00AEEF;stroke:none;opacity:0.4;" width="8.74023" x="1499.65" y="1030.79"/>
 </g>
 <g id="Symbols">
  <g id="Black-L" transform="matrix(1 0 0 1 2854.05 1556)">
   <path d="M 79.3457 32.8613 C 116.748 32.8613 147.412 2.19727 147.412 -35.2051 C 147.412 -72.6074 116.748 -103.271 79.2969 -103.271 C 41.8945 -103.271 11.2793 -72.6074 11.2793 -35.2051 C 11.2793 2.19727 41.9434 32.8613 79.3457 32.8613 Z M 79.3457 12.4023 C 52.9785 12.4023 31.7383 -8.83789 31.7383 -35.2051 C 31.7383 -61.5723 52.9297 -82.8125 79.2969 -82.8125 C 105.664 -82.8125 126.953 -61.5723 126.953 -35.2051 C 127.002 -8.83789 105.713 12.4023 79.3457 12.4023 Z M 103.271 -61.377 C 95.6543 -68.9453 86.2305 -68.1152 77.4414 -59.4727 L 71.1914 -53.418 C 62.3047 -44.6777 61.7188 -34.8633 69.3359 -27.5391 C 70.8496 -25.9766 72.9004 -24.5117 74.2676 -23.7305 C 76.3184 -25.3418 78.6621 -28.2227 79.2969 -30.0293 C 77.8809 -30.5664 75.7812 -31.9336 74.7559 -32.959 C 70.6055 -37.1582 71.2891 -42.5781 76.8066 -48.0957 L 82.6172 -53.8574 C 88.1348 -59.2773 93.5547 -60.0098 97.7051 -55.9082 C 101.904 -51.8066 101.221 -46.1914 95.7031 -40.8203 L 92.5781 -37.6953 C 93.75 -35.8398 94.1895 -30.7617 93.3594 -27.5879 L 101.318 -35.5469 C 110.059 -44.2871 110.742 -53.8574 103.271 -61.377 Z M 51.3672 -9.08203 C 58.9355 -1.46484 68.3594 -2.34375 77.1484 -10.9863 L 83.3984 -16.9922 C 92.334 -25.7812 92.9199 -35.5469 85.2539 -42.9199 C 83.7402 -44.4336 81.6895 -45.9473 80.3223 -46.7285 C 78.2715 -45.1172 75.9766 -42.2363 75.3418 -40.4297 C 76.709 -39.8926 78.8086 -38.5254 79.8828 -37.5 C 84.0332 -33.3008 83.3008 -27.8809 77.7832 -22.3633 L 71.9727 -16.6016 C 66.4551 -11.1816 61.084 -10.4492 56.8848 -14.502 C 52.7344 -18.6035 53.3691 -24.2676 58.8867 -29.6387 L 62.0117 -32.7637 C 60.8398 -34.6191 60.4004 -39.6973 61.2305 -42.8711 L 53.2715 -34.9121 C 44.5312 -26.123 43.8477 -16.6016 51.3672 -9.08203 Z"/>
  </g>
  <g id="Heavy-L" transform="matrix(1 0 0 1 2558.39 1556)">
   <path d="M 78.2715 31.7871 C 115.088 31.7871 145.312 1.61133 145.312 -35.2051 C 145.312 -72.0215 115.039 -102.197 78.2715 -102.197 C 41.4551 -102.197 11.2793 -72.0215 11.2793 -35.2051 C 11.2793 1.61133 41.5039 31.7871 78.2715 31.7871 Z M 78.2715 14.0137 C 51.0254 14.0137 29.0527 -7.95898 29.0527 -35.2051 C 29.0527 -62.5 50.9766 -84.4727 78.2715 -84.4727 C 105.518 -84.4727 127.49 -62.5 127.539 -35.2051 C 127.539 -7.95898 105.566 14.0137 78.2715 14.0137 Z M 102.93 -61.8652 C 95.4102 -69.4336 86.084 -68.6523 77.3438 -60.0586 L 70.2637 -53.125 C 61.4746 -44.4336 60.8398 -34.7656 68.4082 -27.4414 C 70.1172 -25.7324 72.2656 -24.2676 73.8281 -23.584 C 75.7324 -25.0488 77.9297 -27.7344 78.6133 -29.541 C 76.8555 -30.0293 74.707 -31.2988 73.4863 -32.5195 C 69.1895 -36.8652 69.873 -42.5293 75.4883 -48.0957 L 82.2266 -54.834 C 87.8418 -60.3516 93.457 -61.0352 97.7539 -56.7871 C 102.1 -52.5391 101.465 -46.7285 95.8496 -41.2598 L 91.748 -37.1582 C 92.8223 -35.2539 93.1641 -30.6152 92.334 -27.5391 L 101.123 -36.3281 C 109.766 -44.9707 110.4 -54.4434 102.93 -61.8652 Z M 49.9512 -8.59375 C 57.5195 -1.07422 66.8457 -1.85547 75.5371 -10.4492 L 82.6172 -17.3828 C 91.4551 -26.0742 92.041 -35.7422 84.4727 -43.0664 C 82.7637 -44.7754 80.6152 -46.2402 79.1016 -46.9238 C 77.1973 -45.459 75 -42.7734 74.3164 -40.9668 C 76.0742 -40.4785 78.1738 -39.209 79.3945 -37.9883 C 83.6914 -33.6426 83.0078 -27.9785 77.3926 -22.3633 L 70.6543 -15.6738 C 65.0391 -10.1562 59.4727 -9.47266 55.127 -13.7207 C 50.7812 -17.9688 51.416 -23.7793 57.0312 -29.248 L 61.1328 -33.3496 C 60.0586 -35.2539 59.7168 -39.8926 60.5957 -42.9688 L 51.8066 -34.1797 C 43.1641 -25.5371 42.4805 -16.0645 49.9512 -8.59375 Z"/>
  </g>
  <g id="Bold-L" transform="matrix(1 0 0 1 2262.88 1556)">
   <path d="M 77.0996 30.6152 C 113.232 30.6152 142.92 0.878906 142.92 -35.2051 C 142.92 -71.3379 113.184 -101.025 77.0508 -101.025 C 40.9668 -101.025 11.2793 -71.3379 11.2793 -35.2051 C 11.2793 0.878906 41.0156 30.6152 77.0996 30.6152 Z M 77.0996 15.8691 C 48.8281 15.8691 26.0742 -6.93359 26.0742 -35.2051 C 26.0742 -63.4766 48.7793 -86.2793 77.0508 -86.2793 C 105.371 -86.2793 128.125 -63.4766 128.174 -35.2051 C 128.174 -6.93359 105.371 15.8691 77.0996 15.8691 Z M 102.588 -62.5 C 95.1172 -69.9219 85.8887 -69.1895 77.2949 -60.7422 L 69.2383 -52.7832 C 60.5469 -44.1895 59.9121 -34.668 67.4316 -27.3438 C 69.3359 -25.4395 71.582 -23.9746 73.291 -23.3887 C 75.0488 -24.7559 77.0996 -27.1973 77.832 -29.0527 C 75.6836 -29.4434 73.5352 -30.6152 72.1191 -32.0312 C 67.627 -36.5234 68.3105 -42.4316 74.0723 -48.1445 L 81.8359 -55.9082 C 87.5 -61.5234 93.3594 -62.1582 97.8516 -57.7637 C 102.344 -53.3203 101.758 -47.3145 96.0449 -41.748 L 90.8203 -36.5723 C 91.7969 -34.5703 92.041 -30.4688 91.1621 -27.4902 L 100.83 -37.1582 C 109.375 -45.752 110.059 -55.0781 102.588 -62.5 Z M 48.3887 -8.05664 C 55.8594 -0.634766 65.1367 -1.36719 73.7305 -9.86328 L 81.7383 -17.7734 C 90.4297 -26.3672 91.0645 -35.8887 83.5938 -43.2129 C 81.6895 -45.166 79.4434 -46.582 77.7344 -47.168 C 75.9766 -45.8008 73.877 -43.3594 73.1934 -41.5527 C 75.3418 -41.1133 77.4902 -39.9414 78.9062 -38.5254 C 83.3496 -34.0332 82.7148 -28.125 76.9531 -22.4121 L 69.1895 -14.6484 C 63.5254 -9.0332 57.666 -8.39844 53.1738 -12.793 C 48.6816 -17.2363 49.2188 -23.2422 54.9805 -28.8086 L 60.1562 -33.9844 C 59.1797 -35.9863 58.9355 -40.0879 59.8633 -43.0664 L 50.1465 -33.3984 C 41.6504 -24.8535 40.9668 -15.4785 48.3887 -8.05664 Z"/>
  </g>
  <g id="Semibold-L" transform="matrix(1 0 0 1 1966.97 1556)">
   <path d="M 76.2695 29.7852 C 111.914 29.7852 141.309 0.439453 141.309 -35.2051 C 141.309 -70.8496 111.865 -100.244 76.2695 -100.244 C 40.625 -100.244 11.2793 -70.8496 11.2793 -35.2051 C 11.2793 0.439453 40.6738 29.7852 76.2695 29.7852 Z M 76.2695 17.0898 C 47.3145 17.0898 24.0234 -6.25 24.0234 -35.2051 C 24.0234 -64.209 47.2656 -87.5 76.2695 -87.5 C 105.225 -87.5 128.564 -64.209 128.613 -35.2051 C 128.662 -6.25 105.273 17.0898 76.2695 17.0898 Z M 102.393 -62.8906 C 94.9219 -70.2637 85.7422 -69.5801 77.2461 -61.1816 L 68.5059 -52.5391 C 59.9121 -43.9941 59.2773 -34.5703 66.6992 -27.2949 C 68.75 -25.1953 71.0938 -23.7793 72.9004 -23.291 C 74.5605 -24.5605 76.5625 -26.8066 77.2949 -28.6621 C 74.9023 -29.0527 72.7051 -30.127 71.1426 -31.7383 C 66.5527 -36.2793 67.1875 -42.3828 73.0469 -48.1934 L 81.543 -56.6406 C 87.2559 -62.3535 93.2617 -62.9395 97.8516 -58.3984 C 102.49 -53.8574 102.002 -47.7051 96.1426 -42.0898 L 90.1855 -36.1328 C 91.1133 -34.1309 91.2598 -30.3711 90.332 -27.4414 L 100.684 -37.7441 C 109.131 -46.2402 109.766 -55.5176 102.393 -62.8906 Z M 47.3145 -7.71484 C 54.7363 -0.341797 63.9648 -1.02539 72.4609 -9.42383 L 81.1523 -18.0664 C 89.7949 -26.6113 90.4297 -36.0352 82.959 -43.3105 C 80.9082 -45.4102 78.6133 -46.8262 76.7578 -47.3145 C 75.0977 -46.0449 73.1445 -43.7988 72.4121 -41.9434 C 74.8047 -41.5527 77.002 -40.4785 78.5156 -38.8672 C 83.1543 -34.3262 82.5195 -28.2227 76.6602 -22.4121 L 68.1641 -13.9648 C 62.4512 -8.25195 56.3965 -7.66602 51.8066 -12.207 C 47.2168 -16.748 47.7051 -22.9004 53.5156 -28.5156 L 59.4727 -34.4727 C 58.5938 -36.4746 58.4473 -40.2344 59.375 -43.1641 L 49.0234 -32.8613 C 40.5762 -24.3652 39.8926 -15.0879 47.3145 -7.71484 Z"/>
  </g>
  <g id="Medium-L" transform="matrix(1 0 0 1 1670.87 1556)">
   <path d="M 75.6836 29.1992 C 110.938 29.1992 140.088 0.0488281 140.088 -35.2051 C 140.088 -70.459 110.889 -99.6094 75.6348 -99.6094 C 40.3809 -99.6094 11.2793 -70.459 11.2793 -35.2051 C 11.2793 0.0488281 40.3809 29.1992 75.6836 29.1992 Z M 75.6836 18.0664 C 46.1426 18.0664 22.4609 -5.71289 22.4609 -35.2051 C 22.4609 -64.6973 46.1426 -88.4766 75.6348 -88.4766 C 105.127 -88.4766 128.906 -64.6973 128.906 -35.2051 C 128.955 -5.71289 105.176 18.0664 75.6836 18.0664 Z M 102.197 -63.1836 C 94.7754 -70.5566 85.6445 -69.9219 77.1973 -61.5234 L 67.9688 -52.3438 C 59.4238 -43.8477 58.7891 -34.5215 66.2109 -27.2461 C 68.3594 -25.0488 70.7031 -23.584 72.6074 -23.1934 C 74.2188 -24.3652 76.123 -26.5137 76.9043 -28.418 C 74.2676 -28.7598 72.0703 -29.7852 70.4102 -31.4453 C 65.7227 -36.1328 66.3574 -42.334 72.3145 -48.1934 L 81.2988 -57.2266 C 87.0605 -62.9883 93.2129 -63.5742 97.9004 -58.9355 C 102.637 -54.2969 102.148 -48.0469 96.2402 -42.334 L 89.7461 -35.8398 C 90.5762 -33.7402 90.6738 -30.3223 89.7461 -27.4414 L 100.537 -38.2324 C 108.936 -46.6309 109.57 -55.8594 102.197 -63.1836 Z M 46.4844 -7.42188 C 53.9062 -0.0976562 63.0371 -0.732422 71.4844 -9.13086 L 80.7129 -18.2617 C 89.2578 -26.7578 89.9414 -36.084 82.5195 -43.4082 C 80.3223 -45.6055 77.9785 -47.0215 76.0742 -47.4609 C 74.4629 -46.2402 72.5586 -44.1406 71.7773 -42.2363 C 74.4141 -41.8945 76.6113 -40.8691 78.2715 -39.1602 C 82.959 -34.5215 82.3242 -28.3203 76.416 -22.4609 L 67.3828 -13.4277 C 61.6211 -7.66602 55.4688 -7.08008 50.7812 -11.7188 C 46.0938 -16.3574 46.582 -22.6074 52.4414 -28.3203 L 58.9844 -34.8145 C 58.1543 -36.8652 58.0078 -40.332 58.9844 -43.2129 L 48.1445 -32.4219 C 39.7461 -23.9746 39.1113 -14.7949 46.4844 -7.42188 Z"/>
  </g>
  <g id="Regular-L" transform="matrix(1 0 0 1 1374.97 1556)">
   <path d="M 74.8535 28.3691 C 109.668 28.3691 138.477 -0.390625 138.477 -35.2051 C 138.477 -70.0195 109.619 -98.7793 74.8047 -98.7793 C 40.0391 -98.7793 11.2793 -70.0195 11.2793 -35.2051 C 11.2793 -0.390625 40.0879 28.3691 74.8535 28.3691 Z M 74.8535 19.2871 C 44.6777 19.2871 20.4102 -5.0293 20.4102 -35.2051 C 20.4102 -65.3809 44.6289 -89.6973 74.8047 -89.6973 C 105.029 -89.6973 129.297 -65.3809 129.346 -35.2051 C 129.395 -5.0293 105.078 19.2871 74.8535 19.2871 Z M 101.953 -63.623 C 94.6289 -70.8984 85.498 -70.3125 77.1484 -61.9629 L 67.2852 -52.0996 C 58.7891 -43.7012 58.1543 -34.4727 65.5273 -27.1484 C 67.8223 -24.8535 70.2148 -23.3887 72.2656 -23.0957 C 73.7793 -24.1699 75.5859 -26.123 76.3672 -28.0762 C 73.4863 -28.3203 71.2891 -29.2969 69.4824 -31.1523 C 64.6484 -35.8887 65.2832 -42.2852 71.2891 -48.2422 L 81.0547 -57.959 C 86.8164 -63.8184 93.1641 -64.3066 97.9492 -59.5703 C 102.783 -54.834 102.344 -48.4375 96.3867 -42.6758 L 89.1113 -35.4004 C 89.8438 -33.3008 89.8926 -30.2246 88.916 -27.3926 L 100.342 -38.8184 C 108.691 -47.168 109.326 -56.2988 101.953 -63.623 Z M 45.459 -7.08008 C 52.7832 0.195312 61.9141 -0.390625 70.2637 -8.74023 L 80.127 -18.5547 C 88.5742 -27.002 89.2578 -36.2305 81.8848 -43.5059 C 79.5898 -45.8496 77.1973 -47.2656 75.1465 -47.6074 C 73.6328 -46.4844 71.8262 -44.5312 70.9961 -42.627 C 73.9258 -42.334 76.123 -41.3574 77.9297 -39.5508 C 82.7148 -34.7656 82.1289 -28.418 76.0742 -22.4609 L 66.3574 -12.6953 C 60.5469 -6.88477 54.248 -6.34766 49.4629 -11.084 C 44.6289 -15.8691 45.1172 -22.2656 51.0254 -28.0273 L 58.3008 -35.2539 C 57.5195 -37.3535 57.5195 -40.4785 58.4961 -43.2617 L 47.0215 -31.8848 C 38.7207 -23.5352 38.0859 -14.3555 45.459 -7.08008 Z"/>
  </g>
  <g id="Light-L" transform="matrix(1 0 0 1 1079.18 1556)">
   <path d="M 73.9258 27.4902 C 108.301 27.4902 136.621 -0.830078 136.621 -35.1562 C 136.621 -69.5312 108.252 -97.8516 73.9258 -97.8516 C 39.5508 -97.8516 11.2793 -69.5312 11.2793 -35.1562 C 11.2793 -0.830078 39.5996 27.4902 73.9258 27.4902 Z M 73.9258 20.6055 C 43.1152 20.6055 18.2129 -4.3457 18.2129 -35.1562 C 18.2129 -66.0156 43.0664 -90.918 73.9258 -90.918 C 104.736 -90.918 129.688 -66.0156 129.736 -35.1562 C 129.736 -4.3457 104.785 20.6055 73.9258 20.6055 Z M 100.977 -63.623 C 93.8477 -70.6543 85.0098 -70.1172 77.1484 -62.3047 L 66.0156 -51.2207 C 58.1055 -43.3594 57.5684 -34.3262 64.6484 -27.2949 C 67.2852 -24.707 69.8242 -23.2422 72.2656 -22.9004 C 73.5352 -23.8281 75.0977 -25.4883 75.7324 -27.1973 C 72.6562 -27.3438 70.2148 -28.3691 67.9688 -30.6152 C 62.9883 -35.498 63.4277 -42.0898 69.2871 -47.9004 L 80.4688 -59.0332 C 86.1816 -64.7949 92.6758 -65.1855 97.6074 -60.2539 C 102.588 -55.3711 102.295 -48.8281 96.4355 -43.1641 L 87.6953 -34.375 C 88.2324 -32.5684 88.1836 -29.9316 87.207 -27.3926 L 99.6582 -39.7949 C 107.52 -47.6562 108.105 -56.6406 100.977 -63.623 Z M 44.4336 -7.08008 C 51.5625 -0.0488281 60.4004 -0.585938 68.2617 -8.39844 L 79.3945 -19.4824 C 87.3047 -27.3926 87.8418 -36.4258 80.7617 -43.4082 C 78.125 -45.9961 75.5859 -47.4609 73.0957 -47.8027 C 71.875 -46.875 70.3125 -45.2148 69.6777 -43.5059 C 72.7539 -43.4082 75.1953 -42.3828 77.3926 -40.0879 C 82.4219 -35.2051 81.9824 -28.6133 76.0742 -22.8516 L 64.9414 -11.6699 C 59.2285 -5.9082 52.7344 -5.56641 47.8027 -10.4492 C 42.8223 -15.332 43.1641 -21.9238 48.9746 -27.5879 L 57.7148 -36.3281 C 57.1777 -38.1348 57.2266 -40.7715 58.1543 -43.3594 L 45.7031 -30.9082 C 37.8906 -23.0469 37.3047 -14.1113 44.4336 -7.08008 Z"/>
  </g>
  <g id="Thin-L" transform="matrix(1 0 0 1 783.693 1556)">
   <path d="M 72.7051 26.3184 C 106.494 26.3184 134.18 -1.36719 134.18 -35.1074 C 134.18 -68.8965 106.494 -96.582 72.7051 -96.582 C 38.9648 -96.582 11.2793 -68.8965 11.2793 -35.1074 C 11.2793 -1.36719 38.9648 26.3184 72.7051 26.3184 Z M 72.7051 22.3145 C 41.0156 22.3145 15.2832 -3.41797 15.2832 -35.1074 C 15.2832 -66.8457 41.0156 -92.5781 72.7051 -92.5781 C 104.395 -92.5781 130.176 -66.8457 130.176 -35.1074 C 130.176 -3.41797 104.443 22.3145 72.7051 22.3145 Z M 99.6582 -63.6719 C 92.8711 -70.3125 84.375 -69.9219 77.1484 -62.7441 L 64.4043 -50.0488 C 57.1289 -42.8711 56.7871 -34.1309 63.5254 -27.4902 C 66.5527 -24.5605 69.3359 -23.0469 72.3145 -22.7051 C 73.1934 -23.3887 74.4141 -24.6582 74.8535 -26.0742 C 71.582 -25.9766 68.8477 -27.0996 66.0156 -29.9805 C 60.7422 -35.0098 60.9863 -41.8457 66.6504 -47.4609 L 79.7363 -60.4492 C 85.3516 -66.1133 92.041 -66.2598 97.1191 -61.1816 C 102.295 -56.0547 102.246 -49.3164 96.4844 -43.7988 L 85.8398 -33.0566 C 86.084 -31.5918 85.9375 -29.5898 84.9609 -27.3438 L 98.7793 -41.1133 C 106.006 -48.3398 106.445 -57.0312 99.6582 -63.6719 Z M 43.0664 -7.12891 C 49.9023 -0.439453 58.3496 -0.878906 65.625 -8.00781 L 78.3691 -20.7031 C 85.6445 -27.8809 85.9863 -36.6699 79.248 -43.2617 C 76.2207 -46.2402 73.4375 -47.7539 70.459 -48.0469 C 69.5312 -47.3633 68.3594 -46.1426 67.8711 -44.6777 C 71.1914 -44.7754 73.9258 -43.7012 76.7578 -40.7715 C 81.9824 -35.7422 81.7871 -28.9062 76.0742 -23.3398 L 62.9883 -10.3027 C 57.4219 -4.63867 50.7324 -4.49219 45.6543 -9.61914 C 40.4785 -14.6973 40.5762 -21.4844 46.2402 -27.002 L 56.9336 -37.6953 C 56.6895 -39.1602 56.8359 -41.2109 57.7637 -43.457 L 43.9941 -29.6387 C 36.7676 -22.4121 36.3281 -13.7207 43.0664 -7.12891 Z"/>
  </g>
  <g id="Ultralight-L" transform="matrix(1 0 0 1 487.616 1556)">
   <path d="M 72.1191 25.7324 C 105.566 25.7324 132.91 -1.61133 132.91 -35.1074 C 132.91 -68.5547 105.566 -95.8984 72.1191 -95.8984 C 38.623 -95.8984 11.2793 -68.5547 11.2793 -35.1074 C 11.2793 -1.61133 38.623 25.7324 72.1191 25.7324 Z M 72.1191 23.2422 C 39.9414 23.2422 13.7695 -2.97852 13.7695 -35.1074 C 13.7695 -67.2363 39.9414 -93.4082 72.1191 -93.4082 C 104.248 -93.4082 130.42 -67.2363 130.42 -35.1074 C 130.42 -2.97852 104.248 23.2422 72.1191 23.2422 Z M 99.0234 -63.6719 C 92.334 -70.166 84.082 -69.7754 77.1484 -62.9395 L 63.5254 -49.4629 C 56.6406 -42.627 56.3477 -34.0332 62.9395 -27.5879 C 66.2109 -24.4629 69.043 -22.9004 72.3145 -22.6074 C 73.0469 -23.1934 74.0723 -24.2188 74.4629 -25.4883 C 70.9961 -25.293 68.1152 -26.416 64.9902 -29.6387 C 59.6191 -34.7168 59.7168 -41.6992 65.332 -47.2168 L 79.3945 -61.1816 C 84.9121 -66.7969 91.6992 -66.8457 96.875 -61.6211 C 102.148 -56.4453 102.246 -49.5605 96.5332 -44.0918 L 84.8633 -32.373 C 84.9609 -31.1035 84.7656 -29.3945 83.8379 -27.2949 L 98.291 -41.7969 C 105.225 -48.7305 105.615 -57.2266 99.0234 -63.6719 Z M 42.3828 -7.12891 C 49.0723 -0.634766 57.3242 -0.976562 64.2578 -7.8125 L 77.8809 -21.3379 C 84.7656 -28.1738 85.0586 -36.7676 78.4668 -43.2129 C 75.1953 -46.3379 72.3633 -47.9004 69.0918 -48.1934 C 68.3594 -47.6074 67.334 -46.582 66.9922 -45.3125 C 70.4102 -45.5078 73.291 -44.3848 76.416 -41.1621 C 81.7871 -36.0352 81.6895 -29.0527 76.0742 -23.584 L 62.0117 -9.61914 C 56.4941 -4.00391 49.707 -3.95508 44.5312 -9.17969 C 39.2578 -14.3555 39.2578 -21.2402 44.873 -26.6602 L 56.543 -38.4277 C 56.4453 -39.6973 56.6406 -41.4062 57.5684 -43.5059 L 43.1152 -29.0039 C 36.1816 -22.0703 35.791 -13.5254 42.3828 -7.12891 Z"/>
  </g>
  <g id="Black-M" transform="matrix(1 0 0 1 2870.97 1126)">
   <path d="M 62.4023 18.457 C 91.9922 18.457 116.113 -5.61523 116.113 -35.2051 C 116.113 -64.7949 91.9922 -88.8672 62.4023 -88.8672 C 32.8125 -88.8672 8.74023 -64.7949 8.74023 -35.2051 C 8.74023 -5.61523 32.8125 18.457 62.4023 18.457 Z M 62.4023 0.195312 C 42.8711 0.195312 27.002 -15.625 27.002 -35.2051 C 27.002 -54.7363 42.8711 -70.6055 62.4023 -70.6055 C 81.9824 -70.6055 97.8027 -54.7363 97.8027 -35.2051 C 97.8027 -15.625 81.9824 0.195312 62.4023 0.195312 Z M 79.8828 -54.7852 C 74.0723 -60.6445 66.8457 -59.9609 60.1074 -53.418 L 55.7617 -49.2676 C 48.9746 -42.6758 48.6328 -35.0098 54.4922 -29.4922 C 55.6152 -28.3691 57.1777 -27.1973 58.2031 -26.416 C 59.8633 -27.7344 61.6699 -30.127 62.0117 -31.3477 C 61.2793 -31.7871 59.6191 -32.959 58.7891 -33.7891 C 55.7129 -36.9141 56.2012 -40.918 60.2051 -44.9707 L 64.209 -48.9258 C 68.4082 -52.9297 72.3633 -53.5156 75.4883 -50.4883 C 78.5645 -47.4121 78.0762 -43.2129 73.9746 -39.209 L 72.0703 -37.3535 C 73.0469 -36.084 73.4863 -31.7871 72.8516 -29.3457 L 78.4668 -34.9609 C 85.1562 -41.6504 85.6445 -49.0234 79.8828 -54.7852 Z M 41.1133 -15.625 C 46.9727 -9.76562 54.1992 -10.4492 60.9375 -16.9922 L 65.2344 -21.0938 C 72.0215 -27.6855 72.4121 -35.4004 66.5527 -40.918 C 65.4297 -42.041 63.8672 -43.2129 62.8418 -43.9941 C 61.1816 -42.6758 59.375 -40.2832 59.0332 -39.0625 C 59.7656 -38.623 61.4258 -37.4023 62.2559 -36.6211 C 65.332 -33.4961 64.8438 -29.4434 60.8398 -25.4395 L 56.8359 -21.4844 C 52.6367 -17.4316 48.6816 -16.8945 45.5566 -19.9219 C 42.4805 -22.9492 42.9688 -27.1973 47.0703 -31.1523 L 48.9258 -33.0566 C 47.998 -34.2773 47.5586 -38.623 48.1934 -41.0645 L 42.5781 -35.4004 C 35.8887 -28.7598 35.4004 -21.3379 41.1133 -15.625 Z"/>
  </g>
  <g id="Heavy-M" transform="matrix(1 0 0 1 2575.19 1126)">
   <path d="M 61.5234 17.5781 C 90.5273 17.5781 114.258 -6.15234 114.258 -35.2051 C 114.258 -64.2578 90.5273 -87.9883 61.4746 -87.9883 C 32.4707 -87.9883 8.74023 -64.2578 8.74023 -35.2051 C 8.74023 -6.15234 32.4707 17.5781 61.5234 17.5781 Z M 61.5234 1.66016 C 41.1133 1.66016 24.6582 -14.8438 24.6582 -35.2051 C 24.6582 -55.5664 41.1133 -72.0703 61.4746 -72.0703 C 81.8848 -72.0703 98.3398 -55.5664 98.3398 -35.2051 C 98.3398 -14.8438 81.8848 1.66016 61.5234 1.66016 Z M 79.834 -55.3711 C 73.9746 -61.1816 66.748 -60.5469 60.0098 -53.9551 L 55.0781 -49.1699 C 48.291 -42.5293 47.8516 -34.9609 53.7109 -29.3457 C 54.9316 -28.125 56.543 -26.9531 57.7148 -26.3184 C 59.2285 -27.5391 60.9863 -29.7363 61.4258 -31.0547 C 60.4004 -31.4941 58.7402 -32.5684 57.8125 -33.4473 C 54.5898 -36.6699 55.127 -40.918 59.3262 -45.0684 L 63.9648 -49.707 C 68.2129 -53.8574 72.3633 -54.3945 75.6348 -51.2207 C 78.8574 -48.0469 78.3691 -43.7012 74.1211 -39.5996 L 71.582 -37.0117 C 72.4609 -35.6445 72.8027 -31.6895 72.168 -29.2969 L 78.418 -35.5469 C 85.0586 -42.2363 85.5957 -49.6094 79.834 -55.3711 Z M 39.8926 -15.0879 C 45.7031 -9.27734 52.9297 -9.91211 59.668 -16.5039 L 64.5996 -21.2891 C 71.4355 -27.9297 71.8262 -35.498 65.9668 -41.1133 C 64.7461 -42.334 63.1348 -43.5059 62.0117 -44.1406 C 60.4492 -42.9199 58.6914 -40.6738 58.252 -39.3555 C 59.3262 -38.9648 60.9863 -37.8906 61.8652 -37.0117 C 65.0879 -33.7891 64.5996 -29.541 60.4004 -25.3418 L 55.7129 -20.752 C 51.4648 -16.6016 47.3145 -16.0156 44.0918 -19.1895 C 40.8691 -22.3633 41.3086 -26.7578 45.5566 -30.8594 L 48.1445 -33.4473 C 47.2656 -34.8145 46.9238 -38.7207 47.5586 -41.1133 L 41.3086 -34.9121 C 34.6191 -28.2227 34.1309 -20.8496 39.8926 -15.0879 Z"/>
  </g>
  <g id="Bold-M" transform="matrix(1 0 0 1 2279.5 1126)">
   <path d="M 60.498 16.5039 C 88.8672 16.5039 112.207 -6.78711 112.207 -35.2051 C 112.207 -63.623 88.8672 -86.9629 60.4492 -86.9629 C 32.0312 -86.9629 8.74023 -63.623 8.74023 -35.2051 C 8.74023 -6.78711 32.0801 16.5039 60.498 16.5039 Z M 60.498 3.22266 C 39.1602 3.22266 22.0703 -13.916 22.0703 -35.2051 C 22.0703 -56.4941 39.1602 -73.6816 60.4492 -73.6816 C 81.7383 -73.6816 98.9258 -56.4941 98.9258 -35.2051 C 98.9746 -13.916 81.7871 3.22266 60.498 3.22266 Z M 79.7363 -56.0059 C 73.877 -61.8164 66.6992 -61.2305 59.9609 -54.5898 L 54.2969 -49.0723 C 47.5098 -42.334 47.0215 -34.8633 52.8809 -29.1992 C 54.248 -27.832 55.9082 -26.6602 57.1289 -26.1719 C 58.5938 -27.2949 60.2539 -29.3457 60.791 -30.7617 C 59.375 -31.1035 57.7148 -32.0801 56.7383 -33.0566 C 53.3691 -36.4258 53.9062 -40.8691 58.3008 -45.2148 L 63.6719 -50.5859 C 68.0176 -54.8828 72.4121 -55.4199 75.7812 -52.0996 C 79.1504 -48.7793 78.7109 -44.2383 74.3164 -39.9902 L 70.9473 -36.6211 C 71.7773 -35.1074 72.0703 -31.6406 71.3867 -29.248 L 78.3203 -36.1816 C 85.0098 -42.9199 85.5469 -50.1953 79.7363 -56.0059 Z M 38.4766 -14.502 C 44.2871 -8.69141 51.5137 -9.27734 58.252 -15.918 L 63.916 -21.4355 C 70.7031 -28.1738 71.1914 -35.6445 65.332 -41.3086 C 63.9648 -42.6758 62.3047 -43.8477 61.084 -44.3359 C 59.6191 -43.2129 57.959 -41.1621 57.4219 -39.7461 C 58.8379 -39.3555 60.498 -38.4277 61.4746 -37.4512 C 64.8438 -34.082 64.3066 -29.6387 59.9121 -25.293 L 54.541 -19.9219 C 50.1953 -15.625 45.8008 -15.0879 42.4316 -18.4082 C 39.0137 -21.7285 39.502 -26.2695 43.8965 -30.5176 L 47.2168 -33.8379 C 46.3867 -35.3516 46.1426 -38.8672 46.8262 -41.2598 L 39.8926 -34.3262 C 33.2031 -27.5879 32.666 -20.2637 38.4766 -14.502 Z"/>
  </g>
  <g id="Semibold-M" transform="matrix(1 0 0 1 1983.5 1126)">
   <path d="M 59.7656 15.8203 C 87.7441 15.8203 110.791 -7.22656 110.791 -35.2051 C 110.791 -63.1836 87.6953 -86.2793 59.7656 -86.2793 C 31.7871 -86.2793 8.74023 -63.1836 8.74023 -35.2051 C 8.74023 -7.22656 31.7871 15.8203 59.7656 15.8203 Z M 59.7656 4.3457 C 37.8418 4.3457 20.2637 -13.2812 20.2637 -35.2051 C 20.2637 -57.1289 37.793 -74.8047 59.7656 -74.8047 C 81.6895 -74.8047 99.3164 -57.1289 99.3652 -35.2051 C 99.3652 -13.2812 81.6895 4.3457 59.7656 4.3457 Z M 79.6875 -56.4453 C 73.8281 -62.2559 66.6504 -61.6699 59.8633 -55.0293 L 53.7598 -48.9746 C 46.9238 -42.1875 46.4355 -34.8145 52.2949 -29.0527 C 53.7109 -27.5879 55.4199 -26.4648 56.6895 -26.0742 C 58.1055 -27.1484 59.7656 -29.0527 60.3516 -30.5176 C 58.6426 -30.9082 57.0312 -31.7383 56.0059 -32.8125 C 52.5391 -36.2793 53.0762 -40.8203 57.6172 -45.3125 L 63.4766 -51.1719 C 67.8711 -55.5664 72.4121 -56.1035 75.8789 -52.6855 C 79.3945 -49.2676 78.9062 -44.5801 74.4629 -40.2344 L 70.5566 -36.377 C 71.3379 -34.7656 71.5332 -31.5918 70.8496 -29.248 L 78.2715 -36.6211 C 84.9609 -43.3594 85.498 -50.6348 79.6875 -56.4453 Z M 37.5 -14.1113 C 43.3105 -8.30078 50.5371 -8.83789 57.2754 -15.5273 L 63.3789 -21.582 C 70.2148 -28.3203 70.752 -35.7422 64.8926 -41.4551 C 63.4277 -42.9199 61.7188 -44.043 60.4492 -44.4824 C 59.082 -43.4082 57.4219 -41.5039 56.8359 -39.9902 C 58.4961 -39.6484 60.1562 -38.7695 61.1816 -37.7441 C 64.6484 -34.2773 64.0625 -29.6875 59.5703 -25.1953 L 53.7109 -19.3359 C 49.2676 -14.9414 44.7266 -14.4531 41.2598 -17.8711 C 37.793 -21.2891 38.2324 -25.9277 42.7246 -30.2734 L 46.6309 -34.1309 C 45.8008 -35.7422 45.6543 -38.9648 46.3379 -41.3086 L 38.916 -33.8867 C 32.2266 -27.1973 31.6895 -19.9219 37.5 -14.1113 Z"/>
  </g>
  <g id="Medium-M" transform="matrix(1 0 0 1 1687.3 1126)">
   <path d="M 59.2285 15.2832 C 86.9141 15.2832 109.766 -7.56836 109.766 -35.2051 C 109.766 -62.8906 86.8652 -85.7422 59.1797 -85.7422 C 31.543 -85.7422 8.74023 -62.8906 8.74023 -35.2051 C 8.74023 -7.56836 31.5918 15.2832 59.2285 15.2832 Z M 59.2285 5.17578 C 36.8164 5.17578 18.8965 -12.8418 18.8965 -35.2051 C 18.8965 -57.6172 36.8164 -75.6348 59.1797 -75.6348 C 81.5918 -75.6348 99.6094 -57.6172 99.6582 -35.2051 C 99.707 -12.8418 81.6406 5.17578 59.2285 5.17578 Z M 79.6387 -56.7871 C 73.8281 -62.5977 66.6016 -62.0605 59.8633 -55.3223 L 53.3691 -48.9258 C 46.5332 -42.0898 45.9961 -34.7656 51.8066 -29.0039 C 53.3203 -27.4414 55.0781 -26.3672 56.3965 -26.0254 C 57.7637 -27.002 59.375 -28.8574 60.0098 -30.3711 C 58.1055 -30.7129 56.4941 -31.4941 55.4199 -32.6172 C 51.9043 -36.1328 52.4414 -40.8203 57.0801 -45.4102 L 63.3301 -51.6602 C 67.7734 -56.1035 72.4609 -56.6406 75.9766 -53.125 C 79.541 -49.6094 79.1016 -44.873 74.5117 -40.4297 L 70.2637 -36.1816 C 70.9961 -34.5215 71.1426 -31.543 70.4102 -29.1992 L 78.2227 -36.9629 C 84.9121 -43.7012 85.4492 -50.9766 79.6387 -56.7871 Z M 36.7676 -13.8184 C 42.5781 -8.00781 49.8047 -8.54492 56.543 -15.2344 L 63.0371 -21.6797 C 69.873 -28.4668 70.4102 -35.791 64.5508 -41.6016 C 63.0371 -43.1152 61.2793 -44.2383 60.0098 -44.5801 C 58.6426 -43.5547 57.0312 -41.748 56.3965 -40.1855 C 58.252 -39.8926 59.8633 -39.0625 60.9375 -37.9883 C 64.502 -34.4238 63.916 -29.7363 59.3262 -25.1953 L 53.0762 -18.9453 C 48.584 -14.4531 43.9453 -13.9648 40.3809 -17.4316 C 36.8164 -20.9473 37.3047 -25.6836 41.8457 -30.127 L 46.1426 -34.375 C 45.3613 -36.084 45.2637 -39.0137 45.9473 -41.3574 L 38.1836 -33.5938 C 31.4453 -26.8555 30.9082 -19.6289 36.7676 -13.8184 Z"/>
  </g>
  <g id="Regular-M" transform="matrix(1 0 0 1 1391.3 1126)">
   <path d="M 58.5449 14.5508 C 85.791 14.5508 108.35 -8.00781 108.35 -35.2539 C 108.35 -62.4512 85.7422 -85.0586 58.4961 -85.0586 C 31.2988 -85.0586 8.74023 -62.4512 8.74023 -35.2539 C 8.74023 -8.00781 31.3477 14.5508 58.5449 14.5508 Z M 58.5449 6.25 C 35.498 6.25 17.0898 -12.207 17.0898 -35.2539 C 17.0898 -58.252 35.4492 -76.7578 58.4961 -76.7578 C 81.543 -76.7578 100 -58.252 100.049 -35.2539 C 100.098 -12.207 81.5918 6.25 58.5449 6.25 Z M 79.5898 -57.2266 C 73.7305 -62.9883 66.5527 -62.5 59.7656 -55.7617 L 52.832 -48.8281 C 45.9961 -41.9922 45.4102 -34.7168 51.2695 -28.9062 C 52.832 -27.2461 54.6387 -26.1719 56.0059 -25.9277 C 57.3242 -26.8555 58.8379 -28.5645 59.5703 -30.127 C 57.4219 -30.4688 55.8105 -31.2012 54.6875 -32.3242 C 51.0742 -35.9863 51.6602 -40.8203 56.3965 -45.5078 L 63.1348 -52.2461 C 67.6758 -56.7871 72.4609 -57.3242 76.123 -53.7109 C 79.7852 -50.0977 79.3457 -45.2637 74.6582 -40.7227 L 69.873 -35.9375 C 70.5566 -34.1797 70.6543 -31.4941 69.873 -29.1992 L 78.1738 -37.4023 C 84.8633 -44.1895 85.4492 -51.3672 79.5898 -57.2266 Z M 35.791 -13.3789 C 41.6016 -7.61719 48.8281 -8.10547 55.5664 -14.8438 L 62.5488 -21.7773 C 69.3848 -28.6133 69.9707 -35.8887 64.1113 -41.6992 C 62.5 -43.3594 60.7422 -44.4336 59.375 -44.6777 C 58.0566 -43.75 56.4941 -42.041 55.8105 -40.4785 C 57.9102 -40.1367 59.5215 -39.4043 60.6445 -38.2812 C 64.3066 -34.6191 63.7207 -29.834 58.9844 -25.1465 L 52.2461 -18.3594 C 47.7051 -13.8184 42.9199 -13.2812 39.2578 -16.8945 C 35.5957 -20.5078 36.0352 -25.3418 40.7227 -29.8828 L 45.5078 -34.668 C 44.8242 -36.4746 44.7266 -39.1113 45.459 -41.4062 L 37.207 -33.2031 C 30.4688 -26.416 29.9316 -19.2383 35.791 -13.3789 Z"/>
  </g>
  <g id="Light-M" transform="matrix(1 0 0 1 1095.42 1126)">
   <path d="M 57.7148 13.7695 C 84.5215 13.7695 106.689 -8.39844 106.689 -35.2051 C 106.689 -62.0117 84.5215 -84.1797 57.666 -84.1797 C 30.8594 -84.1797 8.74023 -62.0117 8.74023 -35.2051 C 8.74023 -8.39844 30.9082 13.7695 57.7148 13.7695 Z M 57.7148 7.4707 C 34.082 7.4707 15.0879 -11.5723 15.0879 -35.2051 C 15.0879 -58.8379 34.082 -77.832 57.666 -77.832 C 81.2988 -77.832 100.342 -58.8379 100.391 -35.2051 C 100.391 -11.5723 81.3477 7.4707 57.7148 7.4707 Z M 78.7109 -57.2266 C 73.0957 -62.793 66.1133 -62.3535 59.7656 -56.0547 L 51.709 -48.0469 C 45.3125 -41.6504 44.873 -34.5703 50.4883 -29.0039 C 52.3438 -27.1484 54.2969 -26.0254 56.0059 -25.7812 C 57.0801 -26.5625 58.3984 -27.9785 58.9844 -29.3945 C 56.6895 -29.541 54.8828 -30.3223 53.3691 -31.8848 C 49.5605 -35.6445 50 -40.625 54.5898 -45.166 L 62.5977 -53.2227 C 67.0898 -57.7148 72.0215 -58.0566 75.7812 -54.3457 C 79.5898 -50.5859 79.2969 -45.6055 74.707 -41.1621 L 68.6035 -35.0586 C 69.0918 -33.4961 69.0918 -31.25 68.3594 -29.1504 L 77.5391 -38.3301 C 83.8379 -44.6289 84.3262 -51.6602 78.7109 -57.2266 Z M 34.8633 -13.4277 C 40.5273 -7.86133 47.4609 -8.30078 53.8086 -14.5996 L 61.8652 -22.6074 C 68.2617 -28.9551 68.7012 -36.084 63.0859 -41.6016 C 61.2305 -43.5059 59.2773 -44.6289 57.5684 -44.873 C 56.4941 -44.0918 55.1758 -42.6758 54.5898 -41.2598 C 56.8848 -41.1133 58.6914 -40.332 60.2051 -38.7695 C 64.0137 -35.0098 63.5742 -30.0293 58.9844 -25.4395 L 50.9766 -17.4316 C 46.4844 -12.9395 41.5527 -12.5977 37.793 -16.3086 C 33.9844 -20.0684 34.3262 -25.0488 38.8672 -29.4922 L 44.9707 -35.5957 C 44.4824 -37.1582 44.4824 -39.4043 45.2148 -41.5039 L 36.0352 -32.3242 C 29.7363 -26.0254 29.248 -18.9941 34.8633 -13.4277 Z"/>
  </g>
  <g id="Thin-M" transform="matrix(1 0 0 1 799.806 1126)">
   <path d="M 56.6406 12.7441 C 82.9102 12.7441 104.492 -8.83789 104.492 -35.1562 C 104.492 -61.4746 82.9102 -83.0566 56.5918 -83.0566 C 30.3223 -83.0566 8.74023 -61.4746 8.74023 -35.1562 C 8.74023 -8.83789 30.3223 12.7441 56.6406 12.7441 Z M 56.6406 8.98438 C 32.2266 8.98438 12.4512 -10.791 12.4512 -35.1562 C 12.4512 -59.5215 32.2266 -79.2969 56.5918 -79.2969 C 81.0059 -79.2969 100.781 -59.5215 100.781 -35.1562 C 100.781 -10.791 81.0059 8.98438 56.6406 8.98438 Z M 77.5391 -57.2266 C 72.168 -62.5 65.5273 -62.1582 59.7656 -56.4453 L 50.2441 -46.9727 C 44.4824 -41.2598 44.1406 -34.4238 49.4629 -29.1992 C 51.709 -27.002 53.8086 -25.8301 56.0547 -25.5859 C 56.7871 -26.1719 57.8125 -27.1973 58.2031 -28.3691 C 55.7129 -28.3691 53.6621 -29.1992 51.5625 -31.2988 C 47.5586 -35.1562 47.8027 -40.4297 52.2461 -44.7754 L 61.9629 -54.4922 C 66.3086 -58.8867 71.4355 -59.0332 75.3906 -55.127 C 79.3457 -51.2207 79.248 -46.0449 74.7559 -41.6992 L 66.9434 -33.8379 C 67.1875 -32.6172 67.0898 -30.9082 66.3574 -29.1016 L 76.7578 -39.502 C 82.4707 -45.2637 82.8613 -52.0508 77.5391 -57.2266 Z M 33.6914 -13.4277 C 39.0137 -8.20312 45.6543 -8.54492 51.416 -14.2578 L 60.9375 -23.7305 C 66.748 -29.4434 67.041 -36.2793 61.7188 -41.5039 C 59.4727 -43.7012 57.373 -44.873 55.1758 -45.1172 C 54.3945 -44.5312 53.3691 -43.457 52.9785 -42.2852 C 55.5176 -42.334 57.5684 -41.5039 59.6191 -39.4043 C 63.623 -35.498 63.4277 -30.2734 58.9844 -25.8789 L 49.2676 -16.2109 C 44.873 -11.8164 39.7461 -11.6699 35.8398 -15.5762 C 31.8848 -19.4824 32.0312 -24.6582 36.4258 -28.9551 L 44.2871 -36.8652 C 44.043 -38.0859 44.1406 -39.7461 44.873 -41.5527 L 34.4727 -31.2012 C 28.7109 -25.4395 28.3691 -18.6523 33.6914 -13.4277 Z"/>
  </g>
  <g id="Ultralight-M" transform="matrix(1 0 0 1 503.656 1126)">
   <path d="M 56.0547 12.207 C 82.0801 12.207 103.369 -9.08203 103.369 -35.1562 C 103.369 -61.1816 82.0801 -82.4707 56.0547 -82.4707 C 30.0293 -82.4707 8.74023 -61.1816 8.74023 -35.1562 C 8.74023 -9.08203 30.0293 12.207 56.0547 12.207 Z M 56.0547 9.81445 C 31.2988 9.81445 11.1328 -10.3516 11.1328 -35.1562 C 11.1328 -59.9121 31.2988 -80.0781 56.0547 -80.0781 C 80.8594 -80.0781 100.977 -59.9121 100.977 -35.1562 C 100.977 -10.3516 80.8594 9.81445 56.0547 9.81445 Z M 76.9531 -57.2754 C 71.7285 -62.3535 65.2344 -62.0605 59.7656 -56.6406 L 49.5117 -46.4355 C 44.043 -41.0156 43.7988 -34.3262 48.9746 -29.2969 C 51.416 -26.9043 53.6133 -25.7324 56.0547 -25.4883 C 56.6406 -25.9766 57.5195 -26.8066 57.8125 -27.8809 C 55.1758 -27.7344 52.9785 -28.6133 50.6836 -31.0059 C 46.5332 -34.9121 46.6797 -40.2832 51.0254 -44.5801 L 61.6211 -55.127 C 65.918 -59.4727 71.1426 -59.5215 75.1465 -55.5664 C 79.1992 -51.5625 79.248 -46.2402 74.8047 -41.9922 L 66.0645 -33.2031 C 66.1621 -32.1777 66.0645 -30.7617 65.332 -29.1016 L 76.3184 -40.0879 C 81.7871 -45.5566 82.0801 -52.2461 76.9531 -57.2754 Z M 33.0566 -13.4277 C 38.2812 -8.34961 44.7754 -8.64258 50.1953 -14.0625 L 60.498 -24.2676 C 65.9668 -29.6875 66.2109 -36.377 61.0352 -41.4062 C 58.5938 -43.7988 56.3965 -44.9707 53.9551 -45.2637 C 53.3203 -44.7754 52.4902 -43.8965 52.1973 -42.8223 C 54.7852 -42.9688 56.9824 -42.0898 59.3262 -39.6973 C 63.4277 -35.791 63.3301 -30.4199 58.9844 -26.123 L 48.3887 -15.5762 C 44.0918 -11.2305 38.8184 -11.1816 34.8145 -15.1367 C 30.7617 -19.1406 30.8105 -24.4629 35.2051 -28.7109 L 43.9453 -37.5 C 43.7988 -38.5254 43.9453 -39.9414 44.6777 -41.6016 L 33.6914 -30.6152 C 28.2227 -25.1465 27.8809 -18.5059 33.0566 -13.4277 Z"/>
  </g>
  <g id="Black-S" transform="matrix(1 0 0 1 2884.57 696)">
   <path d="M 48.8281 6.78711 C 71.9727 6.78711 90.8203 -12.0605 90.8203 -35.2051 C 90.8203 -58.3496 71.9727 -77.1973 48.8281 -77.1973 C 25.6836 -77.1973 6.83594 -58.3496 6.83594 -35.2051 C 6.83594 -12.0605 25.6836 6.78711 48.8281 6.78711 Z M 48.8281 -7.37305 C 33.4473 -7.37305 20.9961 -19.8242 20.9961 -35.2051 C 20.9961 -50.5859 33.4473 -63.0371 48.8281 -63.0371 C 64.209 -63.0371 76.6602 -50.5859 76.6602 -35.2051 C 76.6602 -19.8242 64.209 -7.37305 48.8281 -7.37305 Z M 62.5977 -50.5859 C 58.0078 -55.1758 52.3438 -54.6387 47.0703 -49.5117 L 43.6523 -46.2402 C 38.3301 -41.0645 38.0371 -35.0586 42.627 -30.7129 C 43.5059 -29.834 44.7266 -28.9062 45.5566 -28.3203 C 46.8262 -29.3457 48.2422 -31.2012 48.5352 -32.1777 C 47.9492 -32.5195 46.6309 -33.4473 45.9961 -34.082 C 43.5547 -36.5234 43.9453 -39.6973 47.1191 -42.8711 L 50.293 -45.9961 C 53.5645 -49.1699 56.6895 -49.6094 59.1309 -47.2168 C 61.5723 -44.8242 61.1816 -41.5039 57.959 -38.3789 L 56.4453 -36.8652 C 57.1777 -35.8887 57.5195 -32.5195 57.0312 -30.6152 L 61.4746 -35.0586 C 66.6992 -40.2832 67.0898 -46.0938 62.5977 -50.5859 Z M 32.1289 -19.8242 C 36.7188 -15.2344 42.3828 -15.7715 47.6562 -20.8984 L 51.0742 -24.1699 C 56.3965 -29.3457 56.6895 -35.3516 52.0996 -39.6973 C 51.2207 -40.5762 50 -41.5039 49.1699 -42.0898 C 47.9004 -41.0645 46.4844 -39.209 46.1914 -38.2324 C 46.7773 -37.8906 48.0957 -36.9629 48.7305 -36.3281 C 51.1719 -33.8867 50.7812 -30.7129 47.6074 -27.5391 L 44.4336 -24.4141 C 41.1621 -21.2402 38.0371 -20.8008 35.5957 -23.1934 C 33.1543 -25.5859 33.5449 -28.9062 36.7676 -32.0312 L 38.2812 -33.5449 C 37.5488 -34.5215 37.207 -37.8906 37.6953 -39.7949 L 33.252 -35.3516 C 28.0273 -30.127 27.6367 -24.3164 32.1289 -19.8242 Z"/>
  </g>
  <g id="Heavy-S" transform="matrix(1 0 0 1 2588.47 696)">
   <path d="M 48.2422 6.15234 C 70.9961 6.15234 89.5996 -12.4512 89.5996 -35.2051 C 89.5996 -57.959 70.9961 -76.6113 48.1934 -76.6113 C 25.4395 -76.6113 6.83594 -57.959 6.83594 -35.2051 C 6.83594 -12.4512 25.4395 6.15234 48.2422 6.15234 Z M 48.2422 -6.39648 C 32.2754 -6.39648 19.4336 -19.2871 19.4336 -35.2051 C 19.4336 -51.1719 32.2754 -64.0137 48.1934 -64.0137 C 64.1602 -64.0137 77.002 -51.1719 77.0508 -35.2051 C 77.0508 -19.2871 64.1602 -6.39648 48.2422 -6.39648 Z M 62.6465 -51.0254 C 58.0078 -55.6152 52.3438 -55.127 47.0215 -49.9023 L 43.2617 -46.2402 C 37.8418 -40.9668 37.5 -35.0098 42.1387 -30.6152 C 43.0664 -29.6387 44.2871 -28.7598 45.166 -28.2227 C 46.3867 -29.1992 47.8027 -31.0059 48.1445 -32.0312 C 47.3145 -32.373 46.0449 -33.2031 45.4102 -33.8867 C 42.8711 -36.377 43.3105 -39.6973 46.6309 -43.0176 L 50.1465 -46.4844 C 53.5156 -49.7559 56.7383 -50.1953 59.2773 -47.7539 C 61.8164 -45.2637 61.4258 -41.8457 58.0566 -38.623 L 56.2012 -36.7188 C 56.8848 -35.5957 57.1777 -32.5195 56.6406 -30.6152 L 61.4746 -35.4004 C 66.748 -40.6738 67.1875 -46.4844 62.6465 -51.0254 Z M 31.25 -19.4336 C 35.8887 -14.7949 41.5527 -15.332 46.875 -20.5566 L 50.6348 -24.2188 C 56.0547 -29.4922 56.3965 -35.4492 51.7578 -39.8438 C 50.8301 -40.8203 49.6094 -41.6992 48.7305 -42.1875 C 47.5098 -41.2109 46.0938 -39.4531 45.752 -38.3789 C 46.582 -38.0859 47.8516 -37.207 48.4863 -36.5723 C 51.0254 -34.0332 50.5859 -30.7617 47.2656 -27.4414 L 43.75 -23.9746 C 40.3809 -20.6543 37.1582 -20.2148 34.6191 -22.7051 C 32.0801 -25.1953 32.4707 -28.6133 35.8398 -31.8359 L 37.7441 -33.7402 C 37.0117 -34.8145 36.7188 -37.9395 37.2559 -39.8438 L 32.4219 -35.0586 C 27.1484 -29.7363 26.709 -23.9746 31.25 -19.4336 Z"/>
  </g>
  <g id="Bold-S" transform="matrix(1 0 0 1 2292.44 696)">
   <path d="M 47.5586 5.46875 C 69.873 5.46875 88.2324 -12.8906 88.2324 -35.2051 C 88.2324 -57.5684 69.873 -75.9277 47.5098 -75.9277 C 25.1953 -75.9277 6.83594 -57.5684 6.83594 -35.2051 C 6.83594 -12.8906 25.1953 5.46875 47.5586 5.46875 Z M 47.5586 -5.32227 C 30.957 -5.32227 17.6758 -18.6523 17.6758 -35.2051 C 17.6758 -51.8066 30.957 -65.1367 47.5098 -65.1367 C 64.1113 -65.1367 77.4414 -51.8066 77.4414 -35.2051 C 77.4414 -18.6523 64.1113 -5.32227 47.5586 -5.32227 Z M 62.6953 -51.5137 C 58.0566 -56.1523 52.3438 -55.6641 46.9727 -50.3418 L 42.7734 -46.2402 C 37.3047 -40.8691 36.9141 -34.9609 41.5527 -30.4688 C 42.5781 -29.4434 43.8477 -28.5645 44.7266 -28.1738 C 45.8984 -29.1016 47.2656 -30.7617 47.7539 -31.8848 C 46.6309 -32.2266 45.4102 -32.959 44.7266 -33.6426 C 42.1387 -36.2305 42.5781 -39.6973 46.0938 -43.1641 L 50 -47.0703 C 53.418 -50.4395 56.8359 -50.8789 59.4727 -48.291 C 62.0605 -45.752 61.6699 -42.2363 58.2031 -38.8672 L 55.9082 -36.5723 C 56.5918 -35.3027 56.7871 -32.4707 56.25 -30.5664 L 61.5234 -35.791 C 66.8457 -41.1621 67.2852 -46.9238 62.6953 -51.5137 Z M 30.3223 -18.9941 C 34.9121 -14.3555 40.625 -14.8438 46.0449 -20.166 L 50.1953 -24.2188 C 55.6641 -29.6387 56.0547 -35.498 51.416 -40.0391 C 50.3906 -41.0645 49.1211 -41.9434 48.291 -42.334 C 47.0703 -41.4062 45.7031 -39.7461 45.2637 -38.5742 C 46.3379 -38.2812 47.5586 -37.5 48.2422 -36.8652 C 50.8301 -34.2285 50.3906 -30.8105 46.9238 -27.3438 L 42.9688 -23.4375 C 39.5508 -20.0684 36.1328 -19.5801 33.5449 -22.168 C 30.9082 -24.7559 31.2988 -28.2715 34.7656 -31.6406 L 37.1094 -33.9355 C 36.377 -35.2051 36.1816 -37.9883 36.7188 -39.9414 L 31.4941 -34.7168 C 26.123 -29.3457 25.6836 -23.584 30.3223 -18.9941 Z"/>
  </g>
  <g id="Semibold-S" transform="matrix(1 0 0 1 1996.2 696)">
   <path d="M 47.0703 4.98047 C 69.0918 4.98047 87.3047 -13.1836 87.3047 -35.2539 C 87.3047 -57.2754 69.0918 -75.4883 47.0215 -75.4883 C 25 -75.4883 6.83594 -57.2754 6.83594 -35.2539 C 6.83594 -13.1836 25.0488 4.98047 47.0703 4.98047 Z M 47.0703 -4.58984 C 30.0781 -4.58984 16.4551 -18.2129 16.4551 -35.2539 C 16.4551 -52.2461 30.0293 -65.8691 47.0215 -65.8691 C 64.0625 -65.8691 77.6855 -52.2461 77.7344 -35.2539 C 77.7344 -18.2129 64.0625 -4.58984 47.0703 -4.58984 Z M 62.6953 -51.8555 C 58.0566 -56.4941 52.3438 -56.0059 46.9238 -50.6348 L 42.4805 -46.2402 C 36.9629 -40.8203 36.5234 -34.9609 41.1621 -30.3711 C 42.2363 -29.2969 43.5059 -28.418 44.3848 -28.125 C 45.5566 -29.0039 46.9238 -30.5664 47.4609 -31.7871 C 46.1914 -32.1289 44.9707 -32.8125 44.2871 -33.4473 C 41.6504 -36.1328 42.0898 -39.6973 45.7031 -43.2617 L 49.8535 -47.4121 C 53.3691 -50.8789 56.8848 -51.3672 59.5703 -48.7305 C 62.2559 -46.0938 61.8652 -42.4805 58.3008 -39.0137 L 55.6641 -36.4258 C 56.3477 -35.1074 56.543 -32.4707 55.957 -30.5664 L 61.5234 -36.0352 C 66.8945 -41.4551 67.334 -47.2168 62.6953 -51.8555 Z M 29.6387 -18.6523 C 34.2773 -14.0137 39.9902 -14.502 45.459 -19.873 L 49.8535 -24.2676 C 55.3711 -29.7363 55.8105 -35.5469 51.1719 -40.1367 C 50.0977 -41.2109 48.8281 -42.0898 47.9492 -42.4316 C 46.7773 -41.5527 45.4102 -39.9414 44.9219 -38.7207 C 46.1914 -38.3789 47.3633 -37.7441 48.0469 -37.0605 C 50.7324 -34.375 50.2441 -30.8105 46.6309 -27.2949 L 42.4805 -23.0957 C 38.9648 -19.6289 35.4492 -19.1406 32.7637 -21.7773 C 30.0781 -24.4629 30.5176 -28.0273 34.0332 -31.4941 L 36.6699 -34.082 C 35.9863 -35.4492 35.791 -38.0371 36.377 -39.9902 L 30.8105 -34.4727 C 25.4395 -29.0527 25 -23.291 29.6387 -18.6523 Z"/>
  </g>
  <g id="Medium-S" transform="matrix(1 0 0 1 1699.83 696)">
   <path d="M 46.7285 4.63867 C 68.5547 4.63867 86.6211 -13.4277 86.6211 -35.2539 C 86.6211 -57.0312 68.5059 -75.1465 46.6797 -75.1465 C 24.8535 -75.1465 6.83594 -57.0312 6.83594 -35.2539 C 6.83594 -13.4277 24.9023 4.63867 46.7285 4.63867 Z M 46.7285 -4.00391 C 29.3945 -4.00391 15.5273 -17.9199 15.5273 -35.2539 C 15.5273 -52.5879 29.3457 -66.4551 46.6797 -66.4551 C 64.0137 -66.4551 77.8809 -52.5879 77.9297 -35.2539 C 77.9785 -17.9199 64.0625 -4.00391 46.7285 -4.00391 Z M 62.7441 -52.0996 C 58.1055 -56.7383 52.3438 -56.2988 46.875 -50.8789 L 42.2363 -46.2402 C 36.6699 -40.7227 36.2305 -34.9121 40.8691 -30.2734 C 41.9434 -29.1992 43.2617 -28.3203 44.1406 -28.0762 C 45.3125 -28.9062 46.6797 -30.4688 47.2168 -31.7383 C 45.8008 -32.0312 44.6289 -32.666 43.9453 -33.3496 C 41.2598 -36.084 41.748 -39.6973 45.4102 -43.3105 L 49.8047 -47.7051 C 53.3203 -51.2695 56.9336 -51.709 59.668 -49.0234 C 62.4023 -46.3379 61.9629 -42.6758 58.3496 -39.1602 L 55.5176 -36.3281 C 56.2012 -34.9121 56.3477 -32.4707 55.7617 -30.5176 L 61.5234 -36.2305 C 66.9434 -41.6992 67.3828 -47.4609 62.7441 -52.0996 Z M 29.1504 -18.4082 C 33.7891 -13.7695 39.5508 -14.209 44.9707 -19.6777 L 49.6094 -24.2676 C 55.1758 -29.7852 55.6641 -35.5957 50.9766 -40.2344 C 49.9023 -41.3574 48.584 -42.1875 47.7051 -42.4805 C 46.5332 -41.6504 45.2148 -40.0879 44.6289 -38.8184 C 46.0449 -38.4766 47.2168 -37.8906 47.9004 -37.207 C 50.6348 -34.4727 50.1465 -30.8594 46.4355 -27.1973 L 42.0898 -22.8027 C 38.5254 -19.2871 34.9609 -18.8477 32.2266 -21.5332 C 29.4434 -24.2188 29.8828 -27.8809 33.4961 -31.3965 L 36.3281 -34.1797 C 35.6445 -35.5957 35.5469 -38.0859 36.084 -39.9902 L 30.3223 -34.2773 C 24.9512 -28.8086 24.4629 -23.0957 29.1504 -18.4082 Z"/>
  </g>
  <g id="Regular-S" transform="matrix(1 0 0 1 1403.58 696)">
   <path d="M 46.2402 4.15039 C 67.7734 4.15039 85.6934 -13.7207 85.6934 -35.2539 C 85.6934 -56.7871 67.7246 -74.6582 46.1914 -74.6582 C 24.707 -74.6582 6.83594 -56.7871 6.83594 -35.2539 C 6.83594 -13.7207 24.7559 4.15039 46.2402 4.15039 Z M 46.2402 -3.27148 C 28.5156 -3.27148 14.3555 -17.4805 14.3555 -35.2539 C 14.3555 -53.0273 28.4668 -67.2363 46.1914 -67.2363 C 63.9648 -67.2363 78.1738 -53.0273 78.2227 -35.2539 C 78.2715 -17.4805 64.0137 -3.27148 46.2402 -3.27148 Z M 62.7441 -52.4414 C 58.1055 -57.0801 52.3438 -56.6895 46.8262 -51.1719 L 41.8945 -46.2402 C 36.3281 -40.6738 35.791 -34.9121 40.5273 -30.1758 C 41.6016 -29.0527 42.9688 -28.2227 43.8477 -28.0273 C 44.9707 -28.8086 46.3379 -30.2734 46.9238 -31.6406 C 45.3613 -31.9336 44.1895 -32.4707 43.5059 -33.2031 C 40.7227 -35.9863 41.2598 -39.6484 45.0195 -43.4082 L 49.6582 -48.0957 C 53.2715 -51.709 56.9824 -52.1484 59.7656 -49.4141 C 62.5488 -46.6797 62.1582 -42.9199 58.4473 -39.3066 L 55.3223 -36.2305 C 55.957 -34.7168 56.0547 -32.4219 55.4688 -30.5176 L 61.5234 -36.5234 C 66.9922 -41.9922 67.4316 -47.7539 62.7441 -52.4414 Z M 28.4668 -18.1152 C 33.1055 -13.4766 38.916 -13.916 44.3848 -19.3848 L 49.3164 -24.3164 C 54.8828 -29.8828 55.4199 -35.6934 50.7324 -40.3809 C 49.6094 -41.5039 48.2422 -42.3828 47.3633 -42.5781 C 46.2402 -41.748 44.9219 -40.2832 44.2871 -38.9648 C 45.8984 -38.623 47.0215 -38.0859 47.7539 -37.4023 C 50.4883 -34.5703 50 -30.9082 46.1914 -27.1484 L 41.5527 -22.4609 C 37.9395 -18.8477 34.2773 -18.4082 31.4453 -21.1426 C 28.6621 -23.9258 29.0527 -27.6367 32.7637 -31.25 L 35.8887 -34.3262 C 35.2539 -35.8398 35.1562 -38.1348 35.7422 -40.0391 L 29.6875 -34.0332 C 24.2676 -28.5645 23.7793 -22.8027 28.4668 -18.1152 Z"/>
  </g>
  <g id="Light-S" transform="matrix(1 0 0 1 1107.6 696)">
   <path d="M 45.5078 3.4668 C 66.6992 3.4668 84.2285 -14.0625 84.2285 -35.2051 C 84.2285 -56.3965 66.6504 -73.9258 45.5078 -73.9258 C 24.3164 -73.9258 6.83594 -56.3965 6.83594 -35.2051 C 6.83594 -14.0625 24.3652 3.4668 45.5078 3.4668 Z M 45.5078 -2.24609 C 27.2461 -2.24609 12.5977 -16.9434 12.5977 -35.2051 C 12.5977 -53.5156 27.1973 -68.2129 45.5078 -68.2129 C 63.7695 -68.2129 78.4668 -53.5156 78.5156 -35.2051 C 78.5156 -16.9434 63.8184 -2.24609 45.5078 -2.24609 Z M 61.9629 -52.4414 C 57.5195 -56.8848 51.9531 -56.543 46.8262 -51.416 L 40.918 -45.5566 C 35.7422 -40.3809 35.3516 -34.7656 39.8438 -30.3223 C 41.2109 -28.9551 42.6758 -28.0762 43.8477 -27.8809 C 44.7754 -28.5645 45.8984 -29.7852 46.4355 -30.957 C 44.6777 -31.1523 43.3594 -31.7383 42.2852 -32.7637 C 39.4043 -35.6934 39.7949 -39.502 43.457 -43.1641 L 49.2188 -48.9258 C 52.7832 -52.4902 56.5918 -52.832 59.4727 -49.9512 C 62.4023 -47.0703 62.1094 -43.2129 58.4961 -39.6973 L 54.1992 -35.4492 C 54.6875 -34.1309 54.7363 -32.2266 54.1504 -30.4688 L 60.9863 -37.3047 C 66.0645 -42.4316 66.4551 -47.998 61.9629 -52.4414 Z M 27.6855 -18.1152 C 32.1289 -13.6719 37.6953 -14.0625 42.8223 -19.1406 L 48.7305 -25.0488 C 53.9062 -30.1758 54.2969 -35.8398 49.8047 -40.2832 C 48.4375 -41.6504 46.9727 -42.5293 45.8008 -42.7246 C 44.8242 -42.041 43.7012 -40.8203 43.2129 -39.6484 C 44.9707 -39.4531 46.2891 -38.8672 47.3145 -37.793 C 50.2441 -34.9121 49.8535 -31.0547 46.1914 -27.4414 L 40.3809 -21.6309 C 36.8652 -18.1152 33.0566 -17.7734 30.1758 -20.6543 C 27.2461 -23.4863 27.5391 -27.3926 31.1523 -30.9082 L 35.4492 -35.1562 C 34.9609 -36.4746 34.9121 -38.3789 35.498 -40.0879 L 28.6621 -33.3008 C 23.584 -28.1738 23.1934 -22.6074 27.6855 -18.1152 Z"/>
  </g>
  <g id="Thin-S" transform="matrix(1 0 0 1 811.867 696)">
   <path d="M 44.5801 2.53906 C 65.2832 2.53906 82.2754 -14.4531 82.2754 -35.2051 C 82.2754 -55.9082 65.2344 -72.9004 44.5312 -72.9004 C 23.8281 -72.9004 6.83594 -55.9082 6.83594 -35.2051 C 6.83594 -14.4531 23.877 2.53906 44.5801 2.53906 Z M 44.5801 -0.878906 C 25.5859 -0.878906 10.2539 -16.2109 10.2539 -35.2051 C 10.2539 -54.1504 25.5859 -69.4824 44.5312 -69.4824 C 63.5254 -69.4824 78.8574 -54.1504 78.8574 -35.2051 C 78.8574 -16.2109 63.5254 -0.878906 44.5801 -0.878906 Z M 60.9375 -52.4902 C 56.6895 -56.6406 51.4648 -56.3477 46.8262 -51.7578 L 39.6484 -44.6289 C 35.0098 -40.0391 34.7168 -34.6191 38.9648 -30.4688 C 40.625 -28.8086 42.2363 -27.8809 43.8965 -27.6855 C 44.5312 -28.2227 45.4102 -29.1016 45.752 -30.0781 C 43.7988 -30.0781 42.2363 -30.7129 40.7227 -32.2754 C 37.6465 -35.2539 37.8418 -39.3555 41.3574 -42.8223 L 48.6816 -50.0488 C 52.0996 -53.5156 56.1035 -53.7109 59.1309 -50.6836 C 62.207 -47.6562 62.1094 -43.6035 58.5449 -40.1855 L 52.7344 -34.375 C 52.9785 -33.3496 52.9297 -31.9336 52.3438 -30.4688 L 60.2539 -38.3301 C 64.8926 -42.9688 65.1855 -48.3398 60.9375 -52.4902 Z M 26.6113 -18.1641 C 30.8594 -13.9648 36.1328 -14.2578 40.7227 -18.8477 L 47.9004 -25.9766 C 52.5391 -30.6152 52.832 -35.9863 48.6328 -40.1855 C 46.9238 -41.8457 45.3125 -42.7246 43.6523 -42.9199 C 43.0176 -42.4316 42.1387 -41.5527 41.7969 -40.5762 C 43.75 -40.5762 45.3125 -39.8926 46.8262 -38.3789 C 49.9023 -35.3516 49.707 -31.2988 46.1914 -27.832 L 38.916 -20.5566 C 35.4492 -17.0898 31.4941 -16.9434 28.418 -19.9707 C 25.3418 -22.998 25.4883 -27.0508 29.0039 -30.4199 L 34.8145 -36.2793 C 34.5703 -37.2559 34.6191 -38.7207 35.2051 -40.1855 L 27.2949 -32.2754 C 22.7051 -27.6855 22.3633 -22.3145 26.6113 -18.1641 Z"/>
  </g>
  <g id="Ultralight-S" transform="matrix(1 0 0 1 515.644 696)">
   <path d="M 44.043 2.05078 C 64.502 2.05078 81.2988 -14.6973 81.2988 -35.1562 C 81.2988 -55.6152 64.502 -72.3633 44.043 -72.3633 C 23.584 -72.3633 6.83594 -55.6152 6.83594 -35.1562 C 6.83594 -14.6973 23.584 2.05078 44.043 2.05078 Z M 44.043 -0.146484 C 24.7559 -0.146484 9.08203 -15.8691 9.08203 -35.1562 C 9.08203 -54.4434 24.7559 -70.166 44.043 -70.166 C 63.3789 -70.166 79.0527 -54.4434 79.0527 -35.1562 C 79.0527 -15.8691 63.3789 -0.146484 44.043 -0.146484 Z M 60.4004 -52.4902 C 56.2988 -56.543 51.1719 -56.25 46.8262 -51.9531 L 38.9648 -44.1406 C 34.6191 -39.8438 34.375 -34.5215 38.4766 -30.5664 C 40.332 -28.7109 42.041 -27.7832 43.8965 -27.5879 C 44.4336 -28.0273 45.1172 -28.7598 45.4102 -29.5898 C 43.3594 -29.541 41.6992 -30.1758 39.9414 -31.9824 C 36.7188 -35.0586 36.8652 -39.209 40.2832 -42.627 L 48.3398 -50.6348 C 51.7578 -54.0527 55.8105 -54.1504 58.9355 -51.0254 C 62.1094 -47.9492 62.0605 -43.7988 58.5938 -40.4785 L 52.002 -33.8379 C 52.0996 -32.959 52.002 -31.7871 51.416 -30.4199 L 59.9121 -38.8672 C 64.2578 -43.2617 64.502 -48.4863 60.4004 -52.4902 Z M 26.0742 -18.1641 C 30.1758 -14.1113 35.3027 -14.3555 39.6484 -18.7012 L 47.5098 -26.5137 C 51.8555 -30.8105 52.0996 -36.1328 47.998 -40.0879 C 46.1426 -41.9434 44.4336 -42.8223 42.5781 -43.0176 C 42.041 -42.627 41.3574 -41.8945 41.0645 -41.0645 C 43.1152 -41.1133 44.7754 -40.4297 46.5332 -38.6719 C 49.7559 -35.5957 49.6094 -31.3965 46.1914 -28.0273 L 38.1348 -20.0195 C 34.7168 -16.5527 30.6641 -16.5039 27.5391 -19.6289 C 24.4141 -22.7051 24.4629 -26.8555 27.8809 -30.1758 L 34.4727 -36.8164 C 34.375 -37.6953 34.4727 -38.8672 35.0586 -40.2344 L 26.5625 -31.7383 C 22.2168 -27.3926 21.9727 -22.168 26.0742 -18.1641 Z"/>
  </g>
 </g>
</svg>
