<?xml version="1.0" encoding="UTF-8"?>
<!--Generator: Apple Native CoreSVG 123-->
<!DOCTYPE svg
PUBLIC "-//W3C//DTD SVG 1.1//EN"
       "http://www.w3.org/Graphics/SVG/1.1/DTD/svg11.dtd">
<svg version="1.1" xmlns="http://www.w3.org/2000/svg" xmlns:xlink="http://www.w3.org/1999/xlink" width="3300" height="2200">
 <!--glyph: "uni100247.medium", point size: 100.000000, font version: "Version 15.0d7e11", template writer version: "5"-->
 <g id="Notes">
  <rect height="2200" id="artboard" style="fill:white;opacity:1" width="3300" x="0" y="0"/>
  <line id="" style="fill:none;stroke:black;opacity:1;stroke-width:0.5;" x1="263" x2="3036" y1="292" y2="292"/>
  <text style="stroke:none;fill:black;font-family:-apple-system,&quot;SF Pro Display&quot;,&quot;SF Pro Text&quot;,Helvetica,sans-serif;font-weight:bold;" transform="matrix(1 0 0 1 263 322)">Weight/Scale Variations</text>
  <text style="stroke:none;fill:black;font-family:-apple-system,&quot;SF Pro Display&quot;,&quot;SF Pro Text&quot;,Helvetica,sans-serif;text-anchor:middle;" transform="matrix(1 0 0 1 559.711 322)">Ultralight</text>
  <text style="stroke:none;fill:black;font-family:-apple-system,&quot;SF Pro Display&quot;,&quot;SF Pro Text&quot;,Helvetica,sans-serif;text-anchor:middle;" transform="matrix(1 0 0 1 856.422 322)">Thin</text>
  <text style="stroke:none;fill:black;font-family:-apple-system,&quot;SF Pro Display&quot;,&quot;SF Pro Text&quot;,Helvetica,sans-serif;text-anchor:middle;" transform="matrix(1 0 0 1 1153.13 322)">Light</text>
  <text style="stroke:none;fill:black;font-family:-apple-system,&quot;SF Pro Display&quot;,&quot;SF Pro Text&quot;,Helvetica,sans-serif;text-anchor:middle;" transform="matrix(1 0 0 1 1449.84 322)">Regular</text>
  <text style="stroke:none;fill:black;font-family:-apple-system,&quot;SF Pro Display&quot;,&quot;SF Pro Text&quot;,Helvetica,sans-serif;text-anchor:middle;" transform="matrix(1 0 0 1 1746.56 322)">Medium</text>
  <text style="stroke:none;fill:black;font-family:-apple-system,&quot;SF Pro Display&quot;,&quot;SF Pro Text&quot;,Helvetica,sans-serif;text-anchor:middle;" transform="matrix(1 0 0 1 2043.27 322)">Semibold</text>
  <text style="stroke:none;fill:black;font-family:-apple-system,&quot;SF Pro Display&quot;,&quot;SF Pro Text&quot;,Helvetica,sans-serif;text-anchor:middle;" transform="matrix(1 0 0 1 2339.98 322)">Bold</text>
  <text style="stroke:none;fill:black;font-family:-apple-system,&quot;SF Pro Display&quot;,&quot;SF Pro Text&quot;,Helvetica,sans-serif;text-anchor:middle;" transform="matrix(1 0 0 1 2636.69 322)">Heavy</text>
  <text style="stroke:none;fill:black;font-family:-apple-system,&quot;SF Pro Display&quot;,&quot;SF Pro Text&quot;,Helvetica,sans-serif;text-anchor:middle;" transform="matrix(1 0 0 1 2933.4 322)">Black</text>
  <line id="" style="fill:none;stroke:black;opacity:1;stroke-width:0.5;" x1="263" x2="3036" y1="1903" y2="1903"/>
  <g id="" transform="matrix(1 0 0 1 263 1933)">
   <path d="M 9.24805 0.830078 C 13.5547 0.830078 17.1387 -2.74414 17.1387 -7.05078 C 17.1387 -11.3574 13.5449 -14.9316 9.23828 -14.9316 C 4.94141 -14.9316 1.36719 -11.3574 1.36719 -7.05078 C 1.36719 -2.74414 4.95117 0.830078 9.24805 0.830078 Z M 9.24805 -0.654297 C 5.70312 -0.654297 2.87109 -3.49609 2.87109 -7.05078 C 2.87109 -10.6055 5.69336 -13.4473 9.23828 -13.4473 C 12.793 -13.4473 15.6348 -10.6055 15.6445 -7.05078 C 15.6543 -3.49609 12.8027 -0.654297 9.24805 -0.654297 Z M 9.22852 -3.42773 C 9.69727 -3.42773 9.9707 -3.74023 9.9707 -4.25781 L 9.9707 -6.31836 L 12.1973 -6.31836 C 12.6953 -6.31836 13.0371 -6.57227 13.0371 -7.04102 C 13.0371 -7.51953 12.7148 -7.7832 12.1973 -7.7832 L 9.9707 -7.7832 L 9.9707 -10.0098 C 9.9707 -10.5273 9.69727 -10.8496 9.22852 -10.8496 C 8.75977 -10.8496 8.50586 -10.5078 8.50586 -10.0098 L 8.50586 -7.7832 L 6.29883 -7.7832 C 5.78125 -7.7832 5.44922 -7.51953 5.44922 -7.04102 C 5.44922 -6.57227 5.80078 -6.31836 6.29883 -6.31836 L 8.50586 -6.31836 L 8.50586 -4.25781 C 8.50586 -3.75977 8.75977 -3.42773 9.22852 -3.42773 Z"/>
  </g>
  <g id="" transform="matrix(1 0 0 1 281.506 1933)">
   <path d="M 11.709 2.91016 C 17.1582 2.91016 21.6699 -1.60156 21.6699 -7.05078 C 21.6699 -12.4902 17.1484 -17.0117 11.6992 -17.0117 C 6.25977 -17.0117 1.74805 -12.4902 1.74805 -7.05078 C 1.74805 -1.60156 6.26953 2.91016 11.709 2.91016 Z M 11.709 1.25 C 7.09961 1.25 3.41797 -2.44141 3.41797 -7.05078 C 3.41797 -11.6504 7.08984 -15.3516 11.6992 -15.3516 C 16.3086 -15.3516 20 -11.6504 20.0098 -7.05078 C 20.0195 -2.44141 16.3184 1.25 11.709 1.25 Z M 11.6895 -2.41211 C 12.207 -2.41211 12.5195 -2.77344 12.5195 -3.33984 L 12.5195 -6.23047 L 15.5762 -6.23047 C 16.123 -6.23047 16.5039 -6.51367 16.5039 -7.03125 C 16.5039 -7.55859 16.1426 -7.86133 15.5762 -7.86133 L 12.5195 -7.86133 L 12.5195 -10.9277 C 12.5195 -11.5039 12.207 -11.8555 11.6895 -11.8555 C 11.1719 -11.8555 10.8789 -11.4844 10.8789 -10.9277 L 10.8789 -7.86133 L 7.83203 -7.86133 C 7.26562 -7.86133 6.89453 -7.55859 6.89453 -7.03125 C 6.89453 -6.51367 7.28516 -6.23047 7.83203 -6.23047 L 10.8789 -6.23047 L 10.8789 -3.33984 C 10.8789 -2.79297 11.1719 -2.41211 11.6895 -2.41211 Z"/>
  </g>
  <g id="" transform="matrix(1 0 0 1 304.924 1933)">
   <path d="M 14.9707 5.67383 C 21.9336 5.67383 27.6953 -0.078125 27.6953 -7.04102 C 27.6953 -14.0039 21.9238 -19.7559 14.9609 -19.7559 C 8.00781 -19.7559 2.25586 -14.0039 2.25586 -7.04102 C 2.25586 -0.078125 8.01758 5.67383 14.9707 5.67383 Z M 14.9707 3.85742 C 8.93555 3.85742 4.08203 -1.00586 4.08203 -7.04102 C 4.08203 -13.0762 8.92578 -17.9395 14.9609 -17.9395 C 21.0059 -17.9395 25.8594 -13.0762 25.8691 -7.04102 C 25.8789 -1.00586 21.0156 3.85742 14.9707 3.85742 Z M 14.9512 -1.06445 C 15.5176 -1.06445 15.8691 -1.45508 15.8691 -2.06055 L 15.8691 -6.13281 L 20.1074 -6.13281 C 20.6934 -6.13281 21.1133 -6.46484 21.1133 -7.02148 C 21.1133 -7.59766 20.7227 -7.93945 20.1074 -7.93945 L 15.8691 -7.93945 L 15.8691 -12.1875 C 15.8691 -12.8027 15.5176 -13.1934 14.9512 -13.1934 C 14.3848 -13.1934 14.0625 -12.7832 14.0625 -12.1875 L 14.0625 -7.93945 L 9.83398 -7.93945 C 9.21875 -7.93945 8.80859 -7.59766 8.80859 -7.02148 C 8.80859 -6.46484 9.23828 -6.13281 9.83398 -6.13281 L 14.0625 -6.13281 L 14.0625 -2.06055 C 14.0625 -1.47461 14.3848 -1.06445 14.9512 -1.06445 Z"/>
  </g>
  <text style="stroke:none;fill:black;font-family:-apple-system,&quot;SF Pro Display&quot;,&quot;SF Pro Text&quot;,Helvetica,sans-serif;font-weight:bold;" transform="matrix(1 0 0 1 263 1953)">Design Variations</text>
  <text style="stroke:none;fill:black;font-family:-apple-system,&quot;SF Pro Display&quot;,&quot;SF Pro Text&quot;,Helvetica,sans-serif;" transform="matrix(1 0 0 1 263 1971)">Symbols are supported in up to nine weights and three scales.</text>
  <text style="stroke:none;fill:black;font-family:-apple-system,&quot;SF Pro Display&quot;,&quot;SF Pro Text&quot;,Helvetica,sans-serif;" transform="matrix(1 0 0 1 263 1989)">For optimal layout with text and other symbols, vertically align</text>
  <text style="stroke:none;fill:black;font-family:-apple-system,&quot;SF Pro Display&quot;,&quot;SF Pro Text&quot;,Helvetica,sans-serif;" transform="matrix(1 0 0 1 263 2007)">symbols with the adjacent text.</text>
  <rect height="14" id="" style="fill:#00AEEF;stroke:none;opacity:0.4;" width="3" x="776" y="1919"/>
  <g id="" transform="matrix(1 0 0 1 779 1933)">
   <path d="M 10.5273 0 L 12.373 0 L 7.17773 -14.0918 L 5.43945 -14.0918 L 0.244141 0 L 2.08984 0 L 3.50586 -4.0332 L 9.11133 -4.0332 Z M 6.2793 -11.9531 L 6.33789 -11.9531 L 8.59375 -5.52734 L 4.02344 -5.52734 Z"/>
  </g>
  <rect height="14" id="" style="fill:#00AEEF;stroke:none;opacity:0.4;" width="3" x="791.617" y="1919"/>
  <text style="stroke:none;fill:black;font-family:-apple-system,&quot;SF Pro Display&quot;,&quot;SF Pro Text&quot;,Helvetica,sans-serif;font-weight:bold;" transform="matrix(1 0 0 1 776 1953)">Margins</text>
  <text style="stroke:none;fill:black;font-family:-apple-system,&quot;SF Pro Display&quot;,&quot;SF Pro Text&quot;,Helvetica,sans-serif;" transform="matrix(1 0 0 1 776 1971)">Leading and trailing margins on the left and right side of each symbol</text>
  <text style="stroke:none;fill:black;font-family:-apple-system,&quot;SF Pro Display&quot;,&quot;SF Pro Text&quot;,Helvetica,sans-serif;" transform="matrix(1 0 0 1 776 1989)">can be adjusted by modifying the width of the blue rectangles.</text>
  <text style="stroke:none;fill:black;font-family:-apple-system,&quot;SF Pro Display&quot;,&quot;SF Pro Text&quot;,Helvetica,sans-serif;" transform="matrix(1 0 0 1 776 2007)">Modifications are automatically applied proportionally to all</text>
  <text style="stroke:none;fill:black;font-family:-apple-system,&quot;SF Pro Display&quot;,&quot;SF Pro Text&quot;,Helvetica,sans-serif;" transform="matrix(1 0 0 1 776 2025)">scales and weights.</text>
  <g id="" transform="matrix(1 0 0 1 1289 1933)">
   <path d="M 2.83203 3.11523 L 4.375 4.6582 C 5.22461 5.48828 6.19141 5.41992 7.06055 4.46289 L 17.2754 -6.66016 C 17.7051 -6.36719 18.0957 -6.37695 18.5645 -6.47461 L 19.6094 -6.68945 L 20.3027 -5.99609 L 20.2539 -5.47852 C 20.1855 -4.95117 20.3516 -4.53125 20.8496 -4.0332 L 21.6602 -3.22266 C 22.168 -2.71484 22.8223 -2.68555 23.3008 -3.16406 L 26.5527 -6.41602 C 27.0312 -6.89453 27.0117 -7.54883 26.5039 -8.05664 L 25.6836 -8.87695 C 25.1855 -9.375 24.7754 -9.55078 24.2383 -9.47266 L 23.7109 -9.41406 L 23.0566 -10.0781 L 23.3398 -11.2207 C 23.4863 -11.7871 23.3398 -12.2559 22.7148 -12.8613 L 20.3027 -15.2539 C 16.7578 -18.7793 12.2266 -18.6719 9.11133 -15.5371 C 8.69141 -15.1074 8.64258 -14.5215 8.91602 -14.0918 C 9.15039 -13.7207 9.62891 -13.4961 10.2734 -13.6621 C 11.7871 -14.043 13.3008 -13.9258 14.7852 -12.9199 L 14.1602 -11.3379 C 13.9258 -10.752 13.9453 -10.2734 14.1797 -9.83398 L 3.01758 0.439453 C 2.08008 1.30859 1.97266 2.25586 2.83203 3.11523 Z M 10.6738 -15.1465 C 13.3398 -17.1387 16.6504 -16.8262 19.0527 -14.4141 L 21.6797 -11.8066 C 21.9141 -11.5723 21.9434 -11.3867 21.8848 -11.0938 L 21.5039 -9.53125 L 23.0762 -7.95898 L 24.043 -8.04688 C 24.3262 -8.07617 24.4141 -8.05664 24.6387 -7.83203 L 25.2637 -7.20703 L 22.5098 -4.46289 L 21.8848 -5.07812 C 21.6602 -5.30273 21.6406 -5.40039 21.6699 -5.68359 L 21.7578 -6.64062 L 20.1953 -8.20312 L 18.5742 -7.89062 C 18.291 -7.83203 18.1445 -7.83203 17.9102 -8.07617 L 15.7324 -10.2539 C 15.5078 -10.4883 15.4785 -10.625 15.6055 -10.9473 L 16.5527 -13.2227 C 14.9512 -14.7559 12.8418 -15.6055 10.8008 -14.9512 C 10.7129 -14.9219 10.6445 -14.9414 10.6152 -14.9805 C 10.5859 -15.0293 10.5859 -15.0781 10.6738 -15.1465 Z M 4.10156 2.41211 C 3.61328 1.91406 3.78906 1.61133 4.12109 1.30859 L 15.0781 -8.80859 L 16.3086 -7.57812 L 6.15234 3.34961 C 5.84961 3.68164 5.46875 3.7793 5.06836 3.37891 Z"/>
  </g>
  <text style="stroke:none;fill:black;font-family:-apple-system,&quot;SF Pro Display&quot;,&quot;SF Pro Text&quot;,Helvetica,sans-serif;font-weight:bold;" transform="matrix(1 0 0 1 1289 1953)">Exporting</text>
  <text style="stroke:none;fill:black;font-family:-apple-system,&quot;SF Pro Display&quot;,&quot;SF Pro Text&quot;,Helvetica,sans-serif;" transform="matrix(1 0 0 1 1289 1971)">Symbols should be outlined when exporting to ensure the</text>
  <text style="stroke:none;fill:black;font-family:-apple-system,&quot;SF Pro Display&quot;,&quot;SF Pro Text&quot;,Helvetica,sans-serif;" transform="matrix(1 0 0 1 1289 1989)">design is preserved when submitting to Xcode.</text>
  <text id="template-version" style="stroke:none;fill:black;font-family:-apple-system,&quot;SF Pro Display&quot;,&quot;SF Pro Text&quot;,Helvetica,sans-serif;text-anchor:end;" transform="matrix(1 0 0 1 3036 1933)">Template v.1.0</text>
  <text style="stroke:none;fill:black;font-family:-apple-system,&quot;SF Pro Display&quot;,&quot;SF Pro Text&quot;,Helvetica,sans-serif;text-anchor:end;" transform="matrix(1 0 0 1 3036 1951)">Generated from doc.append</text>
  <text style="stroke:none;fill:black;font-family:-apple-system,&quot;SF Pro Display&quot;,&quot;SF Pro Text&quot;,Helvetica,sans-serif;text-anchor:end;" transform="matrix(1 0 0 1 3036 1969)">Typeset at 100 points</text>
  <text style="stroke:none;fill:black;font-family:-apple-system,&quot;SF Pro Display&quot;,&quot;SF Pro Text&quot;,Helvetica,sans-serif;" transform="matrix(1 0 0 1 263 726)">Small</text>
  <text style="stroke:none;fill:black;font-family:-apple-system,&quot;SF Pro Display&quot;,&quot;SF Pro Text&quot;,Helvetica,sans-serif;" transform="matrix(1 0 0 1 263 1156)">Medium</text>
  <text style="stroke:none;fill:black;font-family:-apple-system,&quot;SF Pro Display&quot;,&quot;SF Pro Text&quot;,Helvetica,sans-serif;" transform="matrix(1 0 0 1 263 1586)">Large</text>
 </g>
 <g id="Guides">
  <g id="H-reference" style="fill:#27AAE1;stroke:none;" transform="matrix(1 0 0 1 339 696)">
   <path d="M 54.9316 0 L 57.666 0 L 30.5664 -70.459 L 28.0762 -70.459 L 0.976562 0 L 3.66211 0 L 12.9395 -24.4629 L 45.7031 -24.4629 Z M 29.1992 -67.0898 L 29.4434 -67.0898 L 44.8242 -26.709 L 13.8184 -26.709 Z"/>
  </g>
  <line id="Baseline-S" style="fill:none;stroke:#27AAE1;opacity:1;stroke-width:0.577;" x1="263" x2="3036" y1="696" y2="696"/>
  <line id="Capline-S" style="fill:none;stroke:#27AAE1;opacity:1;stroke-width:0.577;" x1="263" x2="3036" y1="625.541" y2="625.541"/>
  <g id="H-reference" style="fill:#27AAE1;stroke:none;" transform="matrix(1 0 0 1 339 1126)">
   <path d="M 54.9316 0 L 57.666 0 L 30.5664 -70.459 L 28.0762 -70.459 L 0.976562 0 L 3.66211 0 L 12.9395 -24.4629 L 45.7031 -24.4629 Z M 29.1992 -67.0898 L 29.4434 -67.0898 L 44.8242 -26.709 L 13.8184 -26.709 Z"/>
  </g>
  <line id="Baseline-M" style="fill:none;stroke:#27AAE1;opacity:1;stroke-width:0.577;" x1="263" x2="3036" y1="1126" y2="1126"/>
  <line id="Capline-M" style="fill:none;stroke:#27AAE1;opacity:1;stroke-width:0.577;" x1="263" x2="3036" y1="1055.54" y2="1055.54"/>
  <g id="H-reference" style="fill:#27AAE1;stroke:none;" transform="matrix(1 0 0 1 339 1556)">
   <path d="M 54.9316 0 L 57.666 0 L 30.5664 -70.459 L 28.0762 -70.459 L 0.976562 0 L 3.66211 0 L 12.9395 -24.4629 L 45.7031 -24.4629 Z M 29.1992 -67.0898 L 29.4434 -67.0898 L 44.8242 -26.709 L 13.8184 -26.709 Z"/>
  </g>
  <line id="Baseline-L" style="fill:none;stroke:#27AAE1;opacity:1;stroke-width:0.577;" x1="263" x2="3036" y1="1556" y2="1556"/>
  <line id="Capline-L" style="fill:none;stroke:#27AAE1;opacity:1;stroke-width:0.577;" x1="263" x2="3036" y1="1485.54" y2="1485.54"/>
  <rect height="119.336" id="left-margin" style="fill:#00AEEF;stroke:none;opacity:0.4;" width="12.4512" x="1396.28" y="1030.79"/>
  <rect height="119.336" id="right-margin" style="fill:#00AEEF;stroke:none;opacity:0.4;" width="12.4512" x="1490.96" y="1030.79"/>
 </g>
 <g id="Symbols">
  <g id="Black-L" transform="matrix(1 0 0 1 2859.65 1556)">
   <path d="M 39.8926 35.2539 L 107.617 35.2539 C 122.803 35.2539 131.445 26.6113 131.445 11.377 L 131.445 -81.7383 C 131.445 -96.9727 122.803 -105.615 107.617 -105.615 L 39.8926 -105.615 C 24.707 -105.615 16.0645 -96.9727 16.0645 -81.7383 L 16.0645 11.377 C 16.0645 26.6113 24.707 35.2539 39.8926 35.2539 Z M 42.7246 15.0391 C 38.1836 15.0391 36.3281 12.8418 36.3281 8.64258 L 36.3281 -79.0039 C 36.3281 -83.252 38.1836 -85.4004 42.7246 -85.4004 L 104.785 -85.4004 C 109.326 -85.4004 111.23 -83.252 111.23 -79.0039 L 111.23 8.64258 C 111.23 12.8418 109.326 15.0391 104.785 15.0391 Z M 87.8418 -41.9434 C 94.3848 -41.9434 99.2188 -46.3867 99.2188 -53.0762 C 99.2188 -59.375 95.1172 -63.623 89.5996 -63.623 C 86.7188 -63.623 84.5703 -62.7441 83.0566 -60.8887 L 81.7871 -60.8887 C 82.1777 -62.5488 83.3008 -64.209 85.0586 -65.625 C 86.6211 -66.9434 88.7207 -67.9688 91.2109 -68.457 C 92.9688 -68.7988 93.6523 -69.5312 93.6523 -70.9473 C 93.6523 -72.2168 92.627 -73.1445 91.1133 -73.1445 C 87.3047 -73.1445 83.0078 -70.8984 80.0293 -67.8223 C 76.9043 -64.6484 75.4883 -60.2539 75.4883 -55.7617 C 75.4883 -47.0215 80.9082 -41.9434 87.8418 -41.9434 Z M 59.9121 -41.8945 C 66.5039 -41.8945 71.2891 -46.3379 71.2891 -53.0762 C 71.2891 -59.375 67.1875 -63.623 61.7188 -63.623 C 58.8379 -63.623 56.6895 -62.6953 55.1758 -60.8887 L 53.9062 -60.8887 C 54.248 -62.4023 55.3223 -64.1113 56.8359 -65.4785 C 58.4961 -66.9434 60.6445 -68.1152 63.3301 -68.457 C 64.7461 -68.6523 65.7227 -69.4336 65.7227 -70.9473 C 65.7227 -72.2168 64.7461 -73.0957 63.1836 -73.0957 C 59.5215 -73.0957 55.3223 -71.0938 52.0996 -67.8223 C 48.9746 -64.5996 47.6074 -60.2539 47.6074 -55.7129 C 47.6074 -47.0215 52.9785 -41.8945 59.9121 -41.8945 Z M 53.3691 -20.166 L 93.5547 -20.166 C 96.1426 -20.166 98.0469 -22.2168 98.0469 -24.7559 C 98.0469 -27.2461 96.1426 -29.1992 93.5547 -29.1992 L 53.3691 -29.1992 C 50.6836 -29.1992 48.7793 -27.2461 48.7793 -24.7559 C 48.7793 -22.2168 50.6836 -20.166 53.3691 -20.166 Z M 53.3691 -1.95312 L 74.3164 -1.95312 C 76.9043 -1.95312 78.8574 -3.85742 78.8574 -6.34766 C 78.8574 -8.93555 76.9043 -10.9375 74.3164 -10.9375 L 53.3691 -10.9375 C 50.6836 -10.9375 48.7793 -8.93555 48.7793 -6.34766 C 48.7793 -3.85742 50.6836 -1.95312 53.3691 -1.95312 Z"/>
  </g>
  <g id="Heavy-L" transform="matrix(1 0 0 1 2564.15 1556)">
   <path d="M 38.4277 34.1309 L 106.641 34.1309 C 120.947 34.1309 129.004 26.0742 129.004 11.6211 L 129.004 -82.4707 C 129.004 -96.875 120.947 -104.98 106.641 -104.98 L 38.4277 -104.98 C 24.1211 -104.98 16.0645 -96.875 16.0645 -82.4707 L 16.0645 11.6211 C 16.0645 26.0742 24.1211 34.1309 38.4277 34.1309 Z M 40.7227 16.6504 C 35.791 16.6504 33.5938 14.209 33.5938 9.52148 L 33.5938 -80.3711 C 33.5938 -85.0586 35.791 -87.5 40.7227 -87.5 L 104.346 -87.5 C 109.277 -87.5 111.475 -85.0586 111.475 -80.3711 L 111.475 9.52148 C 111.475 14.209 109.277 16.6504 104.346 16.6504 Z M 87.0605 -41.2109 C 93.8477 -41.2109 98.8281 -45.8496 98.8281 -52.7832 C 98.8281 -59.3262 94.5801 -63.7695 88.7695 -63.7695 C 85.7422 -63.7695 83.3984 -62.793 81.7383 -60.791 L 80.5176 -60.791 C 80.957 -62.5977 82.1289 -64.4531 83.9844 -66.0156 C 85.7422 -67.4805 87.9395 -68.5547 90.5762 -69.043 C 92.3828 -69.4336 93.0664 -70.166 93.0664 -71.5332 C 93.0664 -72.8027 92.0898 -73.6816 90.5273 -73.6816 C 86.6699 -73.6816 82.1289 -71.3867 79.0527 -68.1152 C 75.7812 -64.7949 74.3164 -60.2539 74.3164 -55.5176 C 74.3164 -46.4844 79.8828 -41.2109 87.0605 -41.2109 Z M 58.1543 -41.1621 C 64.9414 -41.1621 69.873 -45.8496 69.873 -52.7344 C 69.873 -59.3262 65.625 -63.7207 59.8145 -63.7207 C 56.7871 -63.7207 54.4922 -62.7441 52.832 -60.7422 L 51.5625 -60.7422 C 51.9531 -62.5 53.1738 -64.4043 54.8828 -65.918 C 56.6406 -67.4805 58.8867 -68.6523 61.6211 -69.043 C 63.2324 -69.3359 64.1602 -70.0684 64.1602 -71.5332 C 64.1602 -72.7539 63.1836 -73.6816 61.6211 -73.6816 C 57.8125 -73.6816 53.418 -71.5332 50.0977 -68.1152 C 46.875 -64.7461 45.3613 -60.2539 45.3613 -55.5176 C 45.3613 -46.4355 50.9766 -41.1621 58.1543 -41.1621 Z M 51.0254 -19.7266 L 93.2617 -19.7266 C 95.7031 -19.7266 97.5098 -21.6309 97.5098 -24.0723 C 97.5098 -26.416 95.7031 -28.2227 93.2617 -28.2227 L 51.0254 -28.2227 C 48.5352 -28.2227 46.7285 -26.416 46.7285 -24.0723 C 46.7285 -21.6309 48.5352 -19.7266 51.0254 -19.7266 Z M 51.0254 -0.585938 L 72.6074 -0.585938 C 75 -0.585938 76.8555 -2.39258 76.8555 -4.73633 C 76.8555 -7.17773 75 -9.08203 72.6074 -9.08203 L 51.0254 -9.08203 C 48.5352 -9.08203 46.7285 -7.17773 46.7285 -4.73633 C 46.7285 -2.39258 48.5352 -0.585938 51.0254 -0.585938 Z"/>
  </g>
  <g id="Bold-L" transform="matrix(1 0 0 1 2268.81 1556)">
   <path d="M 36.8652 32.9102 L 105.469 32.9102 C 118.896 32.9102 126.27 25.4883 126.27 11.9629 L 126.27 -83.3496 C 126.27 -96.8262 118.896 -104.248 105.469 -104.248 L 36.8652 -104.248 C 23.4375 -104.248 16.0645 -96.8262 16.0645 -83.3496 L 16.0645 11.9629 C 16.0645 25.4883 23.4375 32.9102 36.8652 32.9102 Z M 38.4766 18.5059 C 33.1055 18.5059 30.5176 15.7227 30.5176 10.5469 L 30.5176 -81.9336 C 30.5176 -87.0605 33.1055 -89.8438 38.5254 -89.8438 L 103.809 -89.8438 C 109.229 -89.8438 111.816 -87.0605 111.816 -81.9336 L 111.816 10.5469 C 111.816 15.7227 109.229 18.5059 103.857 18.5059 Z M 86.2305 -40.3809 C 93.2617 -40.3809 98.3887 -45.2637 98.3887 -52.3926 C 98.3887 -59.3262 93.9941 -63.916 87.793 -63.916 C 84.6191 -63.916 82.0801 -62.8906 80.2734 -60.6445 L 79.0527 -60.6445 C 79.541 -62.6953 80.8594 -64.7461 82.8125 -66.4551 C 84.7168 -68.1152 87.0605 -69.1895 89.8438 -69.7266 C 91.6992 -70.166 92.4316 -70.8496 92.4316 -72.168 C 92.4316 -73.4375 91.5039 -74.3164 89.9414 -74.3164 C 85.9863 -74.3164 81.1523 -71.875 77.9297 -68.457 C 74.6094 -64.9414 72.9492 -60.2539 72.9492 -55.2734 C 72.9492 -45.8496 78.8086 -40.3809 86.2305 -40.3809 Z M 56.1523 -40.332 C 63.1836 -40.332 68.3105 -45.2637 68.3105 -52.3926 C 68.3105 -59.2773 63.916 -63.8672 57.7148 -63.8672 C 54.5898 -63.8672 52.002 -62.8418 50.1953 -60.5957 L 48.9746 -60.5957 C 49.4141 -62.6465 50.7324 -64.6973 52.6855 -66.4062 C 54.5898 -68.0664 56.9336 -69.2383 59.7656 -69.7266 C 61.5234 -70.0684 62.3535 -70.752 62.3535 -72.168 C 62.3535 -73.3887 61.4258 -74.2676 59.8633 -74.2676 C 55.957 -74.2676 51.2695 -72.0215 47.8516 -68.4082 C 44.5312 -64.8926 42.8711 -60.2051 42.8711 -55.2246 C 42.8711 -45.8008 48.7305 -40.332 56.1523 -40.332 Z M 48.4375 -19.2383 L 92.9688 -19.2383 C 95.2148 -19.2383 96.9238 -20.9961 96.9238 -23.2422 C 96.9238 -25.4395 95.2148 -27.1484 92.9688 -27.1484 L 48.4375 -27.1484 C 46.0938 -27.1484 44.4336 -25.4395 44.4336 -23.2422 C 44.4336 -20.9961 46.0938 -19.2383 48.4375 -19.2383 Z M 48.4375 0.927734 L 70.6543 0.927734 C 72.9004 0.927734 74.6094 -0.78125 74.6094 -2.97852 C 74.6094 -5.22461 72.9004 -6.98242 70.6543 -6.98242 L 48.4375 -6.98242 C 46.0938 -6.98242 44.4336 -5.22461 44.4336 -2.97852 C 44.4336 -0.78125 46.0938 0.927734 48.4375 0.927734 Z"/>
  </g>
  <g id="Semibold-L" transform="matrix(1 0 0 1 1973.05 1556)">
   <path d="M 35.7422 32.0312 L 104.688 32.0312 C 117.432 32.0312 124.365 25.0977 124.365 12.207 L 124.365 -83.9355 C 124.365 -96.7773 117.432 -103.76 104.688 -103.76 L 35.7422 -103.76 C 22.998 -103.76 16.0645 -96.7773 16.0645 -83.9355 L 16.0645 12.207 C 16.0645 25.0977 22.998 32.0312 35.7422 32.0312 Z M 36.9141 19.7266 C 31.25 19.7266 28.418 16.748 28.418 11.2793 L 28.418 -83.0078 C 28.418 -88.4766 31.25 -91.5039 36.9629 -91.5039 L 103.467 -91.5039 C 109.18 -91.5039 112.061 -88.4766 112.061 -83.0078 L 112.061 11.2793 C 112.061 16.748 109.18 19.7266 103.516 19.7266 Z M 85.6445 -39.7949 C 92.8711 -39.7949 98.0957 -44.873 98.0957 -52.1484 C 98.0957 -59.2773 93.5547 -64.0137 87.1094 -64.0137 C 83.8867 -64.0137 81.2012 -62.9395 79.248 -60.5469 L 78.0273 -60.5469 C 78.5645 -62.7441 79.9316 -64.8926 81.9824 -66.6992 C 84.0332 -68.5059 86.4746 -69.6289 89.3555 -70.2148 C 91.2598 -70.6543 91.9922 -71.3379 91.9922 -72.6562 C 91.9922 -73.877 91.1133 -74.7559 89.502 -74.7559 C 85.498 -74.7559 80.5176 -72.2168 77.1973 -68.7012 C 73.7793 -65.0391 72.0215 -60.2539 72.0215 -55.127 C 72.0215 -45.4102 78.0273 -39.7949 85.6445 -39.7949 Z M 54.7852 -39.7461 C 62.0117 -39.7461 67.2363 -44.8242 67.2363 -52.0996 C 67.2363 -59.2285 62.6953 -63.9648 56.25 -63.9648 C 53.0273 -63.9648 50.3418 -62.8906 48.3887 -60.498 L 47.168 -60.498 C 47.6562 -62.6953 49.0723 -64.9414 51.1719 -66.6992 C 53.2227 -68.457 55.6152 -69.6777 58.4961 -70.166 C 60.3027 -70.5566 61.1328 -71.2402 61.1328 -72.6074 C 61.1328 -73.8281 60.2539 -74.707 58.6426 -74.707 C 54.6875 -74.707 49.8047 -72.3145 46.3379 -68.6523 C 42.9199 -64.9902 41.1621 -60.2051 41.1621 -55.0781 C 41.1621 -45.3613 47.168 -39.7461 54.7852 -39.7461 Z M 46.6309 -18.8965 L 92.7734 -18.8965 C 94.9219 -18.8965 96.5332 -20.5566 96.5332 -22.7051 C 96.5332 -24.7559 94.9219 -26.3672 92.7734 -26.3672 L 46.6309 -26.3672 C 44.4336 -26.3672 42.8223 -24.7559 42.8223 -22.7051 C 42.8223 -20.5566 44.4336 -18.8965 46.6309 -18.8965 Z M 46.6309 1.95312 L 69.2871 1.95312 C 71.4355 1.95312 73.0469 0.341797 73.0469 -1.75781 C 73.0469 -3.85742 71.4355 -5.51758 69.2871 -5.51758 L 46.6309 -5.51758 C 44.4336 -5.51758 42.8223 -3.85742 42.8223 -1.75781 C 42.8223 0.341797 44.4336 1.95312 46.6309 1.95312 Z"/>
  </g>
  <g id="Medium-L" transform="matrix(1 0 0 1 1677.05 1556)">
   <path d="M 34.9121 31.3965 L 104.102 31.3965 C 116.357 31.3965 122.949 24.7559 122.949 12.3535 L 122.949 -84.375 C 122.949 -96.7285 116.357 -103.418 104.102 -103.418 L 34.9121 -103.418 C 22.6562 -103.418 16.0645 -96.7285 16.0645 -84.375 L 16.0645 12.3535 C 16.0645 24.7559 22.6562 31.3965 34.9121 31.3965 Z M 35.7422 20.7031 C 29.834 20.7031 26.8066 17.5293 26.8066 11.8164 L 26.8066 -83.7891 C 26.8066 -89.5508 29.834 -92.7246 35.791 -92.7246 L 103.223 -92.7246 C 109.18 -92.7246 112.207 -89.5508 112.207 -83.7891 L 112.207 11.8164 C 112.207 17.5293 109.18 20.7031 103.271 20.7031 Z M 85.1562 -39.4043 C 92.5293 -39.4043 97.8516 -44.5801 97.8516 -51.9531 C 97.8516 -59.2285 93.2617 -64.0625 86.6211 -64.0625 C 83.3008 -64.0625 80.5176 -62.9395 78.4668 -60.4492 L 77.2949 -60.4492 C 77.832 -62.793 79.248 -65.0391 81.3965 -66.9434 C 83.4961 -68.8477 86.0352 -69.9707 88.9648 -70.5566 C 90.918 -70.9961 91.6504 -71.6797 91.6504 -72.998 C 91.6504 -74.1699 90.7715 -75.0488 89.209 -75.0488 C 85.1562 -75.0488 79.9805 -72.5098 76.6113 -68.8965 C 73.1445 -65.1367 71.3379 -60.2539 71.3379 -54.9805 C 71.3379 -45.0684 77.4414 -39.4043 85.1562 -39.4043 Z M 53.7109 -39.3555 C 61.084 -39.3555 66.4062 -44.5312 66.4062 -51.9531 C 66.4062 -59.1797 61.8164 -64.0137 55.1758 -64.0137 C 51.8555 -64.0137 49.0234 -62.9395 47.0215 -60.4492 L 45.8496 -60.4492 C 46.3379 -62.7441 47.8027 -65.0879 50 -66.9434 C 52.1484 -68.7988 54.5898 -69.9707 57.5195 -70.5078 C 59.4238 -70.9473 60.2051 -71.582 60.2051 -72.9492 C 60.2051 -74.1211 59.3262 -75 57.7148 -75 C 53.7109 -75 48.6328 -72.5586 45.166 -68.8477 C 41.6504 -65.0879 39.8926 -60.2051 39.8926 -54.9316 C 39.8926 -45.0684 45.9961 -39.3555 53.7109 -39.3555 Z M 45.3125 -18.6523 L 92.5781 -18.6523 C 94.6777 -18.6523 96.1914 -20.2637 96.1914 -22.3145 C 96.1914 -24.2676 94.6777 -25.8301 92.5781 -25.8301 L 45.3125 -25.8301 C 43.1641 -25.8301 41.6504 -24.2676 41.6504 -22.3145 C 41.6504 -20.2637 43.1641 -18.6523 45.3125 -18.6523 Z M 45.3125 2.73438 L 68.2617 2.73438 C 70.3125 2.73438 71.875 1.17188 71.875 -0.830078 C 71.875 -2.83203 70.3125 -4.44336 68.2617 -4.44336 L 45.3125 -4.44336 C 43.1641 -4.44336 41.6504 -2.83203 41.6504 -0.830078 C 41.6504 1.17188 43.1641 2.73438 45.3125 2.73438 Z"/>
  </g>
  <g id="Regular-L" transform="matrix(1 0 0 1 1381.27 1556)">
   <path d="M 33.8379 30.5664 L 103.32 30.5664 C 114.941 30.5664 121.094 24.3652 121.094 12.5977 L 121.094 -84.9609 C 121.094 -96.6797 114.941 -102.93 103.32 -102.93 L 33.8379 -102.93 C 22.2168 -102.93 16.0645 -96.6797 16.0645 -84.9609 L 16.0645 12.5977 C 16.0645 24.3652 22.2168 30.5664 33.8379 30.5664 Z M 34.2285 21.9727 C 28.0273 21.9727 24.707 18.5547 24.707 12.5 L 24.707 -84.8633 C 24.707 -90.918 28.0273 -94.3359 34.2773 -94.3359 L 102.881 -94.3359 C 109.131 -94.3359 112.451 -90.918 112.451 -84.8633 L 112.451 12.5 C 112.451 18.5547 109.131 21.9727 102.93 21.9727 Z M 84.5703 -38.8184 C 92.1387 -38.8184 97.5586 -44.1895 97.5586 -51.709 C 97.5586 -59.2285 92.8223 -64.1602 85.9863 -64.1602 C 82.5684 -64.1602 79.5898 -63.0371 77.4902 -60.4004 L 76.3184 -60.4004 C 76.8555 -62.8418 78.3691 -65.2344 80.5664 -67.2363 C 82.8125 -69.2383 85.4492 -70.4102 88.4766 -71.0449 C 90.4785 -71.4844 91.2109 -72.1191 91.2109 -73.4375 C 91.2109 -74.6094 90.3809 -75.4883 88.7695 -75.4883 C 84.668 -75.4883 79.3457 -72.8516 75.8789 -69.0918 C 72.3145 -65.2344 70.4102 -60.2539 70.4102 -54.7852 C 70.4102 -44.6777 76.709 -38.8184 84.5703 -38.8184 Z M 52.3438 -38.7695 C 59.9121 -38.7695 65.332 -44.1406 65.332 -51.6602 C 65.332 -59.1797 60.5957 -64.1113 53.7598 -64.1113 C 50.3418 -64.1113 47.3633 -62.9883 45.2148 -60.3516 L 44.0918 -60.3516 C 44.6289 -62.8418 46.1914 -65.2832 48.4863 -67.2852 C 50.7324 -69.1895 53.2715 -70.4102 56.2012 -70.9961 C 58.252 -71.4355 58.9844 -72.0703 58.9844 -73.3887 C 58.9844 -74.5605 58.1543 -75.4395 56.543 -75.4395 C 52.4414 -75.4395 47.168 -72.9004 43.6523 -69.043 C 40.0879 -65.1855 38.1836 -60.2051 38.1836 -54.7363 C 38.1836 -44.6289 44.4824 -38.7695 52.3438 -38.7695 Z M 43.5547 -18.3105 L 92.3828 -18.3105 C 94.3359 -18.3105 95.8008 -19.8242 95.8008 -21.7285 C 95.8008 -23.6328 94.3359 -25.0977 92.3828 -25.0977 L 43.5547 -25.0977 C 41.5527 -25.0977 40.0879 -23.6328 40.0879 -21.7285 C 40.0879 -19.8242 41.5527 -18.3105 43.5547 -18.3105 Z M 43.5547 3.75977 L 66.9434 3.75977 C 68.8965 3.75977 70.3613 2.29492 70.3613 0.390625 C 70.3613 -1.51367 68.8965 -3.02734 66.9434 -3.02734 L 43.5547 -3.02734 C 41.5527 -3.02734 40.0879 -1.51367 40.0879 0.390625 C 40.0879 2.29492 41.5527 3.75977 43.5547 3.75977 Z"/>
  </g>
  <g id="Light-L" transform="matrix(1 0 0 1 1085.29 1556)">
   <path d="M 32.2266 29.248 L 103.467 29.248 C 113.867 29.248 119.629 23.4863 119.629 12.9883 L 119.629 -86.5234 C 119.629 -96.9727 113.867 -102.832 103.467 -102.832 L 32.2266 -102.832 C 21.8262 -102.832 16.0645 -96.9727 16.0645 -86.5234 L 16.0645 12.9883 C 16.0645 23.4863 21.8262 29.248 32.2266 29.248 Z M 32.5684 22.7539 C 26.123 22.7539 22.7051 19.2383 22.7051 12.8906 L 22.7051 -86.4746 C 22.7051 -92.7734 26.123 -96.2891 32.5684 -96.2891 L 103.125 -96.2891 C 109.57 -96.2891 113.037 -92.7734 113.037 -86.4746 L 113.037 12.8906 C 113.037 19.2383 109.57 22.7539 103.174 22.7539 Z M 84.4238 -38.623 C 91.7969 -38.623 97.4121 -44.1406 97.4121 -51.6113 C 97.4121 -59.2773 92.3828 -64.2578 85.2539 -64.2578 C 81.7871 -64.2578 78.5645 -63.0371 76.1719 -60.1074 L 75.1465 -60.1074 C 75.8301 -62.8906 77.4414 -65.625 79.8828 -67.8223 C 82.4707 -70.1172 85.2539 -71.3379 88.5254 -71.9727 C 90.0879 -72.3145 90.8691 -72.8516 90.8691 -74.0234 C 90.8691 -75.0488 90.1367 -75.7812 88.7695 -75.7812 C 84.668 -75.7812 79.1992 -73.0957 75.6836 -69.2383 C 72.0703 -65.2832 70.0195 -60.3027 70.0195 -54.6387 C 70.0195 -44.4336 76.3672 -38.623 84.4238 -38.623 Z M 51.7578 -38.623 C 59.1309 -38.623 64.7461 -44.0918 64.7461 -51.6113 C 64.7461 -59.2285 59.7168 -64.2578 52.5879 -64.2578 C 49.1211 -64.2578 45.8984 -62.9883 43.5059 -60.0586 L 42.4805 -60.0586 C 43.1641 -62.8906 44.8242 -65.625 47.3145 -67.8223 C 49.9023 -70.1172 52.5879 -71.3379 55.8594 -71.9238 C 57.4219 -72.2656 58.2031 -72.8516 58.2031 -73.9746 C 58.2031 -75.0488 57.4707 -75.7812 56.1035 -75.7812 C 52.002 -75.7812 46.6309 -73.1445 43.0176 -69.1895 C 39.4043 -65.2832 37.3535 -60.2539 37.3535 -54.6387 C 37.3535 -44.4336 43.7012 -38.623 51.7578 -38.623 Z M 42.334 -19.1895 L 92.627 -19.1895 C 94.1895 -19.1895 95.4102 -20.4102 95.4102 -21.9238 C 95.4102 -23.4375 94.1895 -24.6094 92.627 -24.6094 L 42.334 -24.6094 C 40.6738 -24.6094 39.502 -23.4375 39.502 -21.9238 C 39.502 -20.4102 40.6738 -19.1895 42.334 -19.1895 Z M 42.334 2.97852 L 66.748 2.97852 C 68.3594 2.97852 69.5312 1.80664 69.5312 0.292969 C 69.5312 -1.2207 68.3594 -2.44141 66.748 -2.44141 L 42.334 -2.44141 C 40.6738 -2.44141 39.502 -1.2207 39.502 0.292969 C 39.502 1.80664 40.6738 2.97852 42.334 2.97852 Z"/>
  </g>
  <g id="Thin-L" transform="matrix(1 0 0 1 789.528 1556)">
   <path d="M 30.127 27.5879 L 103.662 27.5879 C 112.451 27.5879 117.725 22.3145 117.725 13.4766 L 117.725 -88.623 C 117.725 -97.4121 112.451 -102.686 103.662 -102.686 L 30.127 -102.686 C 21.3379 -102.686 16.0645 -97.4121 16.0645 -88.623 L 16.0645 13.4766 C 16.0645 22.3145 21.3379 27.5879 30.127 27.5879 Z M 30.3223 23.7793 C 23.6328 23.7793 19.9707 20.1172 19.9707 13.4766 L 19.9707 -88.5742 C 19.9707 -95.2637 23.6328 -98.9258 30.3223 -98.9258 L 103.467 -98.9258 C 110.156 -98.9258 113.818 -95.2637 113.818 -88.5742 L 113.818 13.4766 C 113.818 20.1172 110.156 23.7793 103.467 23.7793 Z M 84.1797 -38.3789 C 91.3574 -38.3789 97.168 -44.043 97.168 -51.4648 C 97.168 -59.3262 91.7969 -64.4043 84.3262 -64.4043 C 80.7617 -64.4043 77.1484 -63.0371 74.4141 -59.7168 L 73.6328 -59.7168 C 74.4141 -62.9395 76.2207 -66.1133 78.9551 -68.6035 C 81.9824 -71.2891 84.9609 -72.5586 88.5742 -73.2422 C 89.5996 -73.4375 90.4297 -73.877 90.4297 -74.8047 C 90.4297 -75.6348 89.7949 -76.1719 88.7695 -76.1719 C 84.668 -76.1719 79.0527 -73.4375 75.3906 -69.3848 C 71.7773 -65.3809 69.5312 -60.3516 69.5312 -54.4434 C 69.5312 -44.1895 75.9277 -38.3789 84.1797 -38.3789 Z M 50.9277 -38.3789 C 58.1543 -38.3789 63.9648 -44.043 63.9648 -51.4648 C 63.9648 -59.2773 58.5938 -64.4043 51.123 -64.4043 C 47.5098 -64.4043 43.9453 -62.9883 41.2109 -59.7168 L 40.4297 -59.7168 C 41.2109 -62.9395 43.0176 -66.1133 45.752 -68.6035 C 48.7793 -71.2891 51.7578 -72.5586 55.3711 -73.1934 C 56.3965 -73.3887 57.1777 -73.8281 57.1777 -74.8047 C 57.1777 -75.6348 56.5918 -76.1719 55.5176 -76.1719 C 51.416 -76.1719 45.8496 -73.4863 42.1875 -69.3848 C 38.5742 -65.3809 36.2793 -60.3516 36.2793 -54.4434 C 36.2793 -44.1895 42.7246 -38.3789 50.9277 -38.3789 Z M 40.7227 -20.3125 L 92.9199 -20.3125 C 94.043 -20.3125 94.873 -21.1426 94.873 -22.168 C 94.873 -23.1934 94.043 -24.0234 92.9199 -24.0234 L 40.7227 -24.0234 C 39.5996 -24.0234 38.7695 -23.1934 38.7695 -22.168 C 38.7695 -21.1426 39.5996 -20.3125 40.7227 -20.3125 Z M 40.7227 2.00195 L 66.5527 2.00195 C 67.627 2.00195 68.457 1.17188 68.457 0.146484 C 68.457 -0.878906 67.627 -1.70898 66.5527 -1.70898 L 40.7227 -1.70898 C 39.5996 -1.70898 38.7695 -0.878906 38.7695 0.146484 C 38.7695 1.17188 39.5996 2.00195 40.7227 2.00195 Z"/>
  </g>
  <g id="Ultralight-L" transform="matrix(1 0 0 1 493.305 1556)">
   <path d="M 29.0527 26.709 L 103.76 26.709 C 111.719 26.709 116.748 21.6797 116.748 13.7695 L 116.748 -89.6484 C 116.748 -97.6074 111.719 -102.637 103.76 -102.637 L 29.0527 -102.637 C 21.0938 -102.637 16.0645 -97.6074 16.0645 -89.6484 L 16.0645 13.7695 C 16.0645 21.6797 21.0938 26.709 29.0527 26.709 Z M 29.1992 24.3164 C 22.3633 24.3164 18.6035 20.6055 18.6035 13.7695 L 18.6035 -89.6973 C 18.6035 -96.5332 22.3633 -100.244 29.1992 -100.244 L 103.662 -100.244 C 110.449 -100.244 114.209 -96.5332 114.209 -89.6973 L 114.209 13.7695 C 114.209 20.6055 110.449 24.3164 103.662 24.3164 Z M 50.5371 -38.2812 C 57.6172 -38.2812 63.5742 -44.043 63.5742 -51.416 C 63.5742 -59.3262 58.0078 -64.502 50.3418 -64.502 C 46.7285 -64.502 42.9199 -63.0371 40.0391 -59.5703 L 39.3555 -59.5703 C 40.1855 -62.9395 42.0898 -66.3574 44.9707 -68.9941 C 48.1934 -71.9238 51.3184 -73.1934 55.127 -73.877 C 55.8594 -73.9746 56.6406 -74.3652 56.6406 -75.1953 C 56.6406 -75.9766 56.1523 -76.3672 55.2734 -76.3672 C 51.1719 -76.3672 45.459 -73.6328 41.748 -69.4824 C 38.1348 -65.4785 35.7422 -60.4004 35.7422 -54.3457 C 35.7422 -44.043 42.1875 -38.2812 50.5371 -38.2812 Z M 84.0332 -38.2812 C 91.1621 -38.2812 97.0703 -43.9941 97.0703 -51.416 C 97.0703 -59.3262 91.5039 -64.502 83.8867 -64.502 C 80.2246 -64.502 76.416 -63.0371 73.5352 -59.5703 L 72.8516 -59.5703 C 73.6816 -62.9395 75.5859 -66.3574 78.4668 -68.9941 C 81.7383 -71.9238 84.8145 -73.1934 88.623 -73.877 C 89.3555 -73.9746 90.1855 -74.3652 90.1855 -75.1953 C 90.1855 -75.9277 89.6484 -76.3672 88.7695 -76.3672 C 84.668 -76.3672 79.0039 -73.6328 75.2441 -69.4824 C 71.6309 -65.4297 69.2383 -60.3516 69.2383 -54.3457 C 69.2383 -44.043 75.6836 -38.2812 84.0332 -38.2812 Z M 39.8926 -20.8984 L 93.1152 -20.8984 C 93.9453 -20.8984 94.5801 -21.5332 94.5801 -22.3145 C 94.5801 -23.0469 93.9453 -23.6816 93.1152 -23.6816 L 39.8926 -23.6816 C 39.0137 -23.6816 38.3789 -23.0469 38.3789 -22.3145 C 38.3789 -21.5332 39.0137 -20.8984 39.8926 -20.8984 Z M 39.8926 1.46484 L 66.4551 1.46484 C 67.2852 1.46484 67.9199 0.830078 67.9199 0.0976562 C 67.9199 -0.683594 67.2852 -1.31836 66.4551 -1.31836 L 39.8926 -1.31836 C 39.0137 -1.31836 38.3789 -0.683594 38.3789 0.0976562 C 38.3789 0.830078 39.0137 1.46484 39.8926 1.46484 Z"/>
  </g>
  <g id="Black-M" transform="matrix(1 0 0 1 2874.98 1126)">
   <path d="M 31.9824 20.2148 L 84.8633 20.2148 C 97.1191 20.2148 104.395 12.9395 104.395 0.683594 L 104.395 -71.0938 C 104.395 -83.3496 97.1191 -90.625 84.8633 -90.625 L 31.9824 -90.625 C 19.7266 -90.625 12.4512 -83.3496 12.4512 -71.0938 L 12.4512 0.683594 C 12.4512 12.9395 19.7266 20.2148 31.9824 20.2148 Z M 34.9121 1.9043 C 31.8359 1.9043 30.7617 0.585938 30.7617 -2.24609 L 30.7617 -68.1641 C 30.7617 -70.9961 31.8359 -72.3145 34.9121 -72.3145 L 81.9336 -72.3145 C 85.0098 -72.3145 86.1328 -70.9961 86.1328 -68.1641 L 86.1328 -2.24609 C 86.1328 0.585938 85.0098 1.9043 81.9336 1.9043 Z M 48.5352 -41.3086 C 53.2227 -41.3086 56.8359 -44.5312 56.8359 -49.4629 C 56.8359 -54.0039 53.7109 -57.1289 49.7559 -57.1289 C 47.6562 -57.1289 46.0938 -56.4453 44.9707 -55.127 L 44.043 -55.127 C 44.2871 -56.2012 45.0195 -57.4219 46.0938 -58.4473 C 47.3145 -59.5703 49.0234 -60.498 51.123 -60.6445 C 51.8555 -60.6934 52.6855 -61.2793 52.6855 -62.4512 C 52.6855 -63.3789 51.9043 -64.0137 50.8789 -64.0137 C 48.1445 -64.0137 45.166 -62.5977 42.7246 -60.1562 C 40.4297 -57.8613 39.4531 -54.6387 39.4531 -51.3672 C 39.4531 -45.0195 43.3594 -41.3086 48.5352 -41.3086 Z M 68.9941 -41.3086 C 73.6816 -41.3086 77.2949 -44.5312 77.2949 -49.4629 C 77.2949 -54.0039 74.1699 -57.1289 70.2148 -57.1289 C 68.1152 -57.1289 66.5527 -56.4453 65.4297 -55.127 L 64.502 -55.127 C 64.8438 -56.2988 65.625 -57.5684 66.9434 -58.5938 C 68.1152 -59.5215 69.6777 -60.3516 71.6309 -60.6445 C 72.6562 -60.8398 73.1445 -61.4258 73.1445 -62.4512 C 73.1445 -63.3789 72.4121 -64.0137 71.3379 -64.0137 C 68.5059 -64.0137 65.4785 -62.4023 63.2324 -60.1562 C 60.9375 -57.8613 59.9121 -54.6387 59.9121 -51.3672 C 59.9121 -45.0195 63.8184 -41.3086 68.9941 -41.3086 Z M 43.7988 -24.6094 L 72.998 -24.6094 C 75 -24.6094 76.5137 -26.1719 76.5137 -28.1738 C 76.5137 -30.127 75 -31.5918 72.998 -31.5918 L 43.7988 -31.5918 C 41.748 -31.5918 40.2832 -30.127 40.2832 -28.1738 C 40.2832 -26.1719 41.748 -24.6094 43.7988 -24.6094 Z M 43.7988 -11.6211 L 59.8633 -11.6211 C 61.8652 -11.6211 63.3789 -13.1348 63.3789 -15.0391 C 63.3789 -17.041 61.8652 -18.6035 59.8633 -18.6035 L 43.7988 -18.6035 C 41.748 -18.6035 40.2832 -17.041 40.2832 -15.0391 C 40.2832 -13.1348 41.748 -11.6211 43.7988 -11.6211 Z"/>
  </g>
  <g id="Heavy-M" transform="matrix(1 0 0 1 2579.41 1126)">
   <path d="M 30.8594 19.3359 L 83.7402 19.3359 C 95.3613 19.3359 102.1 12.5977 102.1 0.878906 L 102.1 -71.4844 C 102.1 -83.1543 95.3613 -89.9414 83.7402 -89.9414 L 30.8594 -89.9414 C 19.1895 -89.9414 12.4512 -83.1543 12.4512 -71.4844 L 12.4512 0.878906 C 12.4512 12.5977 19.1895 19.3359 30.8594 19.3359 Z M 33.1543 3.51562 C 29.6875 3.51562 28.2715 1.85547 28.2715 -1.36719 L 28.2715 -69.2383 C 28.2715 -72.4609 29.6875 -74.1211 33.1543 -74.1211 L 81.3965 -74.1211 C 84.8633 -74.1211 86.2793 -72.4609 86.2793 -69.2383 L 86.2793 -1.36719 C 86.2793 1.85547 84.8633 3.51562 81.3965 3.51562 Z M 68.2129 -40.5762 C 73.1934 -40.5762 76.9043 -43.9941 76.9043 -49.1211 C 76.9043 -53.9551 73.7305 -57.2266 69.4824 -57.2266 C 67.2363 -57.2266 65.5762 -56.543 64.3555 -55.0781 L 63.4277 -55.0781 C 63.7207 -56.3965 64.5996 -57.7148 65.9668 -58.8867 C 67.2363 -59.9121 68.8965 -60.7422 70.8984 -61.084 C 72.1191 -61.3281 72.6074 -61.8652 72.6074 -62.9395 C 72.6074 -63.8672 71.875 -64.5508 70.752 -64.5508 C 67.8223 -64.5508 64.5508 -62.8418 62.207 -60.4492 C 59.8145 -58.0078 58.7402 -54.6387 58.7402 -51.1719 C 58.7402 -44.4824 62.8418 -40.5762 68.2129 -40.5762 Z M 46.7285 -40.5273 C 51.709 -40.5273 55.4688 -43.9941 55.4688 -49.1211 C 55.4688 -53.9551 52.2461 -57.2266 47.998 -57.2266 C 45.752 -57.2266 44.0918 -56.4941 42.8711 -55.0781 L 41.9434 -55.0781 C 42.1875 -56.2988 43.0176 -57.666 44.2383 -58.7402 C 45.5566 -59.9121 47.2656 -60.8398 49.4141 -61.084 C 50.3906 -61.2305 51.123 -61.7676 51.123 -62.9395 C 51.123 -63.8672 50.3906 -64.5508 49.2676 -64.5508 C 46.4355 -64.5508 43.2129 -62.9883 40.7227 -60.4492 C 38.3301 -58.0078 37.2559 -54.6387 37.2559 -51.123 C 37.2559 -44.4824 41.3574 -40.5273 46.7285 -40.5273 Z M 41.6016 -23.9258 L 72.6562 -23.9258 C 74.5605 -23.9258 76.0254 -25.4395 76.0254 -27.3438 C 76.0254 -29.1992 74.5605 -30.6641 72.6562 -30.6641 L 41.6016 -30.6641 C 39.5996 -30.6641 38.1836 -29.1992 38.1836 -27.3438 C 38.1836 -25.4395 39.5996 -23.9258 41.6016 -23.9258 Z M 41.6016 -9.96094 L 58.0078 -9.96094 C 59.9609 -9.96094 61.377 -11.4258 61.377 -13.2812 C 61.377 -15.2344 59.9609 -16.6992 58.0078 -16.6992 L 41.6016 -16.6992 C 39.5996 -16.6992 38.1836 -15.2344 38.1836 -13.2812 C 38.1836 -11.4258 39.5996 -9.96094 41.6016 -9.96094 Z"/>
  </g>
  <g id="Bold-M" transform="matrix(1 0 0 1 2284 1126)">
   <path d="M 29.541 18.3594 L 82.4219 18.3594 C 93.4082 18.3594 99.5117 12.207 99.5117 1.12305 L 99.5117 -71.9727 C 99.5117 -83.0078 93.4082 -89.1602 82.4219 -89.1602 L 29.541 -89.1602 C 18.5547 -89.1602 12.4512 -83.0078 12.4512 -71.9727 L 12.4512 1.12305 C 12.4512 12.207 18.5547 18.3594 29.541 18.3594 Z M 31.2012 5.27344 C 27.2949 5.27344 25.5371 3.32031 25.5371 -0.390625 L 25.5371 -70.459 C 25.5371 -74.1699 27.2949 -76.123 31.2012 -76.123 L 80.7617 -76.123 C 84.668 -76.123 86.4746 -74.1699 86.4746 -70.459 L 86.4746 -0.390625 C 86.4746 3.32031 84.668 5.27344 80.7617 5.27344 Z M 67.334 -39.6973 C 72.6562 -39.6973 76.5137 -43.3594 76.5137 -48.7793 C 76.5137 -53.9062 73.1934 -57.373 68.6523 -57.373 C 66.2598 -57.373 64.4531 -56.5918 63.1348 -55.0293 L 62.1582 -55.0293 C 62.5 -56.4453 63.4277 -57.9102 64.8926 -59.1309 C 66.2598 -60.3027 68.0176 -61.1328 70.0684 -61.5723 C 71.4844 -61.8652 72.0215 -62.4023 72.0215 -63.4766 C 72.0215 -64.4531 71.2891 -65.1367 70.0684 -65.1367 C 67.041 -65.1367 63.4766 -63.3301 61.084 -60.791 C 58.5449 -58.1543 57.373 -54.6387 57.373 -50.9277 C 57.373 -43.8477 61.7188 -39.6973 67.334 -39.6973 Z M 44.7266 -39.6973 C 50.0488 -39.6973 53.9062 -43.3594 53.9062 -48.7305 C 53.9062 -53.9062 50.5859 -57.3242 46.0449 -57.3242 C 43.6523 -57.3242 41.8457 -56.5918 40.5273 -54.9805 L 39.5508 -54.9805 C 39.8438 -56.3965 40.8203 -57.8613 42.1875 -59.082 C 43.5547 -60.3027 45.3125 -61.2305 47.4609 -61.5234 C 48.7305 -61.7676 49.4141 -62.3047 49.4141 -63.4277 C 49.4141 -64.4043 48.6816 -65.0879 47.4609 -65.0879 C 44.5312 -65.0879 41.0156 -63.4277 38.4766 -60.7422 C 35.9375 -58.1543 34.7656 -54.5898 34.7656 -50.8789 C 34.7656 -43.7988 39.1113 -39.6973 44.7266 -39.6973 Z M 39.1113 -23.1445 L 72.2168 -23.1445 C 74.0723 -23.1445 75.4883 -24.5605 75.4883 -26.416 C 75.4883 -28.2227 74.0723 -29.6387 72.2168 -29.6387 L 39.1113 -29.6387 C 37.207 -29.6387 35.791 -28.2227 35.791 -26.416 C 35.791 -24.5605 37.207 -23.1445 39.1113 -23.1445 Z M 39.1113 -8.10547 L 55.9082 -8.10547 C 57.7637 -8.10547 59.1797 -9.52148 59.1797 -11.2793 C 59.1797 -13.1348 57.7637 -14.5996 55.9082 -14.5996 L 39.1113 -14.5996 C 37.207 -14.5996 35.791 -13.1348 35.791 -11.2793 C 35.791 -9.52148 37.207 -8.10547 39.1113 -8.10547 Z"/>
  </g>
  <g id="Semibold-M" transform="matrix(1 0 0 1 1988.16 1126)">
   <path d="M 28.6621 17.6758 L 81.543 17.6758 C 92.041 17.6758 97.7539 11.9141 97.7539 1.31836 L 97.7539 -72.3145 C 97.7539 -82.8613 92.041 -88.623 81.543 -88.623 L 28.6621 -88.623 C 18.1641 -88.623 12.4512 -82.8613 12.4512 -72.3145 L 12.4512 1.31836 C 12.4512 11.9141 18.1641 17.6758 28.6621 17.6758 Z M 29.834 6.49414 C 25.6836 6.49414 23.6328 4.29688 23.6328 0.292969 L 23.6328 -71.2891 C 23.6328 -75.293 25.6836 -77.4902 29.8828 -77.4902 L 80.3223 -77.4902 C 84.5215 -77.4902 86.5723 -75.293 86.5723 -71.2891 L 86.5723 0.292969 C 86.5723 4.29688 84.5215 6.49414 80.3711 6.49414 Z M 66.748 -39.1113 C 72.2656 -39.1113 76.2207 -42.9199 76.2207 -48.5352 C 76.2207 -53.8574 72.8516 -57.4219 68.0664 -57.4219 C 65.5762 -57.4219 63.6719 -56.6406 62.2559 -54.9805 L 61.2793 -54.9805 C 61.6699 -56.4941 62.6465 -58.0566 64.1602 -59.3262 C 65.5762 -60.5957 67.3828 -61.4258 69.4824 -61.8652 C 71.0449 -62.207 71.6309 -62.793 71.6309 -63.8184 C 71.6309 -64.8438 70.8984 -65.5273 69.5801 -65.5273 C 66.5039 -65.5273 62.793 -63.6719 60.3027 -61.0352 C 57.666 -58.252 56.4453 -54.6387 56.4453 -50.7812 C 56.4453 -43.4082 60.9863 -39.1113 66.748 -39.1113 Z M 43.3594 -39.1113 C 48.877 -39.1113 52.832 -42.9199 52.832 -48.4863 C 52.832 -53.8574 49.4629 -57.4219 44.6777 -57.4219 C 42.2363 -57.4219 40.2832 -56.6406 38.8672 -54.9316 L 37.8906 -54.9316 C 38.2324 -56.4941 39.2578 -58.0566 40.7715 -59.3262 C 42.1875 -60.5469 43.9941 -61.4746 46.1426 -61.8652 C 47.5586 -62.1582 48.2422 -62.6953 48.2422 -63.8184 C 48.2422 -64.7949 47.5098 -65.5273 46.2402 -65.5273 C 43.1641 -65.5273 39.5508 -63.7695 36.9141 -60.9863 C 34.2773 -58.2031 33.0566 -54.5898 33.0566 -50.7324 C 33.0566 -43.3594 37.5977 -39.1113 43.3594 -39.1113 Z M 37.4023 -22.5586 L 71.9727 -22.5586 C 73.7793 -22.5586 75.0977 -23.9746 75.0977 -25.7812 C 75.0977 -27.5391 73.7793 -28.9062 71.9727 -28.9062 L 37.4023 -28.9062 C 35.5469 -28.9062 34.1797 -27.5391 34.1797 -25.7812 C 34.1797 -23.9746 35.5469 -22.5586 37.4023 -22.5586 Z M 37.4023 -6.83594 L 54.4922 -6.83594 C 56.2988 -6.83594 57.666 -8.20312 57.666 -9.91211 C 57.666 -11.7188 56.2988 -13.1348 54.4922 -13.1348 L 37.4023 -13.1348 C 35.5469 -13.1348 34.1797 -11.7188 34.1797 -9.91211 C 34.1797 -8.20312 35.5469 -6.83594 37.4023 -6.83594 Z"/>
  </g>
  <g id="Medium-M" transform="matrix(1 0 0 1 1692.11 1126)">
   <path d="M 27.9785 17.1387 L 80.8594 17.1387 C 91.0156 17.1387 96.4355 11.7188 96.4355 1.46484 L 96.4355 -72.5586 C 96.4355 -82.8125 91.0156 -88.2324 80.8594 -88.2324 L 27.9785 -88.2324 C 17.8223 -88.2324 12.4512 -82.8125 12.4512 -72.5586 L 12.4512 1.46484 C 12.4512 11.7188 17.8223 17.1387 27.9785 17.1387 Z M 28.8086 7.42188 C 24.4141 7.42188 22.168 5.07812 22.168 0.830078 L 22.168 -71.9238 C 22.168 -76.1719 24.4141 -78.5156 28.8574 -78.5156 L 79.9805 -78.5156 C 84.4727 -78.5156 86.6699 -76.1719 86.6699 -71.9238 L 86.6699 0.830078 C 86.6699 5.07812 84.4727 7.42188 80.0293 7.42188 Z M 66.2598 -38.6719 C 71.9727 -38.6719 75.9766 -42.627 75.9766 -48.3398 C 75.9766 -53.8574 72.5586 -57.5195 67.627 -57.5195 C 65.0879 -57.5195 63.0371 -56.6895 61.6211 -54.9316 L 60.6445 -54.9316 C 60.9863 -56.543 62.0605 -58.1543 63.5742 -59.4727 C 65.0879 -60.791 66.9434 -61.6699 69.0918 -62.1094 C 70.752 -62.5 71.2891 -63.0371 71.2891 -64.1113 C 71.2891 -65.1367 70.5566 -65.8691 69.2383 -65.8691 C 66.1133 -65.8691 62.2559 -63.916 59.7168 -61.1816 C 57.0312 -58.3496 55.7129 -54.6387 55.7129 -50.6348 C 55.7129 -43.0664 60.4004 -38.6719 66.2598 -38.6719 Z M 42.2852 -38.6719 C 47.998 -38.6719 52.002 -42.5781 52.002 -48.291 C 52.002 -53.8086 48.584 -57.4707 43.6523 -57.4707 C 41.1133 -57.4707 39.0625 -56.6895 37.6465 -54.8828 L 36.6699 -54.8828 C 37.0117 -56.543 38.0859 -58.1543 39.6484 -59.5215 C 41.1621 -60.791 42.9688 -61.6699 45.1172 -62.0605 C 46.7285 -62.4512 47.3145 -62.9883 47.3145 -64.0625 C 47.3145 -65.0879 46.582 -65.8203 45.2637 -65.8203 C 42.1875 -65.8203 38.3789 -63.9648 35.7422 -61.1328 C 33.0566 -58.3008 31.7383 -54.5898 31.7383 -50.5859 C 31.7383 -43.0664 36.4258 -38.6719 42.2852 -38.6719 Z M 36.1328 -22.168 L 71.7285 -22.168 C 73.5352 -22.168 74.8535 -23.5352 74.8535 -25.293 C 74.8535 -27.002 73.5352 -28.3691 71.7285 -28.3691 L 36.1328 -28.3691 C 34.2773 -28.3691 32.959 -27.002 32.959 -25.293 C 32.959 -23.5352 34.2773 -22.168 36.1328 -22.168 Z M 36.1328 -5.85938 L 53.3691 -5.85938 C 55.1758 -5.85938 56.4941 -7.17773 56.4941 -8.88672 C 56.4941 -10.6445 55.1758 -12.0605 53.3691 -12.0605 L 36.1328 -12.0605 C 34.2773 -12.0605 32.959 -10.6445 32.959 -8.88672 C 32.959 -7.17773 34.2773 -5.85938 36.1328 -5.85938 Z"/>
  </g>
  <g id="Regular-M" transform="matrix(1 0 0 1 1396.28 1126)">
   <path d="M 27.0996 16.4551 L 79.9805 16.4551 C 89.6973 16.4551 94.6777 11.4746 94.6777 1.61133 L 94.6777 -72.8516 C 94.6777 -82.666 89.6973 -87.7441 79.9805 -87.7441 L 27.0996 -87.7441 C 17.4316 -87.7441 12.4512 -82.666 12.4512 -72.8516 L 12.4512 1.61133 C 12.4512 11.4746 17.4316 16.4551 27.0996 16.4551 Z M 27.4902 8.64258 C 22.8027 8.64258 20.3125 6.05469 20.3125 1.51367 L 20.3125 -72.7539 C 20.3125 -77.3438 22.8027 -79.8828 27.5391 -79.8828 L 79.5898 -79.8828 C 84.3262 -79.8828 86.8164 -77.3438 86.8164 -72.7539 L 86.8164 1.51367 C 86.8164 6.05469 84.3262 8.64258 79.6387 8.64258 Z M 65.6738 -38.1348 C 71.582 -38.1348 75.7324 -42.1875 75.7324 -48.0957 C 75.7324 -53.8086 72.2168 -57.5684 67.041 -57.5684 C 64.4043 -57.5684 62.3047 -56.7383 60.791 -54.8828 L 59.7656 -54.8828 C 60.1562 -56.5918 61.2793 -58.3008 62.8418 -59.668 C 64.4043 -61.084 66.3574 -61.9629 68.5059 -62.4512 C 70.3125 -62.8418 70.8984 -63.4277 70.8984 -64.502 C 70.8984 -65.4785 70.166 -66.2598 68.7988 -66.2598 C 65.625 -66.2598 61.5234 -64.2578 58.9355 -61.4258 C 56.1523 -58.4473 54.7852 -54.5898 54.7852 -50.4883 C 54.7852 -42.6758 59.6191 -38.1348 65.6738 -38.1348 Z M 40.918 -38.0859 C 46.875 -38.0859 50.9766 -42.1387 50.9766 -48.0469 C 50.9766 -53.7598 47.4609 -57.5195 42.2852 -57.5195 C 39.6973 -57.5195 37.5488 -56.6895 36.0352 -54.834 L 35.0586 -54.834 C 35.4492 -56.5918 36.5723 -58.3496 38.2812 -59.7168 C 39.7949 -61.0352 41.6504 -61.9629 43.7988 -62.4023 C 45.6055 -62.793 46.1426 -63.3789 46.1426 -64.4531 C 46.1426 -65.4297 45.4102 -66.2109 44.043 -66.2109 C 40.8691 -66.2109 36.9141 -64.3066 34.1797 -61.377 C 31.4453 -58.3984 30.0781 -54.541 30.0781 -50.4395 C 30.0781 -42.627 34.9121 -38.0859 40.918 -38.0859 Z M 34.4238 -21.6309 L 71.4844 -21.6309 C 73.1934 -21.6309 74.4629 -22.9492 74.4629 -24.6582 C 74.4629 -26.3184 73.1934 -27.6367 71.4844 -27.6367 L 34.4238 -27.6367 C 32.666 -27.6367 31.3477 -26.3184 31.3477 -24.6582 C 31.3477 -22.9492 32.666 -21.6309 34.4238 -21.6309 Z M 34.4238 -4.58984 L 51.9531 -4.58984 C 53.7109 -4.58984 54.9805 -5.85938 54.9805 -7.56836 C 54.9805 -9.27734 53.7109 -10.5957 51.9531 -10.5957 L 34.4238 -10.5957 C 32.666 -10.5957 31.3477 -9.27734 31.3477 -7.56836 C 31.3477 -5.85938 32.666 -4.58984 34.4238 -4.58984 Z"/>
  </g>
  <g id="Light-M" transform="matrix(1 0 0 1 1100.23 1126)">
   <path d="M 25.6836 15.332 L 80.127 15.332 C 88.7207 15.332 93.3594 10.6445 93.3594 1.95312 L 93.3594 -74.2676 C 93.3594 -82.959 88.7207 -87.6465 80.127 -87.6465 L 25.6836 -87.6465 C 17.0898 -87.6465 12.4512 -82.959 12.4512 -74.2676 L 12.4512 1.95312 C 12.4512 10.6445 17.0898 15.332 25.6836 15.332 Z M 25.9766 9.32617 C 21.0938 9.32617 18.5059 6.68945 18.5059 1.9043 L 18.5059 -74.2188 C 18.5059 -79.0039 21.0938 -81.6895 26.0254 -81.6895 L 79.7852 -81.6895 C 84.7168 -81.6895 87.3535 -79.0039 87.3535 -74.2188 L 87.3535 1.9043 C 87.3535 6.68945 84.7168 9.32617 79.834 9.32617 Z M 65.4785 -37.9395 C 71.2891 -37.9395 75.5859 -42.1387 75.5859 -47.998 C 75.5859 -53.8086 71.8262 -57.7148 66.4062 -57.7148 C 63.7207 -57.7148 61.3281 -56.7383 59.6191 -54.6387 L 58.7402 -54.6387 C 59.2285 -56.6406 60.4492 -58.5938 62.207 -60.2051 C 64.0625 -61.8652 66.1621 -62.793 68.5547 -63.2812 C 70.0195 -63.623 70.6055 -64.0625 70.6055 -65.0391 C 70.6055 -65.918 69.9707 -66.5527 68.7988 -66.5527 C 65.625 -66.5527 61.4258 -64.4531 58.7402 -61.5234 C 55.957 -58.4961 54.4434 -54.6387 54.4434 -50.3418 C 54.4434 -42.4805 59.3262 -37.9395 65.4785 -37.9395 Z M 40.3809 -37.9395 C 46.1914 -37.9395 50.4395 -42.1387 50.4395 -47.9492 C 50.4395 -53.8086 46.6797 -57.666 41.2598 -57.666 C 38.623 -57.666 36.2305 -56.7383 34.4727 -54.5898 L 33.6426 -54.5898 C 34.082 -56.6406 35.3516 -58.6426 37.207 -60.2539 C 39.0625 -61.8652 41.0645 -62.793 43.457 -63.2324 C 44.873 -63.5742 45.459 -64.0625 45.459 -64.9902 C 45.459 -65.8691 44.8242 -66.5039 43.6523 -66.5039 C 40.4785 -66.5039 36.377 -64.502 33.5938 -61.4746 C 30.8594 -58.4473 29.3457 -54.5898 29.3457 -50.3418 C 29.3457 -42.4316 34.2285 -37.9395 40.3809 -37.9395 Z M 33.3496 -22.4121 L 71.6797 -22.4121 C 73.0469 -22.4121 74.1211 -23.4863 74.1211 -24.8535 C 74.1211 -26.1719 73.0469 -27.1973 71.6797 -27.1973 L 33.3496 -27.1973 C 31.9336 -27.1973 30.8594 -26.1719 30.8594 -24.8535 C 30.8594 -23.4863 31.9336 -22.4121 33.3496 -22.4121 Z M 33.3496 -5.27344 L 51.8066 -5.27344 C 53.2227 -5.27344 54.248 -6.29883 54.248 -7.66602 C 54.248 -8.98438 53.2227 -10.1074 51.8066 -10.1074 L 33.3496 -10.1074 C 31.9336 -10.1074 30.8594 -8.98438 30.8594 -7.66602 C 30.8594 -6.29883 31.9336 -5.27344 33.3496 -5.27344 Z"/>
  </g>
  <g id="Thin-M" transform="matrix(1 0 0 1 804.371 1126)">
   <path d="M 23.8281 13.8184 L 80.3223 13.8184 C 87.4512 13.8184 91.6504 9.61914 91.6504 2.39258 L 91.6504 -76.123 C 91.6504 -83.3008 87.4512 -87.5488 80.3223 -87.5488 L 23.8281 -87.5488 C 16.6504 -87.5488 12.4512 -83.3008 12.4512 -76.123 L 12.4512 2.39258 C 12.4512 9.61914 16.6504 13.8184 23.8281 13.8184 Z M 23.9746 10.3027 C 18.8477 10.3027 16.0645 7.4707 16.0645 2.39258 L 16.0645 -76.123 C 16.0645 -81.2012 18.8477 -84.0332 23.9746 -84.0332 L 80.127 -84.0332 C 85.2539 -84.0332 88.0371 -81.2012 88.0371 -76.123 L 88.0371 2.39258 C 88.0371 7.4707 85.2539 10.3027 80.127 10.3027 Z M 65.2832 -37.7441 C 70.8984 -37.7441 75.3906 -42.0898 75.3906 -47.8516 C 75.3906 -53.8574 71.2891 -57.8125 65.5762 -57.8125 C 62.793 -57.8125 60.1074 -56.7383 58.0566 -54.2969 L 57.4219 -54.2969 C 57.959 -56.6895 59.3262 -59.0332 61.377 -60.9375 C 63.623 -62.9395 65.918 -63.916 68.6523 -64.4043 C 69.5801 -64.5996 70.166 -64.9414 70.166 -65.7227 C 70.166 -66.4062 69.6777 -66.8945 68.7988 -66.8945 C 65.625 -66.8945 61.3281 -64.7949 58.4961 -61.6699 C 55.7129 -58.5938 54.0039 -54.6875 54.0039 -50.1953 C 54.0039 -42.2363 58.9355 -37.7441 65.2832 -37.7441 Z M 39.6484 -37.7441 C 45.2637 -37.7441 49.7559 -42.0898 49.7559 -47.8516 C 49.7559 -53.8574 45.6543 -57.8125 39.9414 -57.8125 C 37.1582 -57.8125 34.4727 -56.7383 32.4219 -54.2969 L 31.7871 -54.2969 C 32.3242 -56.6895 33.7402 -59.082 35.791 -60.9375 C 38.0371 -62.9395 40.2832 -63.916 43.0176 -64.4043 C 43.9453 -64.5996 44.5312 -64.9414 44.5312 -65.7227 C 44.5312 -66.4062 44.043 -66.8945 43.1641 -66.8945 C 39.9902 -66.8945 35.6934 -64.7949 32.8613 -61.6699 C 30.0781 -58.5938 28.3691 -54.6875 28.3691 -50.1465 C 28.3691 -42.2363 33.3008 -37.7441 39.6484 -37.7441 Z M 31.8848 -23.4375 L 71.9727 -23.4375 C 72.9004 -23.4375 73.6328 -24.1699 73.6328 -25.0488 C 73.6328 -25.9766 72.9004 -26.6602 71.9727 -26.6602 L 31.8848 -26.6602 C 30.9082 -26.6602 30.2246 -25.9766 30.2246 -25.0488 C 30.2246 -24.1699 30.9082 -23.4375 31.8848 -23.4375 Z M 31.8848 -6.15234 L 51.6113 -6.15234 C 52.5879 -6.15234 53.2715 -6.88477 53.2715 -7.76367 C 53.2715 -8.69141 52.5879 -9.42383 51.6113 -9.42383 L 31.8848 -9.42383 C 30.9082 -9.42383 30.2246 -8.69141 30.2246 -7.76367 C 30.2246 -6.88477 30.9082 -6.15234 31.8848 -6.15234 Z"/>
  </g>
  <g id="Ultralight-M" transform="matrix(1 0 0 1 508.1 1126)">
   <path d="M 22.8516 13.0371 L 80.3711 13.0371 C 86.8164 13.0371 90.7715 9.08203 90.7715 2.63672 L 90.7715 -77.0996 C 90.7715 -83.4961 86.8164 -87.5 80.3711 -87.5 L 22.8516 -87.5 C 16.4062 -87.5 12.4512 -83.4961 12.4512 -77.0996 L 12.4512 2.63672 C 12.4512 9.08203 16.4062 13.0371 22.8516 13.0371 Z M 22.9492 10.791 C 17.7246 10.791 14.8438 7.91016 14.8438 2.63672 L 14.8438 -77.0996 C 14.8438 -82.3242 17.7246 -85.2051 22.9492 -85.2051 L 80.2734 -85.2051 C 85.498 -85.2051 88.3789 -82.3242 88.3789 -77.0996 L 88.3789 2.63672 C 88.3789 7.91016 85.498 10.791 80.2734 10.791 Z M 39.3066 -37.5977 C 44.8242 -37.5977 49.3652 -42.041 49.3652 -47.8027 C 49.3652 -53.9062 45.1172 -57.9102 39.2578 -57.9102 C 36.4258 -57.9102 33.5449 -56.7871 31.3965 -54.1504 L 30.8105 -54.1504 C 31.4453 -56.6895 32.9102 -59.2773 35.0586 -61.2793 C 37.5488 -63.4766 39.8926 -64.4531 42.7734 -64.9902 C 43.457 -65.0879 44.0918 -65.3809 44.0918 -66.0645 C 44.0918 -66.6992 43.6523 -67.041 42.9199 -67.041 C 39.7461 -67.041 35.3516 -64.9414 32.4707 -61.7676 C 29.6875 -58.6426 27.8809 -54.6875 27.8809 -50.0977 C 27.8809 -42.0898 32.8613 -37.5977 39.3066 -37.5977 Z M 65.1855 -37.5977 C 70.7031 -37.5977 75.2441 -42.041 75.2441 -47.8027 C 75.2441 -53.9062 70.9961 -57.9102 65.1367 -57.9102 C 62.3535 -57.9102 59.4727 -56.7383 57.2754 -54.1504 L 56.6895 -54.1504 C 57.3242 -56.6895 58.7891 -59.2773 60.9863 -61.2793 C 63.4277 -63.4766 65.7715 -64.4531 68.6523 -64.9902 C 69.3359 -65.0879 69.9707 -65.3809 69.9707 -66.0645 C 69.9707 -66.6992 69.5312 -67.041 68.7988 -67.041 C 65.625 -67.041 61.2305 -64.9414 58.3984 -61.7676 C 55.5664 -58.6426 53.7598 -54.6875 53.7598 -50.0977 C 53.7598 -42.0898 58.7402 -37.5977 65.1855 -37.5977 Z M 31.1523 -23.9746 L 72.1191 -23.9746 C 72.8516 -23.9746 73.3887 -24.5117 73.3887 -25.1953 C 73.3887 -25.8301 72.8516 -26.3672 72.1191 -26.3672 L 31.1523 -26.3672 C 30.4199 -26.3672 29.8828 -25.8301 29.8828 -25.1953 C 29.8828 -24.5117 30.4199 -23.9746 31.1523 -23.9746 Z M 31.1523 -6.64062 L 51.5137 -6.64062 C 52.2461 -6.64062 52.7832 -7.17773 52.7832 -7.86133 C 52.7832 -8.49609 52.2461 -9.0332 51.5137 -9.0332 L 31.1523 -9.0332 C 30.4199 -9.0332 29.8828 -8.49609 29.8828 -7.86133 C 29.8828 -7.17773 30.4199 -6.64062 31.1523 -6.64062 Z"/>
  </g>
  <g id="Black-S" transform="matrix(1 0 0 1 2887.7 696)">
   <path d="M 25 8.1543 L 66.4062 8.1543 C 75.9766 8.1543 81.6406 2.49023 81.6406 -7.08008 L 81.6406 -63.3301 C 81.6406 -72.9004 75.9766 -78.5645 66.4062 -78.5645 L 25 -78.5645 C 15.4297 -78.5645 9.76562 -72.9004 9.76562 -63.3301 L 9.76562 -7.08008 C 9.76562 2.49023 15.4297 8.1543 25 8.1543 Z M 27.2461 -6.00586 C 24.8047 -6.00586 23.9258 -7.08008 23.9258 -9.32617 L 23.9258 -61.084 C 23.9258 -63.3301 24.8047 -64.4043 27.2461 -64.4043 L 64.1602 -64.4043 C 66.6016 -64.4043 67.4805 -63.3301 67.4805 -61.084 L 67.4805 -9.32617 C 67.4805 -7.08008 66.6016 -6.00586 64.1602 -6.00586 Z M 37.8906 -39.9414 C 41.6016 -39.9414 44.4336 -42.4805 44.4336 -46.3379 C 44.4336 -49.9512 41.9922 -52.3926 38.8672 -52.3926 C 37.207 -52.3926 35.9863 -51.8555 35.1074 -50.8301 L 34.375 -50.8301 C 34.5703 -51.6602 35.1562 -52.6367 35.9863 -53.418 C 36.9629 -54.2969 38.2812 -55.0293 39.9414 -55.1758 C 40.5273 -55.2246 41.1621 -55.6641 41.1621 -56.5918 C 41.1621 -57.3242 40.5762 -57.8125 39.7461 -57.8125 C 37.5977 -57.8125 35.2539 -56.6895 33.3496 -54.7852 C 31.543 -52.9785 30.7617 -50.4395 30.7617 -47.8516 C 30.7617 -42.8711 33.8379 -39.9414 37.8906 -39.9414 Z M 54.0039 -39.9414 C 57.7148 -39.9414 60.5469 -42.4805 60.5469 -46.3379 C 60.5469 -49.9512 58.1055 -52.3926 54.9805 -52.3926 C 53.3203 -52.3926 52.0996 -51.8555 51.2207 -50.8301 L 50.4883 -50.8301 C 50.7324 -51.7578 51.3672 -52.7344 52.3926 -53.5645 C 53.3203 -54.2969 54.541 -54.9316 56.0547 -55.1758 C 56.8848 -55.3223 57.2754 -55.7617 57.2754 -56.5918 C 57.2754 -57.3242 56.6895 -57.8125 55.8594 -57.8125 C 53.6133 -57.8125 51.2207 -56.543 49.4629 -54.7852 C 47.6562 -52.9785 46.875 -50.4395 46.875 -47.8516 C 46.875 -42.8711 49.9512 -39.9414 54.0039 -39.9414 Z M 34.1797 -26.8555 L 57.1777 -26.8555 C 58.7402 -26.8555 59.9121 -28.0762 59.9121 -29.6387 C 59.9121 -31.1523 58.7402 -32.3242 57.1777 -32.3242 L 34.1797 -32.3242 C 32.5684 -32.3242 31.3965 -31.1523 31.3965 -29.6387 C 31.3965 -28.0762 32.5684 -26.8555 34.1797 -26.8555 Z M 34.1797 -16.6016 L 46.7773 -16.6016 C 48.3398 -16.6016 49.5117 -17.7734 49.5117 -19.2871 C 49.5117 -20.8496 48.3398 -22.0703 46.7773 -22.0703 L 34.1797 -22.0703 C 32.5684 -22.0703 31.3965 -20.8496 31.3965 -19.2871 C 31.3965 -17.7734 32.5684 -16.6016 34.1797 -16.6016 Z"/>
  </g>
  <g id="Heavy-S" transform="matrix(1 0 0 1 2591.79 696)">
   <path d="M 24.2676 7.61719 L 65.5273 7.61719 C 74.7559 7.61719 80.0293 2.29492 80.0293 -6.93359 L 80.0293 -63.4766 C 80.0293 -72.7539 74.7559 -78.0762 65.5273 -78.0762 L 24.2676 -78.0762 C 15.0391 -78.0762 9.76562 -72.7539 9.76562 -63.4766 L 9.76562 -6.93359 C 9.76562 2.29492 15.0391 7.61719 24.2676 7.61719 Z M 26.0742 -4.88281 C 23.3398 -4.88281 22.2656 -6.15234 22.2656 -8.69141 L 22.2656 -61.7676 C 22.2656 -64.3066 23.3398 -65.5762 26.0742 -65.5762 L 63.7207 -65.5762 C 66.4551 -65.5762 67.5293 -64.3066 67.5293 -61.7676 L 67.5293 -8.69141 C 67.5293 -6.15234 66.4551 -4.88281 63.7207 -4.88281 Z M 53.418 -39.4043 C 57.373 -39.4043 60.2539 -42.041 60.2539 -46.0938 C 60.2539 -49.9023 57.8125 -52.4414 54.4922 -52.4414 C 52.7344 -52.4414 51.416 -51.9043 50.4883 -50.8301 L 49.7559 -50.8301 C 50 -51.8066 50.6836 -52.832 51.709 -53.7109 C 52.6855 -54.4922 53.9551 -55.127 55.4688 -55.4199 C 56.4941 -55.6152 56.8848 -56.0547 56.8848 -56.8848 C 56.8848 -57.666 56.2988 -58.2031 55.4199 -58.2031 C 53.0762 -58.2031 50.5371 -56.8359 48.7305 -54.9805 C 46.8262 -53.0762 45.9961 -50.4395 45.9961 -47.7051 C 45.9961 -42.4805 49.2188 -39.4043 53.418 -39.4043 Z M 36.5723 -39.3555 C 40.5273 -39.3555 43.457 -42.041 43.457 -46.0938 C 43.457 -49.9023 40.9668 -52.4414 37.6465 -52.4414 C 35.8887 -52.4414 34.5703 -51.9043 33.6914 -50.7812 L 32.9102 -50.7812 C 33.1055 -51.709 33.7402 -52.7832 34.668 -53.6133 C 35.6934 -54.4922 37.0117 -55.1758 38.6719 -55.3711 C 39.4531 -55.5176 40.0879 -55.957 40.0879 -56.8848 C 40.0879 -57.666 39.4531 -58.2031 38.5742 -58.2031 C 36.3281 -58.2031 33.8379 -56.9824 31.8848 -54.9805 C 29.9805 -53.0762 29.1504 -50.4395 29.1504 -47.7051 C 29.1504 -42.4316 32.373 -39.3555 36.5723 -39.3555 Z M 32.6172 -26.2207 L 56.8848 -26.2207 C 58.4473 -26.2207 59.5703 -27.4414 59.5703 -29.0039 C 59.5703 -30.4688 58.4473 -31.6406 56.8848 -31.6406 L 32.6172 -31.6406 C 31.0059 -31.6406 29.834 -30.4688 29.834 -29.0039 C 29.834 -27.4414 31.0059 -26.2207 32.6172 -26.2207 Z M 32.6172 -15.2344 L 45.3613 -15.2344 C 46.9238 -15.2344 48.0957 -16.4062 48.0957 -17.9199 C 48.0957 -19.4824 46.9238 -20.7031 45.3613 -20.7031 L 32.6172 -20.7031 C 31.0059 -20.7031 29.834 -19.4824 29.834 -17.9199 C 29.834 -16.4062 31.0059 -15.2344 32.6172 -15.2344 Z"/>
  </g>
  <g id="Bold-S" transform="matrix(1 0 0 1 2295.98 696)">
   <path d="M 23.4863 6.98242 L 64.502 6.98242 C 73.3398 6.98242 78.2227 2.09961 78.2227 -6.78711 L 78.2227 -63.6719 C 78.2227 -72.5586 73.3398 -77.4902 64.502 -77.4902 L 23.4863 -77.4902 C 14.5996 -77.4902 9.76562 -72.5586 9.76562 -63.6719 L 9.76562 -6.78711 C 9.76562 2.09961 14.5996 6.98242 23.4863 6.98242 Z M 24.7559 -3.61328 C 21.7285 -3.61328 20.3613 -5.12695 20.3613 -7.95898 L 20.3613 -62.5 C 20.3613 -65.3809 21.7285 -66.8945 24.8047 -66.8945 L 63.1836 -66.8945 C 66.2598 -66.8945 67.627 -65.3809 67.627 -62.5 L 67.627 -7.95898 C 67.627 -5.12695 66.2598 -3.61328 63.2324 -3.61328 Z M 52.7832 -38.7695 C 56.9824 -38.7695 59.9609 -41.6016 59.9609 -45.8496 C 59.9609 -49.8535 57.4219 -52.5391 53.9062 -52.5391 C 52.0508 -52.5391 50.6836 -52.002 49.707 -50.7812 L 48.9258 -50.7812 C 49.1699 -51.8555 49.9023 -52.9297 50.9766 -53.8574 C 51.9531 -54.6875 53.3203 -55.3223 54.8828 -55.6641 C 56.0547 -55.9082 56.4941 -56.3965 56.4941 -57.2266 C 56.4941 -58.0566 55.9082 -58.5938 54.8828 -58.5938 C 52.5391 -58.5938 49.7559 -57.1777 47.8516 -55.2246 C 45.8984 -53.1738 44.9707 -50.4395 44.9707 -47.5586 C 44.9707 -41.9922 48.4375 -38.7695 52.7832 -38.7695 Z M 35.1074 -38.7207 C 39.3066 -38.7207 42.334 -41.5527 42.334 -45.8008 C 42.334 -49.8535 39.7949 -52.5391 36.2305 -52.5391 C 34.4238 -52.5391 33.0078 -51.9531 32.0801 -50.7812 L 31.25 -50.7812 C 31.4941 -51.8066 32.2266 -52.9297 33.252 -53.8086 C 34.2773 -54.6875 35.5957 -55.3711 37.207 -55.6152 C 38.2812 -55.8594 38.8184 -56.2988 38.8184 -57.2266 C 38.8184 -58.0078 38.2324 -58.5938 37.207 -58.5938 C 34.9121 -58.5938 32.2266 -57.2754 30.2246 -55.2246 C 28.2227 -53.1738 27.3438 -50.3906 27.3438 -47.5098 C 27.3438 -41.9922 30.7617 -38.7207 35.1074 -38.7207 Z M 30.8594 -25.5371 L 56.543 -25.5371 C 58.0566 -25.5371 59.2285 -26.709 59.2285 -28.2715 C 59.2285 -29.7363 58.0566 -30.9082 56.543 -30.9082 L 30.8594 -30.9082 C 29.248 -30.9082 28.125 -29.7363 28.125 -28.2715 C 28.125 -26.709 29.248 -25.5371 30.8594 -25.5371 Z M 30.8594 -13.7695 L 43.7988 -13.7695 C 45.3125 -13.7695 46.4844 -14.8926 46.4844 -16.4062 C 46.4844 -17.9199 45.3125 -19.1406 43.7988 -19.1406 L 30.8594 -19.1406 C 29.248 -19.1406 28.125 -17.9199 28.125 -16.4062 C 28.125 -14.8926 29.248 -13.7695 30.8594 -13.7695 Z"/>
  </g>
  <g id="Semibold-S" transform="matrix(1 0 0 1 1999.91 696)">
   <path d="M 22.9004 6.5918 L 63.8184 6.5918 C 72.4121 6.5918 76.9531 1.95312 76.9531 -6.68945 L 76.9531 -63.8184 C 76.9531 -72.4609 72.4121 -77.0996 63.8184 -77.0996 L 22.9004 -77.0996 C 14.3066 -77.0996 9.76562 -72.4609 9.76562 -63.8184 L 9.76562 -6.68945 C 9.76562 1.95312 14.3066 6.5918 22.9004 6.5918 Z M 23.877 -2.73438 C 20.6055 -2.73438 19.0918 -4.39453 19.0918 -7.4707 L 19.0918 -63.0371 C 19.0918 -66.1133 20.6055 -67.7734 23.877 -67.7734 L 62.8418 -67.7734 C 66.1133 -67.7734 67.6758 -66.1133 67.6758 -63.0371 L 67.6758 -7.4707 C 67.6758 -4.39453 66.1133 -2.73438 62.8906 -2.73438 Z M 52.3438 -38.3301 C 56.7383 -38.3301 59.7656 -41.2598 59.7656 -45.6543 C 59.7656 -49.8047 57.1777 -52.5879 53.5156 -52.5879 C 51.6113 -52.5879 50.1465 -52.002 49.1699 -50.7812 L 48.3398 -50.7812 C 48.584 -51.9043 49.3652 -52.9785 50.4395 -53.9551 C 51.4648 -54.834 52.8809 -55.4688 54.4434 -55.8105 C 55.7617 -56.1523 56.2012 -56.5918 56.2012 -57.4707 C 56.2012 -58.3008 55.6152 -58.8867 54.541 -58.8867 C 52.0996 -58.8867 49.2188 -57.4219 47.2656 -55.4199 C 45.2148 -53.2715 44.2871 -50.3906 44.2871 -47.4609 C 44.2871 -41.6992 47.8516 -38.3301 52.3438 -38.3301 Z M 34.082 -38.2812 C 38.4766 -38.2812 41.5527 -41.2598 41.5527 -45.6055 C 41.5527 -49.8047 38.9648 -52.5879 35.3027 -52.5879 C 33.3984 -52.5879 31.9336 -52.002 30.957 -50.7324 L 30.127 -50.7324 C 30.3711 -51.8555 31.1523 -53.0273 32.2266 -53.9551 C 33.3008 -54.834 34.6191 -55.5176 36.2305 -55.8105 C 37.5 -56.0547 37.9883 -56.543 37.9883 -57.4707 C 37.9883 -58.252 37.4023 -58.8867 36.3281 -58.8867 C 33.9355 -58.8867 31.1035 -57.5195 29.0527 -55.3711 C 27.002 -53.2227 26.0742 -50.3906 26.0742 -47.4121 C 26.0742 -41.6504 29.6387 -38.2812 34.082 -38.2812 Z M 29.6387 -25.0488 L 56.2988 -25.0488 C 57.8125 -25.0488 58.9844 -26.2207 58.9844 -27.7344 C 58.9844 -29.248 57.8125 -30.3711 56.2988 -30.3711 L 29.6387 -30.3711 C 28.0762 -30.3711 26.9043 -29.248 26.9043 -27.7344 C 26.9043 -26.2207 28.0762 -25.0488 29.6387 -25.0488 Z M 29.6387 -12.6953 L 42.6758 -12.6953 C 44.2383 -12.6953 45.3613 -13.8672 45.3613 -15.332 C 45.3613 -16.8457 44.2383 -18.0664 42.6758 -18.0664 L 29.6387 -18.0664 C 28.0762 -18.0664 26.9043 -16.8457 26.9043 -15.332 C 26.9043 -13.8672 28.0762 -12.6953 29.6387 -12.6953 Z"/>
  </g>
  <g id="Medium-S" transform="matrix(1 0 0 1 1703.66 696)">
   <path d="M 22.5098 6.25 L 63.2812 6.25 C 71.6797 6.25 76.0254 1.85547 76.0254 -6.64062 L 76.0254 -63.916 C 76.0254 -72.3633 71.6797 -76.8066 63.2812 -76.8066 L 22.5098 -76.8066 C 14.1113 -76.8066 9.76562 -72.3633 9.76562 -63.916 L 9.76562 -6.64062 C 9.76562 1.85547 14.1113 6.25 22.5098 6.25 Z M 23.1934 -2.05078 C 19.7754 -2.05078 18.0664 -3.85742 18.0664 -7.12891 L 18.0664 -63.4277 C 18.0664 -66.6504 19.7754 -68.457 23.1934 -68.457 L 62.5977 -68.457 C 66.0156 -68.457 67.7246 -66.6504 67.7246 -63.4277 L 67.7246 -7.12891 C 67.7246 -3.85742 66.0156 -2.05078 62.6465 -2.05078 Z M 52.002 -37.9883 C 56.4941 -37.9883 59.6191 -41.0156 59.6191 -45.5078 C 59.6191 -49.8047 57.0312 -52.6367 53.2227 -52.6367 C 51.2695 -52.6367 49.7559 -52.0508 48.7305 -50.7812 L 47.9004 -50.7812 C 48.1934 -51.9043 48.9258 -53.0762 50.0488 -54.0527 C 51.123 -54.9805 52.5391 -55.6152 54.1016 -55.957 C 55.5664 -56.2988 56.0059 -56.7871 56.0059 -57.666 C 56.0059 -58.4961 55.3711 -59.1309 54.248 -59.1309 C 51.8066 -59.1309 48.8281 -57.6172 46.8262 -55.5176 C 44.7266 -53.3203 43.7988 -50.3906 43.7988 -47.3633 C 43.7988 -41.4551 47.4121 -37.9883 52.002 -37.9883 Z M 33.3496 -37.9395 C 37.8906 -37.9395 40.9668 -41.0156 40.9668 -45.5078 C 40.9668 -49.7559 38.3789 -52.5879 34.5703 -52.5879 C 32.6172 -52.5879 31.1523 -52.002 30.127 -50.7324 L 29.248 -50.7324 C 29.541 -51.9043 30.3223 -53.0762 31.4941 -54.0527 C 32.5195 -54.9316 33.8867 -55.6152 35.4492 -55.9082 C 36.8652 -56.25 37.3535 -56.6895 37.3535 -57.6172 C 37.3535 -58.4473 36.7188 -59.082 35.5957 -59.082 C 33.2031 -59.082 30.2734 -57.666 28.1738 -55.4688 C 26.123 -53.2715 25.1465 -50.3418 25.1465 -47.3145 C 25.1465 -41.4062 28.8086 -37.9395 33.3496 -37.9395 Z M 28.7109 -24.6582 L 56.1035 -24.6582 C 57.666 -24.6582 58.7891 -25.8789 58.7891 -27.3926 C 58.7891 -28.8574 57.666 -29.9805 56.1035 -29.9805 L 28.7109 -29.9805 C 27.1484 -29.9805 26.0254 -28.8574 26.0254 -27.3926 C 26.0254 -25.8789 27.1484 -24.6582 28.7109 -24.6582 Z M 28.7109 -11.9141 L 41.8945 -11.9141 C 43.4082 -11.9141 44.5312 -13.0859 44.5312 -14.5508 C 44.5312 -16.0645 43.4082 -17.2363 41.8945 -17.2363 L 28.7109 -17.2363 C 27.1484 -17.2363 26.0254 -16.0645 26.0254 -14.5508 C 26.0254 -13.0859 27.1484 -11.9141 28.7109 -11.9141 Z"/>
  </g>
  <g id="Regular-S" transform="matrix(1 0 0 1 1407.56 696)">
   <path d="M 21.9238 5.81055 L 62.5977 5.81055 C 70.752 5.81055 74.8047 1.70898 74.8047 -6.54297 L 74.8047 -64.0137 C 74.8047 -72.2656 70.752 -76.416 62.5977 -76.416 L 21.9238 -76.416 C 13.8184 -76.416 9.76562 -72.2656 9.76562 -64.0137 L 9.76562 -6.54297 C 9.76562 1.70898 13.8184 5.81055 21.9238 5.81055 Z M 22.2656 -1.2207 C 18.7012 -1.2207 16.7969 -3.17383 16.7969 -6.64062 L 16.7969 -63.9648 C 16.7969 -67.3828 18.7012 -69.3848 22.3145 -69.3848 L 62.2559 -69.3848 C 65.8691 -69.3848 67.7734 -67.3828 67.7734 -63.9648 L 67.7734 -6.64062 C 67.7734 -3.17383 65.8691 -1.2207 62.3047 -1.2207 Z M 51.5137 -37.5488 C 56.25 -37.5488 59.4238 -40.7227 59.4238 -45.3613 C 59.4238 -49.7559 56.7871 -52.6855 52.832 -52.6855 C 50.8301 -52.6855 49.2676 -52.0996 48.1934 -50.7324 L 47.3633 -50.7324 C 47.6074 -51.9531 48.3887 -53.125 49.5605 -54.1504 C 50.6348 -55.127 52.0508 -55.7617 53.6621 -56.1523 C 55.2734 -56.4941 55.7129 -56.9824 55.7129 -57.9102 C 55.7129 -58.7402 55.0781 -59.4238 53.9062 -59.4238 C 51.416 -59.4238 48.291 -57.8613 46.2402 -55.6641 C 44.0918 -53.3691 43.1152 -50.3906 43.1152 -47.2656 C 43.1152 -41.1133 46.875 -37.5488 51.5137 -37.5488 Z M 32.3242 -37.5488 C 37.0605 -37.5488 40.1855 -40.6738 40.1855 -45.3125 C 40.1855 -49.707 37.5977 -52.6367 33.6426 -52.6367 C 31.6406 -52.6367 30.0781 -52.0508 29.0039 -50.6836 L 28.1738 -50.6836 C 28.418 -51.9531 29.248 -53.1738 30.5176 -54.1992 C 31.5918 -55.0781 32.9102 -55.7617 34.4727 -56.1035 C 36.084 -56.4453 36.5234 -56.9336 36.5234 -57.8613 C 36.5234 -58.6914 35.8887 -59.375 34.7168 -59.375 C 32.2266 -59.375 29.1504 -57.9102 27.0508 -55.6152 C 24.9023 -53.3203 23.9258 -50.3418 23.9258 -47.2168 C 23.9258 -41.0645 27.6855 -37.5488 32.3242 -37.5488 Z M 27.5391 -24.1699 L 55.9082 -24.1699 C 57.4219 -24.1699 58.5449 -25.3906 58.5449 -26.9043 C 58.5449 -28.3203 57.4219 -29.4922 55.9082 -29.4922 L 27.5391 -29.4922 C 25.9766 -29.4922 24.8047 -28.3203 24.8047 -26.9043 C 24.8047 -25.3906 25.9766 -24.1699 27.5391 -24.1699 Z M 27.5391 -10.8887 L 40.8203 -10.8887 C 42.2852 -10.8887 43.457 -12.0117 43.457 -13.4766 C 43.457 -14.9902 42.2852 -16.1621 40.8203 -16.1621 L 27.5391 -16.1621 C 25.9766 -16.1621 24.8047 -14.9902 24.8047 -13.4766 C 24.8047 -12.0117 25.9766 -10.8887 27.5391 -10.8887 Z"/>
  </g>
  <g id="Light-S" transform="matrix(1 0 0 1 1111.43 696)">
   <path d="M 20.7031 4.83398 L 62.7441 4.83398 C 69.9219 4.83398 73.6328 1.02539 73.6328 -6.25 L 73.6328 -65.2832 C 73.6328 -72.5098 69.9219 -76.3184 62.7441 -76.3184 L 20.7031 -76.3184 C 13.5254 -76.3184 9.76562 -72.5098 9.76562 -65.2832 L 9.76562 -6.25 C 9.76562 1.02539 13.5254 4.83398 20.7031 4.83398 Z M 20.9473 -0.585938 C 17.1875 -0.585938 15.1855 -2.63672 15.1855 -6.29883 L 15.1855 -65.2344 C 15.1855 -68.8965 17.1875 -70.9473 20.9961 -70.9473 L 62.4512 -70.9473 C 66.2109 -70.9473 68.2129 -68.8965 68.2129 -65.2344 L 68.2129 -6.29883 C 68.2129 -2.63672 66.2109 -0.585938 62.5 -0.585938 Z M 51.3672 -37.4023 C 56.0059 -37.4023 59.2773 -40.6738 59.2773 -45.2637 C 59.2773 -49.8047 56.4453 -52.7832 52.2949 -52.7832 C 50.1953 -52.7832 48.4375 -52.0996 47.168 -50.5371 L 46.4355 -50.5371 C 46.7773 -52.002 47.6562 -53.418 49.0234 -54.5898 C 50.3418 -55.8105 51.9043 -56.4941 53.7109 -56.8848 C 54.9805 -57.1777 55.4199 -57.5684 55.4199 -58.3496 C 55.4199 -59.082 54.8828 -59.668 53.9062 -59.668 C 51.416 -59.668 48.1934 -58.0566 46.0938 -55.7617 C 43.9453 -53.418 42.8223 -50.4395 42.8223 -47.1191 C 42.8223 -40.9668 46.6309 -37.4023 51.3672 -37.4023 Z M 31.8359 -37.4023 C 36.4746 -37.4023 39.7461 -40.625 39.7461 -45.2148 C 39.7461 -49.7559 36.8652 -52.7344 32.7148 -52.7344 C 30.6641 -52.7344 28.9062 -52.0508 27.6367 -50.4883 L 26.9043 -50.4883 C 27.2461 -52.002 28.1738 -53.4668 29.541 -54.6387 C 30.9082 -55.7617 32.4219 -56.4941 34.1797 -56.8359 C 35.4492 -57.1289 35.8887 -57.5195 35.8887 -58.3496 C 35.8887 -59.082 35.3516 -59.6191 34.375 -59.6191 C 31.8848 -59.6191 28.7109 -58.1055 26.5625 -55.7617 C 24.4141 -53.418 23.2422 -50.3906 23.2422 -47.1191 C 23.2422 -40.918 27.0996 -37.4023 31.8359 -37.4023 Z M 26.5625 -24.9023 L 56.1035 -24.9023 C 57.3242 -24.9023 58.2031 -25.8301 58.2031 -27.0508 C 58.2031 -28.1738 57.3242 -29.1016 56.1035 -29.1016 L 26.5625 -29.1016 C 25.293 -29.1016 24.3652 -28.1738 24.3652 -27.0508 C 24.3652 -25.8301 25.293 -24.9023 26.5625 -24.9023 Z M 26.5625 -11.4746 L 40.6738 -11.4746 C 41.8945 -11.4746 42.7734 -12.4023 42.7734 -13.5742 C 42.7734 -14.7949 41.8945 -15.7227 40.6738 -15.7227 L 26.5625 -15.7227 C 25.293 -15.7227 24.3652 -14.7949 24.3652 -13.5742 C 24.3652 -12.4023 25.293 -11.4746 26.5625 -11.4746 Z"/>
  </g>
  <g id="Thin-S" transform="matrix(1 0 0 1 815.455 696)">
   <path d="M 19.043 3.4668 L 62.8906 3.4668 C 68.7988 3.4668 72.168 0.0976562 72.168 -5.81055 L 72.168 -66.9434 C 72.168 -72.8516 68.7988 -76.2207 62.8906 -76.2207 L 19.043 -76.2207 C 13.1348 -76.2207 9.76562 -72.8516 9.76562 -66.9434 L 9.76562 -5.81055 C 9.76562 0.0976562 13.1348 3.4668 19.043 3.4668 Z M 19.1895 0.244141 C 15.2344 0.244141 13.0859 -1.9043 13.0859 -5.85938 L 13.0859 -66.8945 C 13.0859 -70.8496 15.2344 -72.998 19.1895 -72.998 L 62.6953 -72.998 C 66.6992 -72.998 68.8477 -70.8496 68.8477 -66.8945 L 68.8477 -5.85938 C 68.8477 -1.9043 66.6992 0.244141 62.7441 0.244141 Z M 51.2207 -37.2559 C 55.6641 -37.2559 59.082 -40.625 59.082 -45.166 C 59.082 -49.8047 55.957 -52.8809 51.5625 -52.8809 C 49.4141 -52.8809 47.3145 -52.0996 45.8008 -50.2441 L 45.2637 -50.2441 C 45.6543 -52.002 46.7285 -53.8086 48.291 -55.2246 C 49.9512 -56.7383 51.709 -57.4707 53.7598 -57.8613 C 54.5898 -58.0566 55.0781 -58.3496 55.0781 -58.9844 C 55.0781 -59.5703 54.6387 -59.9609 53.9062 -59.9609 C 51.416 -59.9609 48.0957 -58.3008 45.8984 -55.9082 C 43.7012 -53.5156 42.3828 -50.4395 42.3828 -46.9727 C 42.3828 -40.7715 46.2891 -37.2559 51.2207 -37.2559 Z M 31.2012 -37.207 C 35.6445 -37.207 39.1113 -40.625 39.1113 -45.1172 C 39.1113 -49.8047 35.9863 -52.8809 31.543 -52.8809 C 29.3945 -52.8809 27.3438 -52.0996 25.8301 -50.2441 L 25.2441 -50.2441 C 25.6836 -52.002 26.7578 -53.8086 28.3203 -55.2246 C 30.0293 -56.7383 31.7383 -57.4707 33.7891 -57.8613 C 34.6191 -58.0078 35.1074 -58.3496 35.1074 -58.9844 C 35.1074 -59.5703 34.668 -59.9609 33.9355 -59.9609 C 31.4453 -59.9609 28.125 -58.3496 25.9277 -55.9082 C 23.7305 -53.5156 22.4121 -50.4395 22.4121 -46.9727 C 22.4121 -40.7715 26.2695 -37.207 31.2012 -37.207 Z M 25.293 -25.7812 L 56.3477 -25.7812 C 57.1777 -25.7812 57.8125 -26.416 57.8125 -27.1973 C 57.8125 -28.0273 57.1777 -28.6133 56.3477 -28.6133 L 25.293 -28.6133 C 24.4141 -28.6133 23.8281 -28.0273 23.8281 -27.1973 C 23.8281 -26.416 24.4141 -25.7812 25.293 -25.7812 Z M 25.293 -12.3047 L 40.4785 -12.3047 C 41.3086 -12.3047 41.9434 -12.8906 41.9434 -13.6719 C 41.9434 -14.502 41.3086 -15.1367 40.4785 -15.1367 L 25.293 -15.1367 C 24.4141 -15.1367 23.8281 -14.502 23.8281 -13.6719 C 23.8281 -12.8906 24.4141 -12.3047 25.293 -12.3047 Z"/>
  </g>
  <g id="Ultralight-S" transform="matrix(1 0 0 1 519.135 696)">
   <path d="M 18.1641 2.7832 L 62.9883 2.7832 C 68.2129 2.7832 71.3867 -0.390625 71.3867 -5.61523 L 71.3867 -67.7734 C 71.3867 -72.998 68.2129 -76.1719 62.9883 -76.1719 L 18.1641 -76.1719 C 12.9395 -76.1719 9.76562 -72.998 9.76562 -67.7734 L 9.76562 -5.61523 C 9.76562 -0.390625 12.9395 2.7832 18.1641 2.7832 Z M 18.2617 0.683594 C 14.209 0.683594 11.9629 -1.5625 11.9629 -5.61523 L 11.9629 -67.7734 C 11.9629 -71.8262 14.209 -74.0723 18.2617 -74.0723 L 62.8418 -74.0723 C 66.9434 -74.0723 69.1895 -71.8262 69.1895 -67.7734 L 69.1895 -5.61523 C 69.1895 -1.5625 66.9434 0.683594 62.8418 0.683594 Z M 51.0742 -37.1094 C 55.4688 -37.1094 58.9844 -40.5762 58.9844 -45.0684 C 58.9844 -49.8535 55.7129 -52.9785 51.1719 -52.9785 C 48.9746 -52.9785 46.7773 -52.0996 45.0684 -50.0977 L 44.6289 -50.0977 C 45.1172 -52.0508 46.1914 -54.0039 47.9004 -55.5664 C 49.7559 -57.2266 51.6113 -58.0078 53.8086 -58.3984 C 54.3945 -58.4961 54.8828 -58.7402 54.8828 -59.3262 C 54.8828 -59.8145 54.541 -60.1074 53.9062 -60.1074 C 51.416 -60.1074 47.998 -58.4473 45.8008 -56.0059 C 43.6035 -53.5645 42.1875 -50.4883 42.1875 -46.875 C 42.1875 -40.6738 46.0938 -37.1094 51.0742 -37.1094 Z M 30.9082 -37.1094 C 35.2539 -37.1094 38.7695 -40.5762 38.7695 -45.0684 C 38.7695 -49.8535 35.498 -52.9785 30.957 -52.9785 C 28.7598 -52.9785 26.5625 -52.0996 24.8535 -50.0977 L 24.4141 -50.0977 C 24.9023 -52.0508 25.9766 -54.0039 27.6855 -55.5664 C 29.541 -57.2266 31.3965 -58.0078 33.5938 -58.3984 C 34.1797 -58.4961 34.668 -58.7402 34.668 -59.2773 C 34.668 -59.8145 34.3262 -60.1074 33.6914 -60.1074 C 31.2012 -60.1074 27.7832 -58.4473 25.5859 -56.0059 C 23.3887 -53.5645 21.9727 -50.4883 21.9727 -46.875 C 21.9727 -40.625 25.8789 -37.1094 30.9082 -37.1094 Z M 24.6094 -26.2695 L 56.4453 -26.2695 C 57.0801 -26.2695 57.5684 -26.7578 57.5684 -27.3438 C 57.5684 -27.8809 57.0801 -28.3691 56.4453 -28.3691 L 24.6094 -28.3691 C 23.9746 -28.3691 23.4863 -27.8809 23.4863 -27.3438 C 23.4863 -26.7578 23.9746 -26.2695 24.6094 -26.2695 Z M 24.6094 -12.6953 L 40.3809 -12.6953 C 41.0156 -12.6953 41.5039 -13.1836 41.5039 -13.7695 C 41.5039 -14.3555 41.0156 -14.7949 40.3809 -14.7949 L 24.6094 -14.7949 C 23.9746 -14.7949 23.4863 -14.3555 23.4863 -13.7695 C 23.4863 -13.1836 23.9746 -12.6953 24.6094 -12.6953 Z"/>
  </g>
 </g>
</svg>
