<?xml version="1.0" encoding="UTF-8"?>
<!--Generator: Apple Native CoreSVG 123-->
<!DOCTYPE svg
PUBLIC "-//W3C//DTD SVG 1.1//EN"
       "http://www.w3.org/Graphics/SVG/1.1/DTD/svg11.dtd">
<svg version="1.1" xmlns="http://www.w3.org/2000/svg" xmlns:xlink="http://www.w3.org/1999/xlink" width="3300" height="2200">
 <!--glyph: "uni1004A5.medium", point size: 100.000000, font version: "Version 15.0d7e11", template writer version: "5"-->
 <g id="Notes">
  <rect height="2200" id="artboard" style="fill:white;opacity:1" width="3300" x="0" y="0"/>
  <line id="" style="fill:none;stroke:black;opacity:1;stroke-width:0.5;" x1="263" x2="3036" y1="292" y2="292"/>
  <text style="stroke:none;fill:black;font-family:-apple-system,&quot;SF Pro Display&quot;,&quot;SF Pro Text&quot;,Helvetica,sans-serif;font-weight:bold;" transform="matrix(1 0 0 1 263 322)">Weight/Scale Variations</text>
  <text style="stroke:none;fill:black;font-family:-apple-system,&quot;SF Pro Display&quot;,&quot;SF Pro Text&quot;,Helvetica,sans-serif;text-anchor:middle;" transform="matrix(1 0 0 1 559.711 322)">Ultralight</text>
  <text style="stroke:none;fill:black;font-family:-apple-system,&quot;SF Pro Display&quot;,&quot;SF Pro Text&quot;,Helvetica,sans-serif;text-anchor:middle;" transform="matrix(1 0 0 1 856.422 322)">Thin</text>
  <text style="stroke:none;fill:black;font-family:-apple-system,&quot;SF Pro Display&quot;,&quot;SF Pro Text&quot;,Helvetica,sans-serif;text-anchor:middle;" transform="matrix(1 0 0 1 1153.13 322)">Light</text>
  <text style="stroke:none;fill:black;font-family:-apple-system,&quot;SF Pro Display&quot;,&quot;SF Pro Text&quot;,Helvetica,sans-serif;text-anchor:middle;" transform="matrix(1 0 0 1 1449.84 322)">Regular</text>
  <text style="stroke:none;fill:black;font-family:-apple-system,&quot;SF Pro Display&quot;,&quot;SF Pro Text&quot;,Helvetica,sans-serif;text-anchor:middle;" transform="matrix(1 0 0 1 1746.56 322)">Medium</text>
  <text style="stroke:none;fill:black;font-family:-apple-system,&quot;SF Pro Display&quot;,&quot;SF Pro Text&quot;,Helvetica,sans-serif;text-anchor:middle;" transform="matrix(1 0 0 1 2043.27 322)">Semibold</text>
  <text style="stroke:none;fill:black;font-family:-apple-system,&quot;SF Pro Display&quot;,&quot;SF Pro Text&quot;,Helvetica,sans-serif;text-anchor:middle;" transform="matrix(1 0 0 1 2339.98 322)">Bold</text>
  <text style="stroke:none;fill:black;font-family:-apple-system,&quot;SF Pro Display&quot;,&quot;SF Pro Text&quot;,Helvetica,sans-serif;text-anchor:middle;" transform="matrix(1 0 0 1 2636.69 322)">Heavy</text>
  <text style="stroke:none;fill:black;font-family:-apple-system,&quot;SF Pro Display&quot;,&quot;SF Pro Text&quot;,Helvetica,sans-serif;text-anchor:middle;" transform="matrix(1 0 0 1 2933.4 322)">Black</text>
  <line id="" style="fill:none;stroke:black;opacity:1;stroke-width:0.5;" x1="263" x2="3036" y1="1903" y2="1903"/>
  <g id="" transform="matrix(1 0 0 1 263 1933)">
   <path d="M 9.24805 0.830078 C 13.5547 0.830078 17.1387 -2.74414 17.1387 -7.05078 C 17.1387 -11.3574 13.5449 -14.9316 9.23828 -14.9316 C 4.94141 -14.9316 1.36719 -11.3574 1.36719 -7.05078 C 1.36719 -2.74414 4.95117 0.830078 9.24805 0.830078 Z M 9.24805 -0.654297 C 5.70312 -0.654297 2.87109 -3.49609 2.87109 -7.05078 C 2.87109 -10.6055 5.69336 -13.4473 9.23828 -13.4473 C 12.793 -13.4473 15.6348 -10.6055 15.6445 -7.05078 C 15.6543 -3.49609 12.8027 -0.654297 9.24805 -0.654297 Z M 9.22852 -3.42773 C 9.69727 -3.42773 9.9707 -3.74023 9.9707 -4.25781 L 9.9707 -6.31836 L 12.1973 -6.31836 C 12.6953 -6.31836 13.0371 -6.57227 13.0371 -7.04102 C 13.0371 -7.51953 12.7148 -7.7832 12.1973 -7.7832 L 9.9707 -7.7832 L 9.9707 -10.0098 C 9.9707 -10.5273 9.69727 -10.8496 9.22852 -10.8496 C 8.75977 -10.8496 8.50586 -10.5078 8.50586 -10.0098 L 8.50586 -7.7832 L 6.29883 -7.7832 C 5.78125 -7.7832 5.44922 -7.51953 5.44922 -7.04102 C 5.44922 -6.57227 5.80078 -6.31836 6.29883 -6.31836 L 8.50586 -6.31836 L 8.50586 -4.25781 C 8.50586 -3.75977 8.75977 -3.42773 9.22852 -3.42773 Z"/>
  </g>
  <g id="" transform="matrix(1 0 0 1 281.506 1933)">
   <path d="M 11.709 2.91016 C 17.1582 2.91016 21.6699 -1.60156 21.6699 -7.05078 C 21.6699 -12.4902 17.1484 -17.0117 11.6992 -17.0117 C 6.25977 -17.0117 1.74805 -12.4902 1.74805 -7.05078 C 1.74805 -1.60156 6.26953 2.91016 11.709 2.91016 Z M 11.709 1.25 C 7.09961 1.25 3.41797 -2.44141 3.41797 -7.05078 C 3.41797 -11.6504 7.08984 -15.3516 11.6992 -15.3516 C 16.3086 -15.3516 20 -11.6504 20.0098 -7.05078 C 20.0195 -2.44141 16.3184 1.25 11.709 1.25 Z M 11.6895 -2.41211 C 12.207 -2.41211 12.5195 -2.77344 12.5195 -3.33984 L 12.5195 -6.23047 L 15.5762 -6.23047 C 16.123 -6.23047 16.5039 -6.51367 16.5039 -7.03125 C 16.5039 -7.55859 16.1426 -7.86133 15.5762 -7.86133 L 12.5195 -7.86133 L 12.5195 -10.9277 C 12.5195 -11.5039 12.207 -11.8555 11.6895 -11.8555 C 11.1719 -11.8555 10.8789 -11.4844 10.8789 -10.9277 L 10.8789 -7.86133 L 7.83203 -7.86133 C 7.26562 -7.86133 6.89453 -7.55859 6.89453 -7.03125 C 6.89453 -6.51367 7.28516 -6.23047 7.83203 -6.23047 L 10.8789 -6.23047 L 10.8789 -3.33984 C 10.8789 -2.79297 11.1719 -2.41211 11.6895 -2.41211 Z"/>
  </g>
  <g id="" transform="matrix(1 0 0 1 304.924 1933)">
   <path d="M 14.9707 5.67383 C 21.9336 5.67383 27.6953 -0.078125 27.6953 -7.04102 C 27.6953 -14.0039 21.9238 -19.7559 14.9609 -19.7559 C 8.00781 -19.7559 2.25586 -14.0039 2.25586 -7.04102 C 2.25586 -0.078125 8.01758 5.67383 14.9707 5.67383 Z M 14.9707 3.85742 C 8.93555 3.85742 4.08203 -1.00586 4.08203 -7.04102 C 4.08203 -13.0762 8.92578 -17.9395 14.9609 -17.9395 C 21.0059 -17.9395 25.8594 -13.0762 25.8691 -7.04102 C 25.8789 -1.00586 21.0156 3.85742 14.9707 3.85742 Z M 14.9512 -1.06445 C 15.5176 -1.06445 15.8691 -1.45508 15.8691 -2.06055 L 15.8691 -6.13281 L 20.1074 -6.13281 C 20.6934 -6.13281 21.1133 -6.46484 21.1133 -7.02148 C 21.1133 -7.59766 20.7227 -7.93945 20.1074 -7.93945 L 15.8691 -7.93945 L 15.8691 -12.1875 C 15.8691 -12.8027 15.5176 -13.1934 14.9512 -13.1934 C 14.3848 -13.1934 14.0625 -12.7832 14.0625 -12.1875 L 14.0625 -7.93945 L 9.83398 -7.93945 C 9.21875 -7.93945 8.80859 -7.59766 8.80859 -7.02148 C 8.80859 -6.46484 9.23828 -6.13281 9.83398 -6.13281 L 14.0625 -6.13281 L 14.0625 -2.06055 C 14.0625 -1.47461 14.3848 -1.06445 14.9512 -1.06445 Z"/>
  </g>
  <text style="stroke:none;fill:black;font-family:-apple-system,&quot;SF Pro Display&quot;,&quot;SF Pro Text&quot;,Helvetica,sans-serif;font-weight:bold;" transform="matrix(1 0 0 1 263 1953)">Design Variations</text>
  <text style="stroke:none;fill:black;font-family:-apple-system,&quot;SF Pro Display&quot;,&quot;SF Pro Text&quot;,Helvetica,sans-serif;" transform="matrix(1 0 0 1 263 1971)">Symbols are supported in up to nine weights and three scales.</text>
  <text style="stroke:none;fill:black;font-family:-apple-system,&quot;SF Pro Display&quot;,&quot;SF Pro Text&quot;,Helvetica,sans-serif;" transform="matrix(1 0 0 1 263 1989)">For optimal layout with text and other symbols, vertically align</text>
  <text style="stroke:none;fill:black;font-family:-apple-system,&quot;SF Pro Display&quot;,&quot;SF Pro Text&quot;,Helvetica,sans-serif;" transform="matrix(1 0 0 1 263 2007)">symbols with the adjacent text.</text>
  <rect height="14" id="" style="fill:#00AEEF;stroke:none;opacity:0.4;" width="3" x="776" y="1919"/>
  <g id="" transform="matrix(1 0 0 1 779 1933)">
   <path d="M 10.5273 0 L 12.373 0 L 7.17773 -14.0918 L 5.43945 -14.0918 L 0.244141 0 L 2.08984 0 L 3.50586 -4.0332 L 9.11133 -4.0332 Z M 6.2793 -11.9531 L 6.33789 -11.9531 L 8.59375 -5.52734 L 4.02344 -5.52734 Z"/>
  </g>
  <rect height="14" id="" style="fill:#00AEEF;stroke:none;opacity:0.4;" width="3" x="791.617" y="1919"/>
  <text style="stroke:none;fill:black;font-family:-apple-system,&quot;SF Pro Display&quot;,&quot;SF Pro Text&quot;,Helvetica,sans-serif;font-weight:bold;" transform="matrix(1 0 0 1 776 1953)">Margins</text>
  <text style="stroke:none;fill:black;font-family:-apple-system,&quot;SF Pro Display&quot;,&quot;SF Pro Text&quot;,Helvetica,sans-serif;" transform="matrix(1 0 0 1 776 1971)">Leading and trailing margins on the left and right side of each symbol</text>
  <text style="stroke:none;fill:black;font-family:-apple-system,&quot;SF Pro Display&quot;,&quot;SF Pro Text&quot;,Helvetica,sans-serif;" transform="matrix(1 0 0 1 776 1989)">can be adjusted by modifying the width of the blue rectangles.</text>
  <text style="stroke:none;fill:black;font-family:-apple-system,&quot;SF Pro Display&quot;,&quot;SF Pro Text&quot;,Helvetica,sans-serif;" transform="matrix(1 0 0 1 776 2007)">Modifications are automatically applied proportionally to all</text>
  <text style="stroke:none;fill:black;font-family:-apple-system,&quot;SF Pro Display&quot;,&quot;SF Pro Text&quot;,Helvetica,sans-serif;" transform="matrix(1 0 0 1 776 2025)">scales and weights.</text>
  <g id="" transform="matrix(1 0 0 1 1289 1933)">
   <path d="M 2.83203 3.11523 L 4.375 4.6582 C 5.22461 5.48828 6.19141 5.41992 7.06055 4.46289 L 17.2754 -6.66016 C 17.7051 -6.36719 18.0957 -6.37695 18.5645 -6.47461 L 19.6094 -6.68945 L 20.3027 -5.99609 L 20.2539 -5.47852 C 20.1855 -4.95117 20.3516 -4.53125 20.8496 -4.0332 L 21.6602 -3.22266 C 22.168 -2.71484 22.8223 -2.68555 23.3008 -3.16406 L 26.5527 -6.41602 C 27.0312 -6.89453 27.0117 -7.54883 26.5039 -8.05664 L 25.6836 -8.87695 C 25.1855 -9.375 24.7754 -9.55078 24.2383 -9.47266 L 23.7109 -9.41406 L 23.0566 -10.0781 L 23.3398 -11.2207 C 23.4863 -11.7871 23.3398 -12.2559 22.7148 -12.8613 L 20.3027 -15.2539 C 16.7578 -18.7793 12.2266 -18.6719 9.11133 -15.5371 C 8.69141 -15.1074 8.64258 -14.5215 8.91602 -14.0918 C 9.15039 -13.7207 9.62891 -13.4961 10.2734 -13.6621 C 11.7871 -14.043 13.3008 -13.9258 14.7852 -12.9199 L 14.1602 -11.3379 C 13.9258 -10.752 13.9453 -10.2734 14.1797 -9.83398 L 3.01758 0.439453 C 2.08008 1.30859 1.97266 2.25586 2.83203 3.11523 Z M 10.6738 -15.1465 C 13.3398 -17.1387 16.6504 -16.8262 19.0527 -14.4141 L 21.6797 -11.8066 C 21.9141 -11.5723 21.9434 -11.3867 21.8848 -11.0938 L 21.5039 -9.53125 L 23.0762 -7.95898 L 24.043 -8.04688 C 24.3262 -8.07617 24.4141 -8.05664 24.6387 -7.83203 L 25.2637 -7.20703 L 22.5098 -4.46289 L 21.8848 -5.07812 C 21.6602 -5.30273 21.6406 -5.40039 21.6699 -5.68359 L 21.7578 -6.64062 L 20.1953 -8.20312 L 18.5742 -7.89062 C 18.291 -7.83203 18.1445 -7.83203 17.9102 -8.07617 L 15.7324 -10.2539 C 15.5078 -10.4883 15.4785 -10.625 15.6055 -10.9473 L 16.5527 -13.2227 C 14.9512 -14.7559 12.8418 -15.6055 10.8008 -14.9512 C 10.7129 -14.9219 10.6445 -14.9414 10.6152 -14.9805 C 10.5859 -15.0293 10.5859 -15.0781 10.6738 -15.1465 Z M 4.10156 2.41211 C 3.61328 1.91406 3.78906 1.61133 4.12109 1.30859 L 15.0781 -8.80859 L 16.3086 -7.57812 L 6.15234 3.34961 C 5.84961 3.68164 5.46875 3.7793 5.06836 3.37891 Z"/>
  </g>
  <text style="stroke:none;fill:black;font-family:-apple-system,&quot;SF Pro Display&quot;,&quot;SF Pro Text&quot;,Helvetica,sans-serif;font-weight:bold;" transform="matrix(1 0 0 1 1289 1953)">Exporting</text>
  <text style="stroke:none;fill:black;font-family:-apple-system,&quot;SF Pro Display&quot;,&quot;SF Pro Text&quot;,Helvetica,sans-serif;" transform="matrix(1 0 0 1 1289 1971)">Symbols should be outlined when exporting to ensure the</text>
  <text style="stroke:none;fill:black;font-family:-apple-system,&quot;SF Pro Display&quot;,&quot;SF Pro Text&quot;,Helvetica,sans-serif;" transform="matrix(1 0 0 1 1289 1989)">design is preserved when submitting to Xcode.</text>
  <text id="template-version" style="stroke:none;fill:black;font-family:-apple-system,&quot;SF Pro Display&quot;,&quot;SF Pro Text&quot;,Helvetica,sans-serif;text-anchor:end;" transform="matrix(1 0 0 1 3036 1933)">Template v.1.0</text>
  <text style="stroke:none;fill:black;font-family:-apple-system,&quot;SF Pro Display&quot;,&quot;SF Pro Text&quot;,Helvetica,sans-serif;text-anchor:end;" transform="matrix(1 0 0 1 3036 1951)">Generated from phone.circle</text>
  <text style="stroke:none;fill:black;font-family:-apple-system,&quot;SF Pro Display&quot;,&quot;SF Pro Text&quot;,Helvetica,sans-serif;text-anchor:end;" transform="matrix(1 0 0 1 3036 1969)">Typeset at 100 points</text>
  <text style="stroke:none;fill:black;font-family:-apple-system,&quot;SF Pro Display&quot;,&quot;SF Pro Text&quot;,Helvetica,sans-serif;" transform="matrix(1 0 0 1 263 726)">Small</text>
  <text style="stroke:none;fill:black;font-family:-apple-system,&quot;SF Pro Display&quot;,&quot;SF Pro Text&quot;,Helvetica,sans-serif;" transform="matrix(1 0 0 1 263 1156)">Medium</text>
  <text style="stroke:none;fill:black;font-family:-apple-system,&quot;SF Pro Display&quot;,&quot;SF Pro Text&quot;,Helvetica,sans-serif;" transform="matrix(1 0 0 1 263 1586)">Large</text>
 </g>
 <g id="Guides">
  <g id="H-reference" style="fill:#27AAE1;stroke:none;" transform="matrix(1 0 0 1 339 696)">
   <path d="M 54.9316 0 L 57.666 0 L 30.5664 -70.459 L 28.0762 -70.459 L 0.976562 0 L 3.66211 0 L 12.9395 -24.4629 L 45.7031 -24.4629 Z M 29.1992 -67.0898 L 29.4434 -67.0898 L 44.8242 -26.709 L 13.8184 -26.709 Z"/>
  </g>
  <line id="Baseline-S" style="fill:none;stroke:#27AAE1;opacity:1;stroke-width:0.577;" x1="263" x2="3036" y1="696" y2="696"/>
  <line id="Capline-S" style="fill:none;stroke:#27AAE1;opacity:1;stroke-width:0.577;" x1="263" x2="3036" y1="625.541" y2="625.541"/>
  <g id="H-reference" style="fill:#27AAE1;stroke:none;" transform="matrix(1 0 0 1 339 1126)">
   <path d="M 54.9316 0 L 57.666 0 L 30.5664 -70.459 L 28.0762 -70.459 L 0.976562 0 L 3.66211 0 L 12.9395 -24.4629 L 45.7031 -24.4629 Z M 29.1992 -67.0898 L 29.4434 -67.0898 L 44.8242 -26.709 L 13.8184 -26.709 Z"/>
  </g>
  <line id="Baseline-M" style="fill:none;stroke:#27AAE1;opacity:1;stroke-width:0.577;" x1="263" x2="3036" y1="1126" y2="1126"/>
  <line id="Capline-M" style="fill:none;stroke:#27AAE1;opacity:1;stroke-width:0.577;" x1="263" x2="3036" y1="1055.54" y2="1055.54"/>
  <g id="H-reference" style="fill:#27AAE1;stroke:none;" transform="matrix(1 0 0 1 339 1556)">
   <path d="M 54.9316 0 L 57.666 0 L 30.5664 -70.459 L 28.0762 -70.459 L 0.976562 0 L 3.66211 0 L 12.9395 -24.4629 L 45.7031 -24.4629 Z M 29.1992 -67.0898 L 29.4434 -67.0898 L 44.8242 -26.709 L 13.8184 -26.709 Z"/>
  </g>
  <line id="Baseline-L" style="fill:none;stroke:#27AAE1;opacity:1;stroke-width:0.577;" x1="263" x2="3036" y1="1556" y2="1556"/>
  <line id="Capline-L" style="fill:none;stroke:#27AAE1;opacity:1;stroke-width:0.577;" x1="263" x2="3036" y1="1485.54" y2="1485.54"/>
  <rect height="119.336" id="left-margin" style="fill:#00AEEF;stroke:none;opacity:0.4;" width="8.74023" x="1391.3" y="1030.79"/>
  <rect height="119.336" id="right-margin" style="fill:#00AEEF;stroke:none;opacity:0.4;" width="8.74023" x="1499.65" y="1030.79"/>
 </g>
 <g id="Symbols">
  <g id="Black-L" transform="matrix(1 0 0 1 2854.05 1556)">
   <path d="M 79.3457 32.8613 C 116.748 32.8613 147.412 2.19727 147.412 -35.2051 C 147.412 -72.6074 116.748 -103.271 79.2969 -103.271 C 41.8945 -103.271 11.2793 -72.6074 11.2793 -35.2051 C 11.2793 2.19727 41.9434 32.8613 79.3457 32.8613 Z M 79.3457 12.4023 C 52.9785 12.4023 31.7383 -8.83789 31.7383 -35.2051 C 31.7383 -61.5723 52.9297 -82.8125 79.2969 -82.8125 C 105.664 -82.8125 126.953 -61.5723 126.953 -35.2051 C 127.002 -8.83789 105.713 12.4023 79.3457 12.4023 Z M 64.9902 -20.9473 C 79.4922 -6.49414 97.2168 2.34375 107.764 -8.20312 C 108.252 -8.69141 108.643 -9.17969 108.984 -9.66797 C 111.182 -12.6953 112.305 -16.8457 108.398 -19.5801 C 104.932 -22.0215 101.514 -24.4629 97.998 -26.9043 C 94.0918 -29.6387 91.9922 -28.7109 89.3066 -26.1719 L 86.9629 -23.877 C 86.2305 -23.2422 85.0098 -23.3398 84.2773 -23.8281 C 82.1289 -25.1953 78.6133 -28.0273 75.3418 -31.2988 C 72.168 -34.4727 68.9941 -38.1836 67.8223 -40.2344 C 67.4805 -40.8203 67.0898 -41.9434 67.9199 -42.8223 L 70.2148 -45.2637 C 72.8516 -48.0957 73.7305 -50 70.9473 -53.9551 L 63.623 -64.3555 C 61.1816 -67.7734 57.6172 -67.7734 53.125 -64.4531 C 52.832 -64.209 52.5879 -63.9648 52.3438 -63.7207 C 41.6992 -53.0762 50.6348 -35.3516 64.9902 -20.9473 Z"/>
  </g>
  <g id="Heavy-L" transform="matrix(1 0 0 1 2558.39 1556)">
   <path d="M 78.2715 31.7871 C 115.088 31.7871 145.312 1.61133 145.312 -35.2051 C 145.312 -72.0215 115.039 -102.197 78.2715 -102.197 C 41.4551 -102.197 11.2793 -72.0215 11.2793 -35.2051 C 11.2793 1.61133 41.5039 31.7871 78.2715 31.7871 Z M 78.2715 14.0137 C 51.0254 14.0137 29.0527 -7.95898 29.0527 -35.2051 C 29.0527 -62.5 50.9766 -84.4727 78.2715 -84.4727 C 105.518 -84.4727 127.49 -62.5 127.539 -35.2051 C 127.539 -7.95898 105.566 14.0137 78.2715 14.0137 Z M 63.7207 -20.752 C 78.2227 -6.25 96.2402 2.73438 106.982 -7.95898 C 107.422 -8.39844 107.812 -8.83789 108.154 -9.32617 C 110.547 -12.4512 111.572 -16.5527 107.812 -19.3359 C 104.541 -21.582 101.318 -23.9258 97.1191 -26.8555 C 93.3105 -29.4922 91.1133 -28.7109 88.3789 -26.0742 L 85.9863 -23.7305 C 85.2539 -23.0469 84.0332 -23.1445 83.252 -23.6328 C 81.1035 -24.9512 77.4902 -27.832 74.1211 -31.2012 C 70.8496 -34.4727 67.7246 -38.2324 66.5527 -40.2832 C 66.2109 -40.918 65.8203 -42.041 66.6504 -42.9199 L 68.9941 -45.4102 C 71.7285 -48.291 72.4609 -50.3418 69.7754 -54.1504 L 62.3047 -64.7461 C 59.8145 -68.3105 56.1035 -68.0176 51.8066 -64.7461 C 51.4648 -64.502 51.2207 -64.2578 50.9766 -64.0137 C 40.1855 -53.2227 49.2676 -35.2051 63.7207 -20.752 Z"/>
  </g>
  <g id="Bold-L" transform="matrix(1 0 0 1 2262.88 1556)">
   <path d="M 77.0996 30.6152 C 113.232 30.6152 142.92 0.878906 142.92 -35.2051 C 142.92 -71.3379 113.184 -101.025 77.0508 -101.025 C 40.9668 -101.025 11.2793 -71.3379 11.2793 -35.2051 C 11.2793 0.878906 41.0156 30.6152 77.0996 30.6152 Z M 77.0996 15.8691 C 48.8281 15.8691 26.0742 -6.93359 26.0742 -35.2051 C 26.0742 -63.4766 48.7793 -86.2793 77.0508 -86.2793 C 105.371 -86.2793 128.125 -63.4766 128.174 -35.2051 C 128.174 -6.93359 105.371 15.8691 77.0996 15.8691 Z M 62.2559 -20.5078 C 76.7578 -6.00586 95.2148 3.22266 106.104 -7.66602 C 106.494 -8.10547 106.836 -8.49609 107.178 -8.93555 C 109.863 -12.1582 110.791 -16.3086 107.08 -19.043 C 104.15 -21.1426 101.123 -23.291 96.1426 -26.7578 C 92.4316 -29.3457 90.1367 -28.6621 87.3047 -25.9277 L 84.8633 -23.5352 C 84.1309 -22.8516 82.9102 -22.9004 82.1289 -23.3887 C 79.9316 -24.707 76.2695 -27.6367 72.8027 -31.1035 C 69.4336 -34.4727 66.3086 -38.3301 65.1367 -40.3809 C 64.7461 -41.0645 64.4531 -42.1387 65.2344 -43.0176 L 67.6758 -45.5566 C 70.459 -48.5352 71.0938 -50.6836 68.457 -54.3945 L 60.8398 -65.2344 C 58.252 -68.8477 54.4434 -68.2129 50.293 -65.0879 C 49.9512 -64.8438 49.707 -64.5996 49.4629 -64.3555 C 38.5254 -53.418 47.7539 -35.0098 62.2559 -20.5078 Z"/>
  </g>
  <g id="Semibold-L" transform="matrix(1 0 0 1 1966.97 1556)">
   <path d="M 76.2695 29.7852 C 111.914 29.7852 141.309 0.439453 141.309 -35.2051 C 141.309 -70.8496 111.865 -100.244 76.2695 -100.244 C 40.625 -100.244 11.2793 -70.8496 11.2793 -35.2051 C 11.2793 0.439453 40.6738 29.7852 76.2695 29.7852 Z M 76.2695 17.0898 C 47.3145 17.0898 24.0234 -6.25 24.0234 -35.2051 C 24.0234 -64.209 47.2656 -87.5 76.2695 -87.5 C 105.225 -87.5 128.564 -64.209 128.613 -35.2051 C 128.662 -6.25 105.273 17.0898 76.2695 17.0898 Z M 61.2305 -20.3613 C 75.7812 -5.81055 94.4336 3.51562 105.469 -7.4707 C 105.859 -7.91016 106.201 -8.25195 106.494 -8.64258 C 109.375 -11.9629 110.205 -16.1133 106.641 -18.8477 C 103.857 -20.8008 100.977 -22.8516 95.4102 -26.709 C 91.8457 -29.1992 89.4531 -28.6133 86.5723 -25.8301 L 84.082 -23.3887 C 83.3496 -22.7051 82.1289 -22.7539 81.2988 -23.2422 C 79.1504 -24.5605 75.4395 -27.4902 71.875 -31.0059 C 68.4082 -34.4727 65.332 -38.3301 64.1602 -40.4297 C 63.7695 -41.1133 63.4766 -42.2363 64.2578 -43.0664 L 66.748 -45.7031 C 69.5801 -48.7305 70.1172 -50.9766 67.5293 -54.541 L 59.8145 -65.5273 C 57.2266 -69.2383 53.3203 -68.3594 49.2188 -65.332 C 48.877 -65.0879 48.6328 -64.7949 48.3887 -64.5996 C 37.3535 -53.5156 46.7285 -34.8633 61.2305 -20.3613 Z"/>
  </g>
  <g id="Medium-L" transform="matrix(1 0 0 1 1670.87 1556)">
   <path d="M 75.6836 29.1992 C 110.938 29.1992 140.088 0.0488281 140.088 -35.2051 C 140.088 -70.459 110.889 -99.6094 75.6348 -99.6094 C 40.3809 -99.6094 11.2793 -70.459 11.2793 -35.2051 C 11.2793 0.0488281 40.3809 29.1992 75.6836 29.1992 Z M 75.6836 18.0664 C 46.1426 18.0664 22.4609 -5.71289 22.4609 -35.2051 C 22.4609 -64.6973 46.1426 -88.4766 75.6348 -88.4766 C 105.127 -88.4766 128.906 -64.6973 128.906 -35.2051 C 128.955 -5.71289 105.176 18.0664 75.6836 18.0664 Z M 60.498 -20.2637 C 75.0488 -5.66406 93.8965 3.75977 105.029 -7.32422 C 105.371 -7.71484 105.713 -8.10547 106.006 -8.44727 C 108.984 -11.8164 109.766 -15.9668 106.25 -18.6523 C 103.613 -20.5566 100.83 -22.5586 94.9219 -26.6602 C 91.3574 -29.1016 88.916 -28.6133 86.0352 -25.7812 L 83.4961 -23.291 C 82.7637 -22.6074 81.5918 -22.6562 80.7129 -23.1445 C 78.5645 -24.4629 74.7559 -27.3926 71.1914 -30.957 C 67.6758 -34.4727 64.5996 -38.3789 63.4277 -40.4785 C 62.9883 -41.2109 62.7441 -42.2852 63.5254 -43.1152 L 66.0156 -45.752 C 68.8965 -48.8281 69.3848 -51.123 66.8457 -54.6875 L 59.082 -65.7227 C 56.3965 -69.5312 52.4414 -68.5059 48.4375 -65.4785 C 48.0957 -65.2344 47.8516 -64.9902 47.6074 -64.7461 C 36.4746 -53.6133 45.9473 -34.7656 60.498 -20.2637 Z"/>
  </g>
  <g id="Regular-L" transform="matrix(1 0 0 1 1374.97 1556)">
   <path d="M 74.8535 28.3691 C 109.668 28.3691 138.477 -0.390625 138.477 -35.2051 C 138.477 -70.0195 109.619 -98.7793 74.8047 -98.7793 C 40.0391 -98.7793 11.2793 -70.0195 11.2793 -35.2051 C 11.2793 -0.390625 40.0879 28.3691 74.8535 28.3691 Z M 74.8535 19.2871 C 44.6777 19.2871 20.4102 -5.0293 20.4102 -35.2051 C 20.4102 -65.3809 44.6289 -89.6973 74.8047 -89.6973 C 105.029 -89.6973 129.297 -65.3809 129.346 -35.2051 C 129.395 -5.0293 105.078 19.2871 74.8535 19.2871 Z M 59.4727 -20.0684 C 74.0723 -5.46875 93.1641 4.05273 104.395 -7.12891 C 104.736 -7.51953 105.029 -7.86133 105.371 -8.20312 C 108.496 -11.6211 109.229 -15.7715 105.811 -18.457 C 103.32 -20.2637 100.684 -22.1191 94.2383 -26.6113 C 90.7715 -29.0039 88.2812 -28.5645 85.3027 -25.6836 L 82.7148 -23.1445 C 81.9824 -22.4609 80.8105 -22.5098 79.9316 -22.998 C 77.7344 -24.2676 73.9258 -27.2461 70.2637 -30.8594 C 66.6992 -34.4727 63.623 -38.4277 62.4512 -40.5273 C 62.0117 -41.2598 61.7676 -42.334 62.5977 -43.1641 L 65.1367 -45.8496 C 68.0176 -48.9746 68.4082 -51.416 65.9668 -54.834 L 58.0566 -66.0645 C 55.3711 -69.873 51.3184 -68.6523 47.4121 -65.7227 C 47.0703 -65.4785 46.8262 -65.2344 46.582 -64.9902 C 35.3516 -53.7109 44.9219 -34.668 59.4727 -20.0684 Z"/>
  </g>
  <g id="Light-L" transform="matrix(1 0 0 1 1079.18 1556)">
   <path d="M 73.9258 27.4902 C 108.301 27.4902 136.621 -0.830078 136.621 -35.1562 C 136.621 -69.5312 108.252 -97.8516 73.9258 -97.8516 C 39.5508 -97.8516 11.2793 -69.5312 11.2793 -35.1562 C 11.2793 -0.830078 39.5996 27.4902 73.9258 27.4902 Z M 73.9258 20.6055 C 43.1152 20.6055 18.2129 -4.3457 18.2129 -35.1562 C 18.2129 -66.0156 43.0664 -90.918 73.9258 -90.918 C 104.736 -90.918 129.688 -66.0156 129.736 -35.1562 C 129.736 -4.3457 104.785 20.6055 73.9258 20.6055 Z M 58.2031 -19.6777 C 72.6562 -5.22461 92.2363 4.58984 103.662 -6.78711 C 103.955 -7.12891 104.15 -7.37305 104.443 -7.66602 C 107.959 -11.377 108.594 -15.2832 105.518 -17.9688 C 103.711 -19.3359 101.611 -20.752 93.4082 -26.416 C 90.2832 -28.5645 87.6465 -28.418 84.5215 -25.3906 L 81.8359 -22.8027 C 81.0547 -22.1191 79.9805 -22.0703 79.1016 -22.6074 C 76.9043 -23.8281 72.9492 -26.7578 69.1406 -30.5664 C 65.332 -34.375 62.3047 -38.3789 61.1816 -40.4785 C 60.7422 -41.3086 60.5957 -42.2852 61.377 -43.0664 L 64.0137 -45.8984 C 67.041 -49.2188 67.1387 -51.8066 64.8926 -54.8828 L 56.7871 -66.4062 C 53.9551 -70.459 49.707 -68.457 46.2402 -65.8691 C 45.8496 -65.625 45.6055 -65.332 45.3613 -65.0879 C 33.9355 -53.6621 43.75 -34.082 58.2031 -19.6777 Z"/>
  </g>
  <g id="Thin-L" transform="matrix(1 0 0 1 783.693 1556)">
   <path d="M 72.7051 26.3184 C 106.494 26.3184 134.18 -1.36719 134.18 -35.1074 C 134.18 -68.8965 106.494 -96.582 72.7051 -96.582 C 38.9648 -96.582 11.2793 -68.8965 11.2793 -35.1074 C 11.2793 -1.36719 38.9648 26.3184 72.7051 26.3184 Z M 72.7051 22.3145 C 41.0156 22.3145 15.2832 -3.41797 15.2832 -35.1074 C 15.2832 -66.8457 41.0156 -92.5781 72.7051 -92.5781 C 104.395 -92.5781 130.176 -66.8457 130.176 -35.1074 C 130.176 -3.41797 104.443 22.3145 72.7051 22.3145 Z M 56.543 -19.0918 C 70.752 -4.88281 90.9668 5.32227 102.734 -6.34766 C 102.93 -6.5918 103.027 -6.73828 103.223 -6.93359 C 107.227 -10.9863 107.764 -14.6973 105.127 -17.2852 C 104.199 -18.0664 102.783 -18.9453 92.3828 -26.1719 C 89.6973 -28.0273 86.8652 -28.2227 83.4473 -25 L 80.6641 -22.3145 C 79.8828 -21.6309 78.9062 -21.4844 77.9297 -22.0703 C 75.8301 -23.1934 71.6309 -26.123 67.5781 -30.1758 C 63.5254 -34.1797 60.5469 -38.3301 59.5703 -40.4297 C 59.082 -41.3574 59.0332 -42.1875 59.8145 -42.9199 L 62.5 -45.9473 C 65.6738 -49.5117 65.3809 -52.3438 63.5254 -54.9316 L 55.127 -66.8945 C 52.1484 -71.1914 47.6074 -68.2129 44.6777 -66.0156 C 44.2871 -65.7715 44.043 -65.4785 43.7988 -65.2344 C 32.1289 -53.5645 42.2363 -33.3496 56.543 -19.0918 Z"/>
  </g>
  <g id="Ultralight-L" transform="matrix(1 0 0 1 487.616 1556)">
   <path d="M 72.1191 25.7324 C 105.566 25.7324 132.91 -1.61133 132.91 -35.1074 C 132.91 -68.5547 105.566 -95.8984 72.1191 -95.8984 C 38.623 -95.8984 11.2793 -68.5547 11.2793 -35.1074 C 11.2793 -1.61133 38.623 25.7324 72.1191 25.7324 Z M 72.1191 23.2422 C 39.9414 23.2422 13.7695 -2.97852 13.7695 -35.1074 C 13.7695 -67.2363 39.9414 -93.4082 72.1191 -93.4082 C 104.248 -93.4082 130.42 -67.2363 130.42 -35.1074 C 130.42 -2.97852 104.248 23.2422 72.1191 23.2422 Z M 55.6641 -18.7988 C 69.7754 -4.6875 90.332 5.66406 102.246 -6.15234 C 102.393 -6.34766 102.441 -6.39648 102.588 -6.54297 C 106.885 -10.791 107.324 -14.3555 104.98 -16.9434 C 104.443 -17.4316 103.418 -18.0176 91.8457 -26.0254 C 89.3555 -27.7344 86.4258 -28.125 82.9102 -24.8047 L 80.0781 -22.0215 C 79.248 -21.3867 78.3203 -21.2402 77.3438 -21.7773 C 75.2441 -22.9004 70.9473 -25.7812 66.7969 -29.9316 C 62.6465 -34.082 59.668 -38.3301 58.7402 -40.3809 C 58.252 -41.4062 58.252 -42.1875 58.9844 -42.8711 L 61.7188 -45.9961 C 64.9902 -49.6582 64.502 -52.6367 62.793 -54.9805 L 54.2969 -67.1387 C 51.2207 -71.582 46.5332 -68.1152 43.8477 -66.1133 C 43.457 -65.8691 43.2129 -65.5273 42.9688 -65.2832 C 31.1523 -53.5156 41.4551 -33.0078 55.6641 -18.7988 Z"/>
  </g>
  <g id="Black-M" transform="matrix(1 0 0 1 2870.97 1126)">
   <path d="M 62.4023 18.457 C 91.9922 18.457 116.113 -5.61523 116.113 -35.2051 C 116.113 -64.7949 91.9922 -88.8672 62.4023 -88.8672 C 32.8125 -88.8672 8.74023 -64.7949 8.74023 -35.2051 C 8.74023 -5.61523 32.8125 18.457 62.4023 18.457 Z M 62.4023 0.195312 C 42.8711 0.195312 27.002 -15.625 27.002 -35.2051 C 27.002 -54.7363 42.8711 -70.6055 62.4023 -70.6055 C 81.9824 -70.6055 97.8027 -54.7363 97.8027 -35.2051 C 97.8027 -15.625 81.9824 0.195312 62.4023 0.195312 Z M 51.4648 -24.2188 C 62.5488 -13.1348 76.123 -6.34766 84.2285 -14.4531 C 84.5703 -14.8438 84.9121 -15.1855 85.1562 -15.5762 C 86.7676 -17.9688 87.6953 -21.0449 84.7168 -23.1934 C 82.0312 -25.0488 79.3945 -26.9043 76.7578 -28.7598 C 73.7305 -30.9082 72.1191 -30.127 70.0684 -28.2227 L 68.2617 -26.4648 C 67.7246 -25.9766 66.7969 -26.0254 66.2109 -26.416 C 64.5996 -27.4902 61.8652 -29.6387 59.375 -32.1289 C 56.9336 -34.5703 54.4922 -37.4512 53.6621 -39.0137 C 53.3691 -39.4043 53.0762 -40.2832 53.7109 -40.9668 L 55.4199 -42.8711 C 57.4219 -45.0195 58.1055 -46.4844 56.0059 -49.5117 L 50.3906 -57.4707 C 48.5352 -60.1074 45.8008 -60.1074 42.3828 -57.5684 C 42.1387 -57.373 41.9434 -57.1777 41.748 -56.9824 C 33.5938 -48.8281 40.4297 -35.2539 51.4648 -24.2188 Z"/>
  </g>
  <g id="Heavy-M" transform="matrix(1 0 0 1 2575.19 1126)">
   <path d="M 61.5234 17.5781 C 90.5273 17.5781 114.258 -6.15234 114.258 -35.2051 C 114.258 -64.2578 90.5273 -87.9883 61.4746 -87.9883 C 32.4707 -87.9883 8.74023 -64.2578 8.74023 -35.2051 C 8.74023 -6.15234 32.4707 17.5781 61.5234 17.5781 Z M 61.5234 1.66016 C 41.1133 1.66016 24.6582 -14.8438 24.6582 -35.2051 C 24.6582 -55.5664 41.1133 -72.0703 61.4746 -72.0703 C 81.8848 -72.0703 98.3398 -55.5664 98.3398 -35.2051 C 98.3398 -14.8438 81.8848 1.66016 61.5234 1.66016 Z M 50.3418 -24.1211 C 61.5234 -12.9395 75.3418 -6.05469 83.5449 -14.2578 C 83.8867 -14.6484 84.1797 -14.9902 84.4238 -15.332 C 86.1816 -17.7734 87.0605 -20.8984 84.082 -23.0469 C 81.543 -24.8535 78.9551 -26.6602 75.9766 -28.7598 C 72.998 -30.8594 71.3379 -30.1758 69.2383 -28.1738 L 67.4316 -26.3672 C 66.8457 -25.8789 65.918 -25.9277 65.332 -26.3184 C 63.6719 -27.3438 60.9375 -29.5898 58.3496 -32.1289 C 55.8594 -34.6191 53.4668 -37.5 52.5879 -39.0625 C 52.2949 -39.5508 52.002 -40.4297 52.6367 -41.0645 L 54.4434 -42.9688 C 56.4453 -45.2148 57.0801 -46.7285 54.9805 -49.707 L 49.3164 -57.8125 C 47.4121 -60.498 44.5801 -60.3516 41.2109 -57.8613 C 40.9668 -57.666 40.7715 -57.4707 40.5762 -57.2754 C 32.3242 -49.0234 39.2578 -35.2051 50.3418 -24.1211 Z"/>
  </g>
  <g id="Bold-M" transform="matrix(1 0 0 1 2279.5 1126)">
   <path d="M 60.498 16.5039 C 88.8672 16.5039 112.207 -6.78711 112.207 -35.2051 C 112.207 -63.623 88.8672 -86.9629 60.4492 -86.9629 C 32.0312 -86.9629 8.74023 -63.623 8.74023 -35.2051 C 8.74023 -6.78711 32.0801 16.5039 60.498 16.5039 Z M 60.498 3.22266 C 39.1602 3.22266 22.0703 -13.916 22.0703 -35.2051 C 22.0703 -56.4941 39.1602 -73.6816 60.4492 -73.6816 C 81.7383 -73.6816 98.9258 -56.4941 98.9258 -35.2051 C 98.9746 -13.916 81.7871 3.22266 60.498 3.22266 Z M 49.1211 -23.9746 C 60.4004 -12.7441 74.4141 -5.71289 82.7637 -14.0625 C 83.1055 -14.4043 83.3984 -14.7461 83.6426 -15.0879 C 85.5469 -17.5293 86.3281 -20.752 83.4473 -22.8516 C 80.957 -24.6094 78.4668 -26.3672 75.0977 -28.7109 C 72.168 -30.7617 70.459 -30.1758 68.3105 -28.125 L 66.4551 -26.2695 C 65.8691 -25.7324 64.9414 -25.8301 64.3555 -26.2207 C 62.6465 -27.2461 59.8633 -29.4922 57.2266 -32.0801 C 54.6875 -34.668 52.2949 -37.5977 51.3672 -39.1602 C 51.0742 -39.6484 50.7812 -40.5273 51.4648 -41.2109 L 53.2715 -43.1641 C 55.3711 -45.4102 55.957 -46.9727 53.8574 -49.9512 L 48.0469 -58.2031 C 46.0938 -60.9375 43.2129 -60.6445 39.8926 -58.1543 C 39.6484 -57.959 39.4531 -57.7637 39.2578 -57.6172 C 30.8594 -49.2188 37.9395 -35.1562 49.1211 -23.9746 Z"/>
  </g>
  <g id="Semibold-M" transform="matrix(1 0 0 1 1983.5 1126)">
   <path d="M 59.7656 15.8203 C 87.7441 15.8203 110.791 -7.22656 110.791 -35.2051 C 110.791 -63.1836 87.6953 -86.2793 59.7656 -86.2793 C 31.7871 -86.2793 8.74023 -63.1836 8.74023 -35.2051 C 8.74023 -7.22656 31.7871 15.8203 59.7656 15.8203 Z M 59.7656 4.3457 C 37.8418 4.3457 20.2637 -13.2812 20.2637 -35.2051 C 20.2637 -57.1289 37.793 -74.8047 59.7656 -74.8047 C 81.6895 -74.8047 99.3164 -57.1289 99.3652 -35.2051 C 99.3652 -13.2812 81.6895 4.3457 59.7656 4.3457 Z M 48.291 -23.877 C 59.6191 -12.5977 73.8281 -5.46875 82.2266 -13.916 C 82.5684 -14.2578 82.8613 -14.5508 83.1055 -14.8926 C 85.1562 -17.3828 85.8398 -20.6055 82.959 -22.7539 C 80.5664 -24.4629 78.125 -26.1719 74.5117 -28.7109 C 71.582 -30.7129 69.8242 -30.1758 67.6758 -28.0762 L 65.7715 -26.2207 C 65.1855 -25.6836 64.2578 -25.7324 63.6719 -26.123 C 61.9629 -27.1484 59.1309 -29.3945 56.4941 -32.0801 C 53.8574 -34.668 51.4648 -37.6465 50.5371 -39.2578 C 50.2441 -39.7461 49.9512 -40.625 50.6348 -41.3086 L 52.4902 -43.2617 C 54.6387 -45.5566 55.1758 -47.168 53.0762 -50.0977 L 47.2168 -58.4473 C 45.2148 -61.2305 42.2852 -60.8887 39.0137 -58.3984 C 38.7207 -58.2031 38.5254 -58.0078 38.3789 -57.8125 C 29.8828 -49.3652 37.0117 -35.1562 48.291 -23.877 Z"/>
  </g>
  <g id="Medium-M" transform="matrix(1 0 0 1 1687.3 1126)">
   <path d="M 59.2285 15.2832 C 86.9141 15.2832 109.766 -7.56836 109.766 -35.2051 C 109.766 -62.8906 86.8652 -85.7422 59.1797 -85.7422 C 31.543 -85.7422 8.74023 -62.8906 8.74023 -35.2051 C 8.74023 -7.56836 31.5918 15.2832 59.2285 15.2832 Z M 59.2285 5.17578 C 36.8164 5.17578 18.8965 -12.8418 18.8965 -35.2051 C 18.8965 -57.6172 36.8164 -75.6348 59.1797 -75.6348 C 81.5918 -75.6348 99.6094 -57.6172 99.6582 -35.2051 C 99.707 -12.8418 81.6406 5.17578 59.2285 5.17578 Z M 47.6562 -23.8281 C 58.9844 -12.4512 73.3398 -5.32227 81.8359 -13.7695 C 82.1777 -14.1113 82.4219 -14.4531 82.7148 -14.7949 C 84.8145 -17.2363 85.498 -20.5078 82.6172 -22.6562 C 80.2734 -24.3164 77.8809 -26.0254 74.0723 -28.6621 C 71.1914 -30.7129 69.3359 -30.1758 67.1875 -28.0273 L 65.2832 -26.1719 C 64.6973 -25.6348 63.7695 -25.6836 63.1348 -26.0742 C 61.4258 -27.0996 58.5938 -29.3457 55.9082 -32.0801 C 53.2715 -34.7168 50.8301 -37.6953 49.9023 -39.3066 C 49.6094 -39.7949 49.3652 -40.6738 50 -41.3574 L 51.9043 -43.3594 C 54.0527 -45.6543 54.541 -47.3145 52.4902 -50.2441 L 46.5332 -58.6426 C 44.5801 -61.4746 41.6016 -61.0352 38.3301 -58.5449 C 38.0371 -58.3984 37.8418 -58.2031 37.6953 -58.0078 C 29.1504 -49.4629 36.3281 -35.1074 47.6562 -23.8281 Z"/>
  </g>
  <g id="Regular-M" transform="matrix(1 0 0 1 1391.3 1126)">
   <path d="M 58.5449 14.5508 C 85.791 14.5508 108.35 -8.00781 108.35 -35.2539 C 108.35 -62.4512 85.7422 -85.0586 58.4961 -85.0586 C 31.2988 -85.0586 8.74023 -62.4512 8.74023 -35.2539 C 8.74023 -8.00781 31.3477 14.5508 58.5449 14.5508 Z M 58.5449 6.25 C 35.498 6.25 17.0898 -12.207 17.0898 -35.2539 C 17.0898 -58.252 35.4492 -76.7578 58.4961 -76.7578 C 81.543 -76.7578 100 -58.252 100.049 -35.2539 C 100.098 -12.207 81.5918 6.25 58.5449 6.25 Z M 46.8262 -23.7305 C 58.252 -12.3047 72.7539 -5.07812 81.2988 -13.623 C 81.6406 -13.9648 81.8848 -14.2578 82.1777 -14.5996 C 84.375 -17.0898 85.0098 -20.4102 82.1289 -22.5586 C 79.8828 -24.1699 77.5391 -25.8301 73.4863 -28.6621 C 70.6055 -30.6641 68.75 -30.1758 66.5527 -27.9785 L 64.5996 -26.0742 C 64.0625 -25.5371 63.0859 -25.5859 62.4512 -25.9766 C 60.7422 -27.002 57.8613 -29.2969 55.127 -32.0312 C 52.4414 -34.7168 50.0488 -37.7441 49.0723 -39.3555 C 48.7793 -39.8926 48.5352 -40.7715 49.1699 -41.4062 L 51.123 -43.457 C 53.3203 -45.752 53.7598 -47.5098 51.709 -50.3906 L 45.7031 -58.8867 C 43.7012 -61.7676 40.6738 -61.2305 37.4023 -58.7891 C 37.1582 -58.5938 36.9629 -58.3984 36.7676 -58.2031 C 28.1738 -49.6094 35.4492 -35.1074 46.8262 -23.7305 Z"/>
  </g>
  <g id="Light-M" transform="matrix(1 0 0 1 1095.42 1126)">
   <path d="M 57.7148 13.7695 C 84.5215 13.7695 106.689 -8.39844 106.689 -35.2051 C 106.689 -62.0117 84.5215 -84.1797 57.666 -84.1797 C 30.8594 -84.1797 8.74023 -62.0117 8.74023 -35.2051 C 8.74023 -8.39844 30.9082 13.7695 57.7148 13.7695 Z M 57.7148 7.4707 C 34.082 7.4707 15.0879 -11.5723 15.0879 -35.2051 C 15.0879 -58.8379 34.082 -77.832 57.666 -77.832 C 81.2988 -77.832 100.342 -58.8379 100.391 -35.2051 C 100.391 -11.5723 81.3477 7.4707 57.7148 7.4707 Z M 45.6543 -23.3398 C 56.9336 -12.1094 71.875 -4.58984 80.6641 -13.3301 C 80.9082 -13.623 81.1035 -13.8672 81.3477 -14.1113 C 83.8867 -16.8457 84.4238 -19.9707 81.8848 -22.0703 C 80.2246 -23.3398 78.3203 -24.6094 72.7539 -28.4668 C 70.166 -30.2734 68.2129 -30.0293 65.8203 -27.7344 L 63.8184 -25.7324 C 63.2324 -25.1953 62.3535 -25.2441 61.6699 -25.6348 C 60.0098 -26.6113 56.9824 -28.8574 54.1016 -31.7383 C 51.2207 -34.6191 48.877 -37.6953 47.998 -39.3066 C 47.6562 -39.9414 47.4609 -40.7227 48.0957 -41.3574 L 50.0977 -43.5059 C 52.3926 -45.9473 52.5879 -47.9004 50.7812 -50.4395 L 44.5801 -59.2285 C 42.4316 -62.2559 39.2578 -61.084 36.377 -58.8867 C 36.084 -58.7402 35.8887 -58.4961 35.6934 -58.3008 C 26.9043 -49.5605 34.4238 -34.6191 45.6543 -23.3398 Z"/>
  </g>
  <g id="Thin-M" transform="matrix(1 0 0 1 799.806 1126)">
   <path d="M 56.6406 12.7441 C 82.9102 12.7441 104.492 -8.83789 104.492 -35.1562 C 104.492 -61.4746 82.9102 -83.0566 56.5918 -83.0566 C 30.3223 -83.0566 8.74023 -61.4746 8.74023 -35.1562 C 8.74023 -8.83789 30.3223 12.7441 56.6406 12.7441 Z M 56.6406 8.98438 C 32.2266 8.98438 12.4512 -10.791 12.4512 -35.1562 C 12.4512 -59.5215 32.2266 -79.2969 56.5918 -79.2969 C 81.0059 -79.2969 100.781 -59.5215 100.781 -35.1562 C 100.781 -10.791 81.0059 8.98438 56.6406 8.98438 Z M 44.1895 -22.8516 C 55.2246 -11.7676 70.8008 -3.95508 79.834 -12.9395 C 79.9805 -13.1836 80.0781 -13.2812 80.2246 -13.4277 C 83.252 -16.5527 83.6914 -19.4336 81.543 -21.4844 C 80.6641 -22.2168 79.3945 -22.998 71.8262 -28.2715 C 69.6289 -29.7852 67.4805 -29.8828 64.8926 -27.3926 L 62.793 -25.293 C 62.1582 -24.8047 61.377 -24.707 60.6445 -25.1465 C 58.9844 -26.0254 55.8105 -28.3203 52.6855 -31.3965 C 49.6094 -34.4727 47.3145 -37.6465 46.5332 -39.2578 C 46.1426 -39.9902 46.0938 -40.6738 46.6797 -41.2109 L 48.7793 -43.5059 C 51.1719 -46.2402 51.0254 -48.3887 49.5117 -50.4883 L 43.1152 -59.668 C 40.8203 -62.9395 37.3535 -60.8398 34.9609 -59.082 C 34.668 -58.8867 34.4727 -58.6426 34.2773 -58.4473 C 25.293 -49.4629 33.0566 -33.9355 44.1895 -22.8516 Z"/>
  </g>
  <g id="Ultralight-M" transform="matrix(1 0 0 1 503.656 1126)">
   <path d="M 56.0547 12.207 C 82.0801 12.207 103.369 -9.08203 103.369 -35.1562 C 103.369 -61.1816 82.0801 -82.4707 56.0547 -82.4707 C 30.0293 -82.4707 8.74023 -61.1816 8.74023 -35.1562 C 8.74023 -9.08203 30.0293 12.207 56.0547 12.207 Z M 56.0547 9.81445 C 31.2988 9.81445 11.1328 -10.3516 11.1328 -35.1562 C 11.1328 -59.9121 31.2988 -80.0781 56.0547 -80.0781 C 80.8594 -80.0781 100.977 -59.9121 100.977 -35.1562 C 100.977 -10.3516 80.8594 9.81445 56.0547 9.81445 Z M 43.4082 -22.6074 C 54.3457 -11.6211 70.2148 -3.61328 79.3945 -12.7441 C 79.4922 -12.9395 79.541 -12.9883 79.6875 -13.0859 C 82.959 -16.3574 83.3008 -19.1406 81.3965 -21.1426 C 80.8594 -21.6309 79.9805 -22.168 71.3379 -28.125 C 69.3359 -29.4922 67.0898 -29.7852 64.4043 -27.1973 L 62.2559 -25.0977 C 61.6211 -24.6094 60.8887 -24.4629 60.1074 -24.9023 C 58.4961 -25.7812 55.1758 -28.0273 52.002 -31.2012 C 48.8281 -34.375 46.4844 -37.6465 45.752 -39.2578 C 45.4102 -39.9902 45.4102 -40.625 45.9473 -41.1621 L 48.0957 -43.5547 C 50.5859 -46.3867 50.2441 -48.6328 48.877 -50.5371 L 42.334 -59.9121 C 39.9414 -63.2812 36.377 -60.7422 34.2285 -59.1309 C 33.9355 -58.9355 33.7402 -58.6914 33.5449 -58.4961 C 24.4629 -49.4141 32.373 -33.5938 43.4082 -22.6074 Z"/>
  </g>
  <g id="Black-S" transform="matrix(1 0 0 1 2884.57 696)">
   <path d="M 48.8281 6.78711 C 71.9727 6.78711 90.8203 -12.0605 90.8203 -35.2051 C 90.8203 -58.3496 71.9727 -77.1973 48.8281 -77.1973 C 25.6836 -77.1973 6.83594 -58.3496 6.83594 -35.2051 C 6.83594 -12.0605 25.6836 6.78711 48.8281 6.78711 Z M 48.8281 -7.37305 C 33.4473 -7.37305 20.9961 -19.8242 20.9961 -35.2051 C 20.9961 -50.5859 33.4473 -63.0371 48.8281 -63.0371 C 64.209 -63.0371 76.6602 -50.5859 76.6602 -35.2051 C 76.6602 -19.8242 64.209 -7.37305 48.8281 -7.37305 Z M 40.2344 -26.6113 C 48.9258 -17.9199 59.5703 -12.5977 65.918 -18.9453 C 66.2109 -19.2383 66.4551 -19.5312 66.6504 -19.8242 C 67.9199 -21.6797 68.6523 -24.1211 66.3086 -25.7812 C 64.209 -27.2461 62.1582 -28.7109 60.0586 -30.1758 C 57.7148 -31.8359 56.4453 -31.25 54.834 -29.7363 L 53.418 -28.3691 C 52.9785 -27.9785 52.2461 -28.0273 51.8066 -28.3203 C 50.5371 -29.1504 48.3887 -30.8594 46.4355 -32.8125 C 44.5312 -34.7168 42.627 -36.9629 41.9434 -38.1836 C 41.748 -38.5254 41.5039 -39.209 41.9922 -39.7461 L 43.3594 -41.2109 C 44.9219 -42.9199 45.459 -44.043 43.7988 -46.4355 L 39.4043 -52.6855 C 37.9395 -54.7363 35.791 -54.7363 33.1055 -52.7344 C 32.9102 -52.5879 32.7637 -52.4414 32.6172 -52.2949 C 26.2207 -45.8984 31.5918 -35.2539 40.2344 -26.6113 Z"/>
  </g>
  <g id="Heavy-S" transform="matrix(1 0 0 1 2588.47 696)">
   <path d="M 48.2422 6.15234 C 70.9961 6.15234 89.5996 -12.4512 89.5996 -35.2051 C 89.5996 -57.959 70.9961 -76.6113 48.1934 -76.6113 C 25.4395 -76.6113 6.83594 -57.959 6.83594 -35.2051 C 6.83594 -12.4512 25.4395 6.15234 48.2422 6.15234 Z M 48.2422 -6.39648 C 32.2754 -6.39648 19.4336 -19.2871 19.4336 -35.2051 C 19.4336 -51.1719 32.2754 -64.0137 48.1934 -64.0137 C 64.1602 -64.0137 77.002 -51.1719 77.0508 -35.2051 C 77.0508 -19.2871 64.1602 -6.39648 48.2422 -6.39648 Z M 39.502 -26.5625 C 48.291 -17.7734 59.0332 -12.4023 65.4785 -18.8477 C 65.7715 -19.1406 66.0156 -19.4336 66.2109 -19.7266 C 67.5293 -21.5332 68.2129 -24.0723 65.8691 -25.7324 C 63.7695 -27.1973 61.7188 -28.6621 59.5703 -30.1758 C 57.1777 -31.8359 55.9082 -31.25 54.2969 -29.7363 L 52.832 -28.3203 C 52.3926 -27.9297 51.6602 -27.9785 51.2207 -28.2715 C 49.9023 -29.1016 47.7539 -30.8594 45.8008 -32.8125 C 43.8477 -34.7656 41.9434 -37.0117 41.2598 -38.2324 C 41.0156 -38.623 40.8203 -39.3066 41.3086 -39.8438 L 42.6758 -41.3086 C 44.2871 -43.0176 44.8242 -44.1895 43.1152 -46.582 L 38.6719 -52.8809 C 37.207 -54.9805 35.0098 -54.9805 32.3242 -52.9297 C 32.1289 -52.7832 31.9824 -52.6367 31.8359 -52.4902 C 25.3906 -46.0449 30.8105 -35.3027 39.502 -26.5625 Z"/>
  </g>
  <g id="Bold-S" transform="matrix(1 0 0 1 2292.44 696)">
   <path d="M 47.5586 5.46875 C 69.873 5.46875 88.2324 -12.8906 88.2324 -35.2051 C 88.2324 -57.5684 69.873 -75.9277 47.5098 -75.9277 C 25.1953 -75.9277 6.83594 -57.5684 6.83594 -35.2051 C 6.83594 -12.8906 25.1953 5.46875 47.5586 5.46875 Z M 47.5586 -5.32227 C 30.957 -5.32227 17.6758 -18.6523 17.6758 -35.2051 C 17.6758 -51.8066 30.957 -65.1367 47.5098 -65.1367 C 64.1113 -65.1367 77.4414 -51.8066 77.4414 -35.2051 C 77.4414 -18.6523 64.1113 -5.32227 47.5586 -5.32227 Z M 38.7207 -26.5137 C 47.5586 -17.6758 58.4961 -12.207 64.9414 -18.7012 C 65.2344 -18.9941 65.4785 -19.2871 65.7227 -19.5801 C 67.1387 -21.4355 67.7734 -23.9746 65.3809 -25.6348 C 63.3301 -27.0996 61.2305 -28.6133 58.9844 -30.1758 C 56.5918 -31.8359 55.2734 -31.2988 53.6621 -29.7363 L 52.1973 -28.2715 C 51.7578 -27.8809 51.0254 -27.9297 50.5371 -28.2227 C 49.2188 -29.0527 47.0703 -30.8105 45.0684 -32.8613 C 43.1152 -34.8145 41.2109 -37.0605 40.4785 -38.3301 C 40.2344 -38.7207 39.9902 -39.4043 40.5273 -39.9414 L 41.9434 -41.4551 C 43.5547 -43.1641 44.0918 -44.3848 42.3828 -46.7773 L 37.8906 -53.1738 C 36.377 -55.2734 34.1797 -55.2246 31.4453 -53.1738 C 31.25 -53.0273 31.1035 -52.8809 30.957 -52.7344 C 24.4629 -46.1914 29.9316 -35.3027 38.7207 -26.5137 Z"/>
  </g>
  <g id="Semibold-S" transform="matrix(1 0 0 1 1996.2 696)">
   <path d="M 47.0703 4.98047 C 69.0918 4.98047 87.3047 -13.1836 87.3047 -35.2539 C 87.3047 -57.2754 69.0918 -75.4883 47.0215 -75.4883 C 25 -75.4883 6.83594 -57.2754 6.83594 -35.2539 C 6.83594 -13.1836 25.0488 4.98047 47.0703 4.98047 Z M 47.0703 -4.58984 C 30.0781 -4.58984 16.4551 -18.2129 16.4551 -35.2539 C 16.4551 -52.2461 30.0293 -65.8691 47.0215 -65.8691 C 64.0625 -65.8691 77.6855 -52.2461 77.7344 -35.2539 C 77.7344 -18.2129 64.0625 -4.58984 47.0703 -4.58984 Z M 38.1836 -26.4648 C 47.0703 -17.5781 58.1055 -12.0605 64.5996 -18.6035 C 64.8926 -18.8965 65.1367 -19.1895 65.3809 -19.4824 C 66.8457 -21.3379 67.4316 -23.9258 65.0391 -25.5859 C 62.9883 -27.0508 60.8887 -28.5645 58.5938 -30.1758 C 56.2012 -31.8359 54.834 -31.2988 53.2227 -29.6875 L 51.7578 -28.2715 C 51.3184 -27.832 50.5859 -27.9297 50.0977 -28.2227 C 48.7793 -29.0527 46.582 -30.8105 44.5801 -32.8613 C 42.5781 -34.8145 40.6738 -37.1094 39.9414 -38.3789 C 39.6973 -38.7695 39.4531 -39.4531 39.9902 -39.9902 L 41.4062 -41.5039 C 43.0664 -43.2617 43.5547 -44.4824 41.8457 -46.875 L 37.3047 -53.3203 C 35.791 -55.4688 33.5938 -55.3711 30.8594 -53.3691 C 30.6641 -53.2227 30.5176 -53.0273 30.3711 -52.8809 C 23.7793 -46.3379 29.2969 -35.3516 38.1836 -26.4648 Z"/>
  </g>
  <g id="Medium-S" transform="matrix(1 0 0 1 1699.83 696)">
   <path d="M 46.7285 4.63867 C 68.5547 4.63867 86.6211 -13.4277 86.6211 -35.2539 C 86.6211 -57.0312 68.5059 -75.1465 46.6797 -75.1465 C 24.8535 -75.1465 6.83594 -57.0312 6.83594 -35.2539 C 6.83594 -13.4277 24.9023 4.63867 46.7285 4.63867 Z M 46.7285 -4.00391 C 29.3945 -4.00391 15.5273 -17.9199 15.5273 -35.2539 C 15.5273 -52.5879 29.3457 -66.4551 46.6797 -66.4551 C 64.0137 -66.4551 77.8809 -52.5879 77.9297 -35.2539 C 77.9785 -17.9199 64.0625 -4.00391 46.7285 -4.00391 Z M 37.7441 -26.4648 C 46.7285 -17.4805 57.7637 -11.9629 64.3555 -18.5547 C 64.6484 -18.8477 64.8926 -19.0918 65.0879 -19.3848 C 66.6016 -21.2402 67.1875 -23.877 64.7949 -25.5859 C 62.7441 -27.002 60.6445 -28.5156 58.3008 -30.1758 C 55.9082 -31.8359 54.541 -31.2988 52.8809 -29.6875 L 51.416 -28.2227 C 50.9766 -27.832 50.2441 -27.8809 49.7559 -28.1738 C 48.3887 -29.0039 46.2402 -30.8105 44.1895 -32.8613 C 42.1875 -34.8633 40.2832 -37.1582 39.502 -38.4277 C 39.3066 -38.8184 39.0625 -39.502 39.5508 -40.0391 L 41.0156 -41.5527 C 42.6758 -43.3105 43.1641 -44.5801 41.4551 -46.9727 L 36.9141 -53.4668 C 35.4004 -55.6152 33.1055 -55.5176 30.4199 -53.4668 C 30.2246 -53.3203 30.0781 -53.1738 29.9316 -53.0273 C 23.291 -46.3867 28.8574 -35.3516 37.7441 -26.4648 Z"/>
  </g>
  <g id="Regular-S" transform="matrix(1 0 0 1 1403.58 696)">
   <path d="M 46.2402 4.15039 C 67.7734 4.15039 85.6934 -13.7207 85.6934 -35.2539 C 85.6934 -56.7871 67.7246 -74.6582 46.1914 -74.6582 C 24.707 -74.6582 6.83594 -56.7871 6.83594 -35.2539 C 6.83594 -13.7207 24.7559 4.15039 46.2402 4.15039 Z M 46.2402 -3.27148 C 28.5156 -3.27148 14.3555 -17.4805 14.3555 -35.2539 C 14.3555 -53.0273 28.4668 -67.2363 46.1914 -67.2363 C 63.9648 -67.2363 78.1738 -53.0273 78.2227 -35.2539 C 78.2715 -17.4805 64.0137 -3.27148 46.2402 -3.27148 Z M 37.207 -26.416 C 46.2402 -17.3828 57.373 -11.8164 64.0137 -18.457 C 64.3066 -18.75 64.5508 -19.043 64.7461 -19.2871 C 66.3086 -21.1426 66.8457 -23.8281 64.4531 -25.5371 C 62.4023 -26.9531 60.3516 -28.4668 57.9102 -30.127 C 55.5176 -31.8359 54.1016 -31.3477 52.4902 -29.6875 L 50.9766 -28.2227 C 50.5371 -27.7832 49.8047 -27.8809 49.3164 -28.1738 C 47.9492 -29.0039 45.752 -30.8105 43.7012 -32.8613 C 41.6504 -34.9121 39.7461 -37.207 38.9648 -38.4766 C 38.7207 -38.8672 38.5254 -39.5996 39.0625 -40.1367 L 40.5273 -41.6504 C 42.1875 -43.4082 42.6758 -44.6777 40.9668 -47.0703 L 36.3281 -53.6133 C 34.8145 -55.8105 32.5195 -55.6641 29.834 -53.6133 C 29.6387 -53.4668 29.4922 -53.3203 29.3457 -53.1738 C 22.6562 -46.5332 28.2715 -35.3516 37.207 -26.416 Z"/>
  </g>
  <g id="Light-S" transform="matrix(1 0 0 1 1107.6 696)">
   <path d="M 45.5078 3.4668 C 66.6992 3.4668 84.2285 -14.0625 84.2285 -35.2051 C 84.2285 -56.3965 66.6504 -73.9258 45.5078 -73.9258 C 24.3164 -73.9258 6.83594 -56.3965 6.83594 -35.2051 C 6.83594 -14.0625 24.3652 3.4668 45.5078 3.4668 Z M 45.5078 -2.24609 C 27.2461 -2.24609 12.5977 -16.9434 12.5977 -35.2051 C 12.5977 -53.5156 27.1973 -68.2129 45.5078 -68.2129 C 63.7695 -68.2129 78.4668 -53.5156 78.5156 -35.2051 C 78.5156 -16.9434 63.8184 -2.24609 45.5078 -2.24609 Z M 36.2305 -26.0742 C 45.0684 -17.1875 56.6406 -11.4258 63.4277 -18.2129 C 63.6719 -18.457 63.8184 -18.6523 64.0137 -18.8477 C 65.918 -20.9473 66.3574 -23.4375 64.2578 -25.0977 C 62.6953 -26.2207 61.0352 -27.3926 57.2754 -29.9805 C 55.127 -31.4941 53.6133 -31.2012 51.8555 -29.4434 L 50.293 -27.9297 C 49.8535 -27.4902 49.1211 -27.5391 48.584 -27.832 C 47.2656 -28.6133 44.9707 -30.4199 42.7734 -32.6172 C 40.5762 -34.8145 38.7207 -37.1582 37.9883 -38.4277 C 37.7441 -38.916 37.5977 -39.5508 38.0859 -40.0391 L 39.5996 -41.6992 C 41.4062 -43.5547 41.6504 -45.0195 40.1367 -47.1191 L 35.3516 -53.9062 C 33.7402 -56.25 31.2988 -55.5176 28.8574 -53.7109 C 28.6621 -53.5645 28.5156 -53.418 28.3691 -53.2715 C 21.582 -46.4844 27.3438 -34.9121 36.2305 -26.0742 Z"/>
  </g>
  <g id="Thin-S" transform="matrix(1 0 0 1 811.867 696)">
   <path d="M 44.5801 2.53906 C 65.2832 2.53906 82.2754 -14.4531 82.2754 -35.2051 C 82.2754 -55.9082 65.2344 -72.9004 44.5312 -72.9004 C 23.8281 -72.9004 6.83594 -55.9082 6.83594 -35.2051 C 6.83594 -14.4531 23.877 2.53906 44.5801 2.53906 Z M 44.5801 -0.878906 C 25.5859 -0.878906 10.2539 -16.2109 10.2539 -35.2051 C 10.2539 -54.1504 25.5859 -69.4824 44.5312 -69.4824 C 63.5254 -69.4824 78.8574 -54.1504 78.8574 -35.2051 C 78.8574 -16.2109 63.5254 -0.878906 44.5801 -0.878906 Z M 34.8633 -25.6348 C 43.6035 -16.9434 55.6641 -10.8398 62.6953 -17.8711 C 62.8418 -18.0176 62.9395 -18.1641 63.0859 -18.3105 C 65.332 -20.6543 65.7227 -22.9492 63.9648 -24.5605 C 63.0859 -25.2441 62.0117 -25.9766 56.4453 -29.834 C 54.6387 -31.0547 52.9785 -31.0547 51.0254 -29.1504 L 49.3652 -27.5391 C 48.877 -27.1484 48.2422 -27.0996 47.7051 -27.4414 C 46.3867 -28.125 43.9453 -29.9316 41.5527 -32.2754 C 39.1602 -34.668 37.3535 -37.1582 36.7188 -38.4277 C 36.4258 -38.916 36.377 -39.502 36.8164 -39.9414 L 38.4277 -41.6992 C 40.332 -43.7988 40.2832 -45.4102 39.0137 -47.168 L 34.0332 -54.2969 C 32.2754 -56.7871 29.6387 -55.3711 27.6367 -53.8574 C 27.3926 -53.7109 27.2461 -53.5156 27.0996 -53.3691 C 20.1172 -46.3867 26.1719 -34.375 34.8633 -25.6348 Z"/>
  </g>
  <g id="Ultralight-S" transform="matrix(1 0 0 1 515.644 696)">
   <path d="M 44.043 2.05078 C 64.502 2.05078 81.2988 -14.6973 81.2988 -35.1562 C 81.2988 -55.6152 64.502 -72.3633 44.043 -72.3633 C 23.584 -72.3633 6.83594 -55.6152 6.83594 -35.1562 C 6.83594 -14.6973 23.584 2.05078 44.043 2.05078 Z M 44.043 -0.146484 C 24.7559 -0.146484 9.08203 -15.8691 9.08203 -35.1562 C 9.08203 -54.4434 24.7559 -70.166 44.043 -70.166 C 63.3789 -70.166 79.0527 -54.4434 79.0527 -35.1562 C 79.0527 -15.8691 63.3789 -0.146484 44.043 -0.146484 Z M 34.1797 -25.3906 C 42.8223 -16.7969 55.127 -10.5469 62.3047 -17.6758 C 62.4023 -17.8223 62.4512 -17.8711 62.5488 -17.9688 C 65.0391 -20.5078 65.3809 -22.7051 63.8184 -24.2676 C 63.2812 -24.707 62.5 -25.1953 56.0059 -29.6875 C 54.3945 -30.8105 52.6855 -30.957 50.5859 -29.0039 L 48.877 -27.3438 C 48.3887 -26.9531 47.8027 -26.8555 47.2168 -27.1973 C 45.9473 -27.8809 43.4082 -29.6387 40.918 -32.1289 C 38.4277 -34.5703 36.6211 -37.1094 36.0352 -38.3789 C 35.7422 -38.9648 35.7422 -39.4531 36.1816 -39.8926 L 37.8418 -41.748 C 39.7949 -43.8965 39.5508 -45.6543 38.4766 -47.2168 L 33.3496 -54.4922 C 31.543 -57.1289 28.7598 -55.2246 27.002 -53.9551 C 26.7578 -53.8086 26.6113 -53.6133 26.4648 -53.4668 C 19.3848 -46.3379 25.5371 -34.0332 34.1797 -25.3906 Z"/>
  </g>
 </g>
</svg>
