<?xml version="1.0" encoding="UTF-8"?>
<!--Generator: Apple Native CoreSVG 123-->
<!DOCTYPE svg
PUBLIC "-//W3C//DTD SVG 1.1//EN"
       "http://www.w3.org/Graphics/SVG/1.1/DTD/svg11.dtd">
<svg version="1.1" xmlns="http://www.w3.org/2000/svg" xmlns:xlink="http://www.w3.org/1999/xlink" width="3300" height="2200">
 <!--glyph: "uni100220.medium", point size: 100.000000, font version: "Version 15.0d7e11", template writer version: "5"-->
 <g id="Notes">
  <rect height="2200" id="artboard" style="fill:white;opacity:1" width="3300" x="0" y="0"/>
  <line id="" style="fill:none;stroke:black;opacity:1;stroke-width:0.5;" x1="263" x2="3036" y1="292" y2="292"/>
  <text style="stroke:none;fill:black;font-family:-apple-system,&quot;SF Pro Display&quot;,&quot;SF Pro Text&quot;,Helvetica,sans-serif;font-weight:bold;" transform="matrix(1 0 0 1 263 322)">Weight/Scale Variations</text>
  <text style="stroke:none;fill:black;font-family:-apple-system,&quot;SF Pro Display&quot;,&quot;SF Pro Text&quot;,Helvetica,sans-serif;text-anchor:middle;" transform="matrix(1 0 0 1 559.711 322)">Ultralight</text>
  <text style="stroke:none;fill:black;font-family:-apple-system,&quot;SF Pro Display&quot;,&quot;SF Pro Text&quot;,Helvetica,sans-serif;text-anchor:middle;" transform="matrix(1 0 0 1 856.422 322)">Thin</text>
  <text style="stroke:none;fill:black;font-family:-apple-system,&quot;SF Pro Display&quot;,&quot;SF Pro Text&quot;,Helvetica,sans-serif;text-anchor:middle;" transform="matrix(1 0 0 1 1153.13 322)">Light</text>
  <text style="stroke:none;fill:black;font-family:-apple-system,&quot;SF Pro Display&quot;,&quot;SF Pro Text&quot;,Helvetica,sans-serif;text-anchor:middle;" transform="matrix(1 0 0 1 1449.84 322)">Regular</text>
  <text style="stroke:none;fill:black;font-family:-apple-system,&quot;SF Pro Display&quot;,&quot;SF Pro Text&quot;,Helvetica,sans-serif;text-anchor:middle;" transform="matrix(1 0 0 1 1746.56 322)">Medium</text>
  <text style="stroke:none;fill:black;font-family:-apple-system,&quot;SF Pro Display&quot;,&quot;SF Pro Text&quot;,Helvetica,sans-serif;text-anchor:middle;" transform="matrix(1 0 0 1 2043.27 322)">Semibold</text>
  <text style="stroke:none;fill:black;font-family:-apple-system,&quot;SF Pro Display&quot;,&quot;SF Pro Text&quot;,Helvetica,sans-serif;text-anchor:middle;" transform="matrix(1 0 0 1 2339.98 322)">Bold</text>
  <text style="stroke:none;fill:black;font-family:-apple-system,&quot;SF Pro Display&quot;,&quot;SF Pro Text&quot;,Helvetica,sans-serif;text-anchor:middle;" transform="matrix(1 0 0 1 2636.69 322)">Heavy</text>
  <text style="stroke:none;fill:black;font-family:-apple-system,&quot;SF Pro Display&quot;,&quot;SF Pro Text&quot;,Helvetica,sans-serif;text-anchor:middle;" transform="matrix(1 0 0 1 2933.4 322)">Black</text>
  <line id="" style="fill:none;stroke:black;opacity:1;stroke-width:0.5;" x1="263" x2="3036" y1="1903" y2="1903"/>
  <g id="" transform="matrix(1 0 0 1 263 1933)">
   <path d="M 9.24805 0.830078 C 13.5547 0.830078 17.1387 -2.74414 17.1387 -7.05078 C 17.1387 -11.3574 13.5449 -14.9316 9.23828 -14.9316 C 4.94141 -14.9316 1.36719 -11.3574 1.36719 -7.05078 C 1.36719 -2.74414 4.95117 0.830078 9.24805 0.830078 Z M 9.24805 -0.654297 C 5.70312 -0.654297 2.87109 -3.49609 2.87109 -7.05078 C 2.87109 -10.6055 5.69336 -13.4473 9.23828 -13.4473 C 12.793 -13.4473 15.6348 -10.6055 15.6445 -7.05078 C 15.6543 -3.49609 12.8027 -0.654297 9.24805 -0.654297 Z M 9.22852 -3.42773 C 9.69727 -3.42773 9.9707 -3.74023 9.9707 -4.25781 L 9.9707 -6.31836 L 12.1973 -6.31836 C 12.6953 -6.31836 13.0371 -6.57227 13.0371 -7.04102 C 13.0371 -7.51953 12.7148 -7.7832 12.1973 -7.7832 L 9.9707 -7.7832 L 9.9707 -10.0098 C 9.9707 -10.5273 9.69727 -10.8496 9.22852 -10.8496 C 8.75977 -10.8496 8.50586 -10.5078 8.50586 -10.0098 L 8.50586 -7.7832 L 6.29883 -7.7832 C 5.78125 -7.7832 5.44922 -7.51953 5.44922 -7.04102 C 5.44922 -6.57227 5.80078 -6.31836 6.29883 -6.31836 L 8.50586 -6.31836 L 8.50586 -4.25781 C 8.50586 -3.75977 8.75977 -3.42773 9.22852 -3.42773 Z"/>
  </g>
  <g id="" transform="matrix(1 0 0 1 281.506 1933)">
   <path d="M 11.709 2.91016 C 17.1582 2.91016 21.6699 -1.60156 21.6699 -7.05078 C 21.6699 -12.4902 17.1484 -17.0117 11.6992 -17.0117 C 6.25977 -17.0117 1.74805 -12.4902 1.74805 -7.05078 C 1.74805 -1.60156 6.26953 2.91016 11.709 2.91016 Z M 11.709 1.25 C 7.09961 1.25 3.41797 -2.44141 3.41797 -7.05078 C 3.41797 -11.6504 7.08984 -15.3516 11.6992 -15.3516 C 16.3086 -15.3516 20 -11.6504 20.0098 -7.05078 C 20.0195 -2.44141 16.3184 1.25 11.709 1.25 Z M 11.6895 -2.41211 C 12.207 -2.41211 12.5195 -2.77344 12.5195 -3.33984 L 12.5195 -6.23047 L 15.5762 -6.23047 C 16.123 -6.23047 16.5039 -6.51367 16.5039 -7.03125 C 16.5039 -7.55859 16.1426 -7.86133 15.5762 -7.86133 L 12.5195 -7.86133 L 12.5195 -10.9277 C 12.5195 -11.5039 12.207 -11.8555 11.6895 -11.8555 C 11.1719 -11.8555 10.8789 -11.4844 10.8789 -10.9277 L 10.8789 -7.86133 L 7.83203 -7.86133 C 7.26562 -7.86133 6.89453 -7.55859 6.89453 -7.03125 C 6.89453 -6.51367 7.28516 -6.23047 7.83203 -6.23047 L 10.8789 -6.23047 L 10.8789 -3.33984 C 10.8789 -2.79297 11.1719 -2.41211 11.6895 -2.41211 Z"/>
  </g>
  <g id="" transform="matrix(1 0 0 1 304.924 1933)">
   <path d="M 14.9707 5.67383 C 21.9336 5.67383 27.6953 -0.078125 27.6953 -7.04102 C 27.6953 -14.0039 21.9238 -19.7559 14.9609 -19.7559 C 8.00781 -19.7559 2.25586 -14.0039 2.25586 -7.04102 C 2.25586 -0.078125 8.01758 5.67383 14.9707 5.67383 Z M 14.9707 3.85742 C 8.93555 3.85742 4.08203 -1.00586 4.08203 -7.04102 C 4.08203 -13.0762 8.92578 -17.9395 14.9609 -17.9395 C 21.0059 -17.9395 25.8594 -13.0762 25.8691 -7.04102 C 25.8789 -1.00586 21.0156 3.85742 14.9707 3.85742 Z M 14.9512 -1.06445 C 15.5176 -1.06445 15.8691 -1.45508 15.8691 -2.06055 L 15.8691 -6.13281 L 20.1074 -6.13281 C 20.6934 -6.13281 21.1133 -6.46484 21.1133 -7.02148 C 21.1133 -7.59766 20.7227 -7.93945 20.1074 -7.93945 L 15.8691 -7.93945 L 15.8691 -12.1875 C 15.8691 -12.8027 15.5176 -13.1934 14.9512 -13.1934 C 14.3848 -13.1934 14.0625 -12.7832 14.0625 -12.1875 L 14.0625 -7.93945 L 9.83398 -7.93945 C 9.21875 -7.93945 8.80859 -7.59766 8.80859 -7.02148 C 8.80859 -6.46484 9.23828 -6.13281 9.83398 -6.13281 L 14.0625 -6.13281 L 14.0625 -2.06055 C 14.0625 -1.47461 14.3848 -1.06445 14.9512 -1.06445 Z"/>
  </g>
  <text style="stroke:none;fill:black;font-family:-apple-system,&quot;SF Pro Display&quot;,&quot;SF Pro Text&quot;,Helvetica,sans-serif;font-weight:bold;" transform="matrix(1 0 0 1 263 1953)">Design Variations</text>
  <text style="stroke:none;fill:black;font-family:-apple-system,&quot;SF Pro Display&quot;,&quot;SF Pro Text&quot;,Helvetica,sans-serif;" transform="matrix(1 0 0 1 263 1971)">Symbols are supported in up to nine weights and three scales.</text>
  <text style="stroke:none;fill:black;font-family:-apple-system,&quot;SF Pro Display&quot;,&quot;SF Pro Text&quot;,Helvetica,sans-serif;" transform="matrix(1 0 0 1 263 1989)">For optimal layout with text and other symbols, vertically align</text>
  <text style="stroke:none;fill:black;font-family:-apple-system,&quot;SF Pro Display&quot;,&quot;SF Pro Text&quot;,Helvetica,sans-serif;" transform="matrix(1 0 0 1 263 2007)">symbols with the adjacent text.</text>
  <rect height="14" id="" style="fill:#00AEEF;stroke:none;opacity:0.4;" width="3" x="776" y="1919"/>
  <g id="" transform="matrix(1 0 0 1 779 1933)">
   <path d="M 10.5273 0 L 12.373 0 L 7.17773 -14.0918 L 5.43945 -14.0918 L 0.244141 0 L 2.08984 0 L 3.50586 -4.0332 L 9.11133 -4.0332 Z M 6.2793 -11.9531 L 6.33789 -11.9531 L 8.59375 -5.52734 L 4.02344 -5.52734 Z"/>
  </g>
  <rect height="14" id="" style="fill:#00AEEF;stroke:none;opacity:0.4;" width="3" x="791.617" y="1919"/>
  <text style="stroke:none;fill:black;font-family:-apple-system,&quot;SF Pro Display&quot;,&quot;SF Pro Text&quot;,Helvetica,sans-serif;font-weight:bold;" transform="matrix(1 0 0 1 776 1953)">Margins</text>
  <text style="stroke:none;fill:black;font-family:-apple-system,&quot;SF Pro Display&quot;,&quot;SF Pro Text&quot;,Helvetica,sans-serif;" transform="matrix(1 0 0 1 776 1971)">Leading and trailing margins on the left and right side of each symbol</text>
  <text style="stroke:none;fill:black;font-family:-apple-system,&quot;SF Pro Display&quot;,&quot;SF Pro Text&quot;,Helvetica,sans-serif;" transform="matrix(1 0 0 1 776 1989)">can be adjusted by modifying the width of the blue rectangles.</text>
  <text style="stroke:none;fill:black;font-family:-apple-system,&quot;SF Pro Display&quot;,&quot;SF Pro Text&quot;,Helvetica,sans-serif;" transform="matrix(1 0 0 1 776 2007)">Modifications are automatically applied proportionally to all</text>
  <text style="stroke:none;fill:black;font-family:-apple-system,&quot;SF Pro Display&quot;,&quot;SF Pro Text&quot;,Helvetica,sans-serif;" transform="matrix(1 0 0 1 776 2025)">scales and weights.</text>
  <g id="" transform="matrix(1 0 0 1 1289 1933)">
   <path d="M 2.83203 3.11523 L 4.375 4.6582 C 5.22461 5.48828 6.19141 5.41992 7.06055 4.46289 L 17.2754 -6.66016 C 17.7051 -6.36719 18.0957 -6.37695 18.5645 -6.47461 L 19.6094 -6.68945 L 20.3027 -5.99609 L 20.2539 -5.47852 C 20.1855 -4.95117 20.3516 -4.53125 20.8496 -4.0332 L 21.6602 -3.22266 C 22.168 -2.71484 22.8223 -2.68555 23.3008 -3.16406 L 26.5527 -6.41602 C 27.0312 -6.89453 27.0117 -7.54883 26.5039 -8.05664 L 25.6836 -8.87695 C 25.1855 -9.375 24.7754 -9.55078 24.2383 -9.47266 L 23.7109 -9.41406 L 23.0566 -10.0781 L 23.3398 -11.2207 C 23.4863 -11.7871 23.3398 -12.2559 22.7148 -12.8613 L 20.3027 -15.2539 C 16.7578 -18.7793 12.2266 -18.6719 9.11133 -15.5371 C 8.69141 -15.1074 8.64258 -14.5215 8.91602 -14.0918 C 9.15039 -13.7207 9.62891 -13.4961 10.2734 -13.6621 C 11.7871 -14.043 13.3008 -13.9258 14.7852 -12.9199 L 14.1602 -11.3379 C 13.9258 -10.752 13.9453 -10.2734 14.1797 -9.83398 L 3.01758 0.439453 C 2.08008 1.30859 1.97266 2.25586 2.83203 3.11523 Z M 10.6738 -15.1465 C 13.3398 -17.1387 16.6504 -16.8262 19.0527 -14.4141 L 21.6797 -11.8066 C 21.9141 -11.5723 21.9434 -11.3867 21.8848 -11.0938 L 21.5039 -9.53125 L 23.0762 -7.95898 L 24.043 -8.04688 C 24.3262 -8.07617 24.4141 -8.05664 24.6387 -7.83203 L 25.2637 -7.20703 L 22.5098 -4.46289 L 21.8848 -5.07812 C 21.6602 -5.30273 21.6406 -5.40039 21.6699 -5.68359 L 21.7578 -6.64062 L 20.1953 -8.20312 L 18.5742 -7.89062 C 18.291 -7.83203 18.1445 -7.83203 17.9102 -8.07617 L 15.7324 -10.2539 C 15.5078 -10.4883 15.4785 -10.625 15.6055 -10.9473 L 16.5527 -13.2227 C 14.9512 -14.7559 12.8418 -15.6055 10.8008 -14.9512 C 10.7129 -14.9219 10.6445 -14.9414 10.6152 -14.9805 C 10.5859 -15.0293 10.5859 -15.0781 10.6738 -15.1465 Z M 4.10156 2.41211 C 3.61328 1.91406 3.78906 1.61133 4.12109 1.30859 L 15.0781 -8.80859 L 16.3086 -7.57812 L 6.15234 3.34961 C 5.84961 3.68164 5.46875 3.7793 5.06836 3.37891 Z"/>
  </g>
  <text style="stroke:none;fill:black;font-family:-apple-system,&quot;SF Pro Display&quot;,&quot;SF Pro Text&quot;,Helvetica,sans-serif;font-weight:bold;" transform="matrix(1 0 0 1 1289 1953)">Exporting</text>
  <text style="stroke:none;fill:black;font-family:-apple-system,&quot;SF Pro Display&quot;,&quot;SF Pro Text&quot;,Helvetica,sans-serif;" transform="matrix(1 0 0 1 1289 1971)">Symbols should be outlined when exporting to ensure the</text>
  <text style="stroke:none;fill:black;font-family:-apple-system,&quot;SF Pro Display&quot;,&quot;SF Pro Text&quot;,Helvetica,sans-serif;" transform="matrix(1 0 0 1 1289 1989)">design is preserved when submitting to Xcode.</text>
  <text id="template-version" style="stroke:none;fill:black;font-family:-apple-system,&quot;SF Pro Display&quot;,&quot;SF Pro Text&quot;,Helvetica,sans-serif;text-anchor:end;" transform="matrix(1 0 0 1 3036 1933)">Template v.1.0</text>
  <text style="stroke:none;fill:black;font-family:-apple-system,&quot;SF Pro Display&quot;,&quot;SF Pro Text&quot;,Helvetica,sans-serif;text-anchor:end;" transform="matrix(1 0 0 1 3036 1951)">Generated from paperplane.fill</text>
  <text style="stroke:none;fill:black;font-family:-apple-system,&quot;SF Pro Display&quot;,&quot;SF Pro Text&quot;,Helvetica,sans-serif;text-anchor:end;" transform="matrix(1 0 0 1 3036 1969)">Typeset at 100 points</text>
  <text style="stroke:none;fill:black;font-family:-apple-system,&quot;SF Pro Display&quot;,&quot;SF Pro Text&quot;,Helvetica,sans-serif;" transform="matrix(1 0 0 1 263 726)">Small</text>
  <text style="stroke:none;fill:black;font-family:-apple-system,&quot;SF Pro Display&quot;,&quot;SF Pro Text&quot;,Helvetica,sans-serif;" transform="matrix(1 0 0 1 263 1156)">Medium</text>
  <text style="stroke:none;fill:black;font-family:-apple-system,&quot;SF Pro Display&quot;,&quot;SF Pro Text&quot;,Helvetica,sans-serif;" transform="matrix(1 0 0 1 263 1586)">Large</text>
 </g>
 <g id="Guides">
  <g id="H-reference" style="fill:#27AAE1;stroke:none;" transform="matrix(1 0 0 1 339 696)">
   <path d="M 54.9316 0 L 57.666 0 L 30.5664 -70.459 L 28.0762 -70.459 L 0.976562 0 L 3.66211 0 L 12.9395 -24.4629 L 45.7031 -24.4629 Z M 29.1992 -67.0898 L 29.4434 -67.0898 L 44.8242 -26.709 L 13.8184 -26.709 Z"/>
  </g>
  <line id="Baseline-S" style="fill:none;stroke:#27AAE1;opacity:1;stroke-width:0.577;" x1="263" x2="3036" y1="696" y2="696"/>
  <line id="Capline-S" style="fill:none;stroke:#27AAE1;opacity:1;stroke-width:0.577;" x1="263" x2="3036" y1="625.541" y2="625.541"/>
  <g id="H-reference" style="fill:#27AAE1;stroke:none;" transform="matrix(1 0 0 1 339 1126)">
   <path d="M 54.9316 0 L 57.666 0 L 30.5664 -70.459 L 28.0762 -70.459 L 0.976562 0 L 3.66211 0 L 12.9395 -24.4629 L 45.7031 -24.4629 Z M 29.1992 -67.0898 L 29.4434 -67.0898 L 44.8242 -26.709 L 13.8184 -26.709 Z"/>
  </g>
  <line id="Baseline-M" style="fill:none;stroke:#27AAE1;opacity:1;stroke-width:0.577;" x1="263" x2="3036" y1="1126" y2="1126"/>
  <line id="Capline-M" style="fill:none;stroke:#27AAE1;opacity:1;stroke-width:0.577;" x1="263" x2="3036" y1="1055.54" y2="1055.54"/>
  <g id="H-reference" style="fill:#27AAE1;stroke:none;" transform="matrix(1 0 0 1 339 1556)">
   <path d="M 54.9316 0 L 57.666 0 L 30.5664 -70.459 L 28.0762 -70.459 L 0.976562 0 L 3.66211 0 L 12.9395 -24.4629 L 45.7031 -24.4629 Z M 29.1992 -67.0898 L 29.4434 -67.0898 L 44.8242 -26.709 L 13.8184 -26.709 Z"/>
  </g>
  <line id="Baseline-L" style="fill:none;stroke:#27AAE1;opacity:1;stroke-width:0.577;" x1="263" x2="3036" y1="1556" y2="1556"/>
  <line id="Capline-L" style="fill:none;stroke:#27AAE1;opacity:1;stroke-width:0.577;" x1="263" x2="3036" y1="1485.54" y2="1485.54"/>
  <rect height="119.336" id="left-margin" style="fill:#00AEEF;stroke:none;opacity:0.4;" width="9.96094" x="1388.74" y="1030.79"/>
  <rect height="119.336" id="right-margin" style="fill:#00AEEF;stroke:none;opacity:0.4;" width="9.96094" x="1500.99" y="1030.79"/>
 </g>
 <g id="Symbols">
  <g id="Black-L" transform="matrix(1 0 0 1 2851.27 1556)">
   <path d="M 94.9219 37.4023 C 100.928 37.4023 104.98 33.2031 107.373 26.9043 L 149.854 -84.2773 C 150.83 -86.8652 151.367 -89.2578 151.367 -91.3574 C 151.367 -97.2168 147.51 -101.074 141.65 -101.074 C 139.502 -101.074 137.109 -100.537 134.57 -99.5605 L 23.1934 -56.9824 C 17.1875 -54.6875 12.8906 -50.6836 12.8906 -44.6777 C 12.8906 -37.793 17.8223 -34.5703 24.5117 -32.4707 L 52.0996 -23.877 C 57.8613 -22.0703 61.4746 -22.0215 65.918 -25.9766 L 139.551 -92.4805 C 140.674 -93.457 142.041 -93.3594 142.822 -92.5293 C 143.604 -91.748 143.75 -90.332 142.773 -89.2578 L 76.3672 -15.7715 C 72.7539 -11.7676 72.4121 -7.27539 74.0723 -1.9043 L 82.666 25.4883 C 84.7656 32.3242 88.0371 37.4023 94.9219 37.4023 Z"/>
  </g>
  <g id="Heavy-L" transform="matrix(1 0 0 1 2555.51 1556)">
   <path d="M 94.043 36.4258 C 99.5605 36.4258 103.369 32.373 105.664 26.2695 L 147.949 -84.375 C 148.975 -86.9629 149.463 -89.3066 149.463 -91.3574 C 149.463 -96.7285 145.996 -100.195 140.674 -100.195 C 138.574 -100.195 136.23 -99.6582 133.691 -98.6816 L 22.7539 -56.2988 C 16.9922 -54.1016 12.8906 -50.293 12.8906 -44.7266 C 12.8906 -38.2324 17.5293 -35.3516 24.0234 -33.3496 L 53.6133 -24.2188 C 58.8379 -22.5586 62.1094 -22.5586 66.0645 -26.123 L 138.477 -92.1387 C 139.502 -93.0664 140.771 -92.9688 141.504 -92.1875 C 142.236 -91.4551 142.334 -90.1367 141.455 -89.1602 L 75.5371 -16.8457 C 72.2656 -13.2324 71.9238 -9.27734 73.4863 -4.3457 L 82.5684 24.9512 C 84.5703 31.5918 87.5 36.4258 94.043 36.4258 Z"/>
  </g>
  <g id="Bold-L" transform="matrix(1 0 0 1 2259.83 1556)">
   <path d="M 92.9688 35.3027 C 98.0469 35.3027 101.514 31.4941 103.809 25.5859 L 145.85 -84.4727 C 146.875 -87.0605 147.412 -89.4043 147.412 -91.3574 C 147.412 -96.1426 144.336 -99.2188 139.551 -99.2188 C 137.549 -99.2188 135.205 -98.6816 132.666 -97.7051 L 22.3145 -55.4688 C 16.7969 -53.3691 12.8906 -49.9023 12.8906 -44.7754 C 12.8906 -38.7695 17.2852 -36.2305 23.4863 -34.3262 L 55.2734 -24.5605 C 59.9121 -23.1445 62.793 -23.1934 66.2109 -26.2695 L 137.256 -91.748 C 138.184 -92.5781 139.307 -92.5293 140.039 -91.8457 C 140.723 -91.1621 140.771 -89.9902 139.941 -89.0625 L 74.6094 -18.0176 C 71.7285 -14.8926 71.4355 -11.5723 72.8027 -7.03125 L 82.4219 24.3652 C 84.375 30.7129 86.9141 35.3027 92.9688 35.3027 Z"/>
  </g>
  <g id="Semibold-L" transform="matrix(1 0 0 1 1963.85 1556)">
   <path d="M 92.2852 34.5215 C 97.0215 34.5215 100.293 30.8594 102.49 25.0977 L 144.434 -84.5703 C 145.41 -87.1582 145.947 -89.4043 145.947 -91.3574 C 145.947 -95.752 143.164 -98.5352 138.77 -98.5352 C 136.816 -98.5352 134.521 -97.998 131.982 -97.0215 L 21.9727 -54.9316 C 16.6992 -52.8809 12.8906 -49.6094 12.8906 -44.8242 C 12.8906 -39.1602 17.0898 -36.8652 23.0957 -35.0098 L 56.4453 -24.8047 C 60.6934 -23.4863 63.2812 -23.6328 66.3574 -26.416 L 136.426 -91.5039 C 137.305 -92.2363 138.33 -92.1875 139.014 -91.5527 C 139.648 -90.918 139.697 -89.8438 138.916 -89.0137 L 73.9746 -18.8477 C 71.3379 -16.0156 71.0449 -13.1348 72.3145 -8.93555 L 82.3242 23.9258 C 84.2285 30.127 86.5234 34.5215 92.2852 34.5215 Z"/>
  </g>
  <g id="Medium-L" transform="matrix(1 0 0 1 1667.67 1556)">
   <path d="M 91.748 33.9355 C 96.1914 33.9355 99.3164 30.4199 101.514 24.707 L 143.359 -84.6191 C 144.336 -87.207 144.873 -89.4531 144.873 -91.3574 C 144.873 -95.459 142.285 -97.998 138.184 -97.998 C 136.279 -97.998 134.033 -97.4609 131.494 -96.4844 L 21.7285 -54.4922 C 16.6016 -52.5391 12.8906 -49.4141 12.8906 -44.873 C 12.8906 -39.4531 16.9434 -37.3047 22.8516 -35.5469 L 57.3242 -25 C 61.2305 -23.7793 63.6719 -23.9258 66.4551 -26.4648 L 135.791 -91.2598 C 136.621 -91.9922 137.598 -91.9434 138.232 -91.3574 C 138.867 -90.7715 138.867 -89.7461 138.135 -88.9648 L 73.4863 -19.4824 C 71.0938 -16.8457 70.8008 -14.3066 71.9727 -10.3516 L 82.2754 23.584 C 84.1309 29.6875 86.2305 33.9355 91.748 33.9355 Z"/>
  </g>
  <g id="Regular-L" transform="matrix(1 0 0 1 1371.67 1556)">
   <path d="M 91.0156 33.2031 C 95.166 33.2031 98.0957 29.7852 100.244 24.2188 L 141.895 -84.7168 C 142.871 -87.2559 143.457 -89.502 143.457 -91.3574 C 143.457 -95.0684 141.162 -97.3633 137.451 -97.3633 C 135.596 -97.3633 133.35 -96.7773 130.811 -95.8008 L 21.4355 -53.9551 C 16.4551 -52.0508 12.8906 -49.1211 12.8906 -44.9219 C 12.8906 -39.7949 16.748 -37.9395 22.4609 -36.2305 L 58.4961 -25.2441 C 62.0117 -24.1699 64.1602 -24.3652 66.5527 -26.6113 L 134.961 -91.0156 C 135.742 -91.6992 136.621 -91.6504 137.207 -91.1133 C 137.793 -90.5762 137.793 -89.6484 137.109 -88.8672 L 72.8516 -20.3125 C 70.7031 -17.9688 70.4102 -15.8691 71.4844 -12.207 L 82.1777 23.1934 C 83.9844 29.1504 85.791 33.2031 91.0156 33.2031 Z"/>
  </g>
  <g id="Light-L" transform="matrix(1 0 0 1 1075.96 1556)">
   <path d="M 90.0391 32.4219 C 93.6035 32.4219 96.1426 29.6387 98.0469 24.7559 L 140.234 -85.6934 C 141.016 -87.7441 141.455 -89.5508 141.455 -91.0645 C 141.455 -94.2383 139.551 -96.1426 136.328 -96.1426 C 134.814 -96.1426 133.057 -95.752 131.006 -94.9707 L 20.2637 -52.6367 C 15.7715 -50.8789 12.8906 -48.3398 12.8906 -44.7266 C 12.8906 -40.4785 15.9668 -38.7207 21.2402 -37.1582 L 59.9609 -25.3418 C 62.793 -24.5117 64.8438 -24.8047 66.8457 -26.6602 L 134.326 -90.8203 C 135.01 -91.4551 135.742 -91.4551 136.279 -90.9668 C 136.816 -90.4785 136.719 -89.6973 136.133 -89.0137 L 72.0215 -21.4355 C 70.2148 -19.5312 69.873 -17.5293 70.7031 -14.5996 L 82.373 23.7793 C 83.9844 29.1504 85.6934 32.4219 90.0391 32.4219 Z"/>
  </g>
  <g id="Thin-L" transform="matrix(1 0 0 1 780.568 1556)">
   <path d="M 88.7695 31.3477 C 91.6016 31.3477 93.6035 29.4434 95.1172 25.4395 L 138.037 -87.0117 C 138.574 -88.4277 138.818 -89.5996 138.818 -90.625 C 138.818 -93.1641 137.402 -94.5801 134.863 -94.5801 C 133.838 -94.5801 132.666 -94.3359 131.299 -93.7988 L 18.75 -50.8789 C 14.8438 -49.3652 12.8906 -47.3633 12.8906 -44.4824 C 12.8906 -41.4062 14.9414 -39.7949 19.6777 -38.3789 L 61.9141 -25.4883 C 63.8184 -24.9512 65.7227 -25.3906 67.1875 -26.709 L 133.447 -90.5762 C 134.033 -91.1133 134.619 -91.2109 135.059 -90.8203 C 135.498 -90.3809 135.352 -89.7949 134.814 -89.209 L 70.9473 -22.9492 C 69.5801 -21.5332 69.1406 -19.6777 69.6777 -17.7246 L 82.6172 24.5117 C 84.0332 29.1992 85.5469 31.3477 88.7695 31.3477 Z"/>
  </g>
  <g id="Ultralight-L" transform="matrix(1 0 0 1 484.54 1556)">
   <path d="M 88.0859 30.8105 C 90.5762 30.8105 92.2852 29.3457 93.6523 25.7812 L 136.914 -87.6953 C 137.354 -88.7695 137.451 -89.6484 137.451 -90.4297 C 137.451 -92.5781 136.279 -93.75 134.131 -93.75 C 133.35 -93.75 132.471 -93.6523 131.396 -93.2129 L 17.9688 -49.9512 C 14.3555 -48.584 12.8906 -46.8262 12.8906 -44.3848 C 12.8906 -41.8457 14.4043 -40.3809 18.8477 -39.0137 L 62.8906 -25.5859 C 64.3555 -25.1465 66.2109 -25.6836 67.334 -26.7578 L 132.959 -90.4785 C 133.496 -90.918 134.033 -91.1133 134.424 -90.7227 C 134.814 -90.332 134.619 -89.7949 134.18 -89.2578 L 70.3613 -23.7305 C 69.2871 -22.5586 68.75 -20.752 69.1895 -19.3359 L 82.7637 24.9023 C 84.082 29.248 85.4492 30.8105 88.0859 30.8105 Z"/>
  </g>
  <g id="Black-M" transform="matrix(1 0 0 1 2869.07 1126)">
   <path d="M 74.2676 21.9727 C 79.248 21.9727 82.4707 18.7988 84.2773 14.0625 L 117.725 -73.6328 C 118.408 -75.3906 118.701 -77.0996 118.701 -78.5645 C 118.701 -83.4961 115.43 -86.7676 110.498 -86.7676 C 108.936 -86.7676 107.275 -86.4746 105.566 -85.791 L 17.8711 -52.3438 C 13.1348 -50.5371 9.96094 -47.3145 9.96094 -42.334 C 9.96094 -36.9141 13.6719 -34.082 18.9941 -32.4219 L 39.1113 -26.0742 C 43.8965 -24.5605 47.1191 -24.5117 50.9766 -27.8809 L 109.229 -79.9805 C 110.156 -80.8105 111.328 -80.7129 111.963 -80.0293 C 112.598 -79.3457 112.695 -78.1738 111.914 -77.2949 L 59.8145 -19.2871 C 56.7383 -15.918 56.3965 -11.6699 57.8125 -7.37305 L 64.2578 12.8906 C 65.9668 18.1641 68.8477 21.9727 74.2676 21.9727 Z"/>
  </g>
  <g id="Heavy-M" transform="matrix(1 0 0 1 2573.11 1126)">
   <path d="M 73.5352 21.0938 C 78.125 21.0938 81.2012 17.9688 83.0078 13.2324 L 116.113 -73.4863 C 116.846 -75.3906 117.188 -77.0996 117.188 -78.6621 C 117.188 -83.2031 114.209 -86.1328 109.717 -86.1328 C 108.105 -86.1328 106.396 -85.791 104.541 -85.0586 L 17.7246 -51.9043 C 13.1348 -50.1465 9.96094 -47.0703 9.96094 -42.4805 C 9.96094 -37.2559 13.623 -34.7168 18.7988 -33.1055 L 40.332 -26.3672 C 44.7754 -25 47.6562 -25 51.0742 -28.0273 L 108.203 -79.6387 C 109.082 -80.4199 110.156 -80.3223 110.742 -79.6875 C 111.328 -79.0527 111.475 -77.9785 110.693 -77.1484 L 59.1309 -20.166 C 56.3477 -17.0898 56.0547 -13.4766 57.3242 -9.42383 L 64.1113 12.1094 C 65.7227 17.334 68.3105 21.0938 73.5352 21.0938 Z"/>
  </g>
  <g id="Bold-M" transform="matrix(1 0 0 1 2277.26 1126)">
   <path d="M 72.6562 20.1172 C 76.9043 20.1172 79.7852 16.9922 81.5918 12.3047 L 114.307 -73.3398 C 115.088 -75.3418 115.479 -77.1484 115.479 -78.7109 C 115.479 -82.8125 112.891 -85.4004 108.789 -85.4004 C 107.178 -85.4004 105.371 -85.0098 103.369 -84.2285 L 17.5293 -51.416 C 13.1348 -49.7559 9.96094 -46.875 9.96094 -42.5781 C 9.96094 -37.6465 13.5254 -35.4492 18.5059 -33.9355 L 41.748 -26.7578 C 45.752 -25.5371 48.1934 -25.5371 51.1719 -28.2227 L 107.08 -79.248 C 107.861 -79.9805 108.838 -79.8828 109.375 -79.3457 C 109.961 -78.7598 110.059 -77.7832 109.326 -77.002 L 58.3496 -21.1426 C 55.9082 -18.457 55.6641 -15.4785 56.7871 -11.7188 L 63.916 11.2793 C 65.4785 16.4062 67.6758 20.1172 72.6562 20.1172 Z"/>
  </g>
  <g id="Semibold-M" transform="matrix(1 0 0 1 1981.13 1126)">
   <path d="M 72.0703 19.4336 C 76.0742 19.4336 78.8086 16.3574 80.6152 11.6699 L 113.086 -73.1934 C 113.867 -75.293 114.307 -77.1973 114.307 -78.8086 C 114.307 -82.5195 111.914 -84.9121 108.203 -84.9121 C 106.592 -84.9121 104.688 -84.4727 102.588 -83.6914 L 17.4316 -51.0742 C 13.1348 -49.4629 9.96094 -46.6797 9.96094 -42.6758 C 9.96094 -37.8906 13.4766 -35.9863 18.3594 -34.4727 L 42.7246 -27.002 C 46.3867 -25.8789 48.584 -25.8789 51.2695 -28.3203 L 106.299 -79.0039 C 107.031 -79.6387 107.91 -79.5898 108.447 -79.0527 C 108.984 -78.5156 109.082 -77.6367 108.398 -76.9043 L 57.8125 -21.8262 C 55.5664 -19.3848 55.3711 -16.8945 56.4453 -13.2812 L 63.7695 10.7422 C 65.332 15.7715 67.2852 19.4336 72.0703 19.4336 Z"/>
  </g>
  <g id="Medium-M" transform="matrix(1 0 0 1 1684.86 1126)">
   <path d="M 71.6309 18.9453 C 75.4395 18.9453 78.0762 15.8691 79.8828 11.1816 L 112.109 -73.1445 C 112.939 -75.293 113.428 -77.1973 113.428 -78.8574 C 113.428 -82.3242 111.23 -84.5215 107.715 -84.5215 C 106.104 -84.5215 104.15 -84.082 102.002 -83.252 L 17.334 -50.8301 C 13.1348 -49.2188 9.96094 -46.582 9.96094 -42.7734 C 9.96094 -38.1348 13.4277 -36.377 18.2129 -34.9121 L 43.5059 -27.1973 C 46.9238 -26.123 48.877 -26.1719 51.3184 -28.418 L 105.713 -78.8086 C 106.396 -79.4434 107.227 -79.3457 107.764 -78.8574 C 108.252 -78.3691 108.301 -77.4902 107.715 -76.8555 L 57.4219 -22.3633 C 55.3711 -20.0684 55.127 -17.9199 56.2012 -14.502 L 63.6719 10.3027 C 65.1855 15.2832 66.9434 18.9453 71.6309 18.9453 Z"/>
  </g>
  <g id="Regular-M" transform="matrix(1 0 0 1 1388.74 1126)">
   <path d="M 71.0938 18.2617 C 74.6094 18.2617 77.0996 15.2344 78.9062 10.5469 L 110.889 -72.998 C 111.768 -75.2441 112.256 -77.2461 112.256 -78.9062 C 112.256 -82.0801 110.303 -84.0332 107.129 -84.0332 C 105.469 -84.0332 103.467 -83.5449 101.221 -82.666 L 17.2363 -50.4883 C 13.1348 -48.9258 9.96094 -46.4355 9.96094 -42.8711 C 9.96094 -38.3789 13.3789 -36.8652 18.0664 -35.4492 L 44.4336 -27.4414 C 47.5586 -26.4648 49.2676 -26.5625 51.416 -28.5156 L 104.932 -78.5645 C 105.566 -79.1504 106.299 -79.0527 106.836 -78.6133 C 107.324 -78.125 107.373 -77.3926 106.787 -76.7578 L 56.8848 -22.998 C 55.0293 -20.9961 54.8828 -19.3359 55.8105 -16.0645 L 63.5742 9.7168 C 65.0391 14.6484 66.5527 18.2617 71.0938 18.2617 Z"/>
  </g>
  <g id="Light-M" transform="matrix(1 0 0 1 1092.9 1126)">
   <path d="M 70.2148 17.5293 C 73.1934 17.5293 75.3418 15.0879 76.9531 11.0352 L 109.424 -73.9258 C 110.107 -75.7324 110.498 -77.2949 110.498 -78.6133 C 110.498 -81.3477 108.838 -82.959 106.152 -82.959 C 104.785 -82.959 103.223 -82.6172 101.416 -81.8848 L 16.2109 -49.3164 C 12.5 -47.9004 9.96094 -45.752 9.96094 -42.6758 C 9.96094 -39.0137 12.6953 -37.5977 16.9922 -36.2793 L 45.752 -27.5391 C 48.291 -26.7578 49.9023 -26.9531 51.6602 -28.5645 L 104.346 -78.418 C 104.932 -78.9062 105.566 -78.9062 106.006 -78.4668 C 106.445 -78.0762 106.396 -77.4414 105.908 -76.8555 L 56.1523 -24.0234 C 54.5898 -22.3633 54.3457 -20.752 55.127 -18.1641 L 63.7207 10.2539 C 65.0391 14.6484 66.4551 17.5293 70.2148 17.5293 Z"/>
  </g>
  <g id="Thin-M" transform="matrix(1 0 0 1 797.389 1126)">
   <path d="M 69.043 16.6016 C 71.3867 16.6016 73.0469 14.9414 74.3164 11.6211 L 107.422 -75.0977 C 107.91 -76.3184 108.105 -77.3438 108.105 -78.2715 C 108.105 -80.3711 106.934 -81.543 104.834 -81.543 C 103.906 -81.543 102.881 -81.3477 101.66 -80.8594 L 14.8438 -47.7051 C 11.6699 -46.4844 9.96094 -44.8242 9.96094 -42.4805 C 9.96094 -39.7949 11.7676 -38.5254 15.5762 -37.4023 L 47.5098 -27.6367 C 49.2188 -27.1484 50.7324 -27.4902 51.9531 -28.6133 L 103.564 -78.1738 C 104.053 -78.6133 104.541 -78.6621 104.883 -78.3203 C 105.273 -77.9785 105.176 -77.4902 104.736 -77.002 L 55.1758 -25.3906 C 54.0527 -24.1699 53.7109 -22.7051 54.1992 -20.9961 L 63.9648 10.9375 C 65.0879 14.6973 66.3086 16.6016 69.043 16.6016 Z"/>
  </g>
  <g id="Ultralight-M" transform="matrix(1 0 0 1 501.288 1126)">
   <path d="M 68.457 16.1133 C 70.459 16.1133 71.875 14.8438 72.998 11.9629 L 106.396 -75.6836 C 106.787 -76.6113 106.885 -77.3926 106.885 -78.0762 C 106.885 -79.834 105.908 -80.8105 104.15 -80.8105 C 103.467 -80.8105 102.686 -80.7129 101.758 -80.3223 L 14.1602 -46.9238 C 11.2305 -45.8008 9.96094 -44.3848 9.96094 -42.334 C 9.96094 -40.2344 11.2793 -39.0625 14.8438 -37.9883 L 48.4375 -27.7344 C 49.707 -27.3438 51.123 -27.7344 52.0996 -28.6621 L 103.174 -78.0762 C 103.613 -78.418 104.053 -78.5645 104.346 -78.2715 C 104.639 -77.9297 104.541 -77.5391 104.15 -77.0996 L 54.6875 -26.0742 C 53.7598 -25.0977 53.3691 -23.6816 53.7598 -22.4121 L 64.0625 11.2793 C 65.1367 14.7461 66.2109 16.1133 68.457 16.1133 Z"/>
  </g>
  <g id="Black-S" transform="matrix(1 0 0 1 2883.03 696)">
   <path d="M 58.1543 9.52148 C 62.0117 9.52148 64.5508 7.03125 65.9668 3.32031 L 92.1387 -65.2832 C 92.6758 -66.6992 92.9199 -68.0176 92.9199 -69.1895 C 92.9199 -73.0469 90.3809 -75.5859 86.5234 -75.5859 C 85.3027 -75.5859 83.9844 -75.3418 82.6172 -74.8047 L 14.0137 -48.6328 C 10.3027 -47.2168 7.8125 -44.6777 7.8125 -40.8203 C 7.8125 -36.5723 10.7422 -34.375 14.8926 -33.0566 L 30.7129 -28.0762 C 34.4727 -26.9043 36.9629 -26.8555 39.9414 -29.4922 L 85.498 -70.2637 C 86.2305 -70.8984 87.1582 -70.8496 87.6465 -70.3125 C 88.1348 -69.7754 88.2324 -68.8477 87.5977 -68.1641 L 46.8262 -22.8027 C 44.4336 -20.166 44.1895 -16.8945 45.2637 -13.5254 L 50.3418 2.39258 C 51.6602 6.54297 53.9062 9.52148 58.1543 9.52148 Z"/>
  </g>
  <g id="Heavy-S" transform="matrix(1 0 0 1 2586.81 696)">
   <path d="M 57.666 8.93555 C 61.3281 8.93555 63.7695 6.39648 65.2344 2.63672 L 91.0645 -65.0879 C 91.6504 -66.6016 91.9434 -68.0664 91.9434 -69.2871 C 91.9434 -72.8516 89.5996 -75.1953 86.0352 -75.1953 C 84.7656 -75.1953 83.3496 -74.9023 81.8359 -74.3164 L 14.0137 -48.4375 C 10.3516 -47.0215 7.8125 -44.5801 7.8125 -40.918 C 7.8125 -36.7676 10.7422 -34.8145 14.8438 -33.4961 L 31.543 -28.3203 C 35.0586 -27.1973 37.3047 -27.1973 39.9902 -29.5898 L 84.8145 -70.0195 C 85.498 -70.6055 86.3281 -70.5566 86.8164 -70.0684 C 87.3047 -69.5801 87.3535 -68.7012 86.7676 -68.0664 L 46.3867 -23.3398 C 44.1895 -20.9473 43.9453 -18.1152 44.9707 -14.8438 L 50.1953 1.75781 C 51.4648 5.9082 53.5156 8.93555 57.666 8.93555 Z"/>
  </g>
  <g id="Bold-S" transform="matrix(1 0 0 1 2290.64 696)">
   <path d="M 57.1289 8.25195 C 60.5469 8.25195 62.8906 5.71289 64.3555 1.85547 L 89.8926 -64.8438 C 90.5273 -66.5527 90.8691 -68.0664 90.8691 -69.3848 C 90.8691 -72.6562 88.7695 -74.8047 85.4492 -74.8047 C 84.1309 -74.8047 82.6172 -74.4629 80.9082 -73.7793 L 14.0137 -48.1934 C 10.4492 -46.8262 7.8125 -44.4824 7.8125 -41.0645 C 7.8125 -36.9629 10.791 -35.2539 14.7949 -34.0332 L 32.4707 -28.5645 C 35.6934 -27.5391 37.6465 -27.5391 40.0391 -29.7363 L 84.0332 -69.7754 C 84.6191 -70.3125 85.4004 -70.2637 85.8887 -69.7754 C 86.3281 -69.3359 86.4258 -68.5547 85.8398 -67.9199 L 45.8984 -23.9746 C 43.8965 -21.7773 43.7012 -19.4824 44.6777 -16.3574 L 50.0488 1.07422 C 51.3184 5.17578 53.0273 8.25195 57.1289 8.25195 Z"/>
  </g>
  <g id="Semibold-S" transform="matrix(1 0 0 1 1994.29 696)">
   <path d="M 56.7383 7.8125 C 60.0586 7.8125 62.3047 5.22461 63.7695 1.31836 L 89.0625 -64.6973 C 89.7461 -66.5039 90.1367 -68.0664 90.1367 -69.4824 C 90.1367 -72.5586 88.1836 -74.5117 85.1074 -74.5117 C 83.6914 -74.5117 82.0801 -74.1211 80.3223 -73.4375 L 14.0137 -48.0469 C 10.498 -46.7285 7.8125 -44.4336 7.8125 -41.1133 C 7.8125 -37.1582 10.791 -35.5957 14.7461 -34.375 L 33.1055 -28.7598 C 36.1328 -27.7832 37.8906 -27.7832 40.0879 -29.7852 L 83.4473 -69.5801 C 84.082 -70.1172 84.7656 -70.0195 85.2051 -69.5801 C 85.6934 -69.1895 85.7422 -68.4082 85.2051 -67.8223 L 45.5566 -24.4141 C 43.7012 -22.3633 43.5547 -20.4102 44.4336 -17.3828 L 49.9023 0.585938 C 51.1719 4.6875 52.7344 7.8125 56.7383 7.8125 Z"/>
  </g>
  <g id="Medium-S" transform="matrix(1 0 0 1 1697.87 696)">
   <path d="M 56.4941 7.4707 C 59.6191 7.4707 61.8652 4.83398 63.3301 0.927734 L 88.4277 -64.5508 C 89.1602 -66.4551 89.5508 -68.1152 89.5508 -69.5312 C 89.5508 -72.4121 87.6953 -74.2676 84.8145 -74.2676 C 83.3984 -74.2676 81.6895 -73.877 79.834 -73.1445 L 14.0137 -47.9004 C 10.5469 -46.582 7.8125 -44.3848 7.8125 -41.2109 C 7.8125 -37.2559 10.791 -35.8398 14.6973 -34.668 L 33.5449 -28.9062 C 36.4746 -27.9785 38.0859 -27.9785 40.1367 -29.8828 L 83.0566 -69.4336 C 83.6426 -69.9707 84.2773 -69.873 84.7168 -69.4336 C 85.1562 -69.043 85.2539 -68.3105 84.7168 -67.7734 L 45.3125 -24.7559 C 43.5547 -22.8027 43.4082 -21.1426 44.2871 -18.1641 L 49.8535 0.195312 C 51.0742 4.29688 52.4902 7.4707 56.4941 7.4707 Z"/>
  </g>
  <g id="Regular-S" transform="matrix(1 0 0 1 1401.53 696)">
   <path d="M 56.1035 7.03125 C 59.1309 7.03125 61.2305 4.39453 62.793 0.390625 L 87.5977 -64.4043 C 88.3789 -66.3574 88.8184 -68.1152 88.8184 -69.5801 C 88.8184 -72.3145 87.1094 -74.0234 84.4238 -74.0234 C 82.959 -74.0234 81.2012 -73.5352 79.248 -72.8027 L 14.0137 -47.7539 C 10.5957 -46.4844 7.8125 -44.3359 7.8125 -41.2598 C 7.8125 -37.4023 10.8398 -36.1328 14.6973 -35.0098 L 34.1797 -29.0527 C 36.9141 -28.2227 38.3301 -28.2227 40.1855 -29.9316 L 82.5195 -69.2383 C 83.0566 -69.7266 83.6914 -69.6289 84.082 -69.2871 C 84.5215 -68.8965 84.5703 -68.2129 84.082 -67.6758 L 44.9707 -25.1465 C 43.3594 -23.3887 43.2129 -22.0703 44.0918 -19.1895 L 49.7559 -0.244141 C 50.9277 3.80859 52.1973 7.03125 56.1035 7.03125 Z"/>
  </g>
  <g id="Light-S" transform="matrix(1 0 0 1 1105.6 696)">
   <path d="M 55.3223 6.39648 C 57.9102 6.39648 59.7168 4.24805 61.0352 0.830078 L 86.2793 -65.1855 C 86.9141 -66.7969 87.2559 -68.1641 87.2559 -69.3359 C 87.2559 -71.6309 85.8398 -73.0469 83.5449 -73.0469 C 82.373 -73.0469 80.957 -72.7051 79.3945 -72.0703 L 13.0859 -46.7285 C 10.0586 -45.5566 7.8125 -43.75 7.8125 -41.1133 C 7.8125 -37.9395 10.2051 -36.8164 13.7207 -35.7422 L 35.3516 -29.1504 C 37.5488 -28.4668 38.8672 -28.5645 40.3809 -29.9805 L 81.9824 -69.0918 C 82.4707 -69.5312 83.0078 -69.4824 83.3496 -69.1895 C 83.7402 -68.8477 83.7402 -68.2617 83.3008 -67.7734 L 44.2871 -26.0742 C 42.9688 -24.6094 42.7734 -23.3398 43.457 -21.0449 L 49.9023 0.195312 C 50.9766 3.85742 52.0996 6.39648 55.3223 6.39648 Z"/>
  </g>
  <g id="Thin-S" transform="matrix(1 0 0 1 809.938 696)">
   <path d="M 54.2969 5.56641 C 56.2988 5.56641 57.666 4.10156 58.7402 1.36719 L 84.5703 -66.2109 C 84.9609 -67.2852 85.1562 -68.2129 85.1562 -68.9941 C 85.1562 -70.752 84.1309 -71.7773 82.373 -71.7773 C 81.5918 -71.7773 80.6641 -71.582 79.5898 -71.1914 L 11.9141 -45.3125 C 9.32617 -44.3359 7.8125 -42.9199 7.8125 -40.9668 C 7.8125 -38.6719 9.42383 -37.6465 12.4512 -36.7188 L 36.9141 -29.248 C 38.3789 -28.8086 39.5996 -29.0527 40.625 -30.0293 L 81.2988 -68.9453 C 81.6895 -69.2871 82.1289 -69.3359 82.4219 -69.043 C 82.7148 -68.75 82.6172 -68.3105 82.2754 -67.9199 L 43.4082 -27.2461 C 42.4805 -26.2207 42.2363 -25.0488 42.6758 -23.5352 L 50.0488 0.78125 C 50.9766 3.85742 52.002 5.56641 54.2969 5.56641 Z"/>
  </g>
  <g id="Ultralight-S" transform="matrix(1 0 0 1 513.764 696)">
   <path d="M 53.7598 5.12695 C 55.4688 5.12695 56.6406 4.00391 57.5684 1.66016 L 83.6426 -66.748 C 83.9844 -67.5781 84.082 -68.2617 84.082 -68.8477 C 84.082 -70.3125 83.252 -71.1426 81.7871 -71.1426 C 81.2012 -71.1426 80.5176 -71.0449 79.6875 -70.7031 L 11.2793 -44.5801 C 8.93555 -43.7012 7.8125 -42.5293 7.8125 -40.8203 C 7.8125 -39.0137 8.98438 -38.0859 11.8164 -37.2559 L 37.6953 -29.3457 C 38.8184 -29.0039 39.9414 -29.2969 40.7715 -30.0781 L 80.957 -68.7988 C 81.2988 -69.1406 81.6406 -69.1895 81.8848 -68.9453 C 82.1777 -68.7012 82.0801 -68.3594 81.7383 -68.0176 L 42.9688 -27.8809 C 42.1875 -27.0508 41.8945 -25.9277 42.2363 -24.8047 L 50.1953 1.12305 C 51.0254 3.90625 51.9043 5.12695 53.7598 5.12695 Z"/>
  </g>
 </g>
</svg>
