<?xml version="1.0" encoding="UTF-8"?>
<!--Generator: Apple Native CoreSVG 123-->
<!DOCTYPE svg
PUBLIC "-//W3C//DTD SVG 1.1//EN"
       "http://www.w3.org/Graphics/SVG/1.1/DTD/svg11.dtd">
<svg version="1.1" xmlns="http://www.w3.org/2000/svg" xmlns:xlink="http://www.w3.org/1999/xlink" width="3300" height="2200">
 <!--glyph: "uni100357.medium", point size: 100.000000, font version: "Version 15.0d7e11", template writer version: "5"-->
 <g id="Notes">
  <rect height="2200" id="artboard" style="fill:white;opacity:1" width="3300" x="0" y="0"/>
  <line id="" style="fill:none;stroke:black;opacity:1;stroke-width:0.5;" x1="263" x2="3036" y1="292" y2="292"/>
  <text style="stroke:none;fill:black;font-family:-apple-system,&quot;SF Pro Display&quot;,&quot;SF Pro Text&quot;,Helvetica,sans-serif;font-weight:bold;" transform="matrix(1 0 0 1 263 322)">Weight/Scale Variations</text>
  <text style="stroke:none;fill:black;font-family:-apple-system,&quot;SF Pro Display&quot;,&quot;SF Pro Text&quot;,Helvetica,sans-serif;text-anchor:middle;" transform="matrix(1 0 0 1 559.711 322)">Ultralight</text>
  <text style="stroke:none;fill:black;font-family:-apple-system,&quot;SF Pro Display&quot;,&quot;SF Pro Text&quot;,Helvetica,sans-serif;text-anchor:middle;" transform="matrix(1 0 0 1 856.422 322)">Thin</text>
  <text style="stroke:none;fill:black;font-family:-apple-system,&quot;SF Pro Display&quot;,&quot;SF Pro Text&quot;,Helvetica,sans-serif;text-anchor:middle;" transform="matrix(1 0 0 1 1153.13 322)">Light</text>
  <text style="stroke:none;fill:black;font-family:-apple-system,&quot;SF Pro Display&quot;,&quot;SF Pro Text&quot;,Helvetica,sans-serif;text-anchor:middle;" transform="matrix(1 0 0 1 1449.84 322)">Regular</text>
  <text style="stroke:none;fill:black;font-family:-apple-system,&quot;SF Pro Display&quot;,&quot;SF Pro Text&quot;,Helvetica,sans-serif;text-anchor:middle;" transform="matrix(1 0 0 1 1746.56 322)">Medium</text>
  <text style="stroke:none;fill:black;font-family:-apple-system,&quot;SF Pro Display&quot;,&quot;SF Pro Text&quot;,Helvetica,sans-serif;text-anchor:middle;" transform="matrix(1 0 0 1 2043.27 322)">Semibold</text>
  <text style="stroke:none;fill:black;font-family:-apple-system,&quot;SF Pro Display&quot;,&quot;SF Pro Text&quot;,Helvetica,sans-serif;text-anchor:middle;" transform="matrix(1 0 0 1 2339.98 322)">Bold</text>
  <text style="stroke:none;fill:black;font-family:-apple-system,&quot;SF Pro Display&quot;,&quot;SF Pro Text&quot;,Helvetica,sans-serif;text-anchor:middle;" transform="matrix(1 0 0 1 2636.69 322)">Heavy</text>
  <text style="stroke:none;fill:black;font-family:-apple-system,&quot;SF Pro Display&quot;,&quot;SF Pro Text&quot;,Helvetica,sans-serif;text-anchor:middle;" transform="matrix(1 0 0 1 2933.4 322)">Black</text>
  <line id="" style="fill:none;stroke:black;opacity:1;stroke-width:0.5;" x1="263" x2="3036" y1="1903" y2="1903"/>
  <g id="" transform="matrix(1 0 0 1 263 1933)">
   <path d="M 9.24805 0.830078 C 13.5547 0.830078 17.1387 -2.74414 17.1387 -7.05078 C 17.1387 -11.3574 13.5449 -14.9316 9.23828 -14.9316 C 4.94141 -14.9316 1.36719 -11.3574 1.36719 -7.05078 C 1.36719 -2.74414 4.95117 0.830078 9.24805 0.830078 Z M 9.24805 -0.654297 C 5.70312 -0.654297 2.87109 -3.49609 2.87109 -7.05078 C 2.87109 -10.6055 5.69336 -13.4473 9.23828 -13.4473 C 12.793 -13.4473 15.6348 -10.6055 15.6445 -7.05078 C 15.6543 -3.49609 12.8027 -0.654297 9.24805 -0.654297 Z M 9.22852 -3.42773 C 9.69727 -3.42773 9.9707 -3.74023 9.9707 -4.25781 L 9.9707 -6.31836 L 12.1973 -6.31836 C 12.6953 -6.31836 13.0371 -6.57227 13.0371 -7.04102 C 13.0371 -7.51953 12.7148 -7.7832 12.1973 -7.7832 L 9.9707 -7.7832 L 9.9707 -10.0098 C 9.9707 -10.5273 9.69727 -10.8496 9.22852 -10.8496 C 8.75977 -10.8496 8.50586 -10.5078 8.50586 -10.0098 L 8.50586 -7.7832 L 6.29883 -7.7832 C 5.78125 -7.7832 5.44922 -7.51953 5.44922 -7.04102 C 5.44922 -6.57227 5.80078 -6.31836 6.29883 -6.31836 L 8.50586 -6.31836 L 8.50586 -4.25781 C 8.50586 -3.75977 8.75977 -3.42773 9.22852 -3.42773 Z"/>
  </g>
  <g id="" transform="matrix(1 0 0 1 281.506 1933)">
   <path d="M 11.709 2.91016 C 17.1582 2.91016 21.6699 -1.60156 21.6699 -7.05078 C 21.6699 -12.4902 17.1484 -17.0117 11.6992 -17.0117 C 6.25977 -17.0117 1.74805 -12.4902 1.74805 -7.05078 C 1.74805 -1.60156 6.26953 2.91016 11.709 2.91016 Z M 11.709 1.25 C 7.09961 1.25 3.41797 -2.44141 3.41797 -7.05078 C 3.41797 -11.6504 7.08984 -15.3516 11.6992 -15.3516 C 16.3086 -15.3516 20 -11.6504 20.0098 -7.05078 C 20.0195 -2.44141 16.3184 1.25 11.709 1.25 Z M 11.6895 -2.41211 C 12.207 -2.41211 12.5195 -2.77344 12.5195 -3.33984 L 12.5195 -6.23047 L 15.5762 -6.23047 C 16.123 -6.23047 16.5039 -6.51367 16.5039 -7.03125 C 16.5039 -7.55859 16.1426 -7.86133 15.5762 -7.86133 L 12.5195 -7.86133 L 12.5195 -10.9277 C 12.5195 -11.5039 12.207 -11.8555 11.6895 -11.8555 C 11.1719 -11.8555 10.8789 -11.4844 10.8789 -10.9277 L 10.8789 -7.86133 L 7.83203 -7.86133 C 7.26562 -7.86133 6.89453 -7.55859 6.89453 -7.03125 C 6.89453 -6.51367 7.28516 -6.23047 7.83203 -6.23047 L 10.8789 -6.23047 L 10.8789 -3.33984 C 10.8789 -2.79297 11.1719 -2.41211 11.6895 -2.41211 Z"/>
  </g>
  <g id="" transform="matrix(1 0 0 1 304.924 1933)">
   <path d="M 14.9707 5.67383 C 21.9336 5.67383 27.6953 -0.078125 27.6953 -7.04102 C 27.6953 -14.0039 21.9238 -19.7559 14.9609 -19.7559 C 8.00781 -19.7559 2.25586 -14.0039 2.25586 -7.04102 C 2.25586 -0.078125 8.01758 5.67383 14.9707 5.67383 Z M 14.9707 3.85742 C 8.93555 3.85742 4.08203 -1.00586 4.08203 -7.04102 C 4.08203 -13.0762 8.92578 -17.9395 14.9609 -17.9395 C 21.0059 -17.9395 25.8594 -13.0762 25.8691 -7.04102 C 25.8789 -1.00586 21.0156 3.85742 14.9707 3.85742 Z M 14.9512 -1.06445 C 15.5176 -1.06445 15.8691 -1.45508 15.8691 -2.06055 L 15.8691 -6.13281 L 20.1074 -6.13281 C 20.6934 -6.13281 21.1133 -6.46484 21.1133 -7.02148 C 21.1133 -7.59766 20.7227 -7.93945 20.1074 -7.93945 L 15.8691 -7.93945 L 15.8691 -12.1875 C 15.8691 -12.8027 15.5176 -13.1934 14.9512 -13.1934 C 14.3848 -13.1934 14.0625 -12.7832 14.0625 -12.1875 L 14.0625 -7.93945 L 9.83398 -7.93945 C 9.21875 -7.93945 8.80859 -7.59766 8.80859 -7.02148 C 8.80859 -6.46484 9.23828 -6.13281 9.83398 -6.13281 L 14.0625 -6.13281 L 14.0625 -2.06055 C 14.0625 -1.47461 14.3848 -1.06445 14.9512 -1.06445 Z"/>
  </g>
  <text style="stroke:none;fill:black;font-family:-apple-system,&quot;SF Pro Display&quot;,&quot;SF Pro Text&quot;,Helvetica,sans-serif;font-weight:bold;" transform="matrix(1 0 0 1 263 1953)">Design Variations</text>
  <text style="stroke:none;fill:black;font-family:-apple-system,&quot;SF Pro Display&quot;,&quot;SF Pro Text&quot;,Helvetica,sans-serif;" transform="matrix(1 0 0 1 263 1971)">Symbols are supported in up to nine weights and three scales.</text>
  <text style="stroke:none;fill:black;font-family:-apple-system,&quot;SF Pro Display&quot;,&quot;SF Pro Text&quot;,Helvetica,sans-serif;" transform="matrix(1 0 0 1 263 1989)">For optimal layout with text and other symbols, vertically align</text>
  <text style="stroke:none;fill:black;font-family:-apple-system,&quot;SF Pro Display&quot;,&quot;SF Pro Text&quot;,Helvetica,sans-serif;" transform="matrix(1 0 0 1 263 2007)">symbols with the adjacent text.</text>
  <rect height="14" id="" style="fill:#00AEEF;stroke:none;opacity:0.4;" width="3" x="776" y="1919"/>
  <g id="" transform="matrix(1 0 0 1 779 1933)">
   <path d="M 10.5273 0 L 12.373 0 L 7.17773 -14.0918 L 5.43945 -14.0918 L 0.244141 0 L 2.08984 0 L 3.50586 -4.0332 L 9.11133 -4.0332 Z M 6.2793 -11.9531 L 6.33789 -11.9531 L 8.59375 -5.52734 L 4.02344 -5.52734 Z"/>
  </g>
  <rect height="14" id="" style="fill:#00AEEF;stroke:none;opacity:0.4;" width="3" x="791.617" y="1919"/>
  <text style="stroke:none;fill:black;font-family:-apple-system,&quot;SF Pro Display&quot;,&quot;SF Pro Text&quot;,Helvetica,sans-serif;font-weight:bold;" transform="matrix(1 0 0 1 776 1953)">Margins</text>
  <text style="stroke:none;fill:black;font-family:-apple-system,&quot;SF Pro Display&quot;,&quot;SF Pro Text&quot;,Helvetica,sans-serif;" transform="matrix(1 0 0 1 776 1971)">Leading and trailing margins on the left and right side of each symbol</text>
  <text style="stroke:none;fill:black;font-family:-apple-system,&quot;SF Pro Display&quot;,&quot;SF Pro Text&quot;,Helvetica,sans-serif;" transform="matrix(1 0 0 1 776 1989)">can be adjusted by modifying the width of the blue rectangles.</text>
  <text style="stroke:none;fill:black;font-family:-apple-system,&quot;SF Pro Display&quot;,&quot;SF Pro Text&quot;,Helvetica,sans-serif;" transform="matrix(1 0 0 1 776 2007)">Modifications are automatically applied proportionally to all</text>
  <text style="stroke:none;fill:black;font-family:-apple-system,&quot;SF Pro Display&quot;,&quot;SF Pro Text&quot;,Helvetica,sans-serif;" transform="matrix(1 0 0 1 776 2025)">scales and weights.</text>
  <g id="" transform="matrix(1 0 0 1 1289 1933)">
   <path d="M 2.83203 3.11523 L 4.375 4.6582 C 5.22461 5.48828 6.19141 5.41992 7.06055 4.46289 L 17.2754 -6.66016 C 17.7051 -6.36719 18.0957 -6.37695 18.5645 -6.47461 L 19.6094 -6.68945 L 20.3027 -5.99609 L 20.2539 -5.47852 C 20.1855 -4.95117 20.3516 -4.53125 20.8496 -4.0332 L 21.6602 -3.22266 C 22.168 -2.71484 22.8223 -2.68555 23.3008 -3.16406 L 26.5527 -6.41602 C 27.0312 -6.89453 27.0117 -7.54883 26.5039 -8.05664 L 25.6836 -8.87695 C 25.1855 -9.375 24.7754 -9.55078 24.2383 -9.47266 L 23.7109 -9.41406 L 23.0566 -10.0781 L 23.3398 -11.2207 C 23.4863 -11.7871 23.3398 -12.2559 22.7148 -12.8613 L 20.3027 -15.2539 C 16.7578 -18.7793 12.2266 -18.6719 9.11133 -15.5371 C 8.69141 -15.1074 8.64258 -14.5215 8.91602 -14.0918 C 9.15039 -13.7207 9.62891 -13.4961 10.2734 -13.6621 C 11.7871 -14.043 13.3008 -13.9258 14.7852 -12.9199 L 14.1602 -11.3379 C 13.9258 -10.752 13.9453 -10.2734 14.1797 -9.83398 L 3.01758 0.439453 C 2.08008 1.30859 1.97266 2.25586 2.83203 3.11523 Z M 10.6738 -15.1465 C 13.3398 -17.1387 16.6504 -16.8262 19.0527 -14.4141 L 21.6797 -11.8066 C 21.9141 -11.5723 21.9434 -11.3867 21.8848 -11.0938 L 21.5039 -9.53125 L 23.0762 -7.95898 L 24.043 -8.04688 C 24.3262 -8.07617 24.4141 -8.05664 24.6387 -7.83203 L 25.2637 -7.20703 L 22.5098 -4.46289 L 21.8848 -5.07812 C 21.6602 -5.30273 21.6406 -5.40039 21.6699 -5.68359 L 21.7578 -6.64062 L 20.1953 -8.20312 L 18.5742 -7.89062 C 18.291 -7.83203 18.1445 -7.83203 17.9102 -8.07617 L 15.7324 -10.2539 C 15.5078 -10.4883 15.4785 -10.625 15.6055 -10.9473 L 16.5527 -13.2227 C 14.9512 -14.7559 12.8418 -15.6055 10.8008 -14.9512 C 10.7129 -14.9219 10.6445 -14.9414 10.6152 -14.9805 C 10.5859 -15.0293 10.5859 -15.0781 10.6738 -15.1465 Z M 4.10156 2.41211 C 3.61328 1.91406 3.78906 1.61133 4.12109 1.30859 L 15.0781 -8.80859 L 16.3086 -7.57812 L 6.15234 3.34961 C 5.84961 3.68164 5.46875 3.7793 5.06836 3.37891 Z"/>
  </g>
  <text style="stroke:none;fill:black;font-family:-apple-system,&quot;SF Pro Display&quot;,&quot;SF Pro Text&quot;,Helvetica,sans-serif;font-weight:bold;" transform="matrix(1 0 0 1 1289 1953)">Exporting</text>
  <text style="stroke:none;fill:black;font-family:-apple-system,&quot;SF Pro Display&quot;,&quot;SF Pro Text&quot;,Helvetica,sans-serif;" transform="matrix(1 0 0 1 1289 1971)">Symbols should be outlined when exporting to ensure the</text>
  <text style="stroke:none;fill:black;font-family:-apple-system,&quot;SF Pro Display&quot;,&quot;SF Pro Text&quot;,Helvetica,sans-serif;" transform="matrix(1 0 0 1 1289 1989)">design is preserved when submitting to Xcode.</text>
  <text id="template-version" style="stroke:none;fill:black;font-family:-apple-system,&quot;SF Pro Display&quot;,&quot;SF Pro Text&quot;,Helvetica,sans-serif;text-anchor:end;" transform="matrix(1 0 0 1 3036 1933)">Template v.1.0</text>
  <text style="stroke:none;fill:black;font-family:-apple-system,&quot;SF Pro Display&quot;,&quot;SF Pro Text&quot;,Helvetica,sans-serif;text-anchor:end;" transform="matrix(1 0 0 1 3036 1951)">Generated from envelope.circle</text>
  <text style="stroke:none;fill:black;font-family:-apple-system,&quot;SF Pro Display&quot;,&quot;SF Pro Text&quot;,Helvetica,sans-serif;text-anchor:end;" transform="matrix(1 0 0 1 3036 1969)">Typeset at 100 points</text>
  <text style="stroke:none;fill:black;font-family:-apple-system,&quot;SF Pro Display&quot;,&quot;SF Pro Text&quot;,Helvetica,sans-serif;" transform="matrix(1 0 0 1 263 726)">Small</text>
  <text style="stroke:none;fill:black;font-family:-apple-system,&quot;SF Pro Display&quot;,&quot;SF Pro Text&quot;,Helvetica,sans-serif;" transform="matrix(1 0 0 1 263 1156)">Medium</text>
  <text style="stroke:none;fill:black;font-family:-apple-system,&quot;SF Pro Display&quot;,&quot;SF Pro Text&quot;,Helvetica,sans-serif;" transform="matrix(1 0 0 1 263 1586)">Large</text>
 </g>
 <g id="Guides">
  <g id="H-reference" style="fill:#27AAE1;stroke:none;" transform="matrix(1 0 0 1 339 696)">
   <path d="M 54.9316 0 L 57.666 0 L 30.5664 -70.459 L 28.0762 -70.459 L 0.976562 0 L 3.66211 0 L 12.9395 -24.4629 L 45.7031 -24.4629 Z M 29.1992 -67.0898 L 29.4434 -67.0898 L 44.8242 -26.709 L 13.8184 -26.709 Z"/>
  </g>
  <line id="Baseline-S" style="fill:none;stroke:#27AAE1;opacity:1;stroke-width:0.577;" x1="263" x2="3036" y1="696" y2="696"/>
  <line id="Capline-S" style="fill:none;stroke:#27AAE1;opacity:1;stroke-width:0.577;" x1="263" x2="3036" y1="625.541" y2="625.541"/>
  <g id="H-reference" style="fill:#27AAE1;stroke:none;" transform="matrix(1 0 0 1 339 1126)">
   <path d="M 54.9316 0 L 57.666 0 L 30.5664 -70.459 L 28.0762 -70.459 L 0.976562 0 L 3.66211 0 L 12.9395 -24.4629 L 45.7031 -24.4629 Z M 29.1992 -67.0898 L 29.4434 -67.0898 L 44.8242 -26.709 L 13.8184 -26.709 Z"/>
  </g>
  <line id="Baseline-M" style="fill:none;stroke:#27AAE1;opacity:1;stroke-width:0.577;" x1="263" x2="3036" y1="1126" y2="1126"/>
  <line id="Capline-M" style="fill:none;stroke:#27AAE1;opacity:1;stroke-width:0.577;" x1="263" x2="3036" y1="1055.54" y2="1055.54"/>
  <g id="H-reference" style="fill:#27AAE1;stroke:none;" transform="matrix(1 0 0 1 339 1556)">
   <path d="M 54.9316 0 L 57.666 0 L 30.5664 -70.459 L 28.0762 -70.459 L 0.976562 0 L 3.66211 0 L 12.9395 -24.4629 L 45.7031 -24.4629 Z M 29.1992 -67.0898 L 29.4434 -67.0898 L 44.8242 -26.709 L 13.8184 -26.709 Z"/>
  </g>
  <line id="Baseline-L" style="fill:none;stroke:#27AAE1;opacity:1;stroke-width:0.577;" x1="263" x2="3036" y1="1556" y2="1556"/>
  <line id="Capline-L" style="fill:none;stroke:#27AAE1;opacity:1;stroke-width:0.577;" x1="263" x2="3036" y1="1485.54" y2="1485.54"/>
  <rect height="119.336" id="left-margin" style="fill:#00AEEF;stroke:none;opacity:0.4;" width="8.74023" x="1391.3" y="1030.79"/>
  <rect height="119.336" id="right-margin" style="fill:#00AEEF;stroke:none;opacity:0.4;" width="8.74023" x="1499.65" y="1030.79"/>
 </g>
 <g id="Symbols">
  <g id="Black-L" transform="matrix(1 0 0 1 2854.05 1556)">
   <path d="M 79.3457 32.8613 C 116.748 32.8613 147.412 2.19727 147.412 -35.2051 C 147.412 -72.6074 116.748 -103.271 79.2969 -103.271 C 41.8945 -103.271 11.2793 -72.6074 11.2793 -35.2051 C 11.2793 2.19727 41.9434 32.8613 79.3457 32.8613 Z M 79.3457 12.4023 C 52.9785 12.4023 31.7383 -8.83789 31.7383 -35.2051 C 31.7383 -61.5723 52.9297 -82.8125 79.2969 -82.8125 C 105.664 -82.8125 126.953 -61.5723 126.953 -35.2051 C 127.002 -8.83789 105.713 12.4023 79.3457 12.4023 Z M 79.2969 -33.7402 C 80.4688 -33.7402 81.543 -34.3262 82.8125 -35.5957 L 106.348 -59.1797 C 105.273 -59.8633 103.516 -60.3027 101.074 -60.3027 L 57.5195 -60.3027 C 55.127 -60.3027 53.2715 -59.8633 52.2461 -59.1797 L 75.8301 -35.5957 C 77.0996 -34.2773 78.1738 -33.7402 79.2969 -33.7402 Z M 67.8711 -35.7422 L 48.3887 -55.0781 C 47.7539 -54.0527 47.3633 -52.2949 47.3633 -49.9023 L 47.3633 -20.5078 C 47.3633 -18.4082 47.6074 -16.8457 48.0957 -15.918 Z M 90.7227 -35.7422 L 110.449 -15.918 C 110.986 -16.8457 111.23 -18.4082 111.23 -20.5078 L 111.23 -49.9023 C 111.23 -52.2949 110.84 -54.0527 110.205 -55.0781 Z M 79.2969 -27.7832 C 77.002 -27.7832 75.0977 -28.6133 73.1445 -30.5176 L 71.8262 -31.7871 L 51.5625 -11.5234 C 52.6855 -10.6445 54.6875 -10.1074 57.4219 -10.1074 L 101.172 -10.1074 C 103.857 -10.1074 105.859 -10.6445 107.031 -11.5234 L 86.7676 -31.7871 L 85.4492 -30.5176 C 83.4961 -28.6133 81.5918 -27.7832 79.2969 -27.7832 Z"/>
  </g>
  <g id="Heavy-L" transform="matrix(1 0 0 1 2558.39 1556)">
   <path d="M 78.2715 31.7871 C 115.088 31.7871 145.312 1.61133 145.312 -35.2051 C 145.312 -72.0215 115.039 -102.197 78.2715 -102.197 C 41.4551 -102.197 11.2793 -72.0215 11.2793 -35.2051 C 11.2793 1.61133 41.5039 31.7871 78.2715 31.7871 Z M 78.2715 14.0137 C 51.0254 14.0137 29.0527 -7.95898 29.0527 -35.2051 C 29.0527 -62.5 50.9766 -84.4727 78.2715 -84.4727 C 105.518 -84.4727 127.49 -62.5 127.539 -35.2051 C 127.539 -7.95898 105.566 14.0137 78.2715 14.0137 Z M 78.2715 -33.2031 C 79.4434 -33.2031 80.5176 -33.7402 81.7383 -34.9609 L 106.396 -59.668 C 105.371 -60.3516 103.564 -60.8398 101.074 -60.8398 L 55.4199 -60.8398 C 52.9297 -60.8398 51.0742 -60.3516 50.0977 -59.668 L 74.7559 -34.9609 C 76.0254 -33.6914 77.0996 -33.2031 78.2715 -33.2031 Z M 66.6504 -35.5957 L 46.4844 -55.6152 C 45.8984 -54.6875 45.5078 -52.9785 45.5078 -50.6348 L 45.5078 -19.7754 C 45.5078 -17.627 45.8008 -16.1133 46.2891 -15.1855 Z M 89.7949 -35.5957 L 110.107 -15.1855 C 110.645 -16.1133 110.889 -17.627 110.889 -19.7754 L 110.889 -50.6348 C 110.889 -52.9785 110.547 -54.6875 109.961 -55.6152 Z M 78.2227 -27.5879 C 75.9766 -27.5879 74.0723 -28.418 72.0215 -30.3711 L 70.5078 -31.8359 L 49.6094 -10.9375 C 50.6836 -10.1074 52.6367 -9.57031 55.3223 -9.57031 L 101.172 -9.57031 C 103.857 -9.57031 105.811 -10.1074 106.836 -10.9375 L 85.9375 -31.8359 L 84.4238 -30.3711 C 82.373 -28.418 80.5176 -27.5879 78.2227 -27.5879 Z"/>
  </g>
  <g id="Bold-L" transform="matrix(1 0 0 1 2262.88 1556)">
   <path d="M 77.0996 30.6152 C 113.232 30.6152 142.92 0.878906 142.92 -35.2051 C 142.92 -71.3379 113.184 -101.025 77.0508 -101.025 C 40.9668 -101.025 11.2793 -71.3379 11.2793 -35.2051 C 11.2793 0.878906 41.0156 30.6152 77.0996 30.6152 Z M 77.0996 15.8691 C 48.8281 15.8691 26.0742 -6.93359 26.0742 -35.2051 C 26.0742 -63.4766 48.7793 -86.2793 77.0508 -86.2793 C 105.371 -86.2793 128.125 -63.4766 128.174 -35.2051 C 128.174 -6.93359 105.371 15.8691 77.0996 15.8691 Z M 77.0996 -32.6172 C 78.2227 -32.6172 79.3945 -33.1055 80.6152 -34.3262 L 106.445 -60.2051 C 105.518 -60.8887 103.662 -61.4258 101.123 -61.4258 L 53.0273 -61.4258 C 50.4395 -61.4258 48.584 -60.8887 47.6562 -60.2051 L 73.5352 -34.3262 C 74.7559 -33.0566 75.9277 -32.6172 77.0996 -32.6172 Z M 65.2344 -35.4004 L 44.3359 -56.2012 C 43.7988 -55.3711 43.5059 -53.7598 43.5059 -51.4648 L 43.5059 -18.9941 C 43.5059 -16.7969 43.75 -15.2344 44.2383 -14.4043 Z M 88.7695 -35.4004 L 109.766 -14.4043 C 110.254 -15.2344 110.498 -16.7969 110.498 -18.9941 L 110.498 -51.4648 C 110.498 -53.7598 110.205 -55.3711 109.668 -56.2012 Z M 77.0508 -27.3438 C 74.8047 -27.3438 72.9004 -28.2227 70.8008 -30.2246 L 69.043 -31.8848 L 47.4609 -10.3027 C 48.3887 -9.47266 50.293 -8.98438 52.9785 -8.98438 L 101.123 -8.98438 C 103.809 -8.98438 105.664 -9.47266 106.641 -10.3027 L 85.0586 -31.8848 L 83.3008 -30.2246 C 81.1523 -28.2227 79.2969 -27.3438 77.0508 -27.3438 Z"/>
  </g>
  <g id="Semibold-L" transform="matrix(1 0 0 1 1966.97 1556)">
   <path d="M 76.2695 29.7852 C 111.914 29.7852 141.309 0.439453 141.309 -35.2051 C 141.309 -70.8496 111.865 -100.244 76.2695 -100.244 C 40.625 -100.244 11.2793 -70.8496 11.2793 -35.2051 C 11.2793 0.439453 40.6738 29.7852 76.2695 29.7852 Z M 76.2695 17.0898 C 47.3145 17.0898 24.0234 -6.25 24.0234 -35.2051 C 24.0234 -64.209 47.2656 -87.5 76.2695 -87.5 C 105.225 -87.5 128.564 -64.209 128.613 -35.2051 C 128.662 -6.25 105.273 17.0898 76.2695 17.0898 Z M 76.2695 -32.1777 C 77.3926 -32.1777 78.6133 -32.666 79.834 -33.8867 L 106.494 -60.5957 C 105.615 -61.2793 103.76 -61.8652 101.123 -61.8652 L 51.416 -61.8652 C 48.7305 -61.8652 46.875 -61.2793 45.9961 -60.5957 L 72.7051 -33.8867 C 73.9258 -32.6172 75.1465 -32.1777 76.2695 -32.1777 Z M 64.3066 -35.2539 L 42.8223 -56.6406 C 42.3828 -55.8594 42.0898 -54.248 42.0898 -52.002 L 42.0898 -18.457 C 42.0898 -16.2109 42.334 -14.6484 42.8711 -13.8184 Z M 88.0371 -35.2539 L 109.473 -13.8184 C 110.01 -14.6484 110.254 -16.2109 110.254 -18.457 L 110.254 -52.002 C 110.254 -54.248 109.961 -55.8594 109.521 -56.6406 Z M 76.2207 -27.1973 C 73.9746 -27.1973 72.1191 -28.0762 69.9707 -30.0781 L 68.0176 -31.9336 L 45.9473 -9.86328 C 46.8262 -9.08203 48.6816 -8.59375 51.3672 -8.59375 L 101.123 -8.59375 C 103.809 -8.59375 105.615 -9.08203 106.494 -9.86328 L 84.4727 -31.9336 L 82.5195 -30.0781 C 80.3223 -28.0762 78.4668 -27.1973 76.2207 -27.1973 Z"/>
  </g>
  <g id="Medium-L" transform="matrix(1 0 0 1 1670.87 1556)">
   <path d="M 75.6836 29.1992 C 110.938 29.1992 140.088 0.0488281 140.088 -35.2051 C 140.088 -70.459 110.889 -99.6094 75.6348 -99.6094 C 40.3809 -99.6094 11.2793 -70.459 11.2793 -35.2051 C 11.2793 0.0488281 40.3809 29.1992 75.6836 29.1992 Z M 75.6836 18.0664 C 46.1426 18.0664 22.4609 -5.71289 22.4609 -35.2051 C 22.4609 -64.6973 46.1426 -88.4766 75.6348 -88.4766 C 105.127 -88.4766 128.906 -64.6973 128.906 -35.2051 C 128.955 -5.71289 105.176 18.0664 75.6836 18.0664 Z M 75.6348 -31.8848 C 76.8066 -31.8848 78.0273 -32.3242 79.1992 -33.5449 L 106.543 -60.8398 C 105.664 -61.5723 103.809 -62.1582 101.123 -62.1582 L 50.1465 -62.1582 C 47.4609 -62.1582 45.6055 -61.5723 44.7266 -60.8398 L 72.0703 -33.5449 C 73.291 -32.2754 74.5117 -31.8848 75.6348 -31.8848 Z M 63.5742 -35.1562 L 41.6992 -56.9824 C 41.2598 -56.25 41.0156 -54.6875 41.0156 -52.4414 L 41.0156 -18.0176 C 41.0156 -15.7715 41.2598 -14.209 41.7969 -13.4277 Z M 87.5 -35.1562 L 109.277 -13.4277 C 109.766 -14.209 110.059 -15.7715 110.059 -18.0176 L 110.059 -52.4414 C 110.059 -54.6875 109.814 -56.25 109.375 -56.9824 Z M 75.5859 -27.0996 C 73.3887 -27.0996 71.5332 -27.9297 69.2871 -29.9805 L 67.2363 -31.9336 L 44.8242 -9.52148 C 45.6543 -8.74023 47.4609 -8.30078 50.1465 -8.30078 L 101.074 -8.30078 C 103.76 -8.30078 105.566 -8.74023 106.396 -9.52148 L 83.9844 -31.9336 L 81.9336 -29.9805 C 79.6875 -27.9297 77.832 -27.0996 75.5859 -27.0996 Z"/>
  </g>
  <g id="Regular-L" transform="matrix(1 0 0 1 1374.97 1556)">
   <path d="M 74.8535 28.3691 C 109.668 28.3691 138.477 -0.390625 138.477 -35.2051 C 138.477 -70.0195 109.619 -98.7793 74.8047 -98.7793 C 40.0391 -98.7793 11.2793 -70.0195 11.2793 -35.2051 C 11.2793 -0.390625 40.0879 28.3691 74.8535 28.3691 Z M 74.8535 19.2871 C 44.6777 19.2871 20.4102 -5.0293 20.4102 -35.2051 C 20.4102 -65.3809 44.6289 -89.6973 74.8047 -89.6973 C 105.029 -89.6973 129.297 -65.3809 129.346 -35.2051 C 129.395 -5.0293 105.078 19.2871 74.8535 19.2871 Z M 74.8535 -31.4453 C 75.9766 -31.4453 77.2461 -31.8848 78.418 -33.0566 L 106.543 -61.2305 C 105.762 -61.9141 103.857 -62.5488 101.123 -62.5488 L 48.5352 -62.5488 C 45.8008 -62.5488 43.8965 -61.9141 43.0664 -61.2305 L 71.2402 -33.0566 C 72.4609 -31.8359 73.7305 -31.4453 74.8535 -31.4453 Z M 62.5977 -35.0586 L 40.2344 -57.373 C 39.8438 -56.7383 39.6484 -55.2246 39.6484 -52.9785 L 39.6484 -17.4805 C 39.6484 -15.2344 39.8926 -13.623 40.3809 -12.8418 Z M 86.8164 -35.0586 L 109.033 -12.8418 C 109.521 -13.623 109.766 -15.2344 109.766 -17.4805 L 109.766 -52.9785 C 109.766 -55.2246 109.57 -56.7383 109.18 -57.373 Z M 74.8047 -26.9531 C 72.5586 -26.9531 70.752 -27.7832 68.457 -29.8828 L 66.2109 -31.9824 L 43.3105 -9.13086 C 44.0918 -8.34961 45.8496 -7.91016 48.5352 -7.91016 L 101.074 -7.91016 C 103.76 -7.91016 105.469 -8.34961 106.299 -9.13086 L 83.3984 -31.9824 L 81.1523 -29.8828 C 78.8574 -27.7832 77.0508 -26.9531 74.8047 -26.9531 Z"/>
  </g>
  <g id="Light-L" transform="matrix(1 0 0 1 1079.18 1556)">
   <path d="M 73.9258 27.4902 C 108.301 27.4902 136.621 -0.830078 136.621 -35.1562 C 136.621 -69.5312 108.252 -97.8516 73.9258 -97.8516 C 39.5508 -97.8516 11.2793 -69.5312 11.2793 -35.1562 C 11.2793 -0.830078 39.5996 27.4902 73.9258 27.4902 Z M 73.9258 20.6055 C 43.1152 20.6055 18.2129 -4.3457 18.2129 -35.1562 C 18.2129 -66.0156 43.0664 -90.918 73.9258 -90.918 C 104.736 -90.918 129.688 -66.0156 129.736 -35.1562 C 129.736 -4.3457 104.785 20.6055 73.9258 20.6055 Z M 73.9746 -30.957 C 75.1465 -30.957 76.5625 -31.4941 77.6855 -32.6172 L 106.25 -61.1816 C 105.469 -62.0117 103.516 -62.6465 100.635 -62.6465 L 47.2656 -62.6465 C 44.3848 -62.6465 42.4316 -62.0117 41.6504 -61.1816 L 70.166 -32.6172 C 71.3867 -31.4453 72.7539 -30.957 73.9746 -30.957 Z M 62.0605 -34.9121 L 39.1113 -57.8613 C 38.6719 -57.1777 38.4277 -55.6152 38.4277 -53.418 L 38.4277 -17.041 C 38.4277 -14.6973 38.7207 -13.0859 39.3555 -12.2559 Z M 85.498 -34.9121 L 108.252 -12.2559 C 108.838 -13.0859 109.18 -14.6973 109.18 -17.041 L 109.18 -53.418 C 109.18 -55.6152 108.887 -57.1777 108.496 -57.8613 Z M 73.9258 -27.0996 C 71.7285 -27.0996 69.873 -27.9785 67.8223 -29.8828 L 65.2344 -32.2754 L 41.9434 -8.98438 C 42.7734 -8.1543 44.4824 -7.76367 47.2656 -7.76367 L 100.586 -7.76367 C 103.369 -7.76367 105.078 -8.1543 105.908 -8.98438 L 82.6172 -32.2754 L 80.0781 -29.8828 C 77.9785 -27.9785 76.123 -27.0996 73.9258 -27.0996 Z"/>
  </g>
  <g id="Thin-L" transform="matrix(1 0 0 1 783.693 1556)">
   <path d="M 72.7051 26.3184 C 106.494 26.3184 134.18 -1.36719 134.18 -35.1074 C 134.18 -68.8965 106.494 -96.582 72.7051 -96.582 C 38.9648 -96.582 11.2793 -68.8965 11.2793 -35.1074 C 11.2793 -1.36719 38.9648 26.3184 72.7051 26.3184 Z M 72.7051 22.3145 C 41.0156 22.3145 15.2832 -3.41797 15.2832 -35.1074 C 15.2832 -66.8457 41.0156 -92.5781 72.7051 -92.5781 C 104.395 -92.5781 130.176 -66.8457 130.176 -35.1074 C 130.176 -3.41797 104.443 22.3145 72.7051 22.3145 Z M 72.8027 -30.2734 C 74.0723 -30.2734 75.6348 -30.9082 76.7578 -32.0312 L 105.859 -61.1816 C 105.078 -62.1094 103.027 -62.793 100 -62.793 L 45.6055 -62.793 C 42.5781 -62.793 40.4785 -62.1094 39.6973 -61.1816 L 68.7988 -32.0312 C 69.9707 -30.9082 71.5332 -30.2734 72.8027 -30.2734 Z M 61.3281 -34.7656 L 37.5977 -58.4961 C 37.1094 -57.7148 36.8164 -56.2012 36.8164 -53.9551 L 36.8164 -16.4551 C 36.8164 -14.0625 37.1582 -12.3535 37.9395 -11.4258 Z M 83.7891 -34.7656 L 107.178 -11.4258 C 107.959 -12.3535 108.301 -14.0625 108.301 -16.4551 L 108.301 -53.9551 C 108.301 -56.2012 108.008 -57.7148 107.568 -58.4961 Z M 72.8027 -27.3438 C 70.6543 -27.3438 68.7012 -28.2227 66.9434 -29.8828 L 63.9648 -32.666 L 40.1367 -8.83789 C 41.0156 -7.91016 42.7246 -7.56836 45.6055 -7.56836 L 100 -7.56836 C 102.832 -7.56836 104.541 -7.91016 105.42 -8.83789 L 81.5918 -32.666 L 78.6621 -29.8828 C 76.8555 -28.2227 74.9023 -27.3438 72.8027 -27.3438 Z"/>
  </g>
  <g id="Ultralight-L" transform="matrix(1 0 0 1 487.616 1556)">
   <path d="M 72.1191 25.7324 C 105.566 25.7324 132.91 -1.61133 132.91 -35.1074 C 132.91 -68.5547 105.566 -95.8984 72.1191 -95.8984 C 38.623 -95.8984 11.2793 -68.5547 11.2793 -35.1074 C 11.2793 -1.61133 38.623 25.7324 72.1191 25.7324 Z M 72.1191 23.2422 C 39.9414 23.2422 13.7695 -2.97852 13.7695 -35.1074 C 13.7695 -67.2363 39.9414 -93.4082 72.1191 -93.4082 C 104.248 -93.4082 130.42 -67.2363 130.42 -35.1074 C 130.42 -2.97852 104.248 23.2422 72.1191 23.2422 Z M 72.168 -29.9805 C 73.4863 -29.9805 75.1465 -30.6152 76.2695 -31.7383 L 105.664 -61.1816 C 104.883 -62.1582 102.734 -62.8906 99.6582 -62.8906 L 44.7266 -62.8906 C 41.6504 -62.8906 39.502 -62.1582 38.7207 -61.1816 L 68.1152 -31.7383 C 69.2383 -30.6152 70.8984 -29.9805 72.168 -29.9805 Z M 60.9375 -34.668 L 36.8164 -58.8379 C 36.3281 -58.0078 35.9863 -56.4941 35.9863 -54.1992 L 35.9863 -16.1621 C 35.9863 -13.7207 36.377 -12.0117 37.2559 -11.0352 Z M 82.9102 -34.668 L 106.641 -11.0352 C 107.471 -12.0117 107.91 -13.7207 107.91 -16.1621 L 107.91 -54.1992 C 107.91 -56.4941 107.568 -58.0078 107.08 -58.8379 Z M 72.2168 -27.4414 C 70.1172 -27.4414 68.0664 -28.3203 66.4551 -29.8828 L 63.3301 -32.8613 L 39.209 -8.78906 C 40.1367 -7.76367 41.7969 -7.4707 44.7266 -7.4707 L 99.6582 -7.4707 C 102.588 -7.4707 104.297 -7.76367 105.176 -8.78906 L 81.0547 -32.8613 L 77.9297 -29.8828 C 76.3184 -28.3203 74.2676 -27.4414 72.2168 -27.4414 Z"/>
  </g>
  <g id="Black-M" transform="matrix(1 0 0 1 2870.97 1126)">
   <path d="M 62.4023 18.457 C 91.9922 18.457 116.113 -5.61523 116.113 -35.2051 C 116.113 -64.7949 91.9922 -88.8672 62.4023 -88.8672 C 32.8125 -88.8672 8.74023 -64.7949 8.74023 -35.2051 C 8.74023 -5.61523 32.8125 18.457 62.4023 18.457 Z M 62.4023 0.195312 C 42.8711 0.195312 27.002 -15.625 27.002 -35.2051 C 27.002 -54.7363 42.8711 -70.6055 62.4023 -70.6055 C 81.9824 -70.6055 97.8027 -54.7363 97.8027 -35.2051 C 97.8027 -15.625 81.9824 0.195312 62.4023 0.195312 Z M 62.4023 -34.5703 C 63.3789 -34.5703 64.1602 -35.0586 65.1855 -36.0352 L 82.2266 -53.1738 C 81.25 -53.7109 79.8828 -54.0527 78.0762 -54.0527 L 46.7285 -54.0527 C 44.9707 -54.0527 43.5059 -53.7109 42.627 -53.1738 L 59.668 -36.0352 C 60.6445 -35.0586 61.4746 -34.5703 62.4023 -34.5703 Z M 53.9551 -35.791 L 39.502 -50.0977 C 38.8672 -49.1699 38.4766 -47.7539 38.4766 -45.8496 L 38.4766 -24.5605 C 38.4766 -22.9004 38.7207 -21.7285 39.209 -20.8984 Z M 70.8496 -35.791 L 85.6445 -20.8984 C 86.084 -21.7285 86.3281 -22.9004 86.3281 -24.5605 L 86.3281 -45.8496 C 86.3281 -47.7539 85.9863 -49.1699 85.3516 -50.0977 Z M 62.4023 -29.7852 C 60.6934 -29.7852 59.1309 -30.4688 57.8125 -31.7871 L 56.9824 -32.666 L 41.8457 -17.5781 C 42.8711 -16.7969 44.4824 -16.3574 46.6309 -16.3574 L 78.2227 -16.3574 C 80.3223 -16.3574 81.9824 -16.7969 82.959 -17.5781 L 67.8711 -32.666 L 67.041 -31.7871 C 65.7227 -30.4688 64.1602 -29.7852 62.4023 -29.7852 Z"/>
  </g>
  <g id="Heavy-M" transform="matrix(1 0 0 1 2575.19 1126)">
   <path d="M 61.5234 17.5781 C 90.5273 17.5781 114.258 -6.15234 114.258 -35.2051 C 114.258 -64.2578 90.5273 -87.9883 61.4746 -87.9883 C 32.4707 -87.9883 8.74023 -64.2578 8.74023 -35.2051 C 8.74023 -6.15234 32.4707 17.5781 61.5234 17.5781 Z M 61.5234 1.66016 C 41.1133 1.66016 24.6582 -14.8438 24.6582 -35.2051 C 24.6582 -55.5664 41.1133 -72.0703 61.4746 -72.0703 C 81.8848 -72.0703 98.3398 -55.5664 98.3398 -35.2051 C 98.3398 -14.8438 81.8848 1.66016 61.5234 1.66016 Z M 61.4746 -34.082 C 62.4023 -34.082 63.2324 -34.5215 64.209 -35.5469 L 82.3242 -53.6621 C 81.4453 -54.248 80.0781 -54.5898 78.2227 -54.5898 L 44.7754 -54.5898 C 42.9199 -54.5898 41.4551 -54.248 40.625 -53.6621 L 58.7402 -35.5469 C 59.7656 -34.5215 60.5957 -34.082 61.4746 -34.082 Z M 52.7832 -35.6445 L 37.6953 -50.5859 C 37.1582 -49.7559 36.8164 -48.3887 36.8164 -46.5332 L 36.8164 -23.877 C 36.8164 -22.2168 37.0605 -21.0449 37.4512 -20.2637 Z M 70.166 -35.6445 L 85.498 -20.2637 C 85.8887 -21.0449 86.1328 -22.2168 86.1328 -23.877 L 86.1328 -46.5332 C 86.1328 -48.3887 85.791 -49.7559 85.2539 -50.5859 Z M 61.4746 -29.541 C 59.7168 -29.541 58.2031 -30.2246 56.7871 -31.6406 L 55.7617 -32.6172 L 40.0879 -16.9434 C 41.0156 -16.2598 42.5781 -15.8203 44.6777 -15.8203 L 78.3203 -15.8203 C 80.4199 -15.8203 81.9824 -16.2598 82.8613 -16.9434 L 67.2363 -32.6172 L 66.1621 -31.6406 C 64.7461 -30.2246 63.2324 -29.541 61.4746 -29.541 Z"/>
  </g>
  <g id="Bold-M" transform="matrix(1 0 0 1 2279.5 1126)">
   <path d="M 60.498 16.5039 C 88.8672 16.5039 112.207 -6.78711 112.207 -35.2051 C 112.207 -63.623 88.8672 -86.9629 60.4492 -86.9629 C 32.0312 -86.9629 8.74023 -63.623 8.74023 -35.2051 C 8.74023 -6.78711 32.0801 16.5039 60.498 16.5039 Z M 60.498 3.22266 C 39.1602 3.22266 22.0703 -13.916 22.0703 -35.2051 C 22.0703 -56.4941 39.1602 -73.6816 60.4492 -73.6816 C 81.7383 -73.6816 98.9258 -56.4941 98.9258 -35.2051 C 98.9746 -13.916 81.7871 3.22266 60.498 3.22266 Z M 60.4492 -33.5938 C 61.377 -33.5938 62.207 -33.9844 63.1836 -34.9121 L 82.4707 -54.248 C 81.6895 -54.7852 80.2734 -55.1758 78.3691 -55.1758 L 42.5293 -55.1758 C 40.625 -55.1758 39.1602 -54.7852 38.4277 -54.248 L 57.7148 -34.9121 C 58.6914 -33.9355 59.5703 -33.5938 60.4492 -33.5938 Z M 51.416 -35.4492 L 35.6934 -51.123 C 35.2051 -50.3906 34.9609 -49.1211 34.9609 -47.3145 L 34.9609 -23.1445 C 34.9609 -21.4355 35.1562 -20.2637 35.5469 -19.5801 Z M 69.4336 -35.4492 L 85.3027 -19.5801 C 85.6934 -20.2637 85.8887 -21.4355 85.8887 -23.1445 L 85.8887 -47.3145 C 85.8887 -49.1211 85.6445 -50.3906 85.1562 -51.123 Z M 60.4492 -29.248 C 58.6914 -29.248 57.2266 -29.9316 55.6152 -31.4453 L 54.3945 -32.6172 L 38.0859 -16.3086 C 38.916 -15.625 40.3809 -15.2344 42.4805 -15.2344 L 78.418 -15.2344 C 80.4688 -15.2344 81.9824 -15.625 82.7637 -16.3086 L 66.4551 -32.6172 L 65.2344 -31.4453 C 63.6719 -29.9316 62.207 -29.248 60.4492 -29.248 Z"/>
  </g>
  <g id="Semibold-M" transform="matrix(1 0 0 1 1983.5 1126)">
   <path d="M 59.7656 15.8203 C 87.7441 15.8203 110.791 -7.22656 110.791 -35.2051 C 110.791 -63.1836 87.6953 -86.2793 59.7656 -86.2793 C 31.7871 -86.2793 8.74023 -63.1836 8.74023 -35.2051 C 8.74023 -7.22656 31.7871 15.8203 59.7656 15.8203 Z M 59.7656 4.3457 C 37.8418 4.3457 20.2637 -13.2812 20.2637 -35.2051 C 20.2637 -57.1289 37.793 -74.8047 59.7656 -74.8047 C 81.6895 -74.8047 99.3164 -57.1289 99.3652 -35.2051 C 99.3652 -13.2812 81.6895 4.3457 59.7656 4.3457 Z M 59.7656 -33.2031 C 60.6445 -33.2031 61.5234 -33.5938 62.4512 -34.5215 L 82.5684 -54.6875 C 81.8359 -55.1758 80.4688 -55.6152 78.4668 -55.6152 L 41.0156 -55.6152 C 39.0137 -55.6152 37.5977 -55.1758 36.9141 -54.6875 L 57.0312 -34.5215 C 58.0078 -33.5449 58.8867 -33.2031 59.7656 -33.2031 Z M 50.4883 -35.3516 L 34.2773 -51.4648 C 33.8867 -50.8789 33.6426 -49.6094 33.6426 -47.8516 L 33.6426 -22.6074 C 33.6426 -20.9473 33.8379 -19.7266 34.2285 -19.0918 Z M 68.8965 -35.3516 L 85.1562 -19.0918 C 85.5469 -19.7266 85.7422 -20.9473 85.7422 -22.6074 L 85.7422 -47.8516 C 85.7422 -49.6094 85.498 -50.8789 85.1074 -51.4648 Z M 59.7168 -29.0527 C 57.959 -29.0527 56.543 -29.7363 54.834 -31.2988 L 53.4668 -32.5684 L 36.7188 -15.8691 C 37.4512 -15.2344 38.916 -14.8438 40.9668 -14.8438 L 78.4668 -14.8438 C 80.5176 -14.8438 81.9824 -15.2344 82.7148 -15.8691 L 65.9668 -32.5684 L 64.5996 -31.2988 C 62.8906 -29.7363 61.4746 -29.0527 59.7168 -29.0527 Z"/>
  </g>
  <g id="Medium-M" transform="matrix(1 0 0 1 1687.3 1126)">
   <path d="M 59.2285 15.2832 C 86.9141 15.2832 109.766 -7.56836 109.766 -35.2051 C 109.766 -62.8906 86.8652 -85.7422 59.1797 -85.7422 C 31.543 -85.7422 8.74023 -62.8906 8.74023 -35.2051 C 8.74023 -7.56836 31.5918 15.2832 59.2285 15.2832 Z M 59.2285 5.17578 C 36.8164 5.17578 18.8965 -12.8418 18.8965 -35.2051 C 18.8965 -57.6172 36.8164 -75.6348 59.1797 -75.6348 C 81.5918 -75.6348 99.6094 -57.6172 99.6582 -35.2051 C 99.707 -12.8418 81.6406 5.17578 59.2285 5.17578 Z M 59.2285 -32.959 C 60.0586 -32.959 60.9863 -33.3008 61.9141 -34.2285 L 82.666 -54.9805 C 81.9824 -55.4688 80.5664 -55.9082 78.5156 -55.9082 L 39.8438 -55.9082 C 37.8418 -55.9082 36.4258 -55.4688 35.7422 -54.9805 L 56.4941 -34.2285 C 57.4707 -33.252 58.3496 -32.959 59.2285 -32.959 Z M 49.7559 -35.2539 L 33.2031 -51.7578 C 32.8613 -51.2207 32.666 -49.9512 32.666 -48.2422 L 32.666 -22.2168 C 32.666 -20.5078 32.8613 -19.3359 33.2031 -18.7012 Z M 68.5059 -35.2539 L 85.0586 -18.7012 C 85.4004 -19.3359 85.5957 -20.5078 85.5957 -22.2168 L 85.5957 -48.2422 C 85.5957 -49.9512 85.4004 -51.2207 85.0586 -51.7578 Z M 59.1797 -28.9062 C 57.4219 -28.9062 56.0059 -29.541 54.248 -31.2012 L 52.7832 -32.5684 L 35.6934 -15.4785 C 36.377 -14.8926 37.793 -14.5508 39.8438 -14.5508 L 78.5156 -14.5508 C 80.5664 -14.5508 81.9824 -14.8926 82.666 -15.4785 L 65.5762 -32.5684 L 64.1113 -31.2012 C 62.3535 -29.541 60.9375 -28.9062 59.1797 -28.9062 Z"/>
  </g>
  <g id="Regular-M" transform="matrix(1 0 0 1 1391.3 1126)">
   <path d="M 58.5449 14.5508 C 85.791 14.5508 108.35 -8.00781 108.35 -35.2539 C 108.35 -62.4512 85.7422 -85.0586 58.4961 -85.0586 C 31.2988 -85.0586 8.74023 -62.4512 8.74023 -35.2539 C 8.74023 -8.00781 31.3477 14.5508 58.5449 14.5508 Z M 58.5449 6.25 C 35.498 6.25 17.0898 -12.207 17.0898 -35.2539 C 17.0898 -58.252 35.4492 -76.7578 58.4961 -76.7578 C 81.543 -76.7578 100 -58.252 100.049 -35.2539 C 100.098 -12.207 81.5918 6.25 58.5449 6.25 Z M 58.4961 -32.5684 C 59.375 -32.5684 60.2539 -32.9102 61.1816 -33.8379 L 82.7637 -55.3711 C 82.1289 -55.8594 80.7129 -56.3477 78.6133 -56.3477 L 38.3301 -56.3477 C 36.2793 -56.3477 34.8633 -55.8594 34.2285 -55.3711 L 55.7617 -33.8379 C 56.7383 -32.8613 57.666 -32.5684 58.4961 -32.5684 Z M 48.8281 -35.1562 L 31.8359 -52.1484 C 31.543 -51.6602 31.3965 -50.4883 31.3965 -48.7793 L 31.3965 -21.7285 C 31.3965 -20.0195 31.5918 -18.7988 31.8848 -18.2129 Z M 68.0176 -35.1562 L 84.9609 -18.2129 C 85.2539 -18.7988 85.4492 -20.0195 85.4492 -21.7285 L 85.4492 -48.7793 C 85.4492 -50.4883 85.3027 -51.6602 85.0098 -52.1484 Z M 58.4473 -28.7109 C 56.6895 -28.7109 55.3223 -29.3457 53.418 -31.1035 L 51.8555 -32.5684 L 34.375 -15.0391 C 34.9609 -14.502 36.2793 -14.1602 38.3301 -14.1602 L 78.5645 -14.1602 C 80.6152 -14.1602 81.9824 -14.502 82.5684 -15.0391 L 65.0879 -32.5684 L 63.4766 -31.1035 C 61.5723 -29.3457 60.2051 -28.7109 58.4473 -28.7109 Z"/>
  </g>
  <g id="Light-M" transform="matrix(1 0 0 1 1095.42 1126)">
   <path d="M 57.7148 13.7695 C 84.5215 13.7695 106.689 -8.39844 106.689 -35.2051 C 106.689 -62.0117 84.5215 -84.1797 57.666 -84.1797 C 30.8594 -84.1797 8.74023 -62.0117 8.74023 -35.2051 C 8.74023 -8.39844 30.9082 13.7695 57.7148 13.7695 Z M 57.7148 7.4707 C 34.082 7.4707 15.0879 -11.5723 15.0879 -35.2051 C 15.0879 -58.8379 34.082 -77.832 57.666 -77.832 C 81.2988 -77.832 100.342 -58.8379 100.391 -35.2051 C 100.391 -11.5723 81.3477 7.4707 57.7148 7.4707 Z M 57.7148 -32.1289 C 58.5938 -32.1289 59.6191 -32.5195 60.5469 -33.3984 L 82.4707 -55.3711 C 81.8848 -55.957 80.3711 -56.4453 78.1738 -56.4453 L 37.207 -56.4453 C 35.0098 -56.4453 33.5449 -55.957 32.9102 -55.3711 L 54.834 -33.3984 C 55.8105 -32.4707 56.8359 -32.1289 57.7148 -32.1289 Z M 48.3398 -35.0586 L 30.8105 -52.5391 C 30.5176 -52.0508 30.3223 -50.8301 30.3223 -49.1211 L 30.3223 -21.3379 C 30.3223 -19.5312 30.5176 -18.3105 30.957 -17.6758 Z M 66.8457 -35.0586 L 84.2285 -17.6758 C 84.668 -18.3105 84.8633 -19.5312 84.8633 -21.3379 L 84.8633 -49.1211 C 84.8633 -50.8301 84.668 -52.0508 84.375 -52.5391 Z M 57.666 -28.8574 C 55.957 -28.8574 54.541 -29.4922 52.832 -31.1035 L 50.9766 -32.8125 L 33.1055 -14.9414 C 33.7402 -14.3066 35.1074 -14.0137 37.207 -14.0137 L 78.1738 -14.0137 C 80.2734 -14.0137 81.6406 -14.3066 82.2266 -14.9414 L 64.3555 -32.8125 L 62.5488 -31.1035 C 60.8398 -29.4922 59.4238 -28.8574 57.666 -28.8574 Z"/>
  </g>
  <g id="Thin-M" transform="matrix(1 0 0 1 799.806 1126)">
   <path d="M 56.6406 12.7441 C 82.9102 12.7441 104.492 -8.83789 104.492 -35.1562 C 104.492 -61.4746 82.9102 -83.0566 56.5918 -83.0566 C 30.3223 -83.0566 8.74023 -61.4746 8.74023 -35.1562 C 8.74023 -8.83789 30.3223 12.7441 56.6406 12.7441 Z M 56.6406 8.98438 C 32.2266 8.98438 12.4512 -10.791 12.4512 -35.1562 C 12.4512 -59.5215 32.2266 -79.2969 56.5918 -79.2969 C 81.0059 -79.2969 100.781 -59.5215 100.781 -35.1562 C 100.781 -10.791 81.0059 8.98438 56.6406 8.98438 Z M 56.6406 -31.543 C 57.6172 -31.543 58.7891 -32.0312 59.668 -32.9102 L 82.1289 -55.3223 C 81.4941 -56.0547 79.9316 -56.5918 77.6367 -56.5918 L 35.6934 -56.5918 C 33.3984 -56.5918 31.7871 -56.0547 31.2012 -55.3223 L 53.6133 -32.9102 C 54.541 -31.9824 55.7129 -31.543 56.6406 -31.543 Z M 47.7051 -34.9121 L 29.4434 -53.125 C 29.1016 -52.5391 28.8574 -51.3672 28.8574 -49.6094 L 28.8574 -20.8008 C 28.8574 -18.9453 29.1504 -17.6758 29.6875 -16.9434 Z M 65.2832 -34.9121 L 83.3008 -16.9434 C 83.8379 -17.6758 84.1309 -18.9453 84.1309 -20.8008 L 84.1309 -49.6094 C 84.1309 -51.3672 83.8867 -52.5391 83.5449 -53.125 Z M 56.6406 -29.0527 C 54.9805 -29.0527 53.4668 -29.7363 52.0508 -31.1035 L 49.8535 -33.1543 L 31.4941 -14.7949 C 32.1777 -14.1113 33.4961 -13.8184 35.6934 -13.8184 L 77.6367 -13.8184 C 79.834 -13.8184 81.1523 -14.1113 81.7871 -14.7949 L 63.4766 -33.1543 L 61.2305 -31.1035 C 59.8145 -29.7363 58.3008 -29.0527 56.6406 -29.0527 Z"/>
  </g>
  <g id="Ultralight-M" transform="matrix(1 0 0 1 503.656 1126)">
   <path d="M 56.0547 12.207 C 82.0801 12.207 103.369 -9.08203 103.369 -35.1562 C 103.369 -61.1816 82.0801 -82.4707 56.0547 -82.4707 C 30.0293 -82.4707 8.74023 -61.1816 8.74023 -35.1562 C 8.74023 -9.08203 30.0293 12.207 56.0547 12.207 Z M 56.0547 9.81445 C 31.2988 9.81445 11.1328 -10.3516 11.1328 -35.1562 C 11.1328 -59.9121 31.2988 -80.0781 56.0547 -80.0781 C 80.8594 -80.0781 100.977 -59.9121 100.977 -35.1562 C 100.977 -10.3516 80.8594 9.81445 56.0547 9.81445 Z M 56.1035 -31.25 C 57.1289 -31.25 58.3984 -31.7383 59.2285 -32.6172 L 81.9336 -55.3223 C 81.3477 -56.1035 79.6875 -56.6406 77.3438 -56.6406 L 34.9121 -56.6406 C 32.5195 -56.6406 30.9082 -56.1035 30.2734 -55.3223 L 52.9785 -32.6172 C 53.8574 -31.7383 55.127 -31.25 56.1035 -31.25 Z M 47.3633 -34.8145 L 28.7598 -53.418 C 28.3691 -52.7832 28.125 -51.6113 28.125 -49.8535 L 28.125 -20.5078 C 28.125 -18.6523 28.418 -17.334 29.0527 -16.6016 Z M 64.502 -34.8145 L 82.8125 -16.6016 C 83.4473 -17.334 83.7402 -18.6523 83.7402 -20.5078 L 83.7402 -49.8535 C 83.7402 -51.6113 83.4961 -52.7832 83.1055 -53.418 Z M 56.1035 -29.1504 C 54.4922 -29.1504 52.9297 -29.834 51.6602 -31.1035 L 49.2676 -33.3496 L 30.6641 -14.7461 C 31.3477 -14.0137 32.666 -13.7695 34.9121 -13.7695 L 77.3438 -13.7695 C 79.5898 -13.7695 80.9082 -14.0137 81.5918 -14.7461 L 62.9883 -33.3496 L 60.5957 -31.1035 C 59.3262 -29.834 57.7637 -29.1504 56.1035 -29.1504 Z"/>
  </g>
  <g id="Black-S" transform="matrix(1 0 0 1 2884.57 696)">
   <path d="M 48.8281 6.78711 C 71.9727 6.78711 90.8203 -12.0605 90.8203 -35.2051 C 90.8203 -58.3496 71.9727 -77.1973 48.8281 -77.1973 C 25.6836 -77.1973 6.83594 -58.3496 6.83594 -35.2051 C 6.83594 -12.0605 25.6836 6.78711 48.8281 6.78711 Z M 48.8281 -7.37305 C 33.4473 -7.37305 20.9961 -19.8242 20.9961 -35.2051 C 20.9961 -50.5859 33.4473 -63.0371 48.8281 -63.0371 C 64.209 -63.0371 76.6602 -50.5859 76.6602 -35.2051 C 76.6602 -19.8242 64.209 -7.37305 48.8281 -7.37305 Z M 48.8281 -34.668 C 49.5605 -34.668 50.1953 -35.0586 50.9766 -35.8398 L 64.4043 -49.3164 C 63.6719 -49.7559 62.5977 -50 61.1816 -50 L 36.4746 -50 C 35.0586 -50 33.9355 -49.7559 33.252 -49.3164 L 46.6797 -35.8398 C 47.4609 -35.0586 48.0957 -34.668 48.8281 -34.668 Z M 42.1875 -35.6445 L 30.8105 -46.9238 C 30.3223 -46.1914 30.0293 -45.0684 30.0293 -43.6035 L 30.0293 -26.8066 C 30.0293 -25.5371 30.2246 -24.6094 30.5664 -23.9746 Z M 55.4688 -35.6445 L 67.0898 -23.9746 C 67.4316 -24.6094 67.627 -25.5371 67.627 -26.8066 L 67.627 -43.6035 C 67.627 -45.0684 67.334 -46.1914 66.8457 -46.9238 Z M 48.8281 -30.957 C 47.4609 -30.957 46.2402 -31.4941 45.2148 -32.5195 L 44.5312 -33.2031 L 32.666 -21.3379 C 33.4473 -20.752 34.7168 -20.4102 36.377 -20.4102 L 61.2793 -20.4102 C 62.9395 -20.4102 64.209 -20.752 64.9902 -21.3379 L 53.125 -33.2031 L 52.4414 -32.5195 C 51.416 -31.4941 50.1953 -30.957 48.8281 -30.957 Z"/>
  </g>
  <g id="Heavy-S" transform="matrix(1 0 0 1 2588.47 696)">
   <path d="M 48.2422 6.15234 C 70.9961 6.15234 89.5996 -12.4512 89.5996 -35.2051 C 89.5996 -57.959 70.9961 -76.6113 48.1934 -76.6113 C 25.4395 -76.6113 6.83594 -57.959 6.83594 -35.2051 C 6.83594 -12.4512 25.4395 6.15234 48.2422 6.15234 Z M 48.2422 -6.39648 C 32.2754 -6.39648 19.4336 -19.2871 19.4336 -35.2051 C 19.4336 -51.1719 32.2754 -64.0137 48.1934 -64.0137 C 64.1602 -64.0137 77.002 -51.1719 77.0508 -35.2051 C 77.0508 -19.2871 64.1602 -6.39648 48.2422 -6.39648 Z M 48.1934 -34.375 C 48.9258 -34.375 49.5605 -34.7168 50.3418 -35.498 L 64.5508 -49.707 C 63.8672 -50.1465 62.793 -50.3906 61.3281 -50.3906 L 35.1074 -50.3906 C 33.6426 -50.3906 32.5195 -50.1465 31.8848 -49.707 L 46.0938 -35.498 C 46.875 -34.7168 47.5098 -34.375 48.1934 -34.375 Z M 41.3086 -35.5469 L 29.541 -47.2168 C 29.1016 -46.582 28.8574 -45.5078 28.8574 -44.0918 L 28.8574 -26.3184 C 28.8574 -25.0488 29.0527 -24.1211 29.3457 -23.5352 Z M 55.0781 -35.5469 L 67.041 -23.5352 C 67.334 -24.1211 67.5293 -25.0488 67.5293 -26.3184 L 67.5293 -44.0918 C 67.5293 -45.5078 67.2852 -46.582 66.8457 -47.2168 Z M 48.1934 -30.7617 C 46.8262 -30.7617 45.6543 -31.25 44.4824 -32.373 L 43.7012 -33.1543 L 31.4453 -20.8984 C 32.1289 -20.3613 33.3496 -20.0195 35.0098 -20.0195 L 61.377 -20.0195 C 63.0371 -20.0195 64.2578 -20.3613 64.9414 -20.8984 L 52.6855 -33.1543 L 51.9043 -32.373 C 50.7324 -31.25 49.5605 -30.7617 48.1934 -30.7617 Z"/>
  </g>
  <g id="Bold-S" transform="matrix(1 0 0 1 2292.44 696)">
   <path d="M 47.5586 5.46875 C 69.873 5.46875 88.2324 -12.8906 88.2324 -35.2051 C 88.2324 -57.5684 69.873 -75.9277 47.5098 -75.9277 C 25.1953 -75.9277 6.83594 -57.5684 6.83594 -35.2051 C 6.83594 -12.8906 25.1953 5.46875 47.5586 5.46875 Z M 47.5586 -5.32227 C 30.957 -5.32227 17.6758 -18.6523 17.6758 -35.2051 C 17.6758 -51.8066 30.957 -65.1367 47.5098 -65.1367 C 64.1113 -65.1367 77.4414 -51.8066 77.4414 -35.2051 C 77.4414 -18.6523 64.1113 -5.32227 47.5586 -5.32227 Z M 47.5098 -34.0332 C 48.1934 -34.0332 48.877 -34.3262 49.6094 -35.0586 L 64.6973 -50.1465 C 64.0625 -50.5859 62.9883 -50.8789 61.4746 -50.8789 L 33.5449 -50.8789 C 32.0312 -50.8789 30.9082 -50.5859 30.3223 -50.1465 L 45.4102 -35.0586 C 46.1914 -34.2773 46.8262 -34.0332 47.5098 -34.0332 Z M 40.332 -35.4492 L 28.125 -47.6074 C 27.7832 -47.0703 27.5879 -46.0449 27.5879 -44.6289 L 27.5879 -25.8301 C 27.5879 -24.5117 27.7344 -23.584 28.0273 -23.0957 Z M 54.6387 -35.4492 L 66.9922 -23.0957 C 67.2852 -23.584 67.4316 -24.5117 67.4316 -25.8301 L 67.4316 -44.6289 C 67.4316 -46.0449 67.2363 -47.0703 66.8945 -47.6074 Z M 47.5098 -30.5176 C 46.0938 -30.5176 44.9707 -31.0059 43.7012 -32.2754 L 42.7734 -33.1055 L 30.0781 -20.4102 C 30.7129 -19.9219 31.8848 -19.5801 33.4961 -19.5801 L 61.5234 -19.5801 C 63.1348 -19.5801 64.3066 -19.9219 64.8926 -20.4102 L 52.1973 -33.1055 L 51.3184 -32.2754 C 50 -31.0059 48.877 -30.5176 47.5098 -30.5176 Z"/>
  </g>
  <g id="Semibold-S" transform="matrix(1 0 0 1 1996.2 696)">
   <path d="M 47.0703 4.98047 C 69.0918 4.98047 87.3047 -13.1836 87.3047 -35.2539 C 87.3047 -57.2754 69.0918 -75.4883 47.0215 -75.4883 C 25 -75.4883 6.83594 -57.2754 6.83594 -35.2539 C 6.83594 -13.1836 25.0488 4.98047 47.0703 4.98047 Z M 47.0703 -4.58984 C 30.0781 -4.58984 16.4551 -18.2129 16.4551 -35.2539 C 16.4551 -52.2461 30.0293 -65.8691 47.0215 -65.8691 C 64.0625 -65.8691 77.6855 -52.2461 77.7344 -35.2539 C 77.7344 -18.2129 64.0625 -4.58984 47.0703 -4.58984 Z M 47.0215 -33.7891 C 47.7051 -33.7891 48.3398 -34.0332 49.1211 -34.8145 L 64.7949 -50.4883 C 64.209 -50.8789 63.1348 -51.1719 61.6211 -51.1719 L 32.4707 -51.1719 C 30.9082 -51.1719 29.834 -50.8789 29.2969 -50.4883 L 44.9707 -34.8145 C 45.752 -34.0332 46.3867 -33.7891 47.0215 -33.7891 Z M 39.6484 -35.3516 L 27.1484 -47.8516 C 26.8555 -47.3633 26.6602 -46.3867 26.6602 -45.0195 L 26.6602 -25.4883 C 26.6602 -24.1699 26.8066 -23.2422 27.0508 -22.7539 Z M 54.3457 -35.3516 L 66.9434 -22.7539 C 67.1875 -23.2422 67.334 -24.1699 67.334 -25.4883 L 67.334 -45.0195 C 67.334 -46.3867 67.1875 -47.3633 66.8945 -47.8516 Z M 47.0215 -30.3223 C 45.6055 -30.3223 44.5312 -30.8594 43.1152 -32.1289 L 42.1387 -33.0566 L 29.1504 -20.0684 C 29.6875 -19.5801 30.8105 -19.2871 32.4219 -19.2871 L 61.6211 -19.2871 C 63.1836 -19.2871 64.3555 -19.5801 64.8926 -20.0684 L 51.9043 -33.0566 L 50.9277 -32.1289 C 49.5117 -30.8594 48.3887 -30.3223 47.0215 -30.3223 Z"/>
  </g>
  <g id="Medium-S" transform="matrix(1 0 0 1 1699.83 696)">
   <path d="M 46.7285 4.63867 C 68.5547 4.63867 86.6211 -13.4277 86.6211 -35.2539 C 86.6211 -57.0312 68.5059 -75.1465 46.6797 -75.1465 C 24.8535 -75.1465 6.83594 -57.0312 6.83594 -35.2539 C 6.83594 -13.4277 24.9023 4.63867 46.7285 4.63867 Z M 46.7285 -4.00391 C 29.3945 -4.00391 15.5273 -17.9199 15.5273 -35.2539 C 15.5273 -52.5879 29.3457 -66.4551 46.6797 -66.4551 C 64.0137 -66.4551 77.8809 -52.5879 77.9297 -35.2539 C 77.9785 -17.9199 64.0625 -4.00391 46.7285 -4.00391 Z M 46.6797 -33.5938 C 47.3633 -33.5938 47.998 -33.8379 48.7305 -34.5703 L 64.8438 -50.7324 C 64.3066 -51.0742 63.2324 -51.416 61.6699 -51.416 L 31.6406 -51.416 C 30.0781 -51.416 29.0039 -51.0742 28.4668 -50.7324 L 44.5801 -34.5703 C 45.3613 -33.7891 46.0449 -33.5938 46.6797 -33.5938 Z M 39.1602 -35.3027 L 26.416 -47.998 C 26.123 -47.6074 26.0254 -46.6309 26.0254 -45.3125 L 26.0254 -25.1953 C 26.0254 -23.877 26.123 -22.9492 26.3672 -22.5098 Z M 54.1016 -35.3027 L 66.9434 -22.5098 C 67.1387 -22.9492 67.2852 -23.877 67.2852 -25.1953 L 67.2852 -45.3125 C 67.2852 -46.6309 67.1387 -47.6074 66.8945 -47.998 Z M 46.6309 -30.2246 C 45.2637 -30.2246 44.1895 -30.7129 42.6758 -32.0801 L 41.6504 -33.0566 L 28.418 -19.8242 C 28.9551 -19.3848 30.0293 -19.0918 31.6406 -19.0918 L 61.6699 -19.0918 C 63.2324 -19.0918 64.3555 -19.3848 64.8438 -19.8242 L 51.6113 -33.0566 L 50.5859 -32.0801 C 49.1211 -30.7129 48.0469 -30.2246 46.6309 -30.2246 Z"/>
  </g>
  <g id="Regular-S" transform="matrix(1 0 0 1 1403.58 696)">
   <path d="M 46.2402 4.15039 C 67.7734 4.15039 85.6934 -13.7207 85.6934 -35.2539 C 85.6934 -56.7871 67.7246 -74.6582 46.1914 -74.6582 C 24.707 -74.6582 6.83594 -56.7871 6.83594 -35.2539 C 6.83594 -13.7207 24.7559 4.15039 46.2402 4.15039 Z M 46.2402 -3.27148 C 28.5156 -3.27148 14.3555 -17.4805 14.3555 -35.2539 C 14.3555 -53.0273 28.4668 -67.2363 46.1914 -67.2363 C 63.9648 -67.2363 78.1738 -53.0273 78.2227 -35.2539 C 78.2715 -17.4805 64.0137 -3.27148 46.2402 -3.27148 Z M 46.1914 -33.3984 C 46.875 -33.3984 47.5098 -33.5938 48.2422 -34.3262 L 64.9414 -51.0254 C 64.4531 -51.3672 63.3789 -51.709 61.8164 -51.709 L 30.5664 -51.709 C 29.0039 -51.709 27.9297 -51.3672 27.4414 -51.0254 L 44.1406 -34.3262 C 44.9219 -33.5449 45.5566 -33.3984 46.1914 -33.3984 Z M 38.4766 -35.2539 L 25.4395 -48.2422 C 25.2441 -47.9004 25.1465 -46.9727 25.1465 -45.6543 L 25.1465 -24.8535 C 25.1465 -23.5352 25.2441 -22.5586 25.4395 -22.168 Z M 53.8086 -35.2539 L 66.8945 -22.168 C 67.0898 -22.5586 67.1875 -23.5352 67.1875 -24.8535 L 67.1875 -45.6543 C 67.1875 -46.9727 67.0898 -47.9004 66.8945 -48.2422 Z M 46.1914 -30.0293 C 44.7754 -30.0293 43.7012 -30.5664 42.1387 -31.9824 L 41.0156 -33.0078 L 27.4902 -19.4824 C 27.9297 -19.043 29.0039 -18.7988 30.5664 -18.7988 L 61.7676 -18.7988 C 63.3301 -18.7988 64.4043 -19.043 64.8438 -19.4824 L 51.3184 -33.0078 L 50.1953 -31.9824 C 48.6328 -30.5664 47.5586 -30.0293 46.1914 -30.0293 Z"/>
  </g>
  <g id="Light-S" transform="matrix(1 0 0 1 1107.6 696)">
   <path d="M 45.5078 3.4668 C 66.6992 3.4668 84.2285 -14.0625 84.2285 -35.2051 C 84.2285 -56.3965 66.6504 -73.9258 45.5078 -73.9258 C 24.3164 -73.9258 6.83594 -56.3965 6.83594 -35.2051 C 6.83594 -14.0625 24.3652 3.4668 45.5078 3.4668 Z M 45.5078 -2.24609 C 27.2461 -2.24609 12.5977 -16.9434 12.5977 -35.2051 C 12.5977 -53.5156 27.1973 -68.2129 45.5078 -68.2129 C 63.7695 -68.2129 78.4668 -53.5156 78.5156 -35.2051 C 78.5156 -16.9434 63.8184 -2.24609 45.5078 -2.24609 Z M 45.5078 -32.959 C 46.1914 -32.959 46.9727 -33.252 47.6562 -33.9844 L 64.6973 -51.0254 C 64.209 -51.416 63.0859 -51.8066 61.4258 -51.8066 L 29.5898 -51.8066 C 27.9297 -51.8066 26.7578 -51.416 26.2695 -51.0254 L 43.3105 -33.9844 C 44.0918 -33.2031 44.8242 -32.959 45.5078 -32.959 Z M 38.0371 -35.1562 L 24.5117 -48.6328 C 24.2676 -48.2422 24.1699 -47.3145 24.1699 -45.9961 L 24.1699 -24.5117 C 24.1699 -23.0957 24.3164 -22.168 24.6094 -21.6797 Z M 52.7832 -35.1562 L 66.2598 -21.6797 C 66.5527 -22.168 66.6992 -23.0957 66.6992 -24.5117 L 66.6992 -45.9961 C 66.6992 -47.3145 66.5527 -48.2422 66.3574 -48.6328 Z M 45.459 -30.1758 C 44.0918 -30.1758 43.0176 -30.7129 41.6016 -31.9824 L 40.2832 -33.252 L 26.416 -19.3848 C 26.9043 -18.8965 27.9297 -18.6523 29.5898 -18.6523 L 61.377 -18.6523 C 63.0371 -18.6523 64.0625 -18.8965 64.5508 -19.3848 L 50.6836 -33.252 L 49.3652 -31.9824 C 47.9492 -30.7129 46.8262 -30.1758 45.459 -30.1758 Z"/>
  </g>
  <g id="Thin-S" transform="matrix(1 0 0 1 811.867 696)">
   <path d="M 44.5801 2.53906 C 65.2832 2.53906 82.2754 -14.4531 82.2754 -35.2051 C 82.2754 -55.9082 65.2344 -72.9004 44.5312 -72.9004 C 23.8281 -72.9004 6.83594 -55.9082 6.83594 -35.2051 C 6.83594 -14.4531 23.877 2.53906 44.5801 2.53906 Z M 44.5801 -0.878906 C 25.5859 -0.878906 10.2539 -16.2109 10.2539 -35.2051 C 10.2539 -54.1504 25.5859 -69.4824 44.5312 -69.4824 C 63.5254 -69.4824 78.8574 -54.1504 78.8574 -35.2051 C 78.8574 -16.2109 63.5254 -0.878906 44.5801 -0.878906 Z M 44.5801 -32.4707 C 45.3125 -32.4707 46.2402 -32.8125 46.9238 -33.4961 L 64.4043 -50.9766 C 63.916 -51.5137 62.6953 -51.9043 60.9375 -51.9043 L 28.2227 -51.9043 C 26.4648 -51.9043 25.2441 -51.5137 24.7559 -50.9766 L 42.2363 -33.4961 C 42.9688 -32.8125 43.8477 -32.4707 44.5801 -32.4707 Z M 37.5 -35.0098 L 23.3398 -49.1211 C 23.0469 -48.6816 22.9004 -47.7539 22.9004 -46.3867 L 22.9004 -24.0234 C 22.9004 -22.6074 23.0957 -21.582 23.4863 -21.0449 Z M 51.4648 -35.0098 L 65.4297 -21.0449 C 65.8203 -21.582 66.0645 -22.6074 66.0645 -24.0234 L 66.0645 -46.3867 C 66.0645 -47.7539 65.8691 -48.6816 65.625 -49.1211 Z M 44.5801 -30.3711 C 43.2617 -30.3711 42.0898 -30.8594 40.918 -31.9824 L 39.2578 -33.5449 L 25 -19.2871 C 25.4883 -18.75 26.5137 -18.5059 28.2227 -18.5059 L 60.8887 -18.5059 C 62.5977 -18.5059 63.6719 -18.75 64.1602 -19.2871 L 49.9023 -33.5449 L 48.2422 -31.9824 C 47.0703 -30.8594 45.8984 -30.3711 44.5801 -30.3711 Z"/>
  </g>
  <g id="Ultralight-S" transform="matrix(1 0 0 1 515.644 696)">
   <path d="M 44.043 2.05078 C 64.502 2.05078 81.2988 -14.6973 81.2988 -35.1562 C 81.2988 -55.6152 64.502 -72.3633 44.043 -72.3633 C 23.584 -72.3633 6.83594 -55.6152 6.83594 -35.1562 C 6.83594 -14.6973 23.584 2.05078 44.043 2.05078 Z M 44.043 -0.146484 C 24.7559 -0.146484 9.08203 -15.8691 9.08203 -35.1562 C 9.08203 -54.4434 24.7559 -70.166 44.043 -70.166 C 63.3789 -70.166 79.0527 -54.4434 79.0527 -35.1562 C 79.0527 -15.8691 63.3789 -0.146484 44.043 -0.146484 Z M 44.0918 -32.1777 C 44.873 -32.1777 45.8496 -32.5684 46.5332 -33.252 L 64.2578 -50.9766 C 63.7695 -51.5625 62.5 -52.002 60.6445 -52.002 L 27.5391 -52.002 C 25.7324 -52.002 24.4629 -51.5625 23.9746 -50.9766 L 41.6992 -33.252 C 42.3828 -32.5684 43.3105 -32.1777 44.0918 -32.1777 Z M 37.1582 -34.9121 L 22.7051 -49.4141 C 22.4121 -48.9258 22.2168 -47.998 22.2168 -46.6309 L 22.2168 -23.7793 C 22.2168 -22.3145 22.4609 -21.2891 22.9492 -20.752 Z M 50.7324 -34.9121 L 64.9902 -20.752 C 65.4785 -21.2891 65.7227 -22.3145 65.7227 -23.7793 L 65.7227 -46.6309 C 65.7227 -47.998 65.5273 -48.9258 65.2344 -49.4141 Z M 44.0918 -30.4688 C 42.8223 -30.4688 41.6016 -31.0059 40.5762 -31.9824 L 38.7207 -33.6914 L 24.2188 -19.1895 C 24.7559 -18.6035 25.7812 -18.4082 27.5391 -18.4082 L 60.6445 -18.4082 C 62.4023 -18.4082 63.4277 -18.6035 63.9648 -19.1895 L 49.4629 -33.6914 L 47.6562 -31.9824 C 46.582 -31.0059 45.3613 -30.4688 44.0918 -30.4688 Z"/>
  </g>
 </g>
</svg>
