<?xml version="1.0" encoding="UTF-8"?>
<!--Generator: Apple Native CoreSVG 123-->
<!DOCTYPE svg
PUBLIC "-//W3C//DTD SVG 1.1//EN"
       "http://www.w3.org/Graphics/SVG/1.1/DTD/svg11.dtd">
<svg version="1.1" xmlns="http://www.w3.org/2000/svg" xmlns:xlink="http://www.w3.org/1999/xlink" width="3300" height="2200">
 <!--glyph: "uni1003FC.medium", point size: 100.000000, font version: "Version 15.0d7e11", template writer version: "5"-->
 <g id="Notes">
  <rect height="2200" id="artboard" style="fill:white;opacity:1" width="3300" x="0" y="0"/>
  <line id="" style="fill:none;stroke:black;opacity:1;stroke-width:0.5;" x1="263" x2="3036" y1="292" y2="292"/>
  <text style="stroke:none;fill:black;font-family:-apple-system,&quot;SF Pro Display&quot;,&quot;SF Pro Text&quot;,Helvetica,sans-serif;font-weight:bold;" transform="matrix(1 0 0 1 263 322)">Weight/Scale Variations</text>
  <text style="stroke:none;fill:black;font-family:-apple-system,&quot;SF Pro Display&quot;,&quot;SF Pro Text&quot;,Helvetica,sans-serif;text-anchor:middle;" transform="matrix(1 0 0 1 559.711 322)">Ultralight</text>
  <text style="stroke:none;fill:black;font-family:-apple-system,&quot;SF Pro Display&quot;,&quot;SF Pro Text&quot;,Helvetica,sans-serif;text-anchor:middle;" transform="matrix(1 0 0 1 856.422 322)">Thin</text>
  <text style="stroke:none;fill:black;font-family:-apple-system,&quot;SF Pro Display&quot;,&quot;SF Pro Text&quot;,Helvetica,sans-serif;text-anchor:middle;" transform="matrix(1 0 0 1 1153.13 322)">Light</text>
  <text style="stroke:none;fill:black;font-family:-apple-system,&quot;SF Pro Display&quot;,&quot;SF Pro Text&quot;,Helvetica,sans-serif;text-anchor:middle;" transform="matrix(1 0 0 1 1449.84 322)">Regular</text>
  <text style="stroke:none;fill:black;font-family:-apple-system,&quot;SF Pro Display&quot;,&quot;SF Pro Text&quot;,Helvetica,sans-serif;text-anchor:middle;" transform="matrix(1 0 0 1 1746.56 322)">Medium</text>
  <text style="stroke:none;fill:black;font-family:-apple-system,&quot;SF Pro Display&quot;,&quot;SF Pro Text&quot;,Helvetica,sans-serif;text-anchor:middle;" transform="matrix(1 0 0 1 2043.27 322)">Semibold</text>
  <text style="stroke:none;fill:black;font-family:-apple-system,&quot;SF Pro Display&quot;,&quot;SF Pro Text&quot;,Helvetica,sans-serif;text-anchor:middle;" transform="matrix(1 0 0 1 2339.98 322)">Bold</text>
  <text style="stroke:none;fill:black;font-family:-apple-system,&quot;SF Pro Display&quot;,&quot;SF Pro Text&quot;,Helvetica,sans-serif;text-anchor:middle;" transform="matrix(1 0 0 1 2636.69 322)">Heavy</text>
  <text style="stroke:none;fill:black;font-family:-apple-system,&quot;SF Pro Display&quot;,&quot;SF Pro Text&quot;,Helvetica,sans-serif;text-anchor:middle;" transform="matrix(1 0 0 1 2933.4 322)">Black</text>
  <line id="" style="fill:none;stroke:black;opacity:1;stroke-width:0.5;" x1="263" x2="3036" y1="1903" y2="1903"/>
  <g id="" transform="matrix(1 0 0 1 263 1933)">
   <path d="M 9.24805 0.830078 C 13.5547 0.830078 17.1387 -2.74414 17.1387 -7.05078 C 17.1387 -11.3574 13.5449 -14.9316 9.23828 -14.9316 C 4.94141 -14.9316 1.36719 -11.3574 1.36719 -7.05078 C 1.36719 -2.74414 4.95117 0.830078 9.24805 0.830078 Z M 9.24805 -0.654297 C 5.70312 -0.654297 2.87109 -3.49609 2.87109 -7.05078 C 2.87109 -10.6055 5.69336 -13.4473 9.23828 -13.4473 C 12.793 -13.4473 15.6348 -10.6055 15.6445 -7.05078 C 15.6543 -3.49609 12.8027 -0.654297 9.24805 -0.654297 Z M 9.22852 -3.42773 C 9.69727 -3.42773 9.9707 -3.74023 9.9707 -4.25781 L 9.9707 -6.31836 L 12.1973 -6.31836 C 12.6953 -6.31836 13.0371 -6.57227 13.0371 -7.04102 C 13.0371 -7.51953 12.7148 -7.7832 12.1973 -7.7832 L 9.9707 -7.7832 L 9.9707 -10.0098 C 9.9707 -10.5273 9.69727 -10.8496 9.22852 -10.8496 C 8.75977 -10.8496 8.50586 -10.5078 8.50586 -10.0098 L 8.50586 -7.7832 L 6.29883 -7.7832 C 5.78125 -7.7832 5.44922 -7.51953 5.44922 -7.04102 C 5.44922 -6.57227 5.80078 -6.31836 6.29883 -6.31836 L 8.50586 -6.31836 L 8.50586 -4.25781 C 8.50586 -3.75977 8.75977 -3.42773 9.22852 -3.42773 Z"/>
  </g>
  <g id="" transform="matrix(1 0 0 1 281.506 1933)">
   <path d="M 11.709 2.91016 C 17.1582 2.91016 21.6699 -1.60156 21.6699 -7.05078 C 21.6699 -12.4902 17.1484 -17.0117 11.6992 -17.0117 C 6.25977 -17.0117 1.74805 -12.4902 1.74805 -7.05078 C 1.74805 -1.60156 6.26953 2.91016 11.709 2.91016 Z M 11.709 1.25 C 7.09961 1.25 3.41797 -2.44141 3.41797 -7.05078 C 3.41797 -11.6504 7.08984 -15.3516 11.6992 -15.3516 C 16.3086 -15.3516 20 -11.6504 20.0098 -7.05078 C 20.0195 -2.44141 16.3184 1.25 11.709 1.25 Z M 11.6895 -2.41211 C 12.207 -2.41211 12.5195 -2.77344 12.5195 -3.33984 L 12.5195 -6.23047 L 15.5762 -6.23047 C 16.123 -6.23047 16.5039 -6.51367 16.5039 -7.03125 C 16.5039 -7.55859 16.1426 -7.86133 15.5762 -7.86133 L 12.5195 -7.86133 L 12.5195 -10.9277 C 12.5195 -11.5039 12.207 -11.8555 11.6895 -11.8555 C 11.1719 -11.8555 10.8789 -11.4844 10.8789 -10.9277 L 10.8789 -7.86133 L 7.83203 -7.86133 C 7.26562 -7.86133 6.89453 -7.55859 6.89453 -7.03125 C 6.89453 -6.51367 7.28516 -6.23047 7.83203 -6.23047 L 10.8789 -6.23047 L 10.8789 -3.33984 C 10.8789 -2.79297 11.1719 -2.41211 11.6895 -2.41211 Z"/>
  </g>
  <g id="" transform="matrix(1 0 0 1 304.924 1933)">
   <path d="M 14.9707 5.67383 C 21.9336 5.67383 27.6953 -0.078125 27.6953 -7.04102 C 27.6953 -14.0039 21.9238 -19.7559 14.9609 -19.7559 C 8.00781 -19.7559 2.25586 -14.0039 2.25586 -7.04102 C 2.25586 -0.078125 8.01758 5.67383 14.9707 5.67383 Z M 14.9707 3.85742 C 8.93555 3.85742 4.08203 -1.00586 4.08203 -7.04102 C 4.08203 -13.0762 8.92578 -17.9395 14.9609 -17.9395 C 21.0059 -17.9395 25.8594 -13.0762 25.8691 -7.04102 C 25.8789 -1.00586 21.0156 3.85742 14.9707 3.85742 Z M 14.9512 -1.06445 C 15.5176 -1.06445 15.8691 -1.45508 15.8691 -2.06055 L 15.8691 -6.13281 L 20.1074 -6.13281 C 20.6934 -6.13281 21.1133 -6.46484 21.1133 -7.02148 C 21.1133 -7.59766 20.7227 -7.93945 20.1074 -7.93945 L 15.8691 -7.93945 L 15.8691 -12.1875 C 15.8691 -12.8027 15.5176 -13.1934 14.9512 -13.1934 C 14.3848 -13.1934 14.0625 -12.7832 14.0625 -12.1875 L 14.0625 -7.93945 L 9.83398 -7.93945 C 9.21875 -7.93945 8.80859 -7.59766 8.80859 -7.02148 C 8.80859 -6.46484 9.23828 -6.13281 9.83398 -6.13281 L 14.0625 -6.13281 L 14.0625 -2.06055 C 14.0625 -1.47461 14.3848 -1.06445 14.9512 -1.06445 Z"/>
  </g>
  <text style="stroke:none;fill:black;font-family:-apple-system,&quot;SF Pro Display&quot;,&quot;SF Pro Text&quot;,Helvetica,sans-serif;font-weight:bold;" transform="matrix(1 0 0 1 263 1953)">Design Variations</text>
  <text style="stroke:none;fill:black;font-family:-apple-system,&quot;SF Pro Display&quot;,&quot;SF Pro Text&quot;,Helvetica,sans-serif;" transform="matrix(1 0 0 1 263 1971)">Symbols are supported in up to nine weights and three scales.</text>
  <text style="stroke:none;fill:black;font-family:-apple-system,&quot;SF Pro Display&quot;,&quot;SF Pro Text&quot;,Helvetica,sans-serif;" transform="matrix(1 0 0 1 263 1989)">For optimal layout with text and other symbols, vertically align</text>
  <text style="stroke:none;fill:black;font-family:-apple-system,&quot;SF Pro Display&quot;,&quot;SF Pro Text&quot;,Helvetica,sans-serif;" transform="matrix(1 0 0 1 263 2007)">symbols with the adjacent text.</text>
  <rect height="14" id="" style="fill:#00AEEF;stroke:none;opacity:0.4;" width="3" x="776" y="1919"/>
  <g id="" transform="matrix(1 0 0 1 779 1933)">
   <path d="M 10.5273 0 L 12.373 0 L 7.17773 -14.0918 L 5.43945 -14.0918 L 0.244141 0 L 2.08984 0 L 3.50586 -4.0332 L 9.11133 -4.0332 Z M 6.2793 -11.9531 L 6.33789 -11.9531 L 8.59375 -5.52734 L 4.02344 -5.52734 Z"/>
  </g>
  <rect height="14" id="" style="fill:#00AEEF;stroke:none;opacity:0.4;" width="3" x="791.617" y="1919"/>
  <text style="stroke:none;fill:black;font-family:-apple-system,&quot;SF Pro Display&quot;,&quot;SF Pro Text&quot;,Helvetica,sans-serif;font-weight:bold;" transform="matrix(1 0 0 1 776 1953)">Margins</text>
  <text style="stroke:none;fill:black;font-family:-apple-system,&quot;SF Pro Display&quot;,&quot;SF Pro Text&quot;,Helvetica,sans-serif;" transform="matrix(1 0 0 1 776 1971)">Leading and trailing margins on the left and right side of each symbol</text>
  <text style="stroke:none;fill:black;font-family:-apple-system,&quot;SF Pro Display&quot;,&quot;SF Pro Text&quot;,Helvetica,sans-serif;" transform="matrix(1 0 0 1 776 1989)">can be adjusted by modifying the width of the blue rectangles.</text>
  <text style="stroke:none;fill:black;font-family:-apple-system,&quot;SF Pro Display&quot;,&quot;SF Pro Text&quot;,Helvetica,sans-serif;" transform="matrix(1 0 0 1 776 2007)">Modifications are automatically applied proportionally to all</text>
  <text style="stroke:none;fill:black;font-family:-apple-system,&quot;SF Pro Display&quot;,&quot;SF Pro Text&quot;,Helvetica,sans-serif;" transform="matrix(1 0 0 1 776 2025)">scales and weights.</text>
  <g id="" transform="matrix(1 0 0 1 1289 1933)">
   <path d="M 2.83203 3.11523 L 4.375 4.6582 C 5.22461 5.48828 6.19141 5.41992 7.06055 4.46289 L 17.2754 -6.66016 C 17.7051 -6.36719 18.0957 -6.37695 18.5645 -6.47461 L 19.6094 -6.68945 L 20.3027 -5.99609 L 20.2539 -5.47852 C 20.1855 -4.95117 20.3516 -4.53125 20.8496 -4.0332 L 21.6602 -3.22266 C 22.168 -2.71484 22.8223 -2.68555 23.3008 -3.16406 L 26.5527 -6.41602 C 27.0312 -6.89453 27.0117 -7.54883 26.5039 -8.05664 L 25.6836 -8.87695 C 25.1855 -9.375 24.7754 -9.55078 24.2383 -9.47266 L 23.7109 -9.41406 L 23.0566 -10.0781 L 23.3398 -11.2207 C 23.4863 -11.7871 23.3398 -12.2559 22.7148 -12.8613 L 20.3027 -15.2539 C 16.7578 -18.7793 12.2266 -18.6719 9.11133 -15.5371 C 8.69141 -15.1074 8.64258 -14.5215 8.91602 -14.0918 C 9.15039 -13.7207 9.62891 -13.4961 10.2734 -13.6621 C 11.7871 -14.043 13.3008 -13.9258 14.7852 -12.9199 L 14.1602 -11.3379 C 13.9258 -10.752 13.9453 -10.2734 14.1797 -9.83398 L 3.01758 0.439453 C 2.08008 1.30859 1.97266 2.25586 2.83203 3.11523 Z M 10.6738 -15.1465 C 13.3398 -17.1387 16.6504 -16.8262 19.0527 -14.4141 L 21.6797 -11.8066 C 21.9141 -11.5723 21.9434 -11.3867 21.8848 -11.0938 L 21.5039 -9.53125 L 23.0762 -7.95898 L 24.043 -8.04688 C 24.3262 -8.07617 24.4141 -8.05664 24.6387 -7.83203 L 25.2637 -7.20703 L 22.5098 -4.46289 L 21.8848 -5.07812 C 21.6602 -5.30273 21.6406 -5.40039 21.6699 -5.68359 L 21.7578 -6.64062 L 20.1953 -8.20312 L 18.5742 -7.89062 C 18.291 -7.83203 18.1445 -7.83203 17.9102 -8.07617 L 15.7324 -10.2539 C 15.5078 -10.4883 15.4785 -10.625 15.6055 -10.9473 L 16.5527 -13.2227 C 14.9512 -14.7559 12.8418 -15.6055 10.8008 -14.9512 C 10.7129 -14.9219 10.6445 -14.9414 10.6152 -14.9805 C 10.5859 -15.0293 10.5859 -15.0781 10.6738 -15.1465 Z M 4.10156 2.41211 C 3.61328 1.91406 3.78906 1.61133 4.12109 1.30859 L 15.0781 -8.80859 L 16.3086 -7.57812 L 6.15234 3.34961 C 5.84961 3.68164 5.46875 3.7793 5.06836 3.37891 Z"/>
  </g>
  <text style="stroke:none;fill:black;font-family:-apple-system,&quot;SF Pro Display&quot;,&quot;SF Pro Text&quot;,Helvetica,sans-serif;font-weight:bold;" transform="matrix(1 0 0 1 1289 1953)">Exporting</text>
  <text style="stroke:none;fill:black;font-family:-apple-system,&quot;SF Pro Display&quot;,&quot;SF Pro Text&quot;,Helvetica,sans-serif;" transform="matrix(1 0 0 1 1289 1971)">Symbols should be outlined when exporting to ensure the</text>
  <text style="stroke:none;fill:black;font-family:-apple-system,&quot;SF Pro Display&quot;,&quot;SF Pro Text&quot;,Helvetica,sans-serif;" transform="matrix(1 0 0 1 1289 1989)">design is preserved when submitting to Xcode.</text>
  <text id="template-version" style="stroke:none;fill:black;font-family:-apple-system,&quot;SF Pro Display&quot;,&quot;SF Pro Text&quot;,Helvetica,sans-serif;text-anchor:end;" transform="matrix(1 0 0 1 3036 1933)">Template v.1.0</text>
  <text style="stroke:none;fill:black;font-family:-apple-system,&quot;SF Pro Display&quot;,&quot;SF Pro Text&quot;,Helvetica,sans-serif;text-anchor:end;" transform="matrix(1 0 0 1 3036 1951)">Generated from rectangle.stack.person.crop.fill</text>
  <text style="stroke:none;fill:black;font-family:-apple-system,&quot;SF Pro Display&quot;,&quot;SF Pro Text&quot;,Helvetica,sans-serif;text-anchor:end;" transform="matrix(1 0 0 1 3036 1969)">Typeset at 100 points</text>
  <text style="stroke:none;fill:black;font-family:-apple-system,&quot;SF Pro Display&quot;,&quot;SF Pro Text&quot;,Helvetica,sans-serif;" transform="matrix(1 0 0 1 263 726)">Small</text>
  <text style="stroke:none;fill:black;font-family:-apple-system,&quot;SF Pro Display&quot;,&quot;SF Pro Text&quot;,Helvetica,sans-serif;" transform="matrix(1 0 0 1 263 1156)">Medium</text>
  <text style="stroke:none;fill:black;font-family:-apple-system,&quot;SF Pro Display&quot;,&quot;SF Pro Text&quot;,Helvetica,sans-serif;" transform="matrix(1 0 0 1 263 1586)">Large</text>
 </g>
 <g id="Guides">
  <g id="H-reference" style="fill:#27AAE1;stroke:none;" transform="matrix(1 0 0 1 339 696)">
   <path d="M 54.9316 0 L 57.666 0 L 30.5664 -70.459 L 28.0762 -70.459 L 0.976562 0 L 3.66211 0 L 12.9395 -24.4629 L 45.7031 -24.4629 Z M 29.1992 -67.0898 L 29.4434 -67.0898 L 44.8242 -26.709 L 13.8184 -26.709 Z"/>
  </g>
  <line id="Baseline-S" style="fill:none;stroke:#27AAE1;opacity:1;stroke-width:0.577;" x1="263" x2="3036" y1="696" y2="696"/>
  <line id="Capline-S" style="fill:none;stroke:#27AAE1;opacity:1;stroke-width:0.577;" x1="263" x2="3036" y1="625.541" y2="625.541"/>
  <g id="H-reference" style="fill:#27AAE1;stroke:none;" transform="matrix(1 0 0 1 339 1126)">
   <path d="M 54.9316 0 L 57.666 0 L 30.5664 -70.459 L 28.0762 -70.459 L 0.976562 0 L 3.66211 0 L 12.9395 -24.4629 L 45.7031 -24.4629 Z M 29.1992 -67.0898 L 29.4434 -67.0898 L 44.8242 -26.709 L 13.8184 -26.709 Z"/>
  </g>
  <line id="Baseline-M" style="fill:none;stroke:#27AAE1;opacity:1;stroke-width:0.577;" x1="263" x2="3036" y1="1126" y2="1126"/>
  <line id="Capline-M" style="fill:none;stroke:#27AAE1;opacity:1;stroke-width:0.577;" x1="263" x2="3036" y1="1055.54" y2="1055.54"/>
  <g id="H-reference" style="fill:#27AAE1;stroke:none;" transform="matrix(1 0 0 1 339 1556)">
   <path d="M 54.9316 0 L 57.666 0 L 30.5664 -70.459 L 28.0762 -70.459 L 0.976562 0 L 3.66211 0 L 12.9395 -24.4629 L 45.7031 -24.4629 Z M 29.1992 -67.0898 L 29.4434 -67.0898 L 44.8242 -26.709 L 13.8184 -26.709 Z"/>
  </g>
  <line id="Baseline-L" style="fill:none;stroke:#27AAE1;opacity:1;stroke-width:0.577;" x1="263" x2="3036" y1="1556" y2="1556"/>
  <line id="Capline-L" style="fill:none;stroke:#27AAE1;opacity:1;stroke-width:0.577;" x1="263" x2="3036" y1="1485.54" y2="1485.54"/>
  <rect height="119.336" id="left-margin" style="fill:#00AEEF;stroke:none;opacity:0.4;" width="12.4512" x="1385.05" y="1030.79"/>
  <rect height="119.336" id="right-margin" style="fill:#00AEEF;stroke:none;opacity:0.4;" width="12.4512" x="1502.19" y="1030.79"/>
 </g>
 <g id="Symbols">
  <g id="Black-L" transform="matrix(1 0 0 1 2846.9 1556)">
   <path d="M 45.0684 -108.984 L 128.662 -108.984 C 128.076 -115.869 123.584 -119.775 116.309 -119.775 L 57.373 -119.775 C 50.1465 -119.775 45.6543 -115.869 45.0684 -108.984 Z M 32.0801 -87.6953 L 141.211 -87.6953 C 140.43 -94.873 136.279 -99.3164 127.783 -99.3164 L 45.5078 -99.3164 C 37.0117 -99.3164 32.8613 -94.873 32.0801 -87.6953 Z M 39.9902 38.5254 L 133.057 38.5254 C 148.291 38.5254 156.934 29.8828 156.934 14.6973 L 156.934 -53.0762 C 156.934 -68.2617 148.291 -76.8555 133.057 -76.8555 L 39.9902 -76.8555 C 24.707 -76.8555 16.0645 -68.2617 16.0645 -53.0762 L 16.0645 14.6973 C 16.0645 29.8828 24.707 38.5254 39.9902 38.5254 Z M 86.5234 -10.5957 C 76.3672 -10.5957 68.6035 -19.1895 68.6035 -30.0293 C 68.6035 -40.2832 76.5137 -49.1699 86.5234 -49.1699 C 96.5332 -49.1699 104.443 -40.2832 104.443 -30.0293 C 104.443 -19.1895 96.6797 -10.5469 86.5234 -10.5957 Z M 50.293 18.8477 C 54.9316 9.7168 69.043 -0.146484 86.4746 -0.146484 C 103.906 -0.146484 118.066 9.7168 122.754 18.8477 Z"/>
  </g>
  <g id="Heavy-L" transform="matrix(1 0 0 1 2550.92 1556)">
   <path d="M 44.6289 -106.787 L 127.686 -106.787 C 127.148 -113.086 123.096 -116.65 116.406 -116.65 L 55.9082 -116.65 C 49.2188 -116.65 45.166 -113.086 44.6289 -106.787 Z M 31.5918 -86.5723 L 140.137 -86.5723 C 139.355 -93.2129 135.645 -97.2656 127.881 -97.2656 L 43.8477 -97.2656 C 36.084 -97.2656 32.373 -93.2129 31.5918 -86.5723 Z M 38.8184 37.1094 L 132.715 37.1094 C 147.314 37.1094 155.469 29.0039 155.469 14.4531 L 155.469 -53.1738 C 155.469 -67.7246 147.314 -75.8301 132.715 -75.8301 L 38.8184 -75.8301 C 24.1699 -75.8301 16.0645 -67.7246 16.0645 -53.1738 L 16.0645 14.4531 C 16.0645 29.0039 24.1699 37.1094 38.8184 37.1094 Z M 85.791 -10.1562 C 75.5371 -10.2051 67.5781 -18.8965 67.5781 -29.9805 C 67.5781 -40.4785 75.6348 -49.4141 85.791 -49.4141 C 95.9473 -49.4141 104.004 -40.4785 104.004 -29.9805 C 104.004 -18.8965 96.0449 -10.1562 85.791 -10.1562 Z M 48.7305 20.0195 C 53.6133 10.3027 67.4316 -0.146484 85.7422 -0.146484 C 104.053 -0.146484 117.969 10.3027 122.852 20.0195 Z"/>
  </g>
  <g id="Bold-L" transform="matrix(1 0 0 1 2255.04 1556)">
   <path d="M 44.1406 -104.297 L 126.562 -104.297 C 126.123 -110.01 122.559 -113.184 116.455 -113.184 L 54.248 -113.184 C 48.1445 -113.184 44.6289 -110.01 44.1406 -104.297 Z M 31.0547 -85.3027 L 138.916 -85.3027 C 138.184 -91.3086 134.912 -94.9707 127.979 -94.9707 L 41.9922 -94.9707 C 35.1074 -94.9707 31.8359 -91.3086 31.0547 -85.3027 Z M 37.5 35.498 L 132.324 35.498 C 146.24 35.498 153.809 27.9785 153.809 14.209 L 153.809 -53.2715 C 153.809 -67.0898 146.24 -74.6094 132.324 -74.6094 L 37.5 -74.6094 C 23.584 -74.6094 16.0645 -67.1387 16.0645 -53.2715 L 16.0645 14.209 C 16.0645 28.0273 23.584 35.498 37.5 35.498 Z M 84.9609 -9.7168 C 74.5605 -9.81445 66.4062 -18.6035 66.4062 -29.9805 C 66.4062 -40.7227 74.6582 -49.7559 84.9609 -49.7559 C 95.2637 -49.7559 103.467 -40.7227 103.467 -29.9805 C 103.467 -18.6035 95.3613 -9.66797 84.9609 -9.7168 Z M 46.9727 21.3379 C 52.0996 10.9375 65.5762 -0.0976562 84.9121 -0.0976562 C 104.199 -0.0976562 117.773 10.9375 122.949 21.3379 Z"/>
  </g>
  <g id="Semibold-L" transform="matrix(1 0 0 1 1958.92 1556)">
   <path d="M 43.8477 -102.539 L 125.781 -102.539 C 125.391 -107.861 122.168 -110.791 116.504 -110.791 L 53.125 -110.791 C 47.4609 -110.791 44.2383 -107.861 43.8477 -102.539 Z M 30.7129 -84.4238 L 138.135 -84.4238 C 137.354 -90.0391 134.424 -93.3594 128.076 -93.3594 L 40.7227 -93.3594 C 34.4238 -93.3594 31.4453 -90.0391 30.7129 -84.4238 Z M 36.6211 34.4238 L 132.08 34.4238 C 145.508 34.4238 152.637 27.2949 152.637 14.0137 L 152.637 -53.3691 C 152.637 -66.6992 145.508 -73.7793 132.08 -73.7793 L 36.6211 -73.7793 C 23.1445 -73.7793 16.0645 -66.748 16.0645 -53.3691 L 16.0645 14.0137 C 16.0645 27.3438 23.1445 34.4238 36.6211 34.4238 Z M 84.375 -9.42383 C 73.9258 -9.52148 65.625 -18.3594 65.625 -29.9316 C 65.5762 -40.8691 73.9746 -49.9512 84.375 -49.9512 C 94.8242 -49.9512 103.125 -40.8691 103.125 -29.9316 C 103.125 -18.3594 94.873 -9.32617 84.375 -9.42383 Z M 45.752 22.2656 C 51.0742 11.4258 64.3066 -0.0976562 84.3262 -0.0976562 C 104.297 -0.0976562 117.676 11.4258 122.998 22.2656 Z"/>
  </g>
  <g id="Medium-L" transform="matrix(1 0 0 1 1662.64 1556)">
   <path d="M 43.6035 -101.27 L 125.244 -101.27 C 124.854 -106.201 121.924 -108.984 116.553 -108.984 L 52.2461 -108.984 C 46.9238 -108.984 43.9453 -106.201 43.6035 -101.27 Z M 30.4199 -83.7891 L 137.5 -83.7891 C 136.719 -89.0625 134.033 -92.1387 128.125 -92.1387 L 39.7949 -92.1387 C 33.8867 -92.1387 31.2012 -89.0625 30.4199 -83.7891 Z M 35.9375 33.5938 L 131.885 33.5938 C 144.971 33.5938 151.758 26.8066 151.758 13.8672 L 151.758 -53.418 C 151.758 -66.3574 144.971 -73.1445 131.885 -73.1445 L 35.9375 -73.1445 C 22.8516 -73.1445 16.0645 -66.4062 16.0645 -53.418 L 16.0645 13.8672 C 16.0645 26.8555 22.8516 33.5938 35.9375 33.5938 Z M 83.9844 -9.17969 C 73.4375 -9.27734 65.0391 -18.2129 64.9902 -29.9316 C 64.9902 -40.9668 73.4863 -50.0977 83.9844 -50.0977 C 94.4336 -50.0977 102.881 -40.9668 102.881 -29.9316 C 102.881 -18.2129 94.4824 -9.08203 83.9844 -9.17969 Z M 44.8242 22.9492 C 50.293 11.7676 63.3789 -0.0976562 83.8867 -0.0976562 C 104.395 -0.0976562 117.578 11.7676 123.047 22.9492 Z"/>
  </g>
  <g id="Regular-L" transform="matrix(1 0 0 1 1366.49 1556)">
   <path d="M 43.2617 -99.5605 L 124.463 -99.5605 C 124.17 -104.102 121.533 -106.641 116.602 -106.641 L 51.123 -106.641 C 46.1914 -106.641 43.5547 -104.102 43.2617 -99.5605 Z M 30.0781 -82.9102 L 136.67 -82.9102 C 135.938 -87.7441 133.545 -90.5762 128.223 -90.5762 L 38.5254 -90.5762 C 33.2031 -90.5762 30.8105 -87.7441 30.0781 -82.9102 Z M 35.0586 32.5195 L 131.641 32.5195 C 144.238 32.5195 150.635 26.123 150.635 13.6719 L 150.635 -53.5156 C 150.635 -65.9668 144.238 -72.3145 131.641 -72.3145 L 35.0586 -72.3145 C 22.4121 -72.3145 16.0645 -66.0156 16.0645 -53.5156 L 16.0645 13.6719 C 16.0645 26.1719 22.4121 32.5195 35.0586 32.5195 Z M 83.3984 -8.88672 C 72.8027 -8.98438 64.2578 -17.9688 64.209 -29.8828 C 64.1602 -41.1133 72.8027 -50.3418 83.3984 -50.3418 C 93.9941 -50.3418 102.539 -41.1133 102.539 -29.8828 C 102.539 -17.9688 93.9941 -8.78906 83.3984 -8.88672 Z M 43.6523 23.8281 C 49.2676 12.207 62.1094 -0.0976562 83.3008 -0.0976562 C 104.492 -0.0976562 117.48 12.207 123.096 23.8281 Z"/>
  </g>
  <g id="Light-L" transform="matrix(1 0 0 1 1070.13 1556)">
   <path d="M 42.6758 -97.9004 L 123.975 -97.9004 C 123.779 -101.367 121.68 -103.516 117.969 -103.516 L 48.6816 -103.516 C 44.9707 -103.516 42.8223 -101.367 42.6758 -97.9004 Z M 30.0293 -82.373 L 135.986 -82.373 C 135.547 -86.0352 133.594 -88.3789 129.59 -88.3789 L 36.4258 -88.3789 C 32.4707 -88.3789 30.5176 -86.0352 30.0293 -82.373 Z M 34.0332 32.0801 L 131.934 32.0801 C 143.799 32.0801 149.951 25.8789 149.951 14.209 L 149.951 -53.3691 C 149.951 -65.0391 143.799 -71.2402 131.934 -71.2402 L 34.0332 -71.2402 C 22.168 -71.2402 16.0645 -65.1367 16.0645 -53.3691 L 16.0645 14.209 C 16.0645 25.9766 22.168 32.0801 34.0332 32.0801 Z M 83.0078 -8.64258 C 72.4609 -8.78906 64.0137 -17.7246 63.9648 -29.541 C 63.916 -40.7227 72.4609 -49.9023 83.0078 -49.9023 C 93.5547 -49.9023 102.1 -40.7227 102.1 -29.541 C 102.1 -17.7246 93.5547 -8.54492 83.0078 -8.64258 Z M 42.4316 25.4395 C 48.7305 12.0605 61.9629 0.244141 82.959 0.244141 C 104.004 0.244141 117.285 12.0605 123.584 25.4395 Z"/>
  </g>
  <g id="Thin-L" transform="matrix(1 0 0 1 773.878 1556)">
   <path d="M 41.8457 -95.7031 L 123.34 -95.7031 C 123.291 -97.7539 121.924 -99.4141 119.727 -99.4141 L 45.459 -99.4141 C 43.2617 -99.4141 41.8945 -97.7539 41.8457 -95.7031 Z M 29.9805 -81.6406 L 135.107 -81.6406 C 135.01 -83.7402 133.643 -85.4004 131.396 -85.4004 L 33.6914 -85.4004 C 31.4453 -85.4004 30.0781 -83.7402 29.9805 -81.6406 Z M 32.666 31.4941 L 132.373 31.4941 C 143.262 31.4941 149.023 25.5859 149.023 14.8926 L 149.023 -53.1738 C 149.023 -63.8672 143.262 -69.7754 132.373 -69.7754 L 32.666 -69.7754 C 21.7773 -69.7754 16.0645 -64.0137 16.0645 -53.1738 L 16.0645 14.8926 C 16.0645 25.7324 21.7773 31.4941 32.666 31.4941 Z M 82.5195 -8.34961 C 72.0703 -8.49609 63.6719 -17.4316 63.623 -29.1016 C 63.5254 -40.2344 72.0703 -49.3164 82.5195 -49.3164 C 93.0176 -49.3164 101.465 -40.2344 101.465 -29.1016 C 101.465 -17.4316 93.0176 -8.1543 82.5195 -8.34961 Z M 40.8691 27.5391 C 47.998 11.8164 61.7188 0.634766 82.5195 0.634766 C 103.32 0.634766 117.041 11.8164 124.219 27.5391 Z"/>
  </g>
  <g id="Ultralight-L" transform="matrix(1 0 0 1 477.411 1556)">
   <path d="M 41.4551 -94.5801 L 123.047 -94.5801 C 123.047 -95.8984 122.021 -97.3145 120.654 -97.3145 L 43.7988 -97.3145 C 42.4316 -97.3145 41.4062 -95.8984 41.4551 -94.5801 Z M 29.9805 -81.25 L 134.619 -81.25 C 134.717 -82.5684 133.643 -83.9355 132.324 -83.9355 L 32.2754 -83.9355 C 30.957 -83.9355 29.8828 -82.5684 29.9805 -81.25 Z M 31.9824 31.1523 L 132.617 31.1523 C 143.018 31.1523 148.535 25.4395 148.535 15.2344 L 148.535 -53.0762 C 148.535 -63.2812 143.018 -68.9941 132.617 -68.9941 L 31.9824 -68.9941 C 21.582 -68.9941 16.0645 -63.4766 16.0645 -53.0762 L 16.0645 15.2344 C 16.0645 25.6348 21.582 31.1523 31.9824 31.1523 Z M 82.2754 -8.1543 C 71.875 -8.34961 63.5254 -17.2363 63.4277 -28.9062 C 63.3301 -39.9902 71.875 -49.0234 82.2754 -49.0234 C 92.7246 -49.0234 101.172 -39.9902 101.172 -28.9062 C 101.172 -17.2363 92.7246 -8.00781 82.2754 -8.1543 Z M 40.0391 28.6133 C 47.6562 11.7188 61.6211 0.878906 82.3242 0.878906 C 102.979 0.878906 116.943 11.7188 124.561 28.6133 Z"/>
  </g>
  <g id="Black-M" transform="matrix(1 0 0 1 2865.53 1126)">
   <path d="M 35.1562 -94.5312 L 100.781 -94.5312 C 100.293 -100 96.5332 -103.271 90.7715 -103.271 L 45.166 -103.271 C 39.4043 -103.271 35.6445 -100 35.1562 -94.5312 Z M 25.4883 -77.0996 L 110.498 -77.0996 C 110.01 -82.8125 106.494 -86.4746 99.6094 -86.4746 L 36.3281 -86.4746 C 29.4922 -86.4746 25.9766 -82.8125 25.4883 -77.0996 Z M 31.9824 23.584 L 103.76 23.584 C 116.016 23.584 123.291 16.3086 123.291 4.05273 L 123.291 -48.8281 C 123.291 -61.084 116.016 -68.3594 103.76 -68.3594 L 31.9824 -68.3594 C 19.7266 -68.3594 12.4512 -61.084 12.4512 -48.8281 L 12.4512 4.05273 C 12.4512 16.3086 19.7266 23.584 31.9824 23.584 Z M 67.8711 -16.5527 C 60.1562 -16.5527 54.4434 -23.0469 54.4434 -31.0547 C 54.4434 -38.6719 60.3516 -45.4102 67.8711 -45.4102 C 75.3906 -45.4102 81.2988 -38.6719 81.2988 -31.0547 C 81.2988 -23.0469 75.5859 -16.5527 67.8711 -16.5527 Z M 40.4297 5.95703 C 44.0918 -1.31836 55.6152 -7.91016 67.8711 -7.91016 C 80.0781 -7.91016 91.6016 -1.31836 95.3125 5.95703 Z"/>
  </g>
  <g id="Heavy-M" transform="matrix(1 0 0 1 2569.55 1126)">
   <path d="M 34.8633 -92.5293 L 99.8535 -92.5293 C 99.3652 -97.7051 95.9473 -100.684 90.4785 -100.684 L 44.1895 -100.684 C 38.7207 -100.684 35.3027 -97.7051 34.8633 -92.5293 Z M 24.9512 -76.0254 L 109.521 -76.0254 C 108.984 -81.3965 105.811 -84.8145 99.3652 -84.8145 L 35.1074 -84.8145 C 28.7109 -84.8145 25.4883 -81.3965 24.9512 -76.0254 Z M 31.0059 22.168 L 103.271 22.168 C 115.039 22.168 121.826 15.3809 121.826 3.66211 L 121.826 -48.9746 C 121.826 -60.7422 115.039 -67.4805 103.271 -67.4805 L 31.0059 -67.4805 C 19.1895 -67.4805 12.4512 -60.7422 12.4512 -48.9746 L 12.4512 3.66211 C 12.4512 15.3809 19.1895 22.168 31.0059 22.168 Z M 67.1387 -16.1621 C 59.3262 -16.1621 53.3691 -22.8027 53.3691 -31.1035 C 53.3691 -38.9648 59.4727 -45.8496 67.1387 -45.8496 C 74.8535 -45.8496 80.9082 -38.9648 80.9082 -31.1035 C 80.9082 -22.8027 75 -16.1621 67.1387 -16.1621 Z M 39.0137 6.83594 C 42.7734 -0.585938 53.9062 -7.95898 67.1387 -7.95898 C 80.3711 -7.95898 91.5039 -0.585938 95.2637 6.83594 Z"/>
  </g>
  <g id="Bold-M" transform="matrix(1 0 0 1 2273.64 1126)">
   <path d="M 34.5215 -90.2832 L 98.7793 -90.2832 C 98.3887 -95.0684 95.3125 -97.8027 90.1855 -97.8027 L 43.1152 -97.8027 C 37.9883 -97.8027 34.9121 -95.0684 34.5215 -90.2832 Z M 24.4141 -74.8047 L 108.398 -74.8047 C 107.812 -79.8828 104.98 -82.959 99.1211 -82.959 L 33.6914 -82.959 C 27.832 -82.959 25 -79.8828 24.4141 -74.8047 Z M 29.8828 20.5566 L 102.783 20.5566 C 114.014 20.5566 120.215 14.3555 120.215 3.22266 L 120.215 -49.1699 C 120.215 -60.3027 114.014 -66.5039 102.783 -66.5039 L 29.8828 -66.5039 C 18.6523 -66.5039 12.4512 -60.3027 12.4512 -49.1699 L 12.4512 3.22266 C 12.4512 14.4043 18.6523 20.5566 29.8828 20.5566 Z M 66.3574 -15.7227 C 58.3496 -15.7715 52.1973 -22.5098 52.1484 -31.1523 C 52.1484 -39.3555 58.4473 -46.2891 66.3574 -46.2891 C 74.2188 -46.2891 80.5176 -39.3555 80.5176 -31.1523 C 80.5176 -22.5098 74.3164 -15.7227 66.3574 -15.7227 Z M 37.4512 7.8125 C 41.3086 0.146484 51.9043 -8.00781 66.3086 -8.00781 C 80.6641 -8.00781 91.4062 0.146484 95.2148 7.8125 Z"/>
  </g>
  <g id="Semibold-M" transform="matrix(1 0 0 1 1977.5 1126)">
   <path d="M 34.2773 -88.7207 L 98.0469 -88.7207 C 97.6562 -93.3105 94.873 -95.8008 89.9902 -95.8008 L 42.334 -95.8008 C 37.4512 -95.8008 34.668 -93.3105 34.2773 -88.7207 Z M 24.0234 -73.9746 L 107.666 -73.9746 C 106.982 -78.8086 104.443 -81.6406 98.9258 -81.6406 L 32.7148 -81.6406 C 27.1973 -81.6406 24.6582 -78.8086 24.0234 -73.9746 Z M 29.1016 19.4336 L 102.441 19.4336 C 113.281 19.4336 119.092 13.6719 119.092 2.92969 L 119.092 -49.2676 C 119.092 -60.0098 113.281 -65.8203 102.441 -65.8203 L 29.1016 -65.8203 C 18.2617 -65.8203 12.4512 -60.0586 12.4512 -49.2676 L 12.4512 2.92969 C 12.4512 13.6719 18.2617 19.4336 29.1016 19.4336 Z M 65.8203 -15.4785 C 57.7148 -15.5273 51.3672 -22.3145 51.3672 -31.2012 C 51.3184 -39.5996 57.7637 -46.6309 65.8203 -46.6309 C 73.8281 -46.6309 80.2246 -39.5996 80.2246 -31.2012 C 80.2246 -22.3145 73.877 -15.4297 65.8203 -15.4785 Z M 36.377 8.49609 C 40.2832 0.683594 50.5859 -8.05664 65.7227 -8.05664 C 80.9082 -8.05664 91.3086 0.683594 95.166 8.49609 Z"/>
  </g>
  <g id="Medium-M" transform="matrix(1 0 0 1 1681.2 1126)">
   <path d="M 34.1309 -87.5488 L 97.4609 -87.5488 C 97.1191 -91.9434 94.5312 -94.2871 89.7949 -94.2871 L 41.748 -94.2871 C 37.0605 -94.2871 34.4238 -91.9434 34.1309 -87.5488 Z M 23.7305 -73.3398 L 107.08 -73.3398 C 106.396 -77.9785 104.004 -80.6641 98.7793 -80.6641 L 31.9824 -80.6641 C 26.7578 -80.6641 24.4141 -77.9785 23.7305 -73.3398 Z M 28.5156 18.6035 L 102.148 18.6035 C 112.695 18.6035 118.262 13.1348 118.262 2.68555 L 118.262 -49.3652 C 118.262 -59.8145 112.695 -65.2832 102.148 -65.2832 L 28.5156 -65.2832 C 17.9199 -65.2832 12.4512 -59.8633 12.4512 -49.3652 L 12.4512 2.68555 C 12.4512 13.1836 17.9199 18.6035 28.5156 18.6035 Z M 65.3809 -15.2344 C 57.2266 -15.2832 50.7324 -22.168 50.7324 -31.25 C 50.7324 -39.7949 57.2754 -46.875 65.3809 -46.875 C 73.4863 -46.875 80.0293 -39.7949 80.0293 -31.25 C 80.0293 -22.168 73.5352 -15.1855 65.3809 -15.2344 Z M 35.5957 8.98438 C 39.502 1.12305 49.5605 -8.10547 65.332 -8.10547 C 81.0547 -8.10547 91.2598 1.12305 95.166 8.98438 Z"/>
  </g>
  <g id="Regular-M" transform="matrix(1 0 0 1 1385.05 1126)">
   <path d="M 33.8867 -86.0352 L 96.7285 -86.0352 C 96.4355 -90.1367 94.0918 -92.334 89.5996 -92.334 L 41.0156 -92.334 C 36.5234 -92.334 34.1797 -90.1367 33.8867 -86.0352 Z M 23.3398 -72.5098 L 106.299 -72.5098 C 105.566 -76.9531 103.467 -79.3945 98.584 -79.3945 L 31.0547 -79.3945 C 26.1719 -79.3945 24.0723 -76.9531 23.3398 -72.5098 Z M 27.7832 17.5293 L 101.807 17.5293 C 112.012 17.5293 117.139 12.4512 117.139 2.39258 L 117.139 -49.4629 C 117.139 -59.5215 112.012 -64.5996 101.807 -64.5996 L 27.7832 -64.5996 C 17.5293 -64.5996 12.4512 -59.5703 12.4512 -49.4629 L 12.4512 2.39258 C 12.4512 12.4512 17.5293 17.5293 27.7832 17.5293 Z M 64.8438 -14.9414 C 56.5918 -15.0391 49.9023 -21.9727 49.9023 -31.2988 C 49.9023 -40.0391 56.5918 -47.168 64.8438 -47.168 C 73.0957 -47.168 79.7363 -40.0391 79.7363 -31.2988 C 79.7363 -21.9727 73.0957 -14.8926 64.8438 -14.9414 Z M 34.5215 9.66797 C 38.4766 1.66016 48.2422 -8.1543 64.7461 -8.1543 C 81.25 -8.1543 91.1621 1.66016 95.1172 9.66797 Z"/>
  </g>
  <g id="Light-M" transform="matrix(1 0 0 1 1088.66 1126)">
   <path d="M 33.3496 -84.5215 L 96.2891 -84.5215 C 96.0938 -87.6953 94.2383 -89.5508 90.8203 -89.5508 L 38.8184 -89.5508 C 35.4004 -89.5508 33.5449 -87.6953 33.3496 -84.5215 Z M 23.291 -72.0215 L 105.713 -72.0215 C 105.225 -75.3906 103.516 -77.3926 99.8047 -77.3926 L 29.1992 -77.3926 C 25.4883 -77.3926 23.7793 -75.3906 23.291 -72.0215 Z M 26.8555 17.1387 L 102.1 17.1387 C 111.621 17.1387 116.504 12.2559 116.504 2.83203 L 116.504 -49.3652 C 116.504 -58.7402 111.621 -63.623 102.1 -63.623 L 26.8555 -63.623 C 17.2852 -63.623 12.4512 -58.7891 12.4512 -49.3652 L 12.4512 2.83203 C 12.4512 12.3047 17.2852 17.1387 26.8555 17.1387 Z M 64.502 -14.7461 C 56.2988 -14.8438 49.707 -21.7773 49.6582 -30.957 C 49.6582 -39.6973 56.2988 -46.7773 64.502 -46.7773 C 72.7051 -46.7773 79.2969 -39.6973 79.2969 -30.957 C 79.2969 -21.7773 72.7051 -14.6484 64.502 -14.7461 Z M 33.4473 11.084 C 37.9883 1.46484 48.0957 -7.91016 64.4531 -7.91016 C 80.8105 -7.91016 90.9668 1.46484 95.5566 11.084 Z"/>
  </g>
  <g id="Thin-M" transform="matrix(1 0 0 1 792.36 1126)">
   <path d="M 32.6172 -82.5684 L 95.752 -82.5684 C 95.6543 -84.4727 94.4336 -85.8398 92.4316 -85.8398 L 35.9375 -85.8398 C 33.8867 -85.8398 32.666 -84.4727 32.6172 -82.5684 Z M 23.2422 -71.3379 L 104.883 -71.3379 C 104.736 -73.291 103.564 -74.7559 101.416 -74.7559 L 26.709 -74.7559 C 24.6094 -74.7559 23.3887 -73.291 23.2422 -71.3379 Z M 25.6348 16.6016 L 102.49 16.6016 C 111.133 16.6016 115.674 11.9629 115.674 3.4668 L 115.674 -49.1699 C 115.674 -57.7148 111.133 -62.3047 102.49 -62.3047 L 25.6348 -62.3047 C 16.9922 -62.3047 12.4512 -57.8125 12.4512 -49.1699 L 12.4512 3.4668 C 12.4512 12.0605 16.9922 16.6016 25.6348 16.6016 Z M 64.0625 -14.4531 C 55.957 -14.5508 49.4141 -21.4844 49.3652 -30.5664 C 49.3164 -39.209 55.957 -46.2891 64.0625 -46.2891 C 72.2168 -46.2891 78.7598 -39.209 78.7598 -30.5664 C 78.7598 -21.4844 72.2168 -14.3555 64.0625 -14.4531 Z M 31.9824 12.9883 C 37.3535 1.26953 47.9004 -7.51953 64.0625 -7.51953 C 80.2246 -7.51953 90.7715 1.26953 96.1426 12.9883 Z"/>
  </g>
  <g id="Ultralight-M" transform="matrix(1 0 0 1 495.868 1126)">
   <path d="M 32.2266 -81.543 L 95.459 -81.543 C 95.459 -82.8125 94.5312 -83.9844 93.2129 -83.9844 L 34.4727 -83.9844 C 33.1543 -83.9844 32.2266 -82.8125 32.2266 -81.543 Z M 23.2422 -70.9961 L 104.492 -70.9961 C 104.492 -72.2656 103.564 -73.4375 102.246 -73.4375 L 25.4395 -73.4375 C 24.1211 -73.4375 23.1934 -72.2656 23.2422 -70.9961 Z M 25 16.3086 L 102.734 16.3086 C 110.889 16.3086 115.234 11.8652 115.234 3.75977 L 115.234 -49.0723 C 115.234 -57.1777 110.889 -61.6211 102.734 -61.6211 L 25 -61.6211 C 16.7969 -61.6211 12.4512 -57.2754 12.4512 -49.0723 L 12.4512 3.75977 C 12.4512 11.9629 16.7969 16.3086 25 16.3086 Z M 63.8672 -14.3066 C 55.7617 -14.4531 49.2676 -21.3379 49.2188 -30.3711 C 49.1699 -38.9648 55.7617 -46.0449 63.8672 -46.0449 C 71.9727 -46.0449 78.5156 -38.9648 78.5156 -30.3711 C 78.5156 -21.3379 71.9727 -14.1602 63.8672 -14.3066 Z M 31.2988 13.916 C 37.0605 1.17188 47.8027 -7.32422 63.8672 -7.32422 C 79.9316 -7.32422 90.6738 1.17188 96.4355 13.916 Z"/>
  </g>
  <g id="Black-S" transform="matrix(1 0 0 1 2880.28 696)">
   <path d="M 27.5391 -81.543 L 78.9062 -81.543 C 78.5156 -85.8398 75.5859 -88.3789 71.0938 -88.3789 L 35.3516 -88.3789 C 30.8594 -88.3789 27.9297 -85.8398 27.5391 -81.543 Z M 19.9219 -67.9688 L 86.5234 -67.9688 C 86.1328 -72.4121 83.3984 -75.293 78.0273 -75.293 L 28.418 -75.293 C 23.0469 -75.293 20.3125 -72.4121 19.9219 -67.9688 Z M 25 10.7422 L 81.25 10.7422 C 90.8203 10.7422 96.4844 5.07812 96.4844 -4.49219 L 96.4844 -45.8984 C 96.4844 -55.4688 90.8203 -61.1328 81.25 -61.1328 L 25 -61.1328 C 15.4297 -61.1328 9.76562 -55.4688 9.76562 -45.8984 L 9.76562 -4.49219 C 9.76562 5.07812 15.4297 10.7422 25 10.7422 Z M 53.125 -20.5566 C 47.0703 -20.5566 42.5781 -25.6836 42.5781 -31.9824 C 42.5781 -37.9395 47.2168 -43.2617 53.125 -43.2617 C 59.0332 -43.2617 63.6719 -37.9395 63.6719 -31.9824 C 63.6719 -25.6836 59.1797 -20.5566 53.125 -20.5566 Z M 31.5918 -2.92969 C 34.4727 -8.59375 43.457 -13.8184 53.125 -13.8184 C 62.793 -13.8184 71.7773 -8.59375 74.6582 -2.92969 Z"/>
  </g>
  <g id="Heavy-S" transform="matrix(1 0 0 1 2584.08 696)">
   <path d="M 27.3926 -80.1758 L 78.2227 -80.1758 C 77.8809 -84.3262 75.1465 -86.7188 70.752 -86.7188 L 34.8633 -86.7188 C 30.4688 -86.7188 27.7344 -84.3262 27.3926 -80.1758 Z M 19.5312 -67.1875 L 85.8398 -67.1875 C 85.3516 -71.5332 82.8613 -74.2188 77.6855 -74.2188 L 27.6855 -74.2188 C 22.5098 -74.2188 20.0195 -71.5332 19.5312 -67.1875 Z M 24.3652 9.66797 L 80.8594 9.66797 C 90.1367 9.66797 95.459 4.39453 95.459 -4.83398 L 95.459 -46.0449 C 95.459 -55.2734 90.1367 -60.5469 80.8594 -60.5469 L 24.3652 -60.5469 C 15.0391 -60.5469 9.76562 -55.2734 9.76562 -46.0449 L 9.76562 -4.83398 C 9.76562 4.39453 15.0391 9.66797 24.3652 9.66797 Z M 52.6367 -20.3125 C 46.4844 -20.3125 41.7969 -25.5371 41.7969 -32.0312 C 41.7969 -38.2324 46.582 -43.6035 52.6367 -43.6035 C 58.6426 -43.6035 63.4277 -38.2324 63.4277 -32.0312 C 63.4277 -25.5371 58.7891 -20.2637 52.6367 -20.3125 Z M 30.6641 -2.39258 C 33.4961 -8.05664 42.1387 -13.916 52.5879 -13.916 C 63.0371 -13.916 71.7285 -8.05664 74.5605 -2.39258 Z"/>
  </g>
  <g id="Bold-S" transform="matrix(1 0 0 1 2287.95 696)">
   <path d="M 27.1973 -78.6621 L 77.4414 -78.6621 C 77.0996 -82.666 74.6094 -84.8633 70.3613 -84.8633 L 34.2773 -84.8633 C 30.0293 -84.8633 27.4902 -82.666 27.1973 -78.6621 Z M 19.0918 -66.3086 L 85.0586 -66.3086 C 84.5215 -70.5566 82.2266 -73.0469 77.3438 -73.0469 L 26.8555 -73.0469 C 21.9238 -73.0469 19.6777 -70.5566 19.0918 -66.3086 Z M 23.6328 8.49609 L 80.4199 8.49609 C 89.3555 8.49609 94.2871 3.66211 94.2871 -5.22461 L 94.2871 -46.1914 C 94.2871 -55.0781 89.3555 -59.9121 80.4199 -59.9121 L 23.6328 -59.9121 C 14.6484 -59.9121 9.76562 -55.0781 9.76562 -46.1914 L 9.76562 -5.22461 C 9.76562 3.66211 14.6484 8.49609 23.6328 8.49609 Z M 52.0508 -20.0195 C 45.8008 -20.0195 40.918 -25.3418 40.918 -32.1289 C 40.918 -38.5254 45.8496 -43.9941 52.0508 -43.9941 C 58.252 -43.9941 63.1836 -38.5254 63.1836 -32.1289 C 63.1836 -25.3418 58.3008 -19.9707 52.0508 -20.0195 Z M 29.5898 -1.85547 C 32.4219 -7.42188 40.6738 -14.0137 52.002 -14.0137 C 63.3301 -14.0137 71.6309 -7.42188 74.5117 -1.85547 Z"/>
  </g>
  <g id="Semibold-S" transform="matrix(1 0 0 1 1991.63 696)">
   <path d="M 27.0508 -77.5879 L 76.9531 -77.5879 C 76.6113 -81.4941 74.2676 -83.5449 70.0684 -83.5449 L 33.8867 -83.5449 C 29.6875 -83.5449 27.3438 -81.4941 27.0508 -77.5879 Z M 18.7988 -65.7227 L 84.5215 -65.7227 C 83.9355 -69.873 81.7871 -72.2168 77.0996 -72.2168 L 26.2695 -72.2168 C 21.5332 -72.2168 19.4336 -69.873 18.7988 -65.7227 Z M 23.0957 7.71484 L 80.127 7.71484 C 88.8672 7.71484 93.5059 3.125 93.5059 -5.51758 L 93.5059 -46.2891 C 93.5059 -54.9316 88.8672 -59.4727 80.127 -59.4727 L 23.0957 -59.4727 C 14.3555 -59.4727 9.76562 -54.9316 9.76562 -46.2891 L 9.76562 -5.51758 C 9.76562 3.125 14.3555 7.71484 23.0957 7.71484 Z M 51.6602 -19.8242 C 45.3125 -19.8242 40.2832 -25.1953 40.2832 -32.1777 C 40.2832 -38.7695 45.3613 -44.2871 51.6602 -44.2871 C 57.959 -44.2871 62.9883 -38.7695 62.9883 -32.1777 C 62.9883 -25.1953 58.0078 -19.7754 51.6602 -19.8242 Z M 28.8574 -1.46484 C 31.6895 -7.03125 39.6484 -14.0625 51.6113 -14.0625 C 63.5254 -14.0625 71.582 -7.03125 74.4141 -1.46484 Z"/>
  </g>
  <g id="Medium-S" transform="matrix(1 0 0 1 1695.24 696)">
   <path d="M 26.9531 -76.8066 L 76.5137 -76.8066 C 76.2207 -80.6152 74.0234 -82.5684 69.873 -82.5684 L 33.5938 -82.5684 C 29.4922 -82.5684 27.2461 -80.6152 26.9531 -76.8066 Z M 18.6035 -65.2832 L 84.1309 -65.2832 C 83.4961 -69.3359 81.4941 -71.582 76.9043 -71.582 L 25.8301 -71.582 C 21.2402 -71.582 19.2383 -69.3359 18.6035 -65.2832 Z M 22.7051 7.08008 L 79.9316 7.08008 C 88.4277 7.08008 92.8711 2.73438 92.8711 -5.71289 L 92.8711 -46.3379 C 92.8711 -54.7852 88.4277 -59.1797 79.9316 -59.1797 L 22.7051 -59.1797 C 14.1602 -59.1797 9.76562 -54.834 9.76562 -46.3379 L 9.76562 -5.71289 C 9.76562 2.73438 14.1602 7.08008 22.7051 7.08008 Z M 51.3672 -19.6289 C 44.9707 -19.6777 39.8438 -25.0977 39.8438 -32.2266 C 39.8438 -38.916 44.9707 -44.4824 51.3672 -44.4824 C 57.7637 -44.4824 62.8418 -38.916 62.8418 -32.2266 C 62.8418 -25.0977 57.7637 -19.6289 51.3672 -19.6289 Z M 28.2715 -1.12305 C 31.1523 -6.68945 38.8672 -14.1113 51.2695 -14.1113 C 63.7207 -14.1113 71.5332 -6.68945 74.4141 -1.12305 Z"/>
  </g>
  <g id="Regular-S" transform="matrix(1 0 0 1 1398.92 696)">
   <path d="M 26.8066 -75.7324 L 76.0254 -75.7324 C 75.7324 -79.4434 73.6328 -81.2988 69.6289 -81.2988 L 33.2031 -81.2988 C 29.1504 -81.2988 27.0996 -79.4434 26.8066 -75.7324 Z M 18.3105 -64.6484 L 83.5938 -64.6484 C 82.9102 -68.6523 81.0547 -70.8008 76.6602 -70.8008 L 25.2441 -70.8008 C 20.8496 -70.8008 18.9941 -68.6523 18.3105 -64.6484 Z M 22.2168 6.29883 L 79.6387 6.29883 C 87.9395 6.29883 92.0898 2.19727 92.0898 -6.00586 L 92.0898 -46.4844 C 92.0898 -54.6387 87.9395 -58.7402 79.6387 -58.7402 L 22.2168 -58.7402 C 13.8672 -58.7402 9.76562 -54.6875 9.76562 -46.4844 L 9.76562 -6.00586 C 9.76562 2.19727 13.8672 6.29883 22.2168 6.29883 Z M 50.9766 -19.4336 C 44.4824 -19.4824 39.209 -24.9512 39.209 -32.2754 C 39.209 -39.1602 44.4824 -44.7754 50.9766 -44.7754 C 57.4707 -44.7754 62.6953 -39.1602 62.6953 -32.2754 C 62.6953 -24.9512 57.4707 -19.3848 50.9766 -19.4336 Z M 27.5879 -0.732422 C 30.3711 -6.25 37.8906 -14.1602 50.8789 -14.1602 C 63.916 -14.1602 71.4844 -6.25 74.3164 -0.732422 Z"/>
  </g>
  <g id="Light-S" transform="matrix(1 0 0 1 1102.47 696)">
   <path d="M 26.3184 -74.4141 L 75.6348 -74.4141 C 75.4395 -77.2949 73.7793 -78.8574 70.7031 -78.8574 L 31.25 -78.8574 C 28.1738 -78.8574 26.5137 -77.2949 26.3184 -74.4141 Z M 18.2617 -64.209 L 83.0566 -64.209 C 82.5684 -67.2852 81.1035 -69.043 77.7344 -69.043 L 23.584 -69.043 C 20.2637 -69.043 18.75 -67.2852 18.2617 -64.209 Z M 21.3867 5.95703 L 79.8828 5.95703 C 87.5977 5.95703 91.5527 2.05078 91.5527 -5.56641 L 91.5527 -46.3379 C 91.5527 -53.9551 87.5977 -57.8613 79.8828 -57.8613 L 21.3867 -57.8613 C 13.6719 -57.8613 9.76562 -54.0039 9.76562 -46.3379 L 9.76562 -5.56641 C 9.76562 2.05078 13.6719 5.95703 21.3867 5.95703 Z M 50.6836 -19.2383 C 44.2383 -19.3359 39.0137 -24.7559 39.0137 -32.0312 C 39.0137 -38.8672 44.2383 -44.4336 50.6836 -44.4336 C 57.1289 -44.4336 62.3047 -38.8672 62.3047 -32.0312 C 62.3047 -24.7559 57.1289 -19.1895 50.6836 -19.2383 Z M 26.6113 0.488281 C 29.9805 -6.39648 37.7441 -13.916 50.6348 -13.916 C 63.4766 -13.916 71.3379 -6.39648 74.707 0.488281 Z"/>
  </g>
  <g id="Thin-S" transform="matrix(1 0 0 1 806.129 696)">
   <path d="M 25.6836 -72.7051 L 75.1465 -72.7051 C 75.0488 -74.4141 73.9746 -75.5859 72.1191 -75.5859 L 28.7109 -75.5859 C 26.8555 -75.5859 25.7812 -74.4141 25.6836 -72.7051 Z M 18.2617 -63.6719 L 82.3242 -63.6719 C 82.1777 -65.4785 81.1035 -66.6992 79.1504 -66.6992 L 21.3867 -66.6992 C 19.4336 -66.6992 18.4082 -65.4785 18.2617 -63.6719 Z M 20.3125 5.46875 L 80.2246 5.46875 C 87.207 5.46875 90.8203 1.80664 90.8203 -5.0293 L 90.8203 -46.1914 C 90.8203 -53.0273 87.207 -56.6895 80.2246 -56.6895 L 20.3125 -56.6895 C 13.3789 -56.6895 9.76562 -53.125 9.76562 -46.1914 L 9.76562 -5.0293 C 9.76562 1.9043 13.3789 5.46875 20.3125 5.46875 Z M 50.293 -18.9941 C 43.8965 -19.0918 38.7695 -24.5117 38.7695 -31.6895 C 38.7207 -38.4277 43.8965 -43.9941 50.293 -43.9941 C 56.6895 -43.9941 61.8164 -38.4277 61.8164 -31.6895 C 61.8164 -24.5117 56.6895 -18.9453 50.293 -18.9941 Z M 25.3418 2.14844 C 29.3945 -6.5918 37.5488 -13.5742 50.293 -13.5742 C 62.9883 -13.5742 71.1914 -6.5918 75.1953 2.14844 Z"/>
  </g>
  <g id="Ultralight-S" transform="matrix(1 0 0 1 509.613 696)">
   <path d="M 25.3906 -71.7773 L 74.8535 -71.7773 C 74.8535 -72.9492 74.0723 -73.9258 72.8516 -73.9258 L 27.3926 -73.9258 C 26.1719 -73.9258 25.3906 -72.9492 25.3906 -71.7773 Z M 18.2129 -63.3301 L 81.9824 -63.3301 C 81.9336 -64.502 81.1523 -65.5273 79.9316 -65.5273 L 20.2637 -65.5273 C 19.043 -65.5273 18.2617 -64.502 18.2129 -63.3301 Z M 19.7754 5.22461 L 80.4199 5.22461 C 86.9629 5.22461 90.4297 1.70898 90.4297 -4.73633 L 90.4297 -46.0938 C 90.4297 -52.5391 86.9629 -56.1035 80.4199 -56.1035 L 19.7754 -56.1035 C 13.2324 -56.1035 9.76562 -52.6367 9.76562 -46.0938 L 9.76562 -4.73633 C 9.76562 1.75781 13.2324 5.22461 19.7754 5.22461 Z M 50.0977 -18.8965 C 43.75 -18.9941 38.6719 -24.4141 38.623 -31.4941 C 38.5742 -38.2324 43.75 -43.75 50.0977 -43.75 C 56.4453 -43.75 61.5723 -38.2324 61.5723 -31.4941 C 61.5723 -24.4141 56.4453 -18.7988 50.0977 -18.8965 Z M 24.707 3.02734 C 29.1016 -6.68945 37.4512 -13.4277 50.0977 -13.4277 C 62.6953 -13.4277 71.0449 -6.68945 75.4883 3.02734 Z"/>
  </g>
 </g>
</svg>
